<svg width="141" height="110" viewBox="0 0 141 110" fill="none" xmlns="http://www.w3.org/2000/svg">
    <path opacity="0.6" fill-rule="evenodd" clip-rule="evenodd" d="M38.42 77.1842C44.4228 96.6738 62.5712 110.638 83.8521 110.638C108.217 110.638 128.55 92.2566 131.116 68.2439C155.629 66.3724 175 45.83 175 20.8457V15.5638H131.389V0H36.315V15.5638H0V20.8457C0 44.0299 10.5602 71.2116 38.42 77.1842Z" fill="url(#paint0_linear_4813_57985)"/>
    <g opacity="0.5">
        <path d="M95.4492 128.953H72.0703V95.5247C84.8596 99.1154 86.7227 97.9748 95.4492 95.5247V128.953Z" fill="#F0BF4B"/>
        <path d="M51.5879 64.4023C32.2502 64.4023 16 48.6717 16 29.334V25.4375H51.5879V33.2305H24.067C25.9695 46.4305 37.8741 56.6094 51.5879 56.6094V64.4023Z" fill="#F0BF4B"/>
        <path d="M115.932 64.4023V56.6094C129.645 56.6094 141.03 46.4305 142.933 33.2305H115.932V25.4375H151V29.334C151 48.6717 135.269 64.4023 115.932 64.4023Z" fill="#F0BF4B"/>
        <path d="M83.7598 95.5742C64.4836 95.5742 48.6914 80.0434 48.6914 60.5059V17.6445H118.828V60.5059C118.828 80.0408 102.997 95.5742 83.7598 95.5742Z" stroke="#F0BF4B" stroke-width="7"/>
        <path d="M96.7658 70.6086L83.7598 66.537L70.7539 70.6086L70.617 56.9862L62.7175 45.8753L75.6398 41.5296L83.7601 30.5935L91.8804 41.5296L104.803 45.8753L96.9032 56.9862L96.7658 70.6086Z" fill="#F0BF4B"/>
    </g>
    <defs>
        <linearGradient id="paint0_linear_4813_57985" x1="59.4252" y1="57.4354" x2="82.9035" y2="112.595" gradientUnits="userSpaceOnUse">
            <stop stop-color="#F08F1C"/>
            <stop offset="1" stop-color="#F08F1C" stop-opacity="0"/>
        </linearGradient>
    </defs>
</svg>
