<svg width="146" height="84" viewBox="0 0 146 84" fill="none" xmlns="http://www.w3.org/2000/svg">
    <path opacity="0.6" fill-rule="evenodd" clip-rule="evenodd" d="M38.42 77.5398C44.4229 97.0294 62.5712 110.994 83.8521 110.994C108.217 110.994 128.551 92.6122 131.116 68.5995C155.629 66.728 175 46.1856 175 21.2013V15.9194H131.389V0.355591H36.315V15.9194H3.05176e-05V21.2013C3.05176e-05 44.3855 10.5602 71.5672 38.42 77.5398Z" fill="url(#paint0_linear_4593_43831)"/>
    <g opacity="0.5">
        <path d="M51.5879 64.7578C32.2502 64.7578 16 49.0272 16 29.6895V25.793H51.5879V33.5859H24.067C25.9695 46.7859 37.8741 56.9648 51.5879 56.9648V64.7578Z" fill="#F0BF4B"/>
        <path d="M115.932 64.7578V56.9648C129.645 56.9648 141.03 46.7859 142.933 33.5859H115.932V25.793H151V29.6895C151 49.0272 135.269 64.7578 115.932 64.7578Z" fill="#F0BF4B"/>
        <path d="M83.7598 95.9297C64.4836 95.9297 48.6914 80.3988 48.6914 60.8613V18H118.828V60.8613C118.828 80.3962 102.997 95.9297 83.7598 95.9297Z" stroke="#F0BF4B" stroke-width="7"/>
        <path d="M96.7657 70.9642L83.7598 66.8926L70.7538 70.9642L70.6169 57.3418L62.7175 46.2308L75.6398 41.8852L83.76 30.9491L91.8803 41.8852L104.803 46.2308L96.9031 57.3418L96.7657 70.9642Z" fill="#F0BF4B"/>
    </g>
    <defs>
        <linearGradient id="paint0_linear_4593_43831" x1="59.4253" y1="57.791" x2="82.9035" y2="112.95" gradientUnits="userSpaceOnUse">
            <stop stop-color="#F08F1C"/>
            <stop offset="1" stop-color="#F08F1C" stop-opacity="0"/>
        </linearGradient>
    </defs>
</svg>
