<svg width="165" height="114" viewBox="0 0 165 114" fill="none" xmlns="http://www.w3.org/2000/svg">
<g opacity="0.1">
<path d="M82.5 165C128.219 165 165 128.219 165 82.5C165 36.781 128.219 0 82.5 0C36.781 0 0 36.781 0 82.5C0 128.219 36.781 165 82.5 165Z" fill="url(#paint0_linear_7295_112876)"/>
<path d="M105.187 95.5622C105.187 83.5313 97.9687 79.4063 83.5312 77.6878C73.2187 76.3125 71.1562 73.5628 71.1562 68.7498C71.1562 63.9367 74.594 60.8438 81.4687 60.8438C87.6562 60.8438 91.094 62.9063 92.8125 68.0625C93.1565 69.0938 94.1877 69.781 95.219 69.781H100.718C102.094 69.781 103.125 68.7498 103.125 67.3753V67.0313C101.75 59.4685 95.5622 53.625 87.6562 52.9378V44.6878C87.6562 43.3125 86.625 42.2813 84.9065 41.9373H79.7502C78.375 41.9373 77.3437 42.9685 76.9997 44.6878V52.5938C66.6872 53.9691 60.1565 60.8438 60.1565 69.4378C60.1565 80.7816 67.0312 85.2498 81.4687 86.9691C91.094 88.6875 94.1877 90.75 94.1877 96.2503C94.1877 101.751 89.3747 105.532 82.844 105.532C73.9059 105.532 70.8122 101.75 69.7809 96.5935C69.4377 95.219 68.4065 94.531 67.3752 94.531H61.5309C60.1565 94.531 59.1252 95.5623 59.1252 96.9375V97.2816C60.4997 105.875 66 112.062 77.3437 113.782V122.032C77.3437 123.406 78.375 124.437 80.0934 124.781H85.2497C86.625 124.781 87.6562 123.75 88.0002 122.032V113.782C98.3127 112.062 105.187 104.843 105.187 95.5622Z" fill="white"/>
<path d="M64.9689 131.656C38.1564 122.032 24.4061 92.1257 34.3754 65.6564C39.5316 51.2189 50.8754 40.2192 64.9689 35.063C66.3441 34.3757 67.0314 33.3445 67.0314 31.6252V26.813C67.0314 25.4377 66.3441 24.4064 64.9689 24.0632C64.6248 24.0632 63.9376 24.0632 63.5936 24.4064C30.9376 34.7189 13.0623 69.4382 23.3748 102.094C29.5623 121.344 44.3439 136.125 63.5936 142.313C64.9689 143 66.3441 142.313 66.6873 140.938C67.0314 140.594 67.0314 140.25 67.0314 139.563V134.75C67.0314 133.719 66.0001 132.344 64.9689 131.656ZM101.407 24.4064C100.031 23.7192 98.6561 24.4064 98.3129 25.7817C97.9689 26.1257 97.9689 26.4689 97.9689 27.157V31.9692C97.9689 33.3445 99.0001 34.7189 100.031 35.407C126.844 45.0314 140.594 74.9377 130.625 101.407C125.469 115.844 114.125 126.844 100.031 132C98.6561 132.688 97.9689 133.719 97.9689 135.438V140.25C97.9689 141.626 98.6561 142.657 100.031 143C100.375 143 101.063 143 101.407 142.657C134.063 132.344 151.938 97.6252 141.625 64.9692C135.438 45.3755 120.312 30.5939 101.407 24.4064Z" fill="white"/>
</g>
<defs>
<linearGradient id="paint0_linear_7295_112876" x1="105.327" y1="116.514" x2="53.4653" y2="23.6712" gradientUnits="userSpaceOnUse">
<stop stop-color="#1A4336"/>
<stop offset="1" stop-color="#1A4336" stop-opacity="0"/>
</linearGradient>
</defs>
</svg>
