<svg width="158" height="90" viewBox="0 0 158 90" fill="none" xmlns="http://www.w3.org/2000/svg">
<g opacity="0.1">
<path d="M17.0732 92.8464L76.8293 185.042L111.829 192.724L175 92.8464L93.9025 -31.7877L17.0732 92.8464Z" fill="url(#paint0_linear_4818_1889)"/>
<g clip-path="url(#clip0_4818_1889)">
<path d="M95.5581 7.48067C94.9247 7.4911 94.3067 7.67752 93.7731 8.01908C93.2396 8.36063 92.8116 8.84386 92.537 9.41474L44.9722 84.1632C44.8937 84.2788 44.8225 84.399 44.7588 84.5233C44.7565 84.5256 44.7543 84.5278 44.7521 84.53C44.7026 84.63 44.6581 84.7324 44.6187 84.8368C44.5367 85.0503 44.4764 85.2715 44.4386 85.497C44.4004 85.7217 44.3848 85.9496 44.392 86.1773C44.3919 86.1795 44.3919 86.1818 44.392 86.184C44.3954 86.2955 44.4043 86.4068 44.4186 86.5174C44.4229 86.5397 44.4273 86.5619 44.432 86.5841C44.4593 86.7536 44.4995 86.9208 44.552 87.0843C44.5605 87.1156 44.5694 87.1467 44.5787 87.1777C44.5787 87.1799 44.5787 87.1821 44.5787 87.1844C44.6157 87.2909 44.658 87.3955 44.7054 87.4978C44.7054 87.5 44.7054 87.5023 44.7054 87.5045C44.7539 87.6049 44.8074 87.7028 44.8655 87.7979C44.8655 87.8001 44.8655 87.8024 44.8655 87.8046C44.9231 87.901 44.9854 87.9945 45.0522 88.0847C45.0846 88.1255 45.118 88.1655 45.1522 88.2048C45.1909 88.2548 45.2309 88.3037 45.2723 88.3515C45.3461 88.4353 45.424 88.5154 45.5057 88.5916C45.5079 88.5938 45.5102 88.596 45.5124 88.5982C45.6789 88.749 45.8598 88.8831 46.0526 88.9984C46.0548 89.0006 46.057 89.0028 46.0593 89.0051C46.077 89.0141 46.0947 89.023 46.1126 89.0317C46.1148 89.034 46.117 89.0362 46.1193 89.0384L93.4907 116.109C94.0904 116.582 94.8317 116.841 95.5958 116.843C96.36 116.846 97.1028 116.592 97.7056 116.122L145.037 89.0717C145.062 89.0587 145.086 89.0454 145.11 89.0317C145.185 88.9879 145.259 88.9411 145.33 88.8917C145.353 88.8764 145.375 88.8608 145.397 88.845C145.413 88.8318 145.428 88.8185 145.444 88.805C145.515 88.7565 145.584 88.7053 145.651 88.6516C145.655 88.6471 145.659 88.6427 145.664 88.6382C145.677 88.6272 145.691 88.6161 145.704 88.6049C145.776 88.539 145.845 88.47 145.911 88.3982C145.988 88.3152 146.062 88.2284 146.131 88.1381C146.197 88.05 146.26 87.9587 146.317 87.8646C146.32 87.8624 146.322 87.8602 146.324 87.8579C146.326 87.8513 146.329 87.8446 146.331 87.8379C146.388 87.7493 146.442 87.6581 146.491 87.5645C146.491 87.5623 146.491 87.5601 146.491 87.5578C146.529 87.4792 146.565 87.3991 146.598 87.3177C146.607 87.2934 146.616 87.2689 146.624 87.2444C146.633 87.2178 146.642 87.1911 146.651 87.1644C146.676 87.0874 146.698 87.0095 146.718 86.9309C146.72 86.9265 146.722 86.922 146.724 86.9176C146.727 86.9109 146.729 86.9043 146.731 86.8976C146.756 86.7941 146.776 86.6895 146.791 86.5841C146.805 86.4979 146.817 86.4111 146.824 86.324C146.824 86.3151 146.824 86.3062 146.824 86.2974C146.831 86.193 146.834 86.0884 146.831 85.9839C146.828 85.9171 146.824 85.8504 146.818 85.7838C146.813 85.7125 146.807 85.6413 146.798 85.5704C146.798 85.5682 146.798 85.566 146.798 85.5637C146.795 85.5526 146.793 85.5415 146.791 85.5304C146.775 85.434 146.755 85.3383 146.731 85.2436C146.731 85.2392 146.731 85.2347 146.731 85.2303C146.71 85.1449 146.685 85.0603 146.658 84.9769C146.649 84.9523 146.64 84.9278 146.631 84.9035C146.62 84.8767 146.609 84.85 146.598 84.8235C146.569 84.7468 146.538 84.6712 146.504 84.5967C146.502 84.5945 146.5 84.5923 146.498 84.59C146.495 84.5834 146.493 84.5767 146.491 84.57C146.442 84.4742 146.389 84.3807 146.331 84.2899C146.324 84.2788 146.318 84.2677 146.311 84.2566C146.306 84.2477 146.302 84.2388 146.297 84.2299L146.191 84.0698L98.6726 9.39473C98.3882 8.81334 97.9445 8.32474 97.3931 7.98586C96.8416 7.64698 96.2053 7.47178 95.5581 7.48067ZM92.1968 22.6731V63.3219L56.6299 78.5611L92.1968 22.6731ZM99.0261 22.6731L134.593 78.5611L99.0261 63.3219V22.6731ZM92.1968 70.7514V107.492L55.4628 86.5041L92.1968 70.7514ZM99.0261 70.7514L135.76 86.5041L99.0261 107.492V70.7514ZM143.443 99.7158C142.839 99.7123 142.246 99.8687 141.722 100.169L95.6115 126.519L49.5006 100.169C49.0041 99.8866 48.4445 99.7329 47.8733 99.7225C47.2358 99.71 46.6075 99.8763 46.0597 100.202C45.5118 100.529 45.0662 101.002 44.7733 101.568C44.4804 102.134 44.3519 102.771 44.4024 103.407C44.4529 104.043 44.6803 104.651 45.0589 105.165L92.637 169.736C92.9342 170.262 93.3657 170.699 93.8873 171.004C94.4089 171.309 95.0021 171.47 95.6062 171.471C96.2103 171.471 96.8038 171.312 97.3261 171.008C97.8484 170.704 98.2808 170.268 98.5793 169.742L146.164 105.165C146.54 104.658 146.768 104.057 146.823 103.429C146.878 102.801 146.758 102.169 146.476 101.605C146.194 101.041 145.762 100.566 145.226 100.232C144.691 99.8986 144.074 99.7199 143.443 99.7158ZM60.1446 114.121L92.1968 132.442V157.625L60.1446 114.121ZM131.078 114.121L99.0261 157.625V132.442L131.078 114.121Z" fill="white"/>
</g>
</g>
<defs>
<linearGradient id="paint0_linear_4818_1889" x1="122.5" y1="21" x2="0.499979" y2="80" gradientUnits="userSpaceOnUse">
<stop stop-color="#1A4336"/>
<stop offset="1" stop-color="#1A4336" stop-opacity="0"/>
</linearGradient>
<clipPath id="clip0_4818_1889">
<rect width="170.732" height="170.732" fill="white" transform="translate(0 0.651123)"/>
</clipPath>
</defs>
</svg>
