<svg width="156" height="105" viewBox="0 0 156 105" fill="none" xmlns="http://www.w3.org/2000/svg">
<path opacity="0.4" d="M137.73 0.877686H44.2703L0 79.4388L44.2703 158H137.73L182 79.4388L137.73 0.877686Z" fill="url(#paint0_linear_4929_61375)"/>
<path opacity="0.5" fill-rule="evenodd" clip-rule="evenodd" d="M118.193 40.0305C118.733 40.0305 119.26 39.9757 119.769 39.8712L138.716 73.5559C137.421 74.9474 136.628 76.8135 136.628 78.8648C136.628 81.1552 137.616 83.2147 139.189 84.6404L120.414 118.019C119.71 117.81 118.965 117.698 118.193 117.698C114.568 117.698 111.521 120.173 110.651 123.526H70.3678C69.4971 120.173 66.4502 117.698 62.8252 117.698C62.4683 117.698 62.117 117.722 61.7728 117.768L42.6505 83.7731C43.7385 82.4333 44.3904 80.7252 44.3904 78.8648C44.3904 77.2567 43.9033 75.7623 43.0685 74.5212L62.4739 40.0228C62.5903 40.0279 62.7074 40.0305 62.8252 40.0305C65.9596 40.0305 68.6618 38.1799 69.8986 35.5116H111.12C112.357 38.1799 115.059 40.0305 118.193 40.0305ZM118.193 24.446C114.568 24.446 111.521 26.9215 110.651 30.2742H70.3678C69.4972 26.9215 66.4503 24.446 62.8252 24.446C58.5216 24.446 55.0329 27.9348 55.0329 32.2383C55.0329 34.5288 56.0212 36.5885 57.5946 38.0142L38.8187 71.3935C38.115 71.1847 37.3697 71.0725 36.5982 71.0725C32.2946 71.0725 28.8059 74.5613 28.8059 78.8648C28.8059 83.1683 32.2946 86.6571 36.5982 86.6571C37.138 86.6571 37.665 86.6022 38.1739 86.4976L57.121 120.181C55.8255 121.573 55.0329 123.439 55.0329 125.49C55.0329 129.794 58.5216 133.282 62.8252 133.282C65.9597 133.282 68.6619 131.432 69.8987 128.763H111.12C112.357 131.432 115.059 133.282 118.193 133.282C122.497 133.282 125.986 129.794 125.986 125.49C125.986 123.882 125.498 122.388 124.664 121.147L144.069 86.6493C144.185 86.6544 144.302 86.6571 144.42 86.6571C148.724 86.6571 152.213 83.1683 152.213 78.8648C152.213 74.5613 148.724 71.0725 144.42 71.0725C144.063 71.0725 143.712 71.0965 143.368 71.143L124.245 37.1469C125.333 35.8071 125.986 34.0988 125.986 32.2383C125.986 27.9348 122.497 24.446 118.193 24.446ZM75.1363 82.4326L101.363 53.2914L94.078 73.6902H107.192L80.9645 105.745L89.7068 83.8896L75.1363 82.4326Z" fill="white" fill-opacity="0.33"/>
<path d="M57.2161 85.7C57.3481 85.7 57.4141 85.766 57.4141 85.898V89.489C57.4141 89.729 57.4321 89.93 57.4681 90.092C57.5101 90.248 57.5761 90.374 57.6661 90.47C57.7561 90.56 57.8761 90.626 58.0261 90.668C58.1821 90.704 58.3771 90.722 58.6111 90.722H62.2561C62.3881 90.722 62.4541 90.788 62.4541 90.92V91.802C62.4541 91.934 62.3881 92 62.2561 92H58.5571C58.1011 92 57.7141 91.958 57.3961 91.874C57.0781 91.79 56.8171 91.655 56.6131 91.469C56.4151 91.277 56.2681 91.031 56.1721 90.731C56.0821 90.425 56.0371 90.056 56.0371 89.624V85.898C56.0371 85.766 56.1061 85.7 56.2441 85.7H57.2161ZM70.0301 85.7C70.1681 85.7 70.2371 85.766 70.2371 85.898V86.753C70.2371 86.885 70.1681 86.951 70.0301 86.951H66.0971C65.8631 86.951 65.6681 86.972 65.5121 87.014C65.3621 87.05 65.2391 87.116 65.1431 87.212C65.0531 87.302 64.9901 87.428 64.9541 87.59C64.9181 87.746 64.9001 87.941 64.9001 88.175V88.265H69.9851C70.1171 88.265 70.1831 88.331 70.1831 88.463V89.174C70.1831 89.306 70.1171 89.372 69.9851 89.372H64.9001V89.525C64.9001 89.759 64.9181 89.957 64.9541 90.119C64.9901 90.275 65.0531 90.401 65.1431 90.497C65.2391 90.587 65.3621 90.653 65.5121 90.695C65.6681 90.731 65.8631 90.749 66.0971 90.749H70.0301C70.1681 90.749 70.2371 90.815 70.2371 90.947V91.802C70.2371 91.934 70.1681 92 70.0301 92H66.0701C65.6141 92 65.2271 91.958 64.9091 91.874C64.5911 91.79 64.3301 91.655 64.1261 91.469C63.9281 91.277 63.7811 91.031 63.6851 90.731C63.5951 90.425 63.5501 90.056 63.5501 89.624V88.076C63.5501 87.644 63.5951 87.278 63.6851 86.978C63.7811 86.678 63.9281 86.435 64.1261 86.249C64.3301 86.057 64.5911 85.919 64.9091 85.835C65.2271 85.745 65.6141 85.7 66.0701 85.7H70.0301ZM75.6246 85.7C75.8526 85.7 76.0446 85.748 76.2006 85.844C76.3566 85.934 76.5096 86.114 76.6596 86.384L79.6386 91.793C79.6686 91.853 79.6746 91.904 79.6566 91.946C79.6446 91.982 79.6026 92 79.5306 92H78.3876C78.2856 92 78.2166 91.961 78.1806 91.883L77.5416 90.722H73.3116L72.6906 91.883C72.6486 91.961 72.5796 92 72.4836 92H71.3136C71.2356 92 71.1876 91.982 71.1696 91.946C71.1576 91.904 71.1666 91.853 71.1966 91.793L74.1486 86.384C74.2986 86.114 74.4456 85.934 74.5896 85.844C74.7336 85.748 74.9016 85.7 75.0936 85.7H75.6246ZM73.8786 89.678H76.9746L75.5436 87.041C75.5196 86.999 75.4866 86.978 75.4446 86.978H75.3906C75.3486 86.978 75.3156 86.999 75.2916 87.041L73.8786 89.678ZM85.8631 85.7C86.5531 85.7 87.0481 85.856 87.3481 86.168C87.6481 86.48 87.7981 86.942 87.7981 87.554V88.067C87.7981 88.583 87.6931 88.991 87.4831 89.291C87.2731 89.591 86.9311 89.783 86.4571 89.867L87.9961 91.775C88.0261 91.805 88.0351 91.85 88.0231 91.91C88.0111 91.97 87.9631 92 87.8791 92H86.7181C86.6401 92 86.5861 91.991 86.5561 91.973C86.5261 91.955 86.4961 91.925 86.4661 91.883L85.0441 90.011H82.1371V91.802C82.1371 91.934 82.0711 92 81.9391 92H80.9671C80.8291 92 80.7601 91.934 80.7601 91.802V85.97C80.7601 85.79 80.8501 85.7 81.0301 85.7H85.8631ZM82.1371 88.913H85.5841C85.8901 88.913 86.1061 88.847 86.2321 88.715C86.3581 88.583 86.4211 88.382 86.4211 88.112V87.734C86.4211 87.464 86.3581 87.263 86.2321 87.131C86.1061 86.999 85.8901 86.933 85.5841 86.933H82.2541C82.1761 86.933 82.1371 86.969 82.1371 87.041V88.913ZM90.8695 85.7C91.0135 85.7 91.1335 85.706 91.2295 85.718C91.3255 85.73 91.4095 85.757 91.4815 85.799C91.5535 85.835 91.6225 85.889 91.6885 85.961C91.7545 86.027 91.8295 86.117 91.9135 86.231L95.2615 90.623C95.2855 90.665 95.3245 90.686 95.3785 90.686H95.4595C95.5075 90.686 95.5315 90.656 95.5315 90.596V85.898C95.5315 85.766 95.5975 85.7 95.7295 85.7H96.6745C96.8065 85.7 96.8725 85.766 96.8725 85.898V91.064C96.8725 91.43 96.8065 91.679 96.6745 91.811C96.5425 91.937 96.3385 92 96.0625 92H95.2885C95.1505 92 95.0335 91.994 94.9375 91.982C94.8475 91.97 94.7665 91.946 94.6945 91.91C94.6225 91.874 94.5505 91.823 94.4785 91.757C94.4125 91.685 94.3345 91.589 94.2445 91.469L90.8875 87.077C90.8515 87.035 90.8125 87.014 90.7705 87.014H90.6895C90.6415 87.014 90.6175 87.044 90.6175 87.104V91.802C90.6175 91.934 90.5515 92 90.4195 92H89.4745C89.3365 92 89.2675 91.934 89.2675 91.802V86.636C89.2675 86.27 89.3335 86.024 89.4655 85.898C89.5975 85.766 89.8015 85.7 90.0775 85.7H90.8695ZM103.582 85.7C103.714 85.7 103.828 85.709 103.924 85.727C104.02 85.745 104.104 85.781 104.176 85.835C104.248 85.883 104.311 85.952 104.365 86.042C104.425 86.126 104.485 86.24 104.545 86.384L106.417 90.704C106.441 90.758 106.483 90.785 106.543 90.785H106.651C106.711 90.785 106.753 90.758 106.777 90.704L108.649 86.384C108.709 86.24 108.766 86.126 108.82 86.042C108.88 85.952 108.946 85.883 109.018 85.835C109.09 85.781 109.171 85.745 109.261 85.727C109.357 85.709 109.471 85.7 109.603 85.7H110.566C110.878 85.7 111.088 85.772 111.196 85.916C111.304 86.054 111.358 86.294 111.358 86.636V91.802C111.358 91.934 111.289 92 111.151 92H110.233C110.101 92 110.035 91.934 110.035 91.802V87.104C110.035 87.044 110.011 87.014 109.963 87.014H109.882C109.822 87.014 109.783 87.038 109.765 87.086L107.947 91.118C107.875 91.28 107.8 91.418 107.722 91.532C107.65 91.64 107.569 91.73 107.479 91.802C107.395 91.874 107.296 91.925 107.182 91.955C107.074 91.985 106.945 92 106.795 92H106.363C106.213 92 106.081 91.985 105.967 91.955C105.859 91.925 105.76 91.874 105.67 91.802C105.586 91.73 105.505 91.64 105.427 91.532C105.355 91.418 105.283 91.28 105.211 91.118L103.393 87.086C103.375 87.038 103.336 87.014 103.276 87.014H103.195C103.147 87.014 103.123 87.044 103.123 87.104V91.802C103.123 91.934 103.057 92 102.925 92H102.007C101.869 92 101.8 91.934 101.8 91.802V86.636C101.8 86.294 101.854 86.054 101.962 85.916C102.07 85.772 102.283 85.7 102.601 85.7H103.582ZM118.138 85.7C118.594 85.7 118.981 85.745 119.299 85.835C119.623 85.919 119.884 86.057 120.082 86.249C120.286 86.435 120.433 86.678 120.523 86.978C120.613 87.278 120.658 87.644 120.658 88.076V89.624C120.658 90.056 120.613 90.425 120.523 90.731C120.433 91.031 120.286 91.277 120.082 91.469C119.884 91.655 119.623 91.79 119.299 91.874C118.981 91.958 118.594 92 118.138 92H115.357C114.901 92 114.514 91.958 114.196 91.874C113.878 91.79 113.617 91.655 113.413 91.469C113.215 91.277 113.068 91.031 112.972 90.731C112.882 90.425 112.837 90.056 112.837 89.624V88.076C112.837 87.644 112.882 87.278 112.972 86.978C113.068 86.678 113.215 86.435 113.413 86.249C113.617 86.057 113.878 85.919 114.196 85.835C114.514 85.745 114.901 85.7 115.357 85.7H118.138ZM114.214 89.525C114.214 89.759 114.232 89.957 114.268 90.119C114.31 90.275 114.376 90.401 114.466 90.497C114.556 90.587 114.676 90.653 114.826 90.695C114.982 90.731 115.177 90.749 115.411 90.749H118.084C118.318 90.749 118.51 90.731 118.66 90.695C118.816 90.653 118.939 90.587 119.029 90.497C119.119 90.401 119.182 90.275 119.218 90.119C119.26 89.957 119.281 89.759 119.281 89.525V88.175C119.281 87.941 119.26 87.746 119.218 87.59C119.182 87.428 119.119 87.302 119.029 87.212C118.939 87.116 118.816 87.05 118.66 87.014C118.51 86.972 118.318 86.951 118.084 86.951H115.411C115.177 86.951 114.982 86.972 114.826 87.014C114.676 87.05 114.556 87.116 114.466 87.212C114.376 87.302 114.31 87.428 114.268 87.59C114.232 87.746 114.214 87.941 114.214 88.175V89.525ZM127.24 85.7C127.93 85.7 128.425 85.856 128.725 86.168C129.025 86.48 129.175 86.942 129.175 87.554V88.067C129.175 88.583 129.07 88.991 128.86 89.291C128.65 89.591 128.308 89.783 127.834 89.867L129.373 91.775C129.403 91.805 129.412 91.85 129.4 91.91C129.388 91.97 129.34 92 129.256 92H128.095C128.017 92 127.963 91.991 127.933 91.973C127.903 91.955 127.873 91.925 127.843 91.883L126.421 90.011H123.514V91.802C123.514 91.934 123.448 92 123.316 92H122.344C122.206 92 122.137 91.934 122.137 91.802V85.97C122.137 85.79 122.227 85.7 122.407 85.7H127.24ZM123.514 88.913H126.961C127.267 88.913 127.483 88.847 127.609 88.715C127.735 88.583 127.798 88.382 127.798 88.112V87.734C127.798 87.464 127.735 87.263 127.609 87.131C127.483 86.999 127.267 86.933 126.961 86.933H123.631C123.553 86.933 123.514 86.969 123.514 87.041V88.913ZM136.894 85.7C137.032 85.7 137.101 85.766 137.101 85.898V86.753C137.101 86.885 137.032 86.951 136.894 86.951H132.961C132.727 86.951 132.532 86.972 132.376 87.014C132.226 87.05 132.103 87.116 132.007 87.212C131.917 87.302 131.854 87.428 131.818 87.59C131.782 87.746 131.764 87.941 131.764 88.175V88.265H136.849C136.981 88.265 137.047 88.331 137.047 88.463V89.174C137.047 89.306 136.981 89.372 136.849 89.372H131.764V89.525C131.764 89.759 131.782 89.957 131.818 90.119C131.854 90.275 131.917 90.401 132.007 90.497C132.103 90.587 132.226 90.653 132.376 90.695C132.532 90.731 132.727 90.749 132.961 90.749H136.894C137.032 90.749 137.101 90.815 137.101 90.947V91.802C137.101 91.934 137.032 92 136.894 92H132.934C132.478 92 132.091 91.958 131.773 91.874C131.455 91.79 131.194 91.655 130.99 91.469C130.792 91.277 130.645 91.031 130.549 90.731C130.459 90.425 130.414 90.056 130.414 89.624V88.076C130.414 87.644 130.459 87.278 130.549 86.978C130.645 86.678 130.792 86.435 130.99 86.249C131.194 86.057 131.455 85.919 131.773 85.835C132.091 85.745 132.478 85.7 132.934 85.7H136.894Z" fill="white"/>
<defs>
<linearGradient id="paint0_linear_4929_61375" x1="123.2" y1="113.314" x2="44.8748" y2="17.5209" gradientUnits="userSpaceOnUse">
<stop stop-color="#4F1A77"/>
<stop offset="1" stop-color="#1A4336" stop-opacity="0"/>
</linearGradient>
</defs>
</svg>
