<svg width="324" height="131" viewBox="0 0 324 131" fill="none" xmlns="http://www.w3.org/2000/svg">
<path d="M19.0971 18.4572C19.2438 18.4572 19.3705 18.4672 19.4771 18.4872C19.5838 18.5072 19.6771 18.5472 19.7571 18.6072C19.8371 18.6605 19.9071 18.7372 19.9671 18.8372C20.0338 18.9305 20.1005 19.0572 20.1671 19.2172L22.2471 24.0172C22.2738 24.0772 22.3205 24.1072 22.3871 24.1072H22.5071C22.5738 24.1072 22.6205 24.0772 22.6471 24.0172L24.7271 19.2172C24.7938 19.0572 24.8571 18.9305 24.9171 18.8372C24.9838 18.7372 25.0571 18.6605 25.1371 18.6072C25.2171 18.5472 25.3071 18.5072 25.4071 18.4872C25.5138 18.4672 25.6405 18.4572 25.7871 18.4572H26.8571C27.2038 18.4572 27.4371 18.5372 27.5571 18.6972C27.6771 18.8505 27.7371 19.1172 27.7371 19.4972V25.2372C27.7371 25.3838 27.6605 25.4572 27.5071 25.4572H26.4871C26.3405 25.4572 26.2671 25.3838 26.2671 25.2372V20.0172C26.2671 19.9505 26.2405 19.9172 26.1871 19.9172H26.0971C26.0305 19.9172 25.9871 19.9438 25.9671 19.9972L23.9471 24.4772C23.8671 24.6572 23.7838 24.8105 23.6971 24.9372C23.6171 25.0572 23.5271 25.1572 23.4271 25.2372C23.3338 25.3172 23.2238 25.3738 23.0971 25.4072C22.9771 25.4405 22.8338 25.4572 22.6671 25.4572H22.1871C22.0205 25.4572 21.8738 25.4405 21.7471 25.4072C21.6271 25.3738 21.5171 25.3172 21.4171 25.2372C21.3238 25.1572 21.2338 25.0572 21.1471 24.9372C21.0671 24.8105 20.9871 24.6572 20.9071 24.4772L18.8871 19.9972C18.8671 19.9438 18.8238 19.9172 18.7571 19.9172H18.6671C18.6138 19.9172 18.5871 19.9505 18.5871 20.0172V25.2372C18.5871 25.3838 18.5138 25.4572 18.3671 25.4572H17.3471C17.1938 25.4572 17.1171 25.3838 17.1171 25.2372V19.4972C17.1171 19.1172 17.1771 18.8505 17.2971 18.6972C17.4171 18.5372 17.6538 18.4572 18.0071 18.4572H19.0971ZM34.5505 19.9672C34.9972 19.9672 35.3738 20.0072 35.6805 20.0872C35.9872 20.1605 36.2305 20.2805 36.4105 20.4472C36.5972 20.6072 36.7305 20.8172 36.8105 21.0772C36.8905 21.3305 36.9305 21.6372 36.9305 21.9972V23.4372C36.9305 23.7972 36.8905 24.1072 36.8105 24.3672C36.7305 24.6205 36.5972 24.8305 36.4105 24.9972C36.2305 25.1572 35.9872 25.2738 35.6805 25.3472C35.3738 25.4205 34.9972 25.4572 34.5505 25.4572H31.7205C31.2672 25.4572 30.8872 25.4205 30.5805 25.3472C30.2805 25.2738 30.0372 25.1572 29.8505 24.9972C29.6705 24.8305 29.5405 24.6205 29.4605 24.3672C29.3805 24.1072 29.3405 23.7972 29.3405 23.4372V21.9972C29.3405 21.6372 29.3805 21.3305 29.4605 21.0772C29.5405 20.8172 29.6705 20.6072 29.8505 20.4472C30.0372 20.2805 30.2805 20.1605 30.5805 20.0872C30.8872 20.0072 31.2672 19.9672 31.7205 19.9672H34.5505ZM30.7705 23.1872C30.7705 23.4005 30.7872 23.5772 30.8205 23.7172C30.8538 23.8572 30.9105 23.9705 30.9905 24.0572C31.0772 24.1372 31.1905 24.1972 31.3305 24.2372C31.4705 24.2705 31.6472 24.2872 31.8605 24.2872H34.4105C34.6305 24.2872 34.8105 24.2705 34.9505 24.2372C35.0905 24.1972 35.2005 24.1372 35.2805 24.0572C35.3672 23.9705 35.4272 23.8572 35.4605 23.7172C35.4938 23.5772 35.5105 23.4005 35.5105 23.1872V22.2372C35.5105 22.0305 35.4938 21.8572 35.4605 21.7172C35.4272 21.5772 35.3672 21.4638 35.2805 21.3772C35.2005 21.2905 35.0905 21.2305 34.9505 21.1972C34.8105 21.1638 34.6305 21.1472 34.4105 21.1472H31.8605C31.6472 21.1472 31.4705 21.1638 31.3305 21.1972C31.1905 21.2305 31.0772 21.2905 30.9905 21.3772C30.9105 21.4638 30.8538 21.5772 30.8205 21.7172C30.7872 21.8572 30.7705 22.0305 30.7705 22.2372V23.1872ZM43.7321 19.9672C44.1788 19.9672 44.5555 20.0072 44.8621 20.0872C45.1688 20.1605 45.4121 20.2805 45.5921 20.4472C45.7788 20.6072 45.9121 20.8172 45.9921 21.0772C46.0721 21.3305 46.1121 21.6372 46.1121 21.9972V25.2372C46.1121 25.3838 46.0388 25.4572 45.8921 25.4572H44.9121C44.7655 25.4572 44.6921 25.3838 44.6921 25.2372V22.3372C44.6921 22.1305 44.6788 21.9572 44.6521 21.8172C44.6255 21.6705 44.5721 21.5572 44.4921 21.4772C44.4188 21.3905 44.3155 21.3305 44.1821 21.2972C44.0488 21.2572 43.8755 21.2372 43.6621 21.2372H41.0021C40.7888 21.2372 40.6121 21.2572 40.4721 21.2972C40.3321 21.3305 40.2188 21.3905 40.1321 21.4772C40.0521 21.5572 39.9955 21.6705 39.9621 21.8172C39.9288 21.9572 39.9121 22.1305 39.9121 22.3372V25.2372C39.9121 25.3838 39.8388 25.4572 39.6921 25.4572H38.7121C38.5588 25.4572 38.4821 25.3838 38.4821 25.2372V21.9972C38.4821 21.6372 38.5221 21.3305 38.6021 21.0772C38.6821 20.8172 38.8121 20.6072 38.9921 20.4472C39.1788 20.2805 39.4221 20.1605 39.7221 20.0872C40.0288 20.0072 40.4088 19.9672 40.8621 19.9672H43.7321ZM48.42 19.9672V18.6472C48.42 18.5005 48.4934 18.4272 48.64 18.4272H49.63C49.7767 18.4272 49.85 18.5005 49.85 18.6472V19.9672H51.6C51.72 19.9672 51.78 20.0272 51.78 20.1472V20.9672C51.78 21.0872 51.72 21.1472 51.6 21.1472H49.85V23.4672C49.85 23.7472 49.9067 23.9538 50.02 24.0872C50.1334 24.2138 50.3567 24.2772 50.69 24.2772H51.66C51.78 24.2772 51.84 24.3372 51.84 24.4572V25.2772C51.84 25.3972 51.78 25.4572 51.66 25.4572H50.45C50.05 25.4572 49.72 25.4205 49.46 25.3472C49.2 25.2738 48.99 25.1572 48.83 24.9972C48.6767 24.8372 48.57 24.6305 48.51 24.3772C48.45 24.1238 48.42 23.8205 48.42 23.4672V21.1472H47.47C47.35 21.1472 47.29 21.0872 47.29 20.9672V20.1472C47.29 20.0272 47.35 19.9672 47.47 19.9672H48.42ZM54.2624 17.9572C54.409 17.9572 54.4824 18.0305 54.4824 18.1772V19.9672H58.2224C58.669 19.9672 59.0457 20.0072 59.3524 20.0872C59.659 20.1605 59.9024 20.2805 60.0824 20.4472C60.269 20.6072 60.4024 20.8172 60.4824 21.0772C60.5624 21.3305 60.6024 21.6372 60.6024 21.9972V25.2372C60.6024 25.3838 60.529 25.4572 60.3824 25.4572H59.4024C59.2557 25.4572 59.1824 25.3838 59.1824 25.2372V22.3372C59.1824 22.1305 59.169 21.9572 59.1424 21.8172C59.1157 21.6705 59.0624 21.5572 58.9824 21.4772C58.909 21.3905 58.8057 21.3305 58.6724 21.2972C58.539 21.2572 58.3657 21.2372 58.1524 21.2372H54.4824V25.2372C54.4824 25.3838 54.409 25.4572 54.2624 25.4572H53.2824C53.1357 25.4572 53.0624 25.3838 53.0624 25.2372V18.1772C53.0624 18.0305 53.1357 17.9572 53.2824 17.9572H54.2624ZM63.4514 17.9572C63.5981 17.9572 63.6714 18.0305 63.6714 18.1772V25.2372C63.6714 25.3838 63.5981 25.4572 63.4514 25.4572H62.4714C62.3248 25.4572 62.2514 25.3838 62.2514 25.2372V18.1772C62.2514 18.0305 62.3248 17.9572 62.4714 17.9572H63.4514ZM72.5667 19.9672C72.6401 19.9672 72.6867 19.9938 72.7067 20.0472C72.7334 20.0938 72.7301 20.1505 72.6967 20.2172L68.8567 26.9872C68.7234 27.2205 68.5334 27.3905 68.2867 27.4972C68.0467 27.6105 67.7101 27.6672 67.2767 27.6672H66.5767C66.4567 27.6672 66.3967 27.6072 66.3967 27.4872V26.6672C66.3967 26.5472 66.4567 26.4872 66.5767 26.4872H67.1667C67.4201 26.4872 67.5901 26.4105 67.6767 26.2572L68.2167 25.3072C68.0501 25.2938 67.9201 25.2538 67.8267 25.1872C67.7401 25.1205 67.6567 25.0172 67.5767 24.8772L64.8767 20.2172C64.8434 20.1505 64.8367 20.0938 64.8567 20.0472C64.8834 19.9938 64.9334 19.9672 65.0067 19.9672H66.1567C66.2701 19.9672 66.3501 20.0138 66.3967 20.1072L68.6167 23.9572C68.6701 24.0505 68.7101 24.1138 68.7367 24.1472C68.7701 24.1738 68.8101 24.1872 68.8567 24.1872L71.2067 20.1072C71.2534 20.0138 71.3334 19.9672 71.4467 19.9672H72.5667ZM85.2025 18.4572C85.3559 18.4572 85.4325 18.5305 85.4325 18.6772V19.6572C85.4325 19.8105 85.3559 19.8872 85.2025 19.8872H82.0625V25.2372C82.0625 25.3838 81.9892 25.4572 81.8425 25.4572H80.7525C80.6059 25.4572 80.5325 25.3838 80.5325 25.2372V19.8872H77.3925C77.2392 19.8872 77.1625 19.8105 77.1625 19.6572V18.6772C77.1625 18.5305 77.2392 18.4572 77.3925 18.4572H85.2025ZM91.6477 19.9672C91.7677 19.9672 91.8277 20.0272 91.8277 20.1472V20.9872C91.8277 21.1072 91.7677 21.1672 91.6477 21.1672H88.9877C88.7744 21.1672 88.5977 21.1872 88.4577 21.2272C88.3177 21.2605 88.2044 21.3205 88.1177 21.4072C88.0377 21.4872 87.981 21.6005 87.9477 21.7472C87.9144 21.8872 87.8977 22.0605 87.8977 22.2672V25.2372C87.8977 25.3838 87.8244 25.4572 87.6777 25.4572H86.6977C86.5444 25.4572 86.4677 25.3838 86.4677 25.2372V21.9972C86.4677 21.6372 86.5077 21.3305 86.5877 21.0772C86.6677 20.8172 86.7977 20.6072 86.9777 20.4472C87.1644 20.2805 87.4077 20.1605 87.7077 20.0872C88.0144 20.0072 88.3944 19.9672 88.8477 19.9672H91.6477ZM97.4705 19.9672C97.9172 19.9672 98.2938 20.0072 98.6005 20.0872C98.9072 20.1605 99.1505 20.2805 99.3305 20.4472C99.5172 20.6072 99.6505 20.8172 99.7305 21.0772C99.8105 21.3305 99.8505 21.6372 99.8505 21.9972V24.6572C99.8505 24.8172 99.8372 24.9505 99.8105 25.0572C99.7905 25.1572 99.7505 25.2372 99.6905 25.2972C99.6372 25.3572 99.5638 25.4005 99.4705 25.4272C99.3772 25.4472 99.2572 25.4572 99.1105 25.4572H94.3505C94.0572 25.4572 93.8105 25.4305 93.6105 25.3772C93.4172 25.3172 93.2605 25.2305 93.1405 25.1172C93.0205 25.0038 92.9338 24.8572 92.8805 24.6772C92.8338 24.4972 92.8105 24.2838 92.8105 24.0372V23.5572C92.8105 23.3505 92.8338 23.1672 92.8805 23.0072C92.9338 22.8405 93.0205 22.7005 93.1405 22.5872C93.2605 22.4738 93.4172 22.3905 93.6105 22.3372C93.8105 22.2772 94.0572 22.2472 94.3505 22.2472H98.4205V22.0572C98.4205 21.8972 98.4038 21.7605 98.3705 21.6472C98.3372 21.5338 98.2805 21.4438 98.2005 21.3772C98.1205 21.3038 98.0105 21.2505 97.8705 21.2172C97.7305 21.1838 97.5505 21.1672 97.3305 21.1672H93.1505C93.0305 21.1672 92.9705 21.1072 92.9705 20.9872V20.1472C92.9705 20.0272 93.0305 19.9672 93.1505 19.9672H97.4705ZM98.1305 24.3572C98.2372 24.3572 98.3105 24.3338 98.3505 24.2872C98.3972 24.2338 98.4205 24.1438 98.4205 24.0172V23.1372H94.7605C94.5538 23.1372 94.4072 23.1805 94.3205 23.2672C94.2405 23.3472 94.2005 23.4672 94.2005 23.6272V23.8372C94.2005 24.0172 94.2405 24.1505 94.3205 24.2372C94.4072 24.3172 94.5538 24.3572 94.7605 24.3572H98.1305ZM102.001 19.9672V19.7572C102.001 19.4038 102.031 19.1038 102.091 18.8572C102.151 18.6038 102.258 18.3972 102.411 18.2372C102.564 18.0772 102.771 17.9605 103.031 17.8872C103.291 17.8072 103.621 17.7672 104.021 17.7672H105.231C105.351 17.7672 105.411 17.8272 105.411 17.9472V18.7672C105.411 18.8872 105.351 18.9472 105.231 18.9472H104.261C103.934 18.9472 103.711 19.0138 103.591 19.1472C103.478 19.2738 103.421 19.4772 103.421 19.7572V19.9672H105.171C105.291 19.9672 105.351 20.0272 105.351 20.1472V20.9672C105.351 21.0872 105.291 21.1472 105.171 21.1472H103.421V25.2372C103.421 25.3838 103.348 25.4572 103.201 25.4572H102.221C102.074 25.4572 102.001 25.3838 102.001 25.2372V21.1472H101.041C100.921 21.1472 100.861 21.0872 100.861 20.9672V20.1472C100.861 20.0272 100.921 19.9672 101.041 19.9672H102.001ZM107.499 19.9672V19.7572C107.499 19.4038 107.529 19.1038 107.589 18.8572C107.649 18.6038 107.755 18.3972 107.909 18.2372C108.062 18.0772 108.269 17.9605 108.529 17.8872C108.789 17.8072 109.119 17.7672 109.519 17.7672H110.729C110.849 17.7672 110.909 17.8272 110.909 17.9472V18.7672C110.909 18.8872 110.849 18.9472 110.729 18.9472H109.759C109.432 18.9472 109.209 19.0138 109.089 19.1472C108.975 19.2738 108.919 19.4772 108.919 19.7572V19.9672H110.669C110.789 19.9672 110.849 20.0272 110.849 20.1472V20.9672C110.849 21.0872 110.789 21.1472 110.669 21.1472H108.919V25.2372C108.919 25.3838 108.845 25.4572 108.699 25.4572H107.719C107.572 25.4572 107.499 25.3838 107.499 25.2372V21.1472H106.539C106.419 21.1472 106.359 21.0872 106.359 20.9672V20.1472C106.359 20.0272 106.419 19.9672 106.539 19.9672H107.499ZM113.331 19.9672C113.478 19.9672 113.551 20.0438 113.551 20.1972V25.2372C113.551 25.3838 113.478 25.4572 113.331 25.4572H112.351C112.204 25.4572 112.131 25.3838 112.131 25.2372V20.1972C112.131 20.0438 112.204 19.9672 112.351 19.9672H113.331ZM113.331 17.9372C113.478 17.9372 113.551 18.0105 113.551 18.1572V19.1072C113.551 19.2605 113.478 19.3372 113.331 19.3372H112.351C112.198 19.3372 112.121 19.2605 112.121 19.1072V18.1572C112.121 18.0105 112.198 17.9372 112.351 17.9372H113.331ZM121.376 19.9672C121.496 19.9672 121.556 20.0272 121.556 20.1472V20.9872C121.556 21.1072 121.496 21.1672 121.376 21.1672H117.496C117.276 21.1672 117.096 21.1872 116.956 21.2272C116.816 21.2605 116.706 21.3205 116.626 21.4072C116.546 21.4872 116.49 21.6005 116.456 21.7472C116.423 21.8872 116.406 22.0605 116.406 22.2672V23.1572C116.406 23.3705 116.423 23.5472 116.456 23.6872C116.49 23.8272 116.546 23.9405 116.626 24.0272C116.706 24.1072 116.816 24.1672 116.956 24.2072C117.096 24.2405 117.276 24.2572 117.496 24.2572H121.376C121.496 24.2572 121.556 24.3172 121.556 24.4372V25.2772C121.556 25.3972 121.496 25.4572 121.376 25.4572H117.356C116.903 25.4572 116.523 25.4205 116.216 25.3472C115.916 25.2738 115.673 25.1572 115.486 24.9972C115.306 24.8305 115.176 24.6205 115.096 24.3672C115.016 24.1072 114.976 23.7972 114.976 23.4372V21.9972C114.976 21.6372 115.016 21.3305 115.096 21.0772C115.176 20.8172 115.306 20.6072 115.486 20.4472C115.673 20.2805 115.916 20.1605 116.216 20.0872C116.523 20.0072 116.903 19.9672 117.356 19.9672H121.376ZM127.591 18.4572C127.658 18.4572 127.705 18.4672 127.731 18.4872C127.765 18.5072 127.795 18.5405 127.821 18.5872L130.751 23.9672C130.771 24.0138 130.811 24.0372 130.871 24.0372H130.921C130.968 24.0372 131.005 24.0138 131.031 23.9672L133.921 18.5872C133.961 18.5005 134.038 18.4572 134.151 18.4572H135.461C135.541 18.4572 135.588 18.4805 135.601 18.5272C135.621 18.5672 135.615 18.6205 135.581 18.6872L132.301 24.6972C132.135 25.0038 131.971 25.2072 131.811 25.3072C131.651 25.4072 131.465 25.4572 131.251 25.4572H130.671C130.411 25.4572 130.195 25.4072 130.021 25.3072C129.855 25.2072 129.688 25.0038 129.521 24.6972L126.201 18.6872C126.168 18.6205 126.158 18.5672 126.171 18.5272C126.191 18.4805 126.245 18.4572 126.331 18.4572H127.591ZM138.007 19.9672C138.154 19.9672 138.227 20.0438 138.227 20.1972V25.2372C138.227 25.3838 138.154 25.4572 138.007 25.4572H137.027C136.881 25.4572 136.807 25.3838 136.807 25.2372V20.1972C136.807 20.0438 136.881 19.9672 137.027 19.9672H138.007ZM138.007 17.9372C138.154 17.9372 138.227 18.0105 138.227 18.1572V19.1072C138.227 19.2605 138.154 19.3372 138.007 19.3372H137.027C136.874 19.3372 136.797 19.2605 136.797 19.1072V18.1572C136.797 18.0105 136.874 17.9372 137.027 17.9372H138.007ZM146.223 19.9672C146.343 19.9672 146.403 20.0272 146.403 20.1472V20.9472C146.403 21.0672 146.343 21.1272 146.223 21.1272H141.713C141.506 21.1272 141.363 21.1672 141.283 21.2472C141.203 21.3205 141.163 21.4305 141.163 21.5772V21.7272C141.163 21.8605 141.203 21.9672 141.283 22.0472C141.363 22.1205 141.506 22.1572 141.713 22.1572H145.083C145.643 22.1572 146.043 22.2738 146.283 22.5072C146.523 22.7405 146.643 23.0705 146.643 23.4972V24.0572C146.643 24.2772 146.616 24.4738 146.563 24.6472C146.509 24.8205 146.419 24.9672 146.293 25.0872C146.173 25.2072 146.013 25.3005 145.813 25.3672C145.613 25.4272 145.366 25.4572 145.073 25.4572H139.953C139.833 25.4572 139.773 25.3972 139.773 25.2772V24.4772C139.773 24.3572 139.833 24.2972 139.953 24.2972H144.693C144.899 24.2972 145.043 24.2605 145.123 24.1872C145.209 24.1138 145.253 23.9905 145.253 23.8172V23.5472C145.253 23.4138 145.209 23.3105 145.123 23.2372C145.043 23.1638 144.899 23.1272 144.693 23.1272H141.333C140.773 23.1272 140.373 23.0138 140.133 22.7872C139.893 22.5538 139.773 22.2172 139.773 21.7772V21.3372C139.773 21.1305 139.799 20.9438 139.853 20.7772C139.906 20.6038 139.993 20.4572 140.113 20.3372C140.239 20.2172 140.403 20.1272 140.603 20.0672C140.803 20.0005 141.049 19.9672 141.343 19.9672H146.223ZM149.335 19.9672C149.481 19.9672 149.555 20.0438 149.555 20.1972V25.2372C149.555 25.3838 149.481 25.4572 149.335 25.4572H148.355C148.208 25.4572 148.135 25.3838 148.135 25.2372V20.1972C148.135 20.0438 148.208 19.9672 148.355 19.9672H149.335ZM149.335 17.9372C149.481 17.9372 149.555 18.0105 149.555 18.1572V19.1072C149.555 19.2605 149.481 19.3372 149.335 19.3372H148.355C148.201 19.3372 148.125 19.2605 148.125 19.1072V18.1572C148.125 18.0105 148.201 17.9372 148.355 17.9372H149.335ZM151.89 19.9672V18.6472C151.89 18.5005 151.963 18.4272 152.11 18.4272H153.1C153.247 18.4272 153.32 18.5005 153.32 18.6472V19.9672H155.07C155.19 19.9672 155.25 20.0272 155.25 20.1472V20.9672C155.25 21.0872 155.19 21.1472 155.07 21.1472H153.32V23.4672C153.32 23.7472 153.377 23.9538 153.49 24.0872C153.603 24.2138 153.827 24.2772 154.16 24.2772H155.13C155.25 24.2772 155.31 24.3372 155.31 24.4572V25.2772C155.31 25.3972 155.25 25.4572 155.13 25.4572H153.92C153.52 25.4572 153.19 25.4205 152.93 25.3472C152.67 25.2738 152.46 25.1572 152.3 24.9972C152.147 24.8372 152.04 24.6305 151.98 24.3772C151.92 24.1238 151.89 23.8205 151.89 23.4672V21.1472H150.94C150.82 21.1472 150.76 21.0872 150.76 20.9672V20.1472C150.76 20.0272 150.82 19.9672 150.94 19.9672H151.89ZM161.642 19.9672C162.089 19.9672 162.466 20.0072 162.772 20.0872C163.079 20.1605 163.322 20.2805 163.502 20.4472C163.689 20.6072 163.822 20.8172 163.902 21.0772C163.982 21.3305 164.022 21.6372 164.022 21.9972V23.4372C164.022 23.7972 163.982 24.1072 163.902 24.3672C163.822 24.6205 163.689 24.8305 163.502 24.9972C163.322 25.1572 163.079 25.2738 162.772 25.3472C162.466 25.4205 162.089 25.4572 161.642 25.4572H158.812C158.359 25.4572 157.979 25.4205 157.672 25.3472C157.372 25.2738 157.129 25.1572 156.942 24.9972C156.762 24.8305 156.632 24.6205 156.552 24.3672C156.472 24.1072 156.432 23.7972 156.432 23.4372V21.9972C156.432 21.6372 156.472 21.3305 156.552 21.0772C156.632 20.8172 156.762 20.6072 156.942 20.4472C157.129 20.2805 157.372 20.1605 157.672 20.0872C157.979 20.0072 158.359 19.9672 158.812 19.9672H161.642ZM157.862 23.1872C157.862 23.4005 157.879 23.5772 157.912 23.7172C157.946 23.8572 158.002 23.9705 158.082 24.0572C158.169 24.1372 158.282 24.1972 158.422 24.2372C158.562 24.2705 158.739 24.2872 158.952 24.2872H161.502C161.722 24.2872 161.902 24.2705 162.042 24.2372C162.182 24.1972 162.292 24.1372 162.372 24.0572C162.459 23.9705 162.519 23.8572 162.552 23.7172C162.586 23.5772 162.602 23.4005 162.602 23.1872V22.2372C162.602 22.0305 162.586 21.8572 162.552 21.7172C162.519 21.5772 162.459 21.4638 162.372 21.3772C162.292 21.2905 162.182 21.2305 162.042 21.1972C161.902 21.1638 161.722 21.1472 161.502 21.1472H158.952C158.739 21.1472 158.562 21.1638 158.422 21.1972C158.282 21.2305 158.169 21.2905 158.082 21.3772C158.002 21.4638 157.946 21.5772 157.912 21.7172C157.879 21.8572 157.862 22.0305 157.862 22.2372V23.1872ZM170.754 19.9672C170.874 19.9672 170.934 20.0272 170.934 20.1472V20.9872C170.934 21.1072 170.874 21.1672 170.754 21.1672H168.094C167.881 21.1672 167.704 21.1872 167.564 21.2272C167.424 21.2605 167.311 21.3205 167.224 21.4072C167.144 21.4872 167.087 21.6005 167.054 21.7472C167.021 21.8872 167.004 22.0605 167.004 22.2672V25.2372C167.004 25.3838 166.931 25.4572 166.784 25.4572H165.804C165.651 25.4572 165.574 25.3838 165.574 25.2372V21.9972C165.574 21.6372 165.614 21.3305 165.694 21.0772C165.774 20.8172 165.904 20.6072 166.084 20.4472C166.271 20.2805 166.514 20.1605 166.814 20.0872C167.121 20.0072 167.501 19.9672 167.954 19.9672H170.754ZM178.467 19.9672C178.587 19.9672 178.647 20.0272 178.647 20.1472V20.9472C178.647 21.0672 178.587 21.1272 178.467 21.1272H173.957C173.75 21.1272 173.607 21.1672 173.527 21.2472C173.447 21.3205 173.407 21.4305 173.407 21.5772V21.7272C173.407 21.8605 173.447 21.9672 173.527 22.0472C173.607 22.1205 173.75 22.1572 173.957 22.1572H177.327C177.887 22.1572 178.287 22.2738 178.527 22.5072C178.767 22.7405 178.887 23.0705 178.887 23.4972V24.0572C178.887 24.2772 178.86 24.4738 178.807 24.6472C178.753 24.8205 178.663 24.9672 178.537 25.0872C178.417 25.2072 178.257 25.3005 178.057 25.3672C177.857 25.4272 177.61 25.4572 177.317 25.4572H172.197C172.077 25.4572 172.017 25.3972 172.017 25.2772V24.4772C172.017 24.3572 172.077 24.2972 172.197 24.2972H176.937C177.143 24.2972 177.287 24.2605 177.367 24.1872C177.453 24.1138 177.497 23.9905 177.497 23.8172V23.5472C177.497 23.4138 177.453 23.3105 177.367 23.2372C177.287 23.1638 177.143 23.1272 176.937 23.1272H173.577C173.017 23.1272 172.617 23.0138 172.377 22.7872C172.137 22.5538 172.017 22.2172 172.017 21.7772V21.3372C172.017 21.1305 172.043 20.9438 172.097 20.7772C172.15 20.6038 172.237 20.4572 172.357 20.3372C172.483 20.2172 172.647 20.1272 172.847 20.0672C173.047 20.0005 173.293 19.9672 173.587 19.9672H178.467Z" fill="white"/>
<path d="M81.3351 38.644C81.3351 37.5625 82.2125 36.6807 83.2926 36.7348C90.3514 37.0879 97.1966 39.346 103.093 43.2861C109.534 47.5895 114.554 53.706 117.518 60.8622C120.482 68.0185 121.258 75.893 119.746 83.49C118.235 91.087 114.505 98.0654 109.028 103.543C103.551 109.02 96.5726 112.75 88.9756 114.261C81.3786 115.772 73.5041 114.996 66.3478 112.032C59.1916 109.068 53.0751 104.048 48.7717 97.6078C44.8316 91.711 42.5735 84.8658 42.2204 77.8071C42.1663 76.7269 43.0481 75.8496 44.1296 75.8496C45.2111 75.8496 46.0821 76.727 46.1422 77.8068C46.4916 84.0905 48.5184 90.1793 52.028 95.4319C55.9011 101.228 61.406 105.746 67.8466 108.414C74.2872 111.082 81.3743 111.78 88.2116 110.42C95.0489 109.06 101.329 105.703 106.259 100.773C111.188 95.8438 114.545 89.5633 115.905 82.726C117.265 75.8887 116.567 68.8016 113.899 62.361C111.232 55.9204 106.714 50.4155 100.918 46.5425C95.6649 43.0328 89.5761 41.006 83.2924 40.6566C82.2125 40.5965 81.3351 39.7255 81.3351 38.644Z" fill="#192235"/>
<path d="M44.1296 75.8496C43.0481 75.8496 42.1663 76.7269 42.2204 77.807C42.5735 84.8658 44.8316 91.711 48.7717 97.6078C53.0751 104.048 59.1916 109.068 66.3478 112.032C73.5041 114.996 81.3786 115.772 88.9756 114.261C96.5726 112.75 103.551 109.02 109.028 103.543C114.505 98.0654 118.235 91.087 119.746 83.49C121.258 75.893 120.482 68.0185 117.518 60.8622C114.554 53.706 109.534 47.5895 103.093 43.2861C97.1966 39.346 90.3514 37.0879 83.2926 36.7348C82.2125 36.6807 81.3351 37.5625 81.3351 38.644C81.3351 39.7255 82.2125 40.5965 83.2924 40.6566C89.5761 41.006 95.6649 43.0328 100.918 46.5425C106.714 50.4155 111.232 55.9204 113.899 62.361C116.567 68.8016 117.265 75.8887 115.905 82.726C114.545 89.5633 111.188 95.8438 106.259 100.773C101.329 105.703 95.0489 109.06 88.2116 110.42C81.3743 111.78 74.2872 111.082 67.8466 108.414C61.406 105.746 55.9011 101.228 52.028 95.4319C48.5184 90.1793 46.4916 84.0905 46.1422 77.8068C46.0821 76.727 45.2111 75.8496 44.1296 75.8496Z" fill="url(#paint0_linear_7634_91389)"/>
<path d="M52.9151 75.8496C51.824 75.8496 50.9327 76.7352 51.0036 77.824C51.3497 83.1413 53.0888 88.2869 56.062 92.7366C59.4019 97.7351 64.1491 101.631 69.7032 103.932C75.2573 106.232 81.3689 106.834 87.2651 105.661C93.1613 104.488 98.5773 101.594 102.828 97.3426C107.079 93.0917 109.974 87.6757 111.147 81.7795C112.32 75.8833 111.718 69.7718 109.417 64.2177C107.117 58.6636 103.221 53.9164 98.2221 50.5765C93.7724 47.6033 88.6268 45.8641 83.3096 45.5181C82.2207 45.4472 81.3351 46.3384 81.3351 47.4296C81.3351 48.5208 82.2209 49.3976 83.3091 49.4791C87.8441 49.8185 92.2271 51.3231 96.0268 53.862C100.376 56.7677 103.765 60.8978 105.766 65.7298C107.768 70.5619 108.292 75.8789 107.271 81.0086C106.251 86.1383 103.732 90.8502 100.034 94.5485C96.3358 98.2468 91.6239 100.765 86.4942 101.786C81.3645 102.806 76.0474 102.282 71.2154 100.281C66.3833 98.2794 62.2533 94.89 59.3475 90.5413C56.8086 86.7415 55.304 82.3585 54.9646 77.8235C54.8832 76.7354 54.0063 75.8496 52.9151 75.8496Z" fill="#192235"/>
<path d="M55.9543 88.6368C54.9799 89.1278 54.5824 90.3196 55.1356 91.2601C57.633 95.5061 61.1307 99.0905 65.3358 101.694C70.102 104.644 75.5914 106.22 81.197 106.245C86.8026 106.271 92.306 104.745 97.0989 101.838C101.892 98.931 105.787 94.755 108.355 89.7719C110.923 84.7889 112.062 79.1929 111.648 73.6025C111.233 68.0122 109.281 62.6454 106.007 58.0954C102.732 53.5454 98.2637 49.9895 93.0946 47.8208C88.534 45.9074 83.585 45.1396 78.6779 45.5702C77.5909 45.6656 76.8511 46.6811 77.0169 47.7596C77.1827 48.8381 78.1915 49.5702 79.2793 49.4853C83.4645 49.159 87.6775 49.8331 91.5659 51.4645C96.063 53.3513 99.9508 56.4449 102.799 60.4034C105.648 64.3619 107.347 69.0311 107.707 73.8947C108.068 78.7582 107.076 83.6268 104.842 87.962C102.609 92.2973 99.2194 95.9304 95.0496 98.4596C90.8798 100.989 86.0918 102.316 81.215 102.294C76.3381 102.271 71.5623 100.901 67.4157 98.334C63.8304 96.1145 60.8361 93.075 58.6728 89.4775C58.1105 88.5424 56.9288 88.1458 55.9543 88.6368Z" fill="url(#paint1_linear_7634_91389)"/>
<path d="M78.8991 66.4958C79.3845 66.4958 79.7418 66.6158 79.9711 66.8558C80.2005 67.0958 80.3151 67.4105 80.3151 67.7998V68.3598C80.3151 68.7972 80.1978 69.1358 79.9631 69.3758C79.7285 69.6105 79.3791 69.7278 78.9151 69.7278H75.8751C75.5978 69.7278 75.4591 69.8798 75.4591 70.1838V70.8638C75.4591 70.9758 75.5125 71.0318 75.6191 71.0318H80.1231C80.2458 71.0318 80.3071 71.0905 80.3071 71.2078V71.9198C80.3071 72.0372 80.2458 72.0958 80.1231 72.0958H75.0191C74.7471 72.0958 74.5551 72.0425 74.4431 71.9358C74.3311 71.8238 74.2751 71.6505 74.2751 71.4158V70.1838C74.2751 69.7412 74.3925 69.4025 74.6271 69.1678C74.8618 68.9278 75.2111 68.8078 75.6751 68.8078H78.7151C78.9925 68.8078 79.1311 68.6585 79.1311 68.3598V68.0158C79.1311 67.8772 79.0991 67.7678 79.0351 67.6878C78.9711 67.6025 78.8618 67.5598 78.7071 67.5598H74.6591C74.5418 67.5598 74.4831 67.5012 74.4831 67.3838V66.6718C74.4831 66.5545 74.5418 66.4958 74.6591 66.4958H78.8991ZM85.6134 66.4958C86.0187 66.4958 86.3627 66.5358 86.6454 66.6158C86.9281 66.6905 87.1574 66.8132 87.3334 66.9838C87.5147 67.1492 87.6454 67.3652 87.7254 67.6318C87.8107 67.8985 87.8534 68.2238 87.8534 68.6078V69.9838C87.8534 70.3678 87.8107 70.6958 87.7254 70.9678C87.6454 71.2345 87.5147 71.4532 87.3334 71.6238C87.1574 71.7892 86.9281 71.9092 86.6454 71.9838C86.3627 72.0585 86.0187 72.0958 85.6134 72.0958H83.7654C83.3601 72.0958 83.0161 72.0585 82.7334 71.9838C82.4507 71.9092 82.2187 71.7892 82.0374 71.6238C81.8614 71.4532 81.7307 71.2345 81.6454 70.9678C81.5654 70.6958 81.5254 70.3678 81.5254 69.9838V68.6078C81.5254 68.2238 81.5654 67.8985 81.6454 67.6318C81.7307 67.3652 81.8614 67.1492 82.0374 66.9838C82.2187 66.8132 82.4507 66.6905 82.7334 66.6158C83.0161 66.5358 83.3601 66.4958 83.7654 66.4958H85.6134ZM82.7094 69.9358C82.7094 70.1492 82.7254 70.3278 82.7574 70.4718C82.7894 70.6105 82.8454 70.7225 82.9254 70.8078C83.0054 70.8878 83.1121 70.9465 83.2454 70.9838C83.3841 71.0158 83.5574 71.0318 83.7654 71.0318H85.6134C85.8214 71.0318 85.9921 71.0158 86.1254 70.9838C86.2641 70.9465 86.3734 70.8878 86.4534 70.8078C86.5334 70.7225 86.5894 70.6105 86.6214 70.4718C86.6534 70.3278 86.6694 70.1492 86.6694 69.9358V68.6558C86.6694 68.4425 86.6534 68.2665 86.6214 68.1278C86.5894 67.9892 86.5334 67.8772 86.4534 67.7918C86.3734 67.7065 86.2641 67.6478 86.1254 67.6158C85.9921 67.5785 85.8214 67.5598 85.6134 67.5598H83.7654C83.5574 67.5598 83.3841 67.5785 83.2454 67.6158C83.1121 67.6478 83.0054 67.7065 82.9254 67.7918C82.8454 67.8772 82.7894 67.9892 82.7574 68.1278C82.7254 68.2665 82.7094 68.4425 82.7094 68.6558V69.9358Z" fill="#1365C8"/>
<path d="M78.8991 80.003C79.3845 80.003 79.7418 80.123 79.9711 80.363C80.2005 80.603 80.3151 80.9177 80.3151 81.307V81.867C80.3151 82.3044 80.1978 82.643 79.9631 82.883C79.7285 83.1177 79.3791 83.235 78.9151 83.235H75.8751C75.5978 83.235 75.4591 83.387 75.4591 83.691V84.371C75.4591 84.483 75.5125 84.539 75.6191 84.539H80.1231C80.2458 84.539 80.3071 84.5977 80.3071 84.715V85.427C80.3071 85.5444 80.2458 85.603 80.1231 85.603H75.0191C74.7471 85.603 74.5551 85.5497 74.4431 85.443C74.3311 85.331 74.2751 85.1577 74.2751 84.923V83.691C74.2751 83.2484 74.3925 82.9097 74.6271 82.675C74.8618 82.435 75.2111 82.315 75.6751 82.315H78.7151C78.9925 82.315 79.1311 82.1657 79.1311 81.867V81.523C79.1311 81.3844 79.0991 81.275 79.0351 81.195C78.9711 81.1097 78.8618 81.067 78.7071 81.067H74.6591C74.5418 81.067 74.4831 81.0084 74.4831 80.891V80.179C74.4831 80.0617 74.5418 80.003 74.6591 80.003H78.8991ZM85.6134 80.003C86.0187 80.003 86.3627 80.043 86.6454 80.123C86.9281 80.1977 87.1574 80.3204 87.3334 80.491C87.5147 80.6564 87.6454 80.8724 87.7254 81.139C87.8107 81.4057 87.8534 81.731 87.8534 82.115V83.491C87.8534 83.875 87.8107 84.203 87.7254 84.475C87.6454 84.7417 87.5147 84.9604 87.3334 85.131C87.1574 85.2964 86.9281 85.4164 86.6454 85.491C86.3627 85.5657 86.0187 85.603 85.6134 85.603H83.7654C83.3601 85.603 83.0161 85.5657 82.7334 85.491C82.4507 85.4164 82.2187 85.2964 82.0374 85.131C81.8614 84.9604 81.7307 84.7417 81.6454 84.475C81.5654 84.203 81.5254 83.875 81.5254 83.491V82.115C81.5254 81.731 81.5654 81.4057 81.6454 81.139C81.7307 80.8724 81.8614 80.6564 82.0374 80.491C82.2187 80.3204 82.4507 80.1977 82.7334 80.123C83.0161 80.043 83.3601 80.003 83.7654 80.003H85.6134ZM82.7094 83.443C82.7094 83.6564 82.7254 83.835 82.7574 83.979C82.7894 84.1177 82.8454 84.2297 82.9254 84.315C83.0054 84.395 83.1121 84.4537 83.2454 84.491C83.3841 84.523 83.5574 84.539 83.7654 84.539H85.6134C85.8214 84.539 85.9921 84.523 86.1254 84.491C86.2641 84.4537 86.3734 84.395 86.4534 84.315C86.5334 84.2297 86.5894 84.1177 86.6214 83.979C86.6534 83.835 86.6694 83.6564 86.6694 83.443V82.163C86.6694 81.9497 86.6534 81.7737 86.6214 81.635C86.5894 81.4964 86.5334 81.3844 86.4534 81.299C86.3734 81.2137 86.2641 81.155 86.1254 81.123C85.9921 81.0857 85.8214 81.067 85.6134 81.067H83.7654C83.5574 81.067 83.3841 81.0857 83.2454 81.123C83.1121 81.155 83.0054 81.2137 82.9254 81.299C82.8454 81.3844 82.7894 81.4964 82.7574 81.635C82.7254 81.7737 82.7094 81.9497 82.7094 82.163V83.443Z" fill="#8715A3"/>
<path d="M151.302 40.9714C151.424 40.9714 151.486 41.0301 151.486 41.1474V41.9314C151.486 42.0541 151.424 42.1154 151.302 42.1154H148.79V46.3954C148.79 46.5128 148.731 46.5714 148.614 46.5714H147.742C147.624 46.5714 147.566 46.5128 147.566 46.3954V42.1154H145.054C144.931 42.1154 144.87 42.0541 144.87 41.9314V41.1474C144.87 41.0301 144.931 40.9714 145.054 40.9714H151.302ZM153.566 40.9714C153.683 40.9714 153.742 41.0301 153.742 41.1474V43.2274H157.486V41.1474C157.486 41.0301 157.545 40.9714 157.662 40.9714H158.526C158.649 40.9714 158.71 41.0301 158.71 41.1474V46.3954C158.71 46.5128 158.649 46.5714 158.526 46.5714H157.662C157.545 46.5714 157.486 46.5128 157.486 46.3954V44.2674H153.742V46.3954C153.742 46.5128 153.683 46.5714 153.566 46.5714H152.702C152.579 46.5714 152.518 46.5128 152.518 46.3954V41.1474C152.518 41.0301 152.579 40.9714 152.702 40.9714H153.566ZM161.136 40.9714C161.253 40.9714 161.312 41.0301 161.312 41.1474V46.3954C161.312 46.5128 161.253 46.5714 161.136 46.5714H160.272C160.149 46.5714 160.088 46.5128 160.088 46.3954V41.1474C160.088 41.0301 160.149 40.9714 160.272 40.9714H161.136ZM168.257 40.9714C168.375 40.9714 168.433 41.0301 168.433 41.1474V41.9074C168.433 42.0248 168.375 42.0834 168.257 42.0834L164.249 42.0834C164.094 42.0834 163.985 42.1234 163.921 42.2034C163.857 42.2834 163.825 42.3928 163.825 42.5314V42.8034C163.825 43.1021 163.964 43.2514 164.241 43.2514H167.241C167.705 43.2514 168.055 43.3714 168.289 43.6114C168.524 43.8461 168.641 44.1848 168.641 44.6274V45.2674C168.641 45.6568 168.527 45.9714 168.297 46.2114C168.068 46.4514 167.711 46.5714 167.225 46.5714H162.793C162.67 46.5714 162.609 46.5128 162.609 46.3954V45.6354C162.609 45.5181 162.67 45.4594 162.793 45.4594H166.993C167.148 45.4594 167.257 45.4194 167.321 45.3394C167.385 45.2594 167.417 45.1501 167.417 45.0114V44.6834C167.417 44.3848 167.279 44.2354 167.001 44.2354H164.001C163.537 44.2354 163.188 44.1181 162.953 43.8834C162.718 43.6434 162.601 43.3021 162.601 42.8594V42.2754C162.601 41.8861 162.716 41.5714 162.945 41.3314C163.174 41.0914 163.532 40.9714 164.017 40.9714L168.257 40.9714ZM174.46 40.9714C174.578 40.9714 174.679 40.9794 174.764 40.9954C174.85 41.0114 174.924 41.0434 174.988 41.0914C175.052 41.1341 175.108 41.1954 175.156 41.2754C175.21 41.3501 175.263 41.4514 175.316 41.5794L176.98 45.4194C177.002 45.4674 177.039 45.4914 177.092 45.4914H177.188C177.242 45.4914 177.279 45.4674 177.3 45.4194L178.964 41.5794C179.018 41.4514 179.068 41.3501 179.116 41.2754C179.17 41.1954 179.228 41.1341 179.292 41.0914C179.356 41.0434 179.428 41.0114 179.508 40.9954C179.594 40.9794 179.695 40.9714 179.812 40.9714H180.668C180.946 40.9714 181.132 41.0354 181.228 41.1634C181.324 41.2861 181.372 41.4994 181.372 41.8034V46.3954C181.372 46.5128 181.311 46.5714 181.188 46.5714H180.372C180.255 46.5714 180.196 46.5128 180.196 46.3954V42.2194C180.196 42.1661 180.175 42.1394 180.132 42.1394H180.06C180.007 42.1394 179.972 42.1608 179.956 42.2034L178.34 45.7874C178.276 45.9314 178.21 46.0541 178.14 46.1554C178.076 46.2514 178.004 46.3314 177.924 46.3954C177.85 46.4594 177.762 46.5048 177.66 46.5314C177.564 46.5581 177.45 46.5714 177.316 46.5714H176.932C176.799 46.5714 176.682 46.5581 176.58 46.5314C176.484 46.5048 176.396 46.4594 176.316 46.3954C176.242 46.3314 176.17 46.2514 176.1 46.1554C176.036 46.0541 175.972 45.9314 175.908 45.7874L174.292 42.2034C174.276 42.1608 174.242 42.1394 174.188 42.1394H174.116C174.074 42.1394 174.052 42.1661 174.052 42.2194V46.3954C174.052 46.5128 173.994 46.5714 173.876 46.5714H173.06C172.938 46.5714 172.876 46.5128 172.876 46.3954V41.8034C172.876 41.4994 172.924 41.2861 173.02 41.1634C173.116 41.0354 173.306 40.9714 173.588 40.9714H174.46ZM187.399 40.9714C187.804 40.9714 188.148 41.0114 188.431 41.0914C188.719 41.1661 188.951 41.2888 189.127 41.4594C189.308 41.6248 189.439 41.8408 189.519 42.1074C189.599 42.3741 189.639 42.6994 189.639 43.0834V44.4594C189.639 44.8434 189.599 45.1714 189.519 45.4434C189.439 45.7101 189.308 45.9288 189.127 46.0994C188.951 46.2648 188.719 46.3848 188.431 46.4594C188.148 46.5341 187.804 46.5714 187.399 46.5714H184.927C184.522 46.5714 184.178 46.5341 183.895 46.4594C183.612 46.3848 183.38 46.2648 183.199 46.0994C183.023 45.9288 182.892 45.7101 182.807 45.4434C182.727 45.1714 182.687 44.8434 182.687 44.4594V43.0834C182.687 42.6994 182.727 42.3741 182.807 42.1074C182.892 41.8408 183.023 41.6248 183.199 41.4594C183.38 41.2888 183.612 41.1661 183.895 41.0914C184.178 41.0114 184.522 40.9714 184.927 40.9714H187.399ZM183.911 44.3714C183.911 44.5794 183.927 44.7554 183.959 44.8994C183.996 45.0381 184.055 45.1501 184.135 45.2354C184.215 45.3154 184.322 45.3741 184.455 45.4114C184.594 45.4434 184.767 45.4594 184.975 45.4594H187.351C187.559 45.4594 187.73 45.4434 187.863 45.4114C188.002 45.3741 188.111 45.3154 188.191 45.2354C188.271 45.1501 188.327 45.0381 188.359 44.8994C188.396 44.7554 188.415 44.5794 188.415 44.3714V43.1714C188.415 42.9634 188.396 42.7901 188.359 42.6514C188.327 42.5074 188.271 42.3954 188.191 42.3154C188.111 42.2301 188.002 42.1714 187.863 42.1394C187.73 42.1021 187.559 42.0834 187.351 42.0834H184.975C184.767 42.0834 184.594 42.1021 184.455 42.1394C184.322 42.1714 184.215 42.2301 184.135 42.3154C184.055 42.3954 183.996 42.5074 183.959 42.6514C183.927 42.7901 183.911 42.9634 183.911 43.1714V44.3714ZM192.378 40.9714C192.506 40.9714 192.612 40.9768 192.698 40.9874C192.783 40.9981 192.858 41.0221 192.922 41.0594C192.986 41.0914 193.047 41.1394 193.106 41.2034C193.164 41.2621 193.231 41.3421 193.306 41.4434L196.282 45.3474C196.303 45.3848 196.338 45.4034 196.386 45.4034H196.458C196.5 45.4034 196.522 45.3768 196.522 45.3234V41.1474C196.522 41.0301 196.58 40.9714 196.698 40.9714H197.538C197.655 40.9714 197.714 41.0301 197.714 41.1474V45.7394C197.714 46.0648 197.655 46.2861 197.538 46.4034C197.42 46.5154 197.239 46.5714 196.994 46.5714H196.306C196.183 46.5714 196.079 46.5661 195.994 46.5554C195.914 46.5448 195.842 46.5234 195.778 46.4914C195.714 46.4594 195.65 46.4141 195.586 46.3554C195.527 46.2914 195.458 46.2061 195.378 46.0994L192.394 42.1954C192.362 42.1581 192.327 42.1394 192.29 42.1394H192.218C192.175 42.1394 192.154 42.1661 192.154 42.2194V46.3954C192.154 46.5128 192.095 46.5714 191.978 46.5714H191.138C191.015 46.5714 190.954 46.5128 190.954 46.3954V41.8034C190.954 41.4781 191.012 41.2594 191.13 41.1474C191.247 41.0301 191.428 40.9714 191.674 40.9714H192.378ZM205.182 40.9714C205.305 40.9714 205.366 41.0301 205.366 41.1474V41.9314C205.366 42.0541 205.305 42.1154 205.182 42.1154H202.67V46.3954C202.67 46.5128 202.611 46.5714 202.494 46.5714H201.622C201.505 46.5714 201.446 46.5128 201.446 46.3954V42.1154H198.934C198.811 42.1154 198.75 42.0541 198.75 41.9314V41.1474C198.75 41.0301 198.811 40.9714 198.934 40.9714H205.182ZM207.446 40.9714C207.564 40.9714 207.622 41.0301 207.622 41.1474V43.2274L211.366 43.2274V41.1474C211.366 41.0301 211.425 40.9714 211.542 40.9714H212.406C212.529 40.9714 212.59 41.0301 212.59 41.1474V46.3954C212.59 46.5128 212.529 46.5714 212.406 46.5714H211.542C211.425 46.5714 211.366 46.5128 211.366 46.3954V44.2674L207.622 44.2674V46.3954C207.622 46.5128 207.564 46.5714 207.446 46.5714H206.582C206.46 46.5714 206.398 46.5128 206.398 46.3954V41.1474C206.398 41.0301 206.46 40.9714 206.582 40.9714H207.446Z" fill="#59648A"/>
<g filter="url(#filter0_b_7634_91389)">
<path d="M144.686 60.1715C144.686 58.4673 146.067 57.0858 147.771 57.0858H168.343C170.047 57.0858 171.429 58.4673 171.429 60.1715C171.429 61.8757 170.047 63.2572 168.343 63.2572H147.771C146.067 63.2572 144.686 61.8757 144.686 60.1715Z" fill="#1365C8"/>
</g>
<path d="M146.246 90.3429C146.363 90.3429 146.422 90.4016 146.422 90.5189V93.7109C146.422 93.9243 146.438 94.1029 146.47 94.2469C146.507 94.3856 146.566 94.4976 146.646 94.5829C146.726 94.6629 146.832 94.7216 146.966 94.7589C147.104 94.7909 147.278 94.8069 147.486 94.8069H150.726C150.843 94.8069 150.902 94.8656 150.902 94.9829V95.7669C150.902 95.8843 150.843 95.9429 150.726 95.9429H147.438C147.032 95.9429 146.688 95.9056 146.406 95.8309C146.123 95.7563 145.891 95.6363 145.71 95.4709C145.534 95.3003 145.403 95.0816 145.318 94.8149C145.238 94.5429 145.198 94.2149 145.198 93.8309V90.5189C145.198 90.4016 145.259 90.3429 145.382 90.3429H146.246ZM155.492 90.3429C155.695 90.3429 155.865 90.3856 156.004 90.4709C156.143 90.5509 156.279 90.7109 156.412 90.9509L159.06 95.7589C159.087 95.8123 159.092 95.8576 159.076 95.8949C159.065 95.9269 159.028 95.9429 158.964 95.9429H157.948C157.857 95.9429 157.796 95.9083 157.764 95.8389L157.196 94.8069H153.436L152.884 95.8389C152.847 95.9083 152.785 95.9429 152.7 95.9429H151.66C151.591 95.9429 151.548 95.9269 151.532 95.8949C151.521 95.8576 151.529 95.8123 151.556 95.7589L154.18 90.9509C154.313 90.7109 154.444 90.5509 154.572 90.4709C154.7 90.3856 154.849 90.3429 155.02 90.3429H155.492ZM153.94 93.8789H156.692L155.42 91.5349C155.399 91.4976 155.369 91.4789 155.332 91.4789H155.284C155.247 91.4789 155.217 91.4976 155.196 91.5349L153.94 93.8789ZM165.617 90.3429C165.734 90.3429 165.793 90.4016 165.793 90.5189V91.2789C165.793 91.3962 165.734 91.4549 165.617 91.4549H161.609C161.454 91.4549 161.345 91.4949 161.281 91.5749C161.217 91.6549 161.185 91.7643 161.185 91.9029V92.1749C161.185 92.4736 161.324 92.6229 161.601 92.6229H164.601C165.065 92.6229 165.414 92.7429 165.649 92.9829C165.884 93.2176 166.001 93.5563 166.001 93.9989V94.6389C166.001 95.0283 165.886 95.3429 165.657 95.5829C165.428 95.8229 165.07 95.9429 164.585 95.9429H160.153C160.03 95.9429 159.969 95.8843 159.969 95.7669V95.0069C159.969 94.8896 160.03 94.8309 160.153 94.8309H164.353C164.508 94.8309 164.617 94.7909 164.681 94.7109C164.745 94.6309 164.777 94.5216 164.777 94.3829V94.0549C164.777 93.7563 164.638 93.6069 164.361 93.6069H161.361C160.897 93.6069 160.548 93.4896 160.313 93.2549C160.078 93.0149 159.961 92.6736 159.961 92.2309V91.6469C159.961 91.2576 160.076 90.9429 160.305 90.7029C160.534 90.4629 160.892 90.3429 161.377 90.3429H165.617ZM173.324 90.3429C173.447 90.3429 173.508 90.4016 173.508 90.5189V91.3029C173.508 91.4256 173.447 91.4869 173.324 91.4869H170.812V95.7669C170.812 95.8843 170.754 95.9429 170.636 95.9429H169.764C169.647 95.9429 169.588 95.8843 169.588 95.7669V91.4869H167.076C166.954 91.4869 166.892 91.4256 166.892 91.3029V90.5189C166.892 90.4016 166.954 90.3429 167.076 90.3429H173.324ZM179.124 90.3429C179.242 90.3429 179.343 90.3509 179.428 90.3669C179.514 90.3829 179.588 90.4149 179.652 90.4629C179.716 90.5056 179.772 90.5669 179.82 90.6469C179.874 90.7216 179.927 90.8229 179.98 90.9509L181.644 94.7909C181.666 94.8389 181.703 94.8629 181.756 94.8629H181.852C181.906 94.8629 181.943 94.8389 181.964 94.7909L183.628 90.9509C183.682 90.8229 183.732 90.7216 183.78 90.6469C183.834 90.5669 183.892 90.5056 183.956 90.4629C184.02 90.4149 184.092 90.3829 184.172 90.3669C184.258 90.3509 184.359 90.3429 184.476 90.3429H185.332C185.61 90.3429 185.796 90.4069 185.892 90.5349C185.988 90.6576 186.036 90.8709 186.036 91.1749V95.7669C186.036 95.8843 185.975 95.9429 185.852 95.9429H185.036C184.919 95.9429 184.86 95.8843 184.86 95.7669V91.5909C184.86 91.5376 184.839 91.5109 184.796 91.5109H184.724C184.671 91.5109 184.636 91.5323 184.62 91.5749L183.004 95.1589C182.94 95.3029 182.874 95.4256 182.804 95.5269C182.74 95.6229 182.668 95.7029 182.588 95.7669C182.514 95.8309 182.426 95.8763 182.324 95.9029C182.228 95.9296 182.114 95.9429 181.98 95.9429H181.596C181.463 95.9429 181.346 95.9296 181.244 95.9029C181.148 95.8763 181.06 95.8309 180.98 95.7669C180.906 95.7029 180.834 95.6229 180.764 95.5269C180.7 95.4256 180.636 95.3029 180.572 95.1589L178.956 91.5749C178.94 91.5323 178.906 91.5109 178.852 91.5109H178.78C178.738 91.5109 178.716 91.5376 178.716 91.5909V95.7669C178.716 95.8843 178.658 95.9429 178.54 95.9429H177.724C177.602 95.9429 177.54 95.8843 177.54 95.7669V91.1749C177.54 90.8709 177.588 90.6576 177.684 90.5349C177.78 90.4069 177.97 90.3429 178.252 90.3429H179.124ZM192.063 90.3429C192.468 90.3429 192.812 90.3829 193.095 90.4629C193.383 90.5376 193.615 90.6603 193.791 90.8309C193.972 90.9962 194.103 91.2122 194.183 91.4789C194.263 91.7456 194.303 92.0709 194.303 92.4549V93.8309C194.303 94.2149 194.263 94.5429 194.183 94.8149C194.103 95.0816 193.972 95.3003 193.791 95.4709C193.615 95.6363 193.383 95.7563 193.095 95.8309C192.812 95.9056 192.468 95.9429 192.063 95.9429H189.591C189.186 95.9429 188.842 95.9056 188.559 95.8309C188.276 95.7563 188.044 95.6363 187.863 95.4709C187.687 95.3003 187.556 95.0816 187.471 94.8149C187.391 94.5429 187.351 94.2149 187.351 93.8309V92.4549C187.351 92.0709 187.391 91.7456 187.471 91.4789C187.556 91.2122 187.687 90.9962 187.863 90.8309C188.044 90.6603 188.276 90.5376 188.559 90.4629C188.842 90.3829 189.186 90.3429 189.591 90.3429L192.063 90.3429ZM188.575 93.7429C188.575 93.9509 188.591 94.1269 188.623 94.2709C188.66 94.4096 188.719 94.5216 188.799 94.6069C188.879 94.6869 188.986 94.7456 189.119 94.7829C189.258 94.8149 189.431 94.8309 189.639 94.8309L192.015 94.8309C192.223 94.8309 192.394 94.8149 192.527 94.7829C192.666 94.7456 192.775 94.6869 192.855 94.6069C192.935 94.5216 192.991 94.4096 193.023 94.2709C193.06 94.1269 193.079 93.9509 193.079 93.7429V92.5429C193.079 92.3349 193.06 92.1616 193.023 92.0229C192.991 91.8789 192.935 91.7669 192.855 91.6869C192.775 91.6016 192.666 91.5429 192.527 91.5109C192.394 91.4736 192.223 91.4549 192.015 91.4549L189.639 91.4549C189.431 91.4549 189.258 91.4736 189.119 91.5109C188.986 91.5429 188.879 91.6016 188.799 91.6869C188.719 91.7669 188.66 91.8789 188.623 92.0229C188.591 92.1616 188.575 92.3349 188.575 92.5429V93.7429ZM197.042 90.3429C197.17 90.3429 197.276 90.3482 197.362 90.3589C197.447 90.3696 197.522 90.3936 197.586 90.4309C197.65 90.4629 197.711 90.5109 197.77 90.5749C197.828 90.6336 197.895 90.7136 197.97 90.8149L200.946 94.7189C200.967 94.7563 201.002 94.7749 201.05 94.7749H201.122C201.164 94.7749 201.186 94.7483 201.186 94.6949V90.5189C201.186 90.4016 201.244 90.3429 201.362 90.3429H202.202C202.319 90.3429 202.378 90.4016 202.378 90.5189V95.1109C202.378 95.4363 202.319 95.6576 202.202 95.7749C202.084 95.8869 201.903 95.9429 201.658 95.9429H200.97C200.847 95.9429 200.743 95.9376 200.658 95.9269C200.578 95.9163 200.506 95.8949 200.442 95.8629C200.378 95.8309 200.314 95.7856 200.25 95.7269C200.191 95.6629 200.122 95.5776 200.042 95.4709L197.058 91.5669C197.026 91.5296 196.991 91.5109 196.954 91.5109H196.882C196.839 91.5109 196.818 91.5376 196.818 91.5909V95.7669C196.818 95.8843 196.759 95.9429 196.642 95.9429H195.802C195.679 95.9429 195.618 95.8843 195.618 95.7669V91.1749C195.618 90.8496 195.676 90.6309 195.794 90.5189C195.911 90.4016 196.092 90.3429 196.338 90.3429H197.042ZM209.846 90.3429C209.969 90.3429 210.03 90.4016 210.03 90.5189V91.3029C210.03 91.4256 209.969 91.4869 209.846 91.4869H207.334V95.7669C207.334 95.8843 207.275 95.9429 207.158 95.9429H206.286C206.169 95.9429 206.11 95.8843 206.11 95.7669V91.4869H203.598C203.475 91.4869 203.414 91.4256 203.414 91.3029V90.5189C203.414 90.4016 203.475 90.3429 203.598 90.3429H209.846ZM212.11 90.3429C212.228 90.3429 212.286 90.4016 212.286 90.5189V92.5989H216.03V90.5189C216.03 90.4016 216.089 90.3429 216.206 90.3429H217.07C217.193 90.3429 217.254 90.4016 217.254 90.5189V95.7669C217.254 95.8843 217.193 95.9429 217.07 95.9429H216.206C216.089 95.9429 216.03 95.8843 216.03 95.7669V93.6389H212.286V95.7669C212.286 95.8843 212.228 95.9429 212.11 95.9429H211.246C211.124 95.9429 211.062 95.8843 211.062 95.7669V90.5189C211.062 90.4016 211.124 90.3429 211.246 90.3429H212.11Z" fill="#59648A"/>
<g filter="url(#filter1_b_7634_91389)">
<path d="M144.686 109.543C144.686 107.839 146.067 106.457 147.771 106.457H169.371C171.076 106.457 172.457 107.839 172.457 109.543C172.457 111.247 171.076 112.629 169.371 112.629H147.771C146.067 112.629 144.686 111.247 144.686 109.543Z" fill="#8715A3"/>
</g>
<rect x="0.514286" y="0.514286" width="322.971" height="129.943" rx="3.6" stroke="#374459" stroke-width="1.02857"/>
<defs>
<filter id="filter0_b_7634_91389" x="124.114" y="36.5143" width="67.8857" height="47.3143" filterUnits="userSpaceOnUse" color-interpolation-filters="sRGB">
<feFlood flood-opacity="0" result="BackgroundImageFix"/>
<feGaussianBlur in="BackgroundImage" stdDeviation="10.2857"/>
<feComposite in2="SourceAlpha" operator="in" result="effect1_backgroundBlur_7634_91389"/>
<feBlend mode="normal" in="SourceGraphic" in2="effect1_backgroundBlur_7634_91389" result="shape"/>
</filter>
<filter id="filter1_b_7634_91389" x="124.114" y="85.8857" width="68.9143" height="47.3143" filterUnits="userSpaceOnUse" color-interpolation-filters="sRGB">
<feFlood flood-opacity="0" result="BackgroundImageFix"/>
<feGaussianBlur in="BackgroundImage" stdDeviation="10.2857"/>
<feComposite in2="SourceAlpha" operator="in" result="effect1_backgroundBlur_7634_91389"/>
<feBlend mode="normal" in="SourceGraphic" in2="effect1_backgroundBlur_7634_91389" result="shape"/>
</filter>
<linearGradient id="paint0_linear_7634_91389" x1="76.3666" y1="42.2389" x2="79.6147" y2="60.9382" gradientUnits="userSpaceOnUse">
<stop stop-color="#122DB8" stop-opacity="0"/>
<stop offset="1" stop-color="#1265C8"/>
</linearGradient>
<linearGradient id="paint1_linear_7634_91389" x1="73.1517" y1="49.8379" x2="73.1884" y2="70.5887" gradientUnits="userSpaceOnUse">
<stop stop-color="#5F1FAF" stop-opacity="0"/>
<stop offset="1" stop-color="#8715A3"/>
</linearGradient>
</defs>
</svg>
