<svg width="17" height="17" viewBox="0 0 17 17" fill="none" xmlns="http://www.w3.org/2000/svg">
    <circle cx="8.5" cy="8.5" r="8.5" fill="#2B2F52"/>
    <path d="M12.9644 4H5V4.38916L5.41813 4.42808C5.73671 4.48645 5.95573 4.6032 6.09511 4.77832C6.23449 4.9729 6.31413 5.28423 6.33404 5.7123C6.49333 7.81376 6.49333 9.77902 6.33404 11.5886C6.29422 12.0167 6.21458 12.328 6.09511 12.5226C5.95573 12.7172 5.73671 12.8339 5.41813 12.8728L5 12.9312V13.3204H10.1371V12.9312L9.59946 12.8923C9.28088 12.8534 9.06186 12.7172 8.92249 12.542C8.78311 12.3475 8.70346 12.0361 8.68355 11.6081C8.62382 10.8297 8.584 9.93468 8.584 8.94232L9.6592 8.96178C10.2366 8.98124 10.6348 9.40932 10.834 10.2655H11.2322V7.09382H10.834C10.6348 7.93051 10.2565 8.35858 9.6592 8.37804L8.584 8.3975C8.584 6.64628 8.62382 5.40097 8.68355 4.64211H10.2565C11.3715 4.64211 12.1282 5.3426 12.5662 6.74357L13.0441 6.60737L12.9644 4Z" fill="white"/>
</svg>
