<svg width="24" height="24" viewBox="0 0 24 24" fill="none" xmlns="http://www.w3.org/2000/svg">
<mask id="mask0_7264_121099" style="mask-type:alpha" maskUnits="userSpaceOnUse" x="0" y="0" width="15" height="17">
<path d="M14.8462 5.87239C10.2439 6.58147 6.72 10.5592 6.72 15.36C6.72 15.6654 6.73427 15.9675 6.76217 16.2657C2.95332 15.8121 0 12.5709 0 8.63996C0 4.39841 3.43845 0.959961 7.68 0.959961C10.9458 0.959961 13.7356 2.99842 14.8462 5.87239Z" fill="white"/>
</mask>
<g mask="url(#mask0_7264_121099)">
<path d="M14.8462 5.87239C10.2439 6.58147 6.72 10.5592 6.72 15.36C6.72 15.6654 6.73427 15.9675 6.76217 16.2657C2.95332 15.8121 0 12.5709 0 8.63996C0 4.39841 3.43845 0.959961 7.68 0.959961C10.9458 0.959961 13.7356 2.99842 14.8462 5.87239Z" fill="white"/>
<mask id="mask1_7264_121099" style="mask-type:alpha" maskUnits="userSpaceOnUse" x="0" y="0" width="16" height="17">
<path d="M7.68 16.32C11.9215 16.32 15.36 12.8815 15.36 8.63996C15.36 4.39841 11.9215 0.959961 7.68 0.959961C3.43845 0.959961 0 4.39841 0 8.63996C0 12.8815 3.43845 16.32 7.68 16.32Z" fill="#F0F0F0"/>
</mask>
<g mask="url(#mask1_7264_121099)">
<path d="M23.4312 0.931152V16.2332H-7.63664V0.931152H23.4312Z" fill="#012169"/>
<path d="M23.4312 0.931152L-7.63664 16.2332L23.4312 0.931152ZM-7.63664 0.931152L23.4312 16.2332L-7.63664 0.931152Z" fill="black"/>
<path d="M-7.63664 0.931152L23.4312 16.2332M23.4312 0.931152L-7.63664 16.2332L23.4312 0.931152Z" stroke="white" stroke-width="3.072"/>
<path d="M23.4312 0.931152L-7.63664 16.2332L23.4312 0.931152ZM-7.63664 0.931152L23.4312 16.2332L-7.63664 0.931152Z" fill="black"/>
<path d="M-7.63664 0.931152L23.4312 16.2332M23.4312 0.931152L-7.63664 16.2332L23.4312 0.931152Z" stroke="#C8102E" stroke-width="2.048"/>
<path d="M7.89725 0.931152V16.2332V0.931152ZM23.4312 8.58218H-7.63664H23.4312Z" fill="black"/>
<path d="M23.4312 8.58218H-7.63664M7.89726 0.931152V16.2332V0.931152Z" stroke="white" stroke-width="5.12"/>
<path d="M7.89725 0.931152V16.2332V0.931152ZM23.4312 8.58218H-7.63664H23.4312Z" fill="black"/>
<path d="M23.4312 8.58218H-7.63664M7.89726 0.931152V16.2332V0.931152Z" stroke="#C8102E" stroke-width="3.072"/>
</g>
</g>
<path d="M23.7701 18.178C22.7443 22.2923 18.5767 24.7962 14.4615 23.7702C10.3479 22.7445 7.84372 18.5771 8.87007 14.4631C9.89546 10.3483 14.063 7.84421 18.1771 8.86996C22.2921 9.89571 24.796 14.0635 23.7701 18.178Z" fill="white"/>
<circle cx="16.32" cy="16.32" r="3.84" fill="#D50A2D"/>
</svg>
