<svg width="24" height="24" viewBox="0 0 24 24" fill="none" xmlns="http://www.w3.org/2000/svg">
<g clip-path="url(#clip0_7264_121075)">
<mask id="mask0_7264_121075" style="mask-type:alpha" maskUnits="userSpaceOnUse" x="0" y="1" width="16" height="16">
<path d="M15.4648 6.11711C10.6708 6.85574 7 10.9992 7 16C7 16.3182 7.01486 16.6329 7.04392 16.9435C3.07637 16.471 0 13.0947 0 9C0 4.58172 3.58172 1 8 1C11.4019 1 14.3079 3.12339 15.4648 6.11711Z" fill="white"/>
</mask>
<g mask="url(#mask0_7264_121075)">
<mask id="mask1_7264_121075" style="mask-type:alpha" maskUnits="userSpaceOnUse" x="0" y="1" width="16" height="16">
<path d="M8 17C12.4183 17 16 13.4183 16 9C16 4.58172 12.4183 1 8 1C3.58172 1 0 4.58172 0 9C0 13.4183 3.58172 17 8 17Z" fill="#F0F0F0"/>
</mask>
<g mask="url(#mask1_7264_121075)">
<path d="M24.4076 0.969727V16.9094H-7.95469V0.969727H24.4076Z" fill="#012169"/>
<path d="M24.4076 0.969727L-7.95469 16.9094L24.4076 0.969727ZM-7.95469 0.969727L24.4076 16.9094L-7.95469 0.969727Z" fill="black"/>
<path d="M-7.95469 0.969727L24.4076 16.9094M24.4076 0.969727L-7.95469 16.9094L24.4076 0.969727Z" stroke="white" stroke-width="3.2"/>
<path d="M24.4076 0.969727L-7.95469 16.9094L24.4076 0.969727ZM-7.95469 0.969727L24.4076 16.9094L-7.95469 0.969727Z" fill="black"/>
<path d="M-7.95469 0.969727L24.4076 16.9094M24.4076 0.969727L-7.95469 16.9094L24.4076 0.969727Z" stroke="#C8102E" stroke-width="2.13333"/>
<path d="M8.22645 0.969727V16.9094V0.969727ZM24.4076 8.93954H-7.95469H24.4076Z" fill="black"/>
<path d="M24.4076 8.93954H-7.95469M8.22645 0.969727V16.9094V0.969727Z" stroke="white" stroke-width="5.33333"/>
<path d="M8.22645 0.969727V16.9094V0.969727ZM24.4076 8.93954H-7.95469H24.4076Z" fill="black"/>
<path d="M24.4076 8.93954H-7.95469M8.22645 0.969727V16.9094V0.969727Z" stroke="#C8102E" stroke-width="3.2"/>
</g>
</g>
<mask id="mask2_7264_121075" style="mask-type:alpha" maskUnits="userSpaceOnUse" x="8" y="7" width="16" height="17">
<path d="M23.7701 17.2181C22.7443 21.3323 18.5767 23.8362 14.4615 22.8102C10.3479 21.7845 7.84372 17.6172 8.87007 13.5031C9.89546 9.38838 14.063 6.88425 18.1771 7.91C22.2921 8.93575 24.796 13.1035 23.7701 17.2181Z" fill="white"/>
</mask>
<g mask="url(#mask2_7264_121075)">
<path d="M23.7701 17.2181C22.7443 21.3323 18.5767 23.8362 14.4615 22.8102C10.3479 21.7845 7.84372 17.6172 8.87007 13.5031C9.89546 9.38838 14.063 6.88425 18.1771 7.91C22.2921 8.93575 24.796 13.1035 23.7701 17.2181Z" fill="white"/>
<path d="M16.8209 17.2777H27.84C27.84 15.9924 27.713 14.7474 27.4762 13.563H16.8209V17.2777Z" fill="#D80027"/>
<path d="M16.8209 10.5575H27.84C27.84 9.27223 27.713 8.02716 27.4762 6.84277H16.8209V10.5575Z" fill="#D80027"/>
<path d="M8.27013 23.7479H26.2902C26.8092 22.606 27.2117 21.3578 27.4764 20.0332H7.08398C7.34869 21.3578 7.75116 22.606 8.27013 23.7479Z" fill="#D80027"/>
<path d="M11.52 7.68008L12.5739 8.36869L11.6787 9.01897L12.0207 10.0712L11.1256 9.4209L10.2305 10.0712L10.5259 9.16219C9.73773 9.81865 9.04696 10.5878 8.47771 11.4447H8.78605L8.21627 11.8587C8.1275 12.0067 8.04236 12.1572 7.96077 12.3098L8.23285 13.1472L7.72523 12.7784C7.59905 13.0457 7.48363 13.3191 7.37989 13.5981L7.67965 14.5208H8.78605L7.89093 15.1711L8.23285 16.2233L7.33777 15.573L6.8016 15.9625C6.74794 16.3939 6.71997 16.8333 6.71997 17.2792H17.2799C17.2799 11.4474 17.2799 10.7599 17.2799 6.71967C14.3602 6.23984 13.1576 6.63617 11.52 7.68008ZM12.0207 16.2233L11.1256 15.573L10.2305 16.2233L10.5724 15.1711L9.6773 14.5208H10.7837L11.1256 13.4686L11.4675 14.5208H12.5739L11.6787 15.1711L12.0207 16.2233ZM11.6787 12.095L12.0207 13.1472L11.1256 12.4969L10.2305 13.1472L10.5724 12.095L9.6773 11.4447H10.7837L11.1256 10.3925L11.4675 11.4447H12.5739L11.6787 12.095ZM15.8085 16.2233L14.9134 15.573L14.0183 16.2233L14.3602 15.1711L13.4651 14.5208H14.5715L14.9134 13.4686L15.2553 14.5208H16.3617L15.4666 15.1711L15.8085 16.2233ZM15.4666 12.095L15.8085 13.1472L14.9134 12.4969L14.0183 13.1472L14.3602 12.095L13.4651 11.4447H14.5715L14.9134 10.3925L15.2553 11.4447H16.3617L15.4666 12.095ZM15.4666 9.01897L15.8085 10.0712L14.9134 9.4209L14.0183 10.0712L14.3602 9.01897L13.4651 8.36869H14.5715L14.9134 7.31649L15.2553 8.36869H16.3617L15.4666 9.01897Z" fill="#0052B4"/>
</g>
</g>
<defs>
<clipPath id="clip0_7264_121075">
<rect width="24" height="24" fill="white"/>
</clipPath>
</defs>
</svg>
