<svg width="660" height="293" viewBox="0 0 660 293" fill="none" xmlns="http://www.w3.org/2000/svg">
<path d="M6.49 2.3C7.24533 2.3 7.78067 2.45033 8.096 2.751C8.41867 3.05167 8.58 3.50633 8.58 4.115V4.643C8.58 5.25167 8.36367 5.71733 7.931 6.04C8.40033 6.34067 8.635 6.81367 8.635 7.459V8.097C8.635 8.39033 8.602 8.65433 8.536 8.889C8.47 9.12367 8.36 9.32533 8.206 9.494C8.052 9.65533 7.85033 9.78 7.601 9.868C7.35167 9.956 7.04733 10 6.688 10L0.792 10C0.630667 10 0.55 9.91933 0.55 9.758L0.55 8.779C0.55 8.61767 0.630667 8.537 0.792 8.537L6.193 8.537C6.479 8.537 6.68433 8.482 6.809 8.372C6.941 8.262 7.007 8.08967 7.007 7.855V7.448C7.007 7.22067 6.93733 7.04833 6.798 6.931C6.666 6.80633 6.41667 6.744 6.05 6.744L0.858 6.744C0.689333 6.744 0.605 6.66333 0.605 6.502L0.605 5.721C0.605 5.55967 0.689333 5.479 0.858 5.479L6.05 5.479C6.41667 5.479 6.666 5.424 6.798 5.314C6.93 5.19667 6.996 5.03167 6.996 4.819V4.434C6.996 4.19933 6.93 4.03067 6.798 3.928C6.67333 3.818 6.46433 3.763 6.171 3.763L0.792 3.763C0.630667 3.763 0.55 3.68233 0.55 3.521L0.55 2.542C0.55 2.38067 0.630667 2.3 0.792 2.3L6.49 2.3ZM15.9695 2.3C16.5268 2.3 16.9998 2.355 17.3885 2.465C17.7772 2.56767 18.0925 2.73633 18.3345 2.971C18.5838 3.19833 18.7635 3.49533 18.8735 3.862C18.9908 4.22867 19.0495 4.676 19.0495 5.204V7.096C19.0495 7.624 18.9908 8.075 18.8735 8.449C18.7635 8.81567 18.5838 9.11633 18.3345 9.351C18.0925 9.57833 17.7772 9.74333 17.3885 9.846C16.9998 9.94867 16.5268 10 15.9695 10H13.4285C12.8712 10 12.3982 9.94867 12.0095 9.846C11.6208 9.74333 11.3018 9.57833 11.0525 9.351C10.8105 9.11633 10.6308 8.81567 10.5135 8.449C10.4035 8.075 10.3485 7.624 10.3485 7.096L10.3485 5.204C10.3485 4.676 10.4035 4.22867 10.5135 3.862C10.6308 3.49533 10.8105 3.19833 11.0525 2.971C11.3018 2.73633 11.6208 2.56767 12.0095 2.465C12.3982 2.355 12.8712 2.3 13.4285 2.3L15.9695 2.3ZM11.9765 7.03C11.9765 7.32333 11.9985 7.569 12.0425 7.767C12.0865 7.95767 12.1635 8.11167 12.2735 8.229C12.3835 8.339 12.5302 8.41967 12.7135 8.471C12.9042 8.515 13.1425 8.537 13.4285 8.537H15.9695C16.2555 8.537 16.4902 8.515 16.6735 8.471C16.8642 8.41967 17.0145 8.339 17.1245 8.229C17.2345 8.11167 17.3115 7.95767 17.3555 7.767C17.3995 7.569 17.4215 7.32333 17.4215 7.03V5.27C17.4215 4.97667 17.3995 4.73467 17.3555 4.544C17.3115 4.35333 17.2345 4.19933 17.1245 4.082C17.0145 3.96467 16.8642 3.884 16.6735 3.84C16.4902 3.78867 16.2555 3.763 15.9695 3.763L13.4285 3.763C13.1425 3.763 12.9042 3.78867 12.7135 3.84C12.5302 3.884 12.3835 3.96467 12.2735 4.082C12.1635 4.19933 12.0865 4.35333 12.0425 4.544C11.9985 4.73467 11.9765 4.97667 11.9765 5.27L11.9765 7.03ZM30.4586 2.3C31.0526 2.3 31.5622 2.36233 31.9876 2.487C32.4129 2.60433 32.7612 2.79133 33.0326 3.048C33.3039 3.29733 33.5019 3.62 33.6266 4.016C33.7586 4.40467 33.8246 4.86667 33.8246 5.402V6.898C33.8246 7.43333 33.7586 7.899 33.6266 8.295C33.5019 8.68367 33.3039 9.00633 33.0326 9.263C32.7612 9.51233 32.4129 9.69933 31.9876 9.824C31.5622 9.94133 31.0526 10 30.4586 10L25.3106 10C25.0906 10 24.9806 9.89 24.9806 9.67V2.63C24.9806 2.41 25.0906 2.3 25.3106 2.3L30.4586 2.3ZM26.6636 8.328C26.6636 8.42333 26.7112 8.471 26.8066 8.471L30.4146 8.471C30.7372 8.471 31.0086 8.44167 31.2286 8.383C31.4486 8.32433 31.6246 8.229 31.7566 8.097C31.8959 7.965 31.9949 7.789 32.0536 7.569C32.1122 7.349 32.1416 7.07767 32.1416 6.755V5.545C32.1416 5.22233 32.1122 4.951 32.0536 4.731C31.9949 4.511 31.8959 4.335 31.7566 4.203C31.6246 4.071 31.4486 3.97567 31.2286 3.917C31.0086 3.85833 30.7372 3.829 30.4146 3.829L26.8066 3.829C26.7112 3.829 26.6636 3.88033 26.6636 3.983V8.328ZM40.08 2.3C40.3586 2.3 40.5933 2.35867 40.784 2.476C40.9746 2.586 41.1616 2.806 41.345 3.136L44.986 9.747C45.0226 9.82033 45.03 9.88267 45.008 9.934C44.9933 9.978 44.942 10 44.854 10H43.457C43.3323 10 43.248 9.95233 43.204 9.857L42.423 8.438L37.253 8.438L36.494 9.857C36.4426 9.95233 36.3583 10 36.241 10H34.811C34.7156 10 34.657 9.978 34.635 9.934C34.6203 9.88267 34.6313 9.82033 34.668 9.747L38.276 3.136C38.4593 2.806 38.639 2.586 38.815 2.476C38.991 2.35867 39.1963 2.3 39.431 2.3L40.08 2.3ZM37.946 7.162L41.73 7.162L39.981 3.939C39.9516 3.88767 39.9113 3.862 39.86 3.862H39.794C39.7426 3.862 39.7023 3.88767 39.673 3.939L37.946 7.162ZM45.4995 2.3C45.6169 2.3 45.7049 2.344 45.7635 2.432L48.7005 6.403L51.6595 2.432C51.7182 2.344 51.8062 2.3 51.9235 2.3H53.3645C53.4232 2.3 53.4635 2.32567 53.4855 2.377C53.5075 2.421 53.5002 2.46867 53.4635 2.52L49.5145 7.646V9.758C49.5145 9.91933 49.4339 10 49.2725 10H48.0845C47.9159 10 47.8315 9.91933 47.8315 9.758V7.646L43.9265 2.52C43.8899 2.46867 43.8789 2.421 43.8935 2.377C43.9155 2.32567 43.9595 2.3 44.0255 2.3H45.4995ZM62.0686 2.3C62.23 2.3 62.3106 2.38067 62.3106 2.542V3.587C62.3106 3.74833 62.23 3.829 62.0686 3.829L56.5576 3.829C56.345 3.829 56.1946 3.884 56.1066 3.994C56.0186 4.104 55.9746 4.25433 55.9746 4.445V4.819C55.9746 5.22967 56.1653 5.435 56.5466 5.435L60.6716 5.435C61.3096 5.435 61.79 5.6 62.1126 5.93C62.4353 6.25267 62.5966 6.71833 62.5966 7.327V8.207C62.5966 8.74233 62.439 9.175 62.1236 9.505C61.8083 9.835 61.317 10 60.6496 10H54.5556C54.3869 10 54.3026 9.91933 54.3026 9.758V8.713C54.3026 8.55167 54.3869 8.471 54.5556 8.471H60.3306C60.5433 8.471 60.6936 8.416 60.7816 8.306C60.8696 8.196 60.9136 8.04567 60.9136 7.855V7.404C60.9136 6.99333 60.723 6.788 60.3416 6.788L56.2166 6.788C55.5786 6.788 55.0983 6.62667 54.7756 6.304C54.4529 5.974 54.2916 5.50467 54.2916 4.896V4.093C54.2916 3.55767 54.4493 3.125 54.7646 2.795C55.0799 2.465 55.5713 2.3 56.2386 2.3L62.0686 2.3ZM76.7908 2.3C76.9595 2.3 77.0438 2.38067 77.0438 2.542V3.62C77.0438 3.78867 76.9595 3.873 76.7908 3.873L73.3368 3.873V9.758C73.3368 9.91933 73.2562 10 73.0948 10H71.8958C71.7345 10 71.6538 9.91933 71.6538 9.758V3.873L68.1998 3.873C68.0312 3.873 67.9468 3.78867 67.9468 3.62V2.542C67.9468 2.38067 68.0312 2.3 68.1998 2.3L76.7908 2.3ZM84.7003 2.3C85.5437 2.3 86.1487 2.49067 86.5153 2.872C86.882 3.25333 87.0653 3.818 87.0653 4.566V5.193C87.0653 5.82367 86.937 6.32233 86.6803 6.689C86.4237 7.05567 86.0057 7.29033 85.4263 7.393L87.3073 9.725C87.344 9.76167 87.355 9.81667 87.3403 9.89C87.3257 9.96333 87.267 10 87.1643 10H85.7453C85.65 10 85.584 9.989 85.5473 9.967C85.5107 9.945 85.474 9.90833 85.4373 9.857L83.6993 7.569H80.1463V9.758C80.1463 9.91933 80.0657 10 79.9043 10H78.7163C78.5477 10 78.4633 9.91933 78.4633 9.758V2.63C78.4633 2.41 78.5733 2.3 78.7933 2.3L84.7003 2.3ZM80.1463 6.227H84.3593C84.7333 6.227 84.9973 6.14633 85.1513 5.985C85.3053 5.82367 85.3823 5.578 85.3823 5.248V4.786C85.3823 4.456 85.3053 4.21033 85.1513 4.049C84.9973 3.88767 84.7333 3.807 84.3593 3.807L80.2893 3.807C80.194 3.807 80.1463 3.851 80.1463 3.939V6.227ZM93.7454 2.3C94.024 2.3 94.2587 2.35867 94.4494 2.476C94.64 2.586 94.827 2.806 95.0104 3.136L98.6514 9.747C98.688 9.82033 98.6954 9.88267 98.6734 9.934C98.6587 9.978 98.6074 10 98.5194 10H97.1224C96.9977 10 96.9134 9.95233 96.8694 9.857L96.0884 8.438L90.9184 8.438L90.1594 9.857C90.108 9.95233 90.0237 10 89.9064 10H88.4764C88.381 10 88.3224 9.978 88.3004 9.934C88.2857 9.88267 88.2967 9.82033 88.3334 9.747L91.9414 3.136C92.1247 2.806 92.3044 2.586 92.4804 2.476C92.6564 2.35867 92.8617 2.3 93.0964 2.3H93.7454ZM91.6114 7.162H95.3954L93.6464 3.939C93.617 3.88767 93.5767 3.862 93.5254 3.862H93.4594C93.408 3.862 93.3677 3.88767 93.3384 3.939L91.6114 7.162ZM105.5 2.3C106.094 2.3 106.604 2.36233 107.029 2.487C107.454 2.60433 107.803 2.79133 108.074 3.048C108.345 3.29733 108.543 3.62 108.668 4.016C108.8 4.40467 108.866 4.86667 108.866 5.402V6.898C108.866 7.43333 108.8 7.899 108.668 8.295C108.543 8.68367 108.345 9.00633 108.074 9.263C107.803 9.51233 107.454 9.69933 107.029 9.824C106.604 9.94133 106.094 10 105.5 10L100.352 10C100.132 10 100.022 9.89 100.022 9.67V2.63C100.022 2.41 100.132 2.3 100.352 2.3L105.5 2.3ZM101.705 8.328C101.705 8.42333 101.753 8.471 101.848 8.471L105.456 8.471C105.779 8.471 106.05 8.44167 106.27 8.383C106.49 8.32433 106.666 8.229 106.798 8.097C106.937 7.965 107.036 7.789 107.095 7.569C107.154 7.349 107.183 7.07767 107.183 6.755V5.545C107.183 5.22233 107.154 4.951 107.095 4.731C107.036 4.511 106.937 4.335 106.798 4.203C106.666 4.071 106.49 3.97567 106.27 3.917C106.05 3.85833 105.779 3.829 105.456 3.829L101.848 3.829C101.753 3.829 101.705 3.88033 101.705 3.983V8.328ZM112.119 2.3C112.28 2.3 112.361 2.38067 112.361 2.542V9.758C112.361 9.91933 112.28 10 112.119 10H110.931C110.762 10 110.678 9.91933 110.678 9.758V2.542C110.678 2.38067 110.762 2.3 110.931 2.3L112.119 2.3ZM116.223 2.3C116.399 2.3 116.546 2.30733 116.663 2.322C116.781 2.33667 116.883 2.36967 116.971 2.421C117.059 2.465 117.144 2.531 117.224 2.619C117.305 2.69967 117.397 2.80967 117.499 2.949L121.591 8.317C121.621 8.36833 121.668 8.394 121.734 8.394H121.833C121.892 8.394 121.921 8.35733 121.921 8.284V2.542C121.921 2.38067 122.002 2.3 122.163 2.3L123.318 2.3C123.48 2.3 123.56 2.38067 123.56 2.542V8.856C123.56 9.30333 123.48 9.60767 123.318 9.769C123.157 9.923 122.908 10 122.57 10H121.624C121.456 10 121.313 9.99267 121.195 9.978C121.085 9.96333 120.986 9.934 120.898 9.89C120.81 9.846 120.722 9.78367 120.634 9.703C120.554 9.615 120.458 9.49767 120.348 9.351L116.245 3.983C116.201 3.93167 116.154 3.906 116.102 3.906H116.003C115.945 3.906 115.915 3.94267 115.915 4.016V9.758C115.915 9.91933 115.835 10 115.673 10H114.518C114.35 10 114.265 9.91933 114.265 9.758V3.444C114.265 2.99667 114.346 2.696 114.507 2.542C114.669 2.38067 114.918 2.3 115.255 2.3H116.223ZM134.027 2.3C134.189 2.3 134.269 2.38067 134.269 2.542V3.62C134.269 3.78867 134.189 3.873 134.027 3.873L128.516 3.873C128.23 3.873 127.992 3.89867 127.801 3.95C127.618 3.994 127.471 4.07467 127.361 4.192C127.251 4.302 127.171 4.45233 127.119 4.643C127.075 4.83367 127.053 5.07567 127.053 5.369V6.953C127.053 7.24633 127.075 7.492 127.119 7.69C127.171 7.88067 127.251 8.03467 127.361 8.152C127.471 8.262 127.618 8.34267 127.801 8.394C127.992 8.438 128.23 8.46 128.516 8.46H132.146C132.337 8.46 132.476 8.41233 132.564 8.317C132.652 8.21433 132.696 8.03833 132.696 7.789V6.898C132.696 6.80267 132.652 6.755 132.564 6.755L129.341 6.755C129.18 6.755 129.099 6.67067 129.099 6.502V5.677C129.099 5.50833 129.18 5.424 129.341 5.424L133.928 5.424C134.148 5.424 134.258 5.534 134.258 5.754V8.317C134.258 8.933 134.141 9.36933 133.906 9.626C133.672 9.87533 133.334 10 132.894 10H128.45C127.893 10 127.42 9.94867 127.031 9.846C126.643 9.74333 126.324 9.57833 126.074 9.351C125.832 9.11633 125.653 8.81567 125.535 8.449C125.425 8.075 125.37 7.624 125.37 7.096V5.204C125.37 4.676 125.425 4.22867 125.535 3.862C125.653 3.49533 125.832 3.19833 126.074 2.971C126.324 2.73633 126.643 2.56767 127.031 2.465C127.42 2.355 127.893 2.3 128.45 2.3L134.027 2.3ZM141.207 2.3C141.281 2.3 141.332 2.311 141.361 2.333C141.398 2.355 141.431 2.39167 141.46 2.443L144.683 8.361C144.705 8.41233 144.749 8.438 144.815 8.438H144.87C144.922 8.438 144.962 8.41233 144.991 8.361L148.17 2.443C148.214 2.34767 148.299 2.3 148.423 2.3H149.864C149.952 2.3 150.004 2.32567 150.018 2.377C150.04 2.421 150.033 2.47967 149.996 2.553L146.388 9.164C146.205 9.50133 146.025 9.725 145.849 9.835C145.673 9.945 145.468 10 145.233 10H144.595C144.309 10 144.071 9.945 143.88 9.835C143.697 9.725 143.514 9.50133 143.33 9.164L139.678 2.553C139.642 2.47967 139.631 2.421 139.645 2.377C139.667 2.32567 139.726 2.3 139.821 2.3H141.207ZM157.318 2.3C157.875 2.3 158.348 2.355 158.737 2.465C159.133 2.56767 159.452 2.73633 159.694 2.971C159.943 3.19833 160.123 3.49533 160.233 3.862C160.343 4.22867 160.398 4.676 160.398 5.204V7.096C160.398 7.624 160.343 8.075 160.233 8.449C160.123 8.81567 159.943 9.11633 159.694 9.351C159.452 9.57833 159.133 9.74333 158.737 9.846C158.348 9.94867 157.875 10 157.318 10H153.919C153.361 10 152.888 9.94867 152.5 9.846C152.111 9.74333 151.792 9.57833 151.543 9.351C151.301 9.11633 151.121 8.81567 151.004 8.449C150.894 8.075 150.839 7.624 150.839 7.096V5.204C150.839 4.676 150.894 4.22867 151.004 3.862C151.121 3.49533 151.301 3.19833 151.543 2.971C151.792 2.73633 152.111 2.56767 152.5 2.465C152.888 2.355 153.361 2.3 153.919 2.3L157.318 2.3ZM152.522 6.975C152.522 7.261 152.544 7.503 152.588 7.701C152.639 7.89167 152.72 8.04567 152.83 8.163C152.94 8.273 153.086 8.35367 153.27 8.405C153.46 8.449 153.699 8.471 153.985 8.471H157.252C157.538 8.471 157.772 8.449 157.956 8.405C158.146 8.35367 158.297 8.273 158.407 8.163C158.517 8.04567 158.594 7.89167 158.638 7.701C158.689 7.503 158.715 7.261 158.715 6.975V5.325C158.715 5.039 158.689 4.80067 158.638 4.61C158.594 4.412 158.517 4.258 158.407 4.148C158.297 4.03067 158.146 3.95 157.956 3.906C157.772 3.85467 157.538 3.829 157.252 3.829L153.985 3.829C153.699 3.829 153.46 3.85467 153.27 3.906C153.086 3.95 152.94 4.03067 152.83 4.148C152.72 4.258 152.639 4.412 152.588 4.61C152.544 4.80067 152.522 5.039 152.522 5.325V6.975ZM163.625 2.3C163.786 2.3 163.867 2.38067 163.867 2.542V6.931C163.867 7.22433 163.889 7.47 163.933 7.668C163.984 7.85867 164.065 8.01267 164.175 8.13C164.285 8.24 164.431 8.32067 164.615 8.372C164.805 8.416 165.044 8.438 165.33 8.438H169.785C169.946 8.438 170.027 8.51867 170.027 8.68V9.758C170.027 9.91933 169.946 10 169.785 10H165.264C164.706 10 164.233 9.94867 163.845 9.846C163.456 9.74333 163.137 9.57833 162.888 9.351C162.646 9.11633 162.466 8.81567 162.349 8.449C162.239 8.075 162.184 7.624 162.184 7.096V2.542C162.184 2.38067 162.268 2.3 162.437 2.3H163.625ZM172.723 2.3C172.884 2.3 172.965 2.38067 172.965 2.542V6.931C172.965 7.22433 172.987 7.47 173.031 7.668C173.082 7.85867 173.163 8.01267 173.273 8.13C173.383 8.24 173.529 8.32067 173.713 8.372C173.903 8.416 174.142 8.438 174.428 8.438H177.475C177.761 8.438 177.995 8.416 178.179 8.372C178.369 8.32067 178.52 8.24 178.63 8.13C178.74 8.01267 178.817 7.85867 178.861 7.668C178.905 7.47 178.927 7.22433 178.927 6.931V2.542C178.927 2.38067 179.007 2.3 179.169 2.3H180.368C180.529 2.3 180.61 2.38067 180.61 2.542V7.096C180.61 7.624 180.555 8.075 180.445 8.449C180.335 8.81567 180.155 9.11633 179.906 9.351C179.664 9.57833 179.345 9.74333 178.949 9.846C178.56 9.94867 178.087 10 177.53 10H174.362C173.804 10 173.331 9.94867 172.943 9.846C172.554 9.74333 172.235 9.57833 171.986 9.351C171.744 9.11633 171.564 8.81567 171.447 8.449C171.337 8.075 171.282 7.624 171.282 7.096V2.542C171.282 2.38067 171.366 2.3 171.535 2.3L172.723 2.3ZM184.664 2.3C184.825 2.3 184.965 2.311 185.082 2.333C185.199 2.355 185.302 2.399 185.39 2.465C185.478 2.52367 185.555 2.608 185.621 2.718C185.694 2.82067 185.768 2.96 185.841 3.136L188.129 8.416C188.158 8.482 188.21 8.515 188.283 8.515H188.415C188.488 8.515 188.54 8.482 188.569 8.416L190.857 3.136C190.93 2.96 191 2.82067 191.066 2.718C191.139 2.608 191.22 2.52367 191.308 2.465C191.396 2.399 191.495 2.355 191.605 2.333C191.722 2.311 191.862 2.3 192.023 2.3H193.2C193.581 2.3 193.838 2.388 193.97 2.564C194.102 2.73267 194.168 3.026 194.168 3.444V9.758C194.168 9.91933 194.084 10 193.915 10L192.793 10C192.632 10 192.551 9.91933 192.551 9.758V4.016C192.551 3.94267 192.522 3.906 192.463 3.906H192.364C192.291 3.906 192.243 3.93533 192.221 3.994L189.999 8.922C189.911 9.12 189.819 9.28867 189.724 9.428C189.636 9.56 189.537 9.67 189.427 9.758C189.324 9.846 189.203 9.90833 189.064 9.945C188.932 9.98167 188.774 10 188.591 10H188.063C187.88 10 187.718 9.98167 187.579 9.945C187.447 9.90833 187.326 9.846 187.216 9.758C187.113 9.67 187.014 9.56 186.919 9.428C186.831 9.28867 186.743 9.12 186.655 8.922L184.433 3.994C184.411 3.93533 184.363 3.906 184.29 3.906H184.191C184.132 3.906 184.103 3.94267 184.103 4.016V9.758C184.103 9.91933 184.022 10 183.861 10H182.739C182.57 10 182.486 9.91933 182.486 9.758V3.444C182.486 3.026 182.552 2.73267 182.684 2.564C182.816 2.388 183.076 2.3 183.465 2.3L184.664 2.3ZM203.896 2.3C204.064 2.3 204.149 2.38067 204.149 2.542V3.587C204.149 3.74833 204.064 3.829 203.896 3.829L199.089 3.829C198.803 3.829 198.564 3.85467 198.374 3.906C198.19 3.95 198.04 4.03067 197.923 4.148C197.813 4.258 197.736 4.412 197.692 4.61C197.648 4.80067 197.626 5.039 197.626 5.325V5.435L203.841 5.435C204.002 5.435 204.083 5.51567 204.083 5.677V6.546C204.083 6.70733 204.002 6.788 203.841 6.788L197.626 6.788V6.975C197.626 7.261 197.648 7.503 197.692 7.701C197.736 7.89167 197.813 8.04567 197.923 8.163C198.04 8.273 198.19 8.35367 198.374 8.405C198.564 8.449 198.803 8.471 199.089 8.471H203.896C204.064 8.471 204.149 8.55167 204.149 8.713V9.758C204.149 9.91933 204.064 10 203.896 10H199.056C198.498 10 198.025 9.94867 197.637 9.846C197.248 9.74333 196.929 9.57833 196.68 9.351C196.438 9.11633 196.258 8.81567 196.141 8.449C196.031 8.075 195.976 7.624 195.976 7.096V5.204C195.976 4.676 196.031 4.22867 196.141 3.862C196.258 3.49533 196.438 3.19833 196.68 2.971C196.929 2.73633 197.248 2.56767 197.637 2.465C198.025 2.355 198.498 2.3 199.056 2.3L203.896 2.3Z" fill="white"/>
<mask id="mask0_7634_91111" style="mask-type:alpha" maskUnits="userSpaceOnUse" x="0" y="29" width="660" height="264">
<path d="M0.5 37C0.5 32.8579 3.85786 29.5 8 29.5H652C656.142 29.5 659.5 32.8579 659.5 37V285C659.5 289.142 656.142 292.5 652 292.5H7.99999C3.85786 292.5 0.5 289.142 0.5 285V37Z" fill="#020610" fill-opacity="0.88" stroke="black"/>
</mask>
<g mask="url(#mask0_7634_91111)">
<g filter="url(#filter0_b_7634_91111)">
<path d="M0.5 37C0.5 32.8579 3.85786 29.5 8 29.5H652C656.142 29.5 659.5 32.8579 659.5 37V285C659.5 289.142 656.142 292.5 652 292.5H7.99999C3.85786 292.5 0.5 289.142 0.5 285V37Z" stroke="#3E4868" stroke-opacity="0.54"/>
</g>
<path opacity="0.6" d="M8.84791 59L8.84791 53.933C8.63191 54.107 8.45341 54.2315 8.31241 54.3065C8.17141 54.3815 8.03791 54.44 7.91191 54.482L7.76791 53.681C7.92991 53.627 8.09491 53.5505 8.26291 53.4515C8.43391 53.3495 8.59141 53.234 8.73541 53.105C8.88241 52.976 9.00091 52.841 9.09091 52.7H9.67591L9.67591 59H8.84791ZM13.5385 59.126C12.9835 59.126 12.508 58.9835 12.112 58.6985C11.716 58.4135 11.4115 58.0205 11.1985 57.5195C10.9885 57.0185 10.8835 56.444 10.8835 55.796C10.8835 55.148 10.996 54.5825 11.221 54.0995C11.446 53.6165 11.758 53.2415 12.157 52.9745C12.556 52.7075 13.0165 52.574 13.5385 52.574C14.0725 52.574 14.5375 52.7075 14.9335 52.9745C15.3325 53.2415 15.6415 53.6165 15.8605 54.0995C16.0825 54.5825 16.1935 55.148 16.1935 55.796C16.1935 56.444 16.0885 57.0185 15.8785 57.5195C15.6685 58.0205 15.3655 58.4135 14.9695 58.6985C14.5735 58.9835 14.0965 59.126 13.5385 59.126ZM13.5385 58.352C13.9105 58.352 14.2255 58.253 14.4835 58.055C14.7445 57.857 14.9425 57.5675 15.0775 57.1865C15.2155 56.8055 15.2845 56.342 15.2845 55.796C15.2845 54.977 15.1255 54.365 14.8075 53.96C14.4925 53.552 14.0695 53.348 13.5385 53.348C13.0345 53.348 12.6175 53.552 12.2875 53.96C11.9575 54.365 11.7925 54.977 11.7925 55.796C11.7925 56.342 11.86 56.8055 11.995 57.1865C12.133 57.5675 12.331 57.857 12.589 58.055C12.85 58.253 13.1665 58.352 13.5385 58.352ZM19.8226 59.126C19.2676 59.126 18.7921 58.9835 18.3961 58.6985C18.0001 58.4135 17.6956 58.0205 17.4826 57.5195C17.2726 57.0185 17.1676 56.444 17.1676 55.796C17.1676 55.148 17.2801 54.5825 17.5051 54.0995C17.7301 53.6165 18.0421 53.2415 18.4411 52.9745C18.8401 52.7075 19.3006 52.574 19.8226 52.574C20.3566 52.574 20.8216 52.7075 21.2176 52.9745C21.6166 53.2415 21.9256 53.6165 22.1446 54.0995C22.3666 54.5825 22.4776 55.148 22.4776 55.796C22.4776 56.444 22.3726 57.0185 22.1626 57.5195C21.9526 58.0205 21.6496 58.4135 21.2536 58.6985C20.8576 58.9835 20.3806 59.126 19.8226 59.126ZM19.8226 58.352C20.1946 58.352 20.5096 58.253 20.7676 58.055C21.0286 57.857 21.2266 57.5675 21.3616 57.1865C21.4996 56.8055 21.5686 56.342 21.5686 55.796C21.5686 54.977 21.4096 54.365 21.0916 53.96C20.7766 53.552 20.3536 53.348 19.8226 53.348C19.3186 53.348 18.9016 53.552 18.5716 53.96C18.2416 54.365 18.0766 54.977 18.0766 55.796C18.0766 56.342 18.1441 56.8055 18.2791 57.1865C18.4171 57.5675 18.6151 57.857 18.8731 58.055C19.1341 58.253 19.4506 58.352 19.8226 58.352ZM23.5058 59V52.25H24.3158V56.579L25.9358 54.59H26.9258L25.1708 56.642L26.9708 59H25.9808L24.3158 56.759V59H23.5058Z" fill="#667094"/>
<path opacity="0.6" d="M13.4204 79L12.8354 78.451C13.0844 78.322 13.3259 78.172 13.5599 78.001C13.7969 77.827 14.0174 77.6335 14.2214 77.4205C14.4254 77.2045 14.6039 76.9735 14.7569 76.7275C14.9099 76.4785 15.0299 76.2145 15.1169 75.9355C15.2039 75.6535 15.2474 75.361 15.2474 75.058L15.5354 75.544C15.3914 75.832 15.1709 76.06 14.8739 76.228C14.5769 76.396 14.2274 76.48 13.8254 76.48C13.4594 76.48 13.1354 76.3975 12.8534 76.2325C12.5714 76.0645 12.3509 75.8365 12.1919 75.5485C12.0329 75.2605 11.9534 74.935 11.9534 74.572C11.9534 74.182 12.0404 73.837 12.2144 73.537C12.3884 73.237 12.6299 73.0015 12.9389 72.8305C13.2509 72.6595 13.6124 72.574 14.0234 72.574C14.4644 72.574 14.8409 72.673 15.1529 72.871C15.4679 73.066 15.7079 73.339 15.8729 73.69C16.0379 74.041 16.1204 74.449 16.1204 74.914C16.1204 75.394 16.0409 75.8455 15.8819 76.2685C15.7229 76.6885 15.5114 77.074 15.2474 77.425C14.9864 77.773 14.6969 78.0805 14.3789 78.3475C14.0609 78.6145 13.7414 78.832 13.4204 79ZM14.0234 75.742C14.3834 75.742 14.6729 75.6265 14.8919 75.3955C15.1109 75.1645 15.2204 74.878 15.2204 74.536C15.2204 74.179 15.1109 73.8865 14.8919 73.6585C14.6729 73.4275 14.3834 73.312 14.0234 73.312C13.6634 73.312 13.3754 73.4305 13.1594 73.6675C12.9434 73.9045 12.8354 74.197 12.8354 74.545C12.8354 74.881 12.9434 75.1645 13.1594 75.3955C13.3754 75.6265 13.6634 75.742 14.0234 75.742ZM19.8226 79.126C19.2676 79.126 18.7921 78.9835 18.3961 78.6985C18.0001 78.4135 17.6956 78.0205 17.4826 77.5195C17.2726 77.0185 17.1676 76.444 17.1676 75.796C17.1676 75.148 17.2801 74.5825 17.5051 74.0995C17.7301 73.6165 18.0421 73.2415 18.4411 72.9745C18.8401 72.7075 19.3006 72.574 19.8226 72.574C20.3566 72.574 20.8216 72.7075 21.2176 72.9745C21.6166 73.2415 21.9256 73.6165 22.1446 74.0995C22.3666 74.5825 22.4776 75.148 22.4776 75.796C22.4776 76.444 22.3726 77.0185 22.1626 77.5195C21.9526 78.0205 21.6496 78.4135 21.2536 78.6985C20.8576 78.9835 20.3806 79.126 19.8226 79.126ZM19.8226 78.352C20.1946 78.352 20.5096 78.253 20.7676 78.055C21.0286 77.857 21.2266 77.5675 21.3616 77.1865C21.4996 76.8055 21.5686 76.342 21.5686 75.796C21.5686 74.977 21.4096 74.365 21.0916 73.96C20.7766 73.552 20.3536 73.348 19.8226 73.348C19.3186 73.348 18.9016 73.552 18.5716 73.96C18.2416 74.365 18.0766 74.977 18.0766 75.796C18.0766 76.342 18.1441 76.8055 18.2791 77.1865C18.4171 77.5675 18.6151 77.857 18.8731 78.055C19.1341 78.253 19.4506 78.352 19.8226 78.352ZM23.5058 79V72.25H24.3158V76.579L25.9358 74.59H26.9258L25.1708 76.642L26.9708 79H25.9808L24.3158 76.759V79H23.5058Z" fill="#667094"/>
<path opacity="0.6" d="M13.9506 99.126C13.5006 99.126 13.1121 99.045 12.7851 98.883C12.4581 98.718 12.2061 98.4915 12.0291 98.2035C11.8521 97.9125 11.7636 97.578 11.7636 97.2C11.7636 96.81 11.8551 96.4695 12.0381 96.1785C12.2211 95.8875 12.4761 95.661 12.8031 95.499C13.1331 95.337 13.5156 95.256 13.9506 95.256C14.3856 95.256 14.7666 95.337 15.0936 95.499C15.4236 95.661 15.6801 95.8875 15.8631 96.1785C16.0461 96.4695 16.1376 96.81 16.1376 97.2C16.1376 97.578 16.0476 97.9125 15.8676 98.2035C15.6906 98.4915 15.4386 98.718 15.1116 98.883C14.7846 99.045 14.3976 99.126 13.9506 99.126ZM13.9506 98.352C14.3646 98.352 14.6856 98.247 14.9136 98.037C15.1416 97.824 15.2556 97.545 15.2556 97.2C15.2556 96.84 15.1416 96.543 14.9136 96.309C14.6856 96.075 14.3646 95.958 13.9506 95.958C13.5366 95.958 13.2156 96.075 12.9876 96.309C12.7596 96.543 12.6456 96.84 12.6456 97.2C12.6456 97.545 12.7596 97.824 12.9876 98.037C13.2156 98.247 13.5366 98.352 13.9506 98.352ZM13.9506 95.913C13.5996 95.913 13.2801 95.844 12.9921 95.706C12.7071 95.565 12.4791 95.3715 12.3081 95.1255C12.1371 94.8795 12.0516 94.596 12.0516 94.275C12.0516 93.999 12.1161 93.7305 12.2451 93.4695C12.3741 93.2085 12.5781 92.994 12.8571 92.826C13.1361 92.658 13.5006 92.574 13.9506 92.574C14.4006 92.574 14.7621 92.658 15.0351 92.826C15.3081 92.994 15.5061 93.2085 15.6291 93.4695C15.7521 93.7305 15.8136 93.999 15.8136 94.275C15.8136 94.596 15.7371 94.8795 15.5841 95.1255C15.4311 95.3715 15.2151 95.565 14.9361 95.706C14.6571 95.844 14.3286 95.913 13.9506 95.913ZM13.9506 95.211C14.2836 95.211 14.5341 95.1195 14.7021 94.9365C14.8731 94.7505 14.9586 94.53 14.9586 94.275C14.9586 93.999 14.8731 93.7755 14.7021 93.6045C14.5341 93.4335 14.2836 93.348 13.9506 93.348C13.6176 93.348 13.3596 93.4335 13.1766 93.6045C12.9966 93.7755 12.9066 93.999 12.9066 94.275C12.9066 94.53 12.9966 94.7505 13.1766 94.9365C13.3596 95.1195 13.6176 95.211 13.9506 95.211ZM19.8226 99.126C19.2676 99.126 18.7921 98.9835 18.3961 98.6985C18.0001 98.4135 17.6956 98.0205 17.4826 97.5195C17.2726 97.0185 17.1676 96.444 17.1676 95.796C17.1676 95.148 17.2801 94.5825 17.5051 94.0995C17.7301 93.6165 18.0421 93.2415 18.4411 92.9745C18.8401 92.7075 19.3006 92.574 19.8226 92.574C20.3566 92.574 20.8216 92.7075 21.2176 92.9745C21.6166 93.2415 21.9256 93.6165 22.1446 94.0995C22.3666 94.5825 22.4776 95.148 22.4776 95.796C22.4776 96.444 22.3726 97.0185 22.1626 97.5195C21.9526 98.0205 21.6496 98.4135 21.2536 98.6985C20.8576 98.9835 20.3806 99.126 19.8226 99.126ZM19.8226 98.352C20.1946 98.352 20.5096 98.253 20.7676 98.055C21.0286 97.857 21.2266 97.5675 21.3616 97.1865C21.4996 96.8055 21.5686 96.342 21.5686 95.796C21.5686 94.977 21.4096 94.365 21.0916 93.96C20.7766 93.552 20.3536 93.348 19.8226 93.348C19.3186 93.348 18.9016 93.552 18.5716 93.96C18.2416 94.365 18.0766 94.977 18.0766 95.796C18.0766 96.342 18.1441 96.8055 18.2791 97.1865C18.4171 97.5675 18.6151 97.857 18.8731 98.055C19.1341 98.253 19.4506 98.352 19.8226 98.352ZM23.5058 99V92.25H24.3158V96.579L25.9358 94.59H26.9258L25.1708 96.642L26.9708 99H25.9808L24.3158 96.759V99H23.5058Z" fill="#667094"/>
<path opacity="0.6" d="M13.0444 119L15.5824 113.123L15.8164 113.51H12.5944V112.7H16.6714L13.9444 119H13.0444ZM19.8226 119.126C19.2676 119.126 18.7921 118.984 18.3961 118.698C18.0001 118.413 17.6956 118.02 17.4826 117.519C17.2726 117.018 17.1676 116.444 17.1676 115.796C17.1676 115.148 17.2801 114.582 17.5051 114.099C17.7301 113.616 18.0421 113.241 18.4411 112.974C18.8401 112.707 19.3006 112.574 19.8226 112.574C20.3566 112.574 20.8216 112.707 21.2176 112.974C21.6166 113.241 21.9256 113.616 22.1446 114.099C22.3666 114.582 22.4776 115.148 22.4776 115.796C22.4776 116.444 22.3726 117.018 22.1626 117.519C21.9526 118.02 21.6496 118.413 21.2536 118.698C20.8576 118.984 20.3806 119.126 19.8226 119.126ZM19.8226 118.352C20.1946 118.352 20.5096 118.253 20.7676 118.055C21.0286 117.857 21.2266 117.567 21.3616 117.186C21.4996 116.805 21.5686 116.342 21.5686 115.796C21.5686 114.977 21.4096 114.365 21.0916 113.96C20.7766 113.552 20.3536 113.348 19.8226 113.348C19.3186 113.348 18.9016 113.552 18.5716 113.96C18.2416 114.365 18.0766 114.977 18.0766 115.796C18.0766 116.342 18.1441 116.805 18.2791 117.186C18.4171 117.567 18.6151 117.857 18.8731 118.055C19.1341 118.253 19.4506 118.352 19.8226 118.352ZM23.5058 119V112.25H24.3158V116.579L25.9358 114.59H26.9258L25.1708 116.642L26.9708 119H25.9808L24.3158 116.759V119H23.5058Z" fill="#667094"/>
<path opacity="0.6" d="M14.2214 139.126C13.7804 139.126 13.4024 139.029 13.0874 138.833C12.7754 138.635 12.5369 138.361 12.3719 138.01C12.2069 137.659 12.1244 137.251 12.1244 136.786C12.1244 136.291 12.2054 135.826 12.3674 135.391C12.5324 134.956 12.7499 134.558 13.0199 134.198C13.2929 133.835 13.5944 133.517 13.9244 133.244C14.2544 132.971 14.5844 132.748 14.9144 132.574L15.4994 133.123C15.2324 133.255 14.9744 133.412 14.7254 133.595C14.4794 133.775 14.2514 133.976 14.0414 134.198C13.8344 134.417 13.6514 134.656 13.4924 134.914C13.3364 135.172 13.2149 135.446 13.1279 135.737C13.0409 136.025 12.9974 136.327 12.9974 136.642L12.7094 136.156C12.8534 135.868 13.0739 135.64 13.3709 135.472C13.6709 135.304 14.0204 135.22 14.4194 135.22C14.7854 135.22 15.1094 135.304 15.3914 135.472C15.6734 135.637 15.8939 135.863 16.0529 136.151C16.2119 136.439 16.2914 136.765 16.2914 137.128C16.2914 137.518 16.2044 137.863 16.0304 138.163C15.8564 138.463 15.6134 138.698 15.3014 138.869C14.9924 139.041 14.6324 139.126 14.2214 139.126ZM14.2214 138.388C14.5814 138.388 14.8694 138.269 15.0854 138.032C15.3014 137.792 15.4094 137.5 15.4094 137.155C15.4094 136.816 15.3014 136.532 15.0854 136.304C14.8694 136.073 14.5814 135.958 14.2214 135.958C13.8614 135.958 13.5719 136.073 13.3529 136.304C13.1339 136.535 13.0244 136.822 13.0244 137.164C13.0244 137.518 13.1339 137.81 13.3529 138.041C13.5719 138.272 13.8614 138.388 14.2214 138.388ZM19.8226 139.126C19.2676 139.126 18.7921 138.984 18.3961 138.698C18.0001 138.413 17.6956 138.02 17.4826 137.519C17.2726 137.018 17.1676 136.444 17.1676 135.796C17.1676 135.148 17.2801 134.582 17.5051 134.099C17.7301 133.616 18.0421 133.241 18.4411 132.974C18.8401 132.707 19.3006 132.574 19.8226 132.574C20.3566 132.574 20.8216 132.707 21.2176 132.974C21.6166 133.241 21.9256 133.616 22.1446 134.099C22.3666 134.582 22.4776 135.148 22.4776 135.796C22.4776 136.444 22.3726 137.018 22.1626 137.519C21.9526 138.02 21.6496 138.413 21.2536 138.698C20.8576 138.984 20.3806 139.126 19.8226 139.126ZM19.8226 138.352C20.1946 138.352 20.5096 138.253 20.7676 138.055C21.0286 137.857 21.2266 137.567 21.3616 137.186C21.4996 136.805 21.5686 136.342 21.5686 135.796C21.5686 134.977 21.4096 134.365 21.0916 133.96C20.7766 133.552 20.3536 133.348 19.8226 133.348C19.3186 133.348 18.9016 133.552 18.5716 133.96C18.2416 134.365 18.0766 134.977 18.0766 135.796C18.0766 136.342 18.1441 136.805 18.2791 137.186C18.4171 137.567 18.6151 137.857 18.8731 138.055C19.1341 138.253 19.4506 138.352 19.8226 138.352ZM23.5058 139V132.25H24.3158V136.579L25.9358 134.59H26.9258L25.1708 136.642L26.9708 139H25.9808L24.3158 136.759V139H23.5058Z" fill="#667094"/>
<path opacity="0.6" d="M14.0265 159.126C13.6935 159.126 13.374 159.083 13.068 158.995C12.762 158.908 12.4965 158.793 12.2715 158.649L12.4785 157.857C12.7005 157.977 12.9315 158.08 13.1715 158.167C13.4115 158.254 13.6815 158.298 13.9815 158.298C14.3835 158.298 14.709 158.185 14.958 157.96C15.207 157.732 15.3315 157.428 15.3315 157.047C15.3315 156.615 15.1965 156.286 14.9265 156.061C14.6565 155.836 14.3055 155.724 13.8735 155.724C13.6455 155.724 13.4295 155.74 13.2255 155.773C13.0245 155.806 12.8175 155.85 12.6045 155.904L12.9915 152.7H15.9615L15.9255 153.51H13.6935L13.4595 155.481L13.2705 155.112C13.4055 155.085 13.548 155.064 13.698 155.049C13.848 155.031 13.9995 155.022 14.1525 155.022C14.5995 155.022 14.9805 155.11 15.2955 155.287C15.6105 155.461 15.8505 155.701 16.0155 156.007C16.1835 156.313 16.2675 156.66 16.2675 157.047C16.2675 157.473 16.1685 157.842 15.9705 158.154C15.7755 158.463 15.5085 158.703 15.1695 158.874C14.8335 159.042 14.4525 159.126 14.0265 159.126ZM19.8226 159.126C19.2676 159.126 18.7921 158.984 18.3961 158.698C18.0001 158.413 17.6956 158.02 17.4826 157.519C17.2726 157.018 17.1676 156.444 17.1676 155.796C17.1676 155.148 17.2801 154.582 17.5051 154.099C17.7301 153.616 18.0421 153.241 18.4411 152.974C18.8401 152.707 19.3006 152.574 19.8226 152.574C20.3566 152.574 20.8216 152.707 21.2176 152.974C21.6166 153.241 21.9256 153.616 22.1446 154.099C22.3666 154.582 22.4776 155.148 22.4776 155.796C22.4776 156.444 22.3726 157.018 22.1626 157.519C21.9526 158.02 21.6496 158.413 21.2536 158.698C20.8576 158.984 20.3806 159.126 19.8226 159.126ZM19.8226 158.352C20.1946 158.352 20.5096 158.253 20.7676 158.055C21.0286 157.857 21.2266 157.567 21.3616 157.186C21.4996 156.805 21.5686 156.342 21.5686 155.796C21.5686 154.977 21.4096 154.365 21.0916 153.96C20.7766 153.552 20.3536 153.348 19.8226 153.348C19.3186 153.348 18.9016 153.552 18.5716 153.96C18.2416 154.365 18.0766 154.977 18.0766 155.796C18.0766 156.342 18.1441 156.805 18.2791 157.186C18.4171 157.567 18.6151 157.857 18.8731 158.055C19.1341 158.253 19.4506 158.352 19.8226 158.352ZM23.5058 159V152.25H24.3158V156.579L25.9358 154.59H26.9258L25.1708 156.642L26.9708 159H25.9808L24.3158 156.759V159H23.5058Z" fill="#667094"/>
<path opacity="0.6" d="M14.7635 179V177.371H11.6585L15.0065 172.7H15.6275V176.642H16.4375V177.371H15.6275L15.6275 179H14.7635ZM12.9185 176.885L12.7655 176.642H14.7635V173.825L14.9165 174.077L12.9185 176.885ZM19.8226 179.126C19.2676 179.126 18.7921 178.984 18.3961 178.698C18.0001 178.413 17.6956 178.02 17.4826 177.519C17.2726 177.018 17.1676 176.444 17.1676 175.796C17.1676 175.148 17.2801 174.582 17.5051 174.099C17.7301 173.616 18.0421 173.241 18.4411 172.974C18.8401 172.707 19.3006 172.574 19.8226 172.574C20.3566 172.574 20.8216 172.707 21.2176 172.974C21.6166 173.241 21.9256 173.616 22.1446 174.099C22.3666 174.582 22.4776 175.148 22.4776 175.796C22.4776 176.444 22.3726 177.018 22.1626 177.519C21.9526 178.02 21.6496 178.413 21.2536 178.698C20.8576 178.984 20.3806 179.126 19.8226 179.126ZM19.8226 178.352C20.1946 178.352 20.5096 178.253 20.7676 178.055C21.0286 177.857 21.2266 177.567 21.3616 177.186C21.4996 176.805 21.5686 176.342 21.5686 175.796C21.5686 174.977 21.4096 174.365 21.0916 173.96C20.7766 173.552 20.3536 173.348 19.8226 173.348C19.3186 173.348 18.9016 173.552 18.5716 173.96C18.2416 174.365 18.0766 174.977 18.0766 175.796C18.0766 176.342 18.1441 176.805 18.2791 177.186C18.4171 177.567 18.6151 177.857 18.8731 178.055C19.1341 178.253 19.4506 178.352 19.8226 178.352ZM23.5058 179V172.25H24.3158V176.579L25.9358 174.59H26.9258L25.1708 176.642L26.9708 179H25.9808L24.3158 176.759V179H23.5058Z" fill="#667094"/>
<path opacity="0.6" d="M13.9725 199.126C13.6275 199.126 13.305 199.081 13.005 198.991C12.708 198.901 12.4305 198.787 12.1725 198.649L12.3795 197.857C12.6375 198.004 12.891 198.124 13.14 198.217C13.392 198.307 13.6725 198.352 13.9815 198.352C14.3745 198.352 14.6805 198.254 14.8995 198.059C15.1215 197.861 15.2325 197.608 15.2325 197.299C15.2325 196.951 15.1125 196.672 14.8725 196.462C14.6325 196.252 14.2575 196.147 13.7475 196.147H13.3515V195.373H13.7475C14.1345 195.373 14.4405 195.281 14.6655 195.098C14.8935 194.915 15.0075 194.665 15.0075 194.347C15.0075 194.008 14.9205 193.757 14.7465 193.595C14.5725 193.43 14.3235 193.348 13.9995 193.348C13.7445 193.348 13.506 193.397 13.284 193.496C13.062 193.595 12.8445 193.717 12.6315 193.861L12.4875 192.988C12.7185 192.856 12.9675 192.754 13.2345 192.682C13.5045 192.61 13.7985 192.574 14.1165 192.574C14.5065 192.574 14.8365 192.644 15.1065 192.785C15.3795 192.926 15.5865 193.123 15.7275 193.375C15.8715 193.624 15.9435 193.912 15.9435 194.239C15.9435 194.647 15.8235 194.992 15.5835 195.274C15.3465 195.553 15.0255 195.736 14.6205 195.823V195.616C15.0975 195.709 15.4695 195.89 15.7365 196.16C16.0065 196.427 16.1415 196.798 16.1415 197.272C16.1415 197.656 16.0455 197.987 15.8535 198.266C15.6645 198.542 15.4065 198.755 15.0795 198.905C14.7525 199.053 14.3835 199.126 13.9725 199.126ZM19.8226 199.126C19.2676 199.126 18.7921 198.984 18.3961 198.698C18.0001 198.413 17.6956 198.02 17.4826 197.519C17.2726 197.018 17.1676 196.444 17.1676 195.796C17.1676 195.148 17.2801 194.582 17.5051 194.099C17.7301 193.616 18.0421 193.241 18.4411 192.974C18.8401 192.707 19.3006 192.574 19.8226 192.574C20.3566 192.574 20.8216 192.707 21.2176 192.974C21.6166 193.241 21.9256 193.616 22.1446 194.099C22.3666 194.582 22.4776 195.148 22.4776 195.796C22.4776 196.444 22.3726 197.018 22.1626 197.519C21.9526 198.02 21.6496 198.413 21.2536 198.698C20.8576 198.984 20.3806 199.126 19.8226 199.126ZM19.8226 198.352C20.1946 198.352 20.5096 198.253 20.7676 198.055C21.0286 197.857 21.2266 197.567 21.3616 197.186C21.4996 196.805 21.5686 196.342 21.5686 195.796C21.5686 194.977 21.4096 194.365 21.0916 193.96C20.7766 193.552 20.3536 193.348 19.8226 193.348C19.3186 193.348 18.9016 193.552 18.5716 193.96C18.2416 194.365 18.0766 194.977 18.0766 195.796C18.0766 196.342 18.1441 196.805 18.2791 197.186C18.4171 197.567 18.6151 197.857 18.8731 198.055C19.1341 198.253 19.4506 198.352 19.8226 198.352ZM23.5058 199V192.25H24.3158V196.579L25.9358 194.59H26.9258L25.1708 196.642L26.9708 199H25.9808L24.3158 196.759V199H23.5058Z" fill="#667094"/>
<path opacity="0.6" d="M12.4749 218.991L14.1939 216.381C14.3829 216.096 14.5449 215.836 14.6799 215.602C14.8149 215.368 14.9169 215.152 14.9859 214.954C15.0579 214.753 15.0939 214.563 15.0939 214.383C15.0939 214.071 15.0054 213.823 14.8284 213.64C14.6544 213.457 14.4159 213.366 14.1129 213.366C13.8129 213.366 13.5354 213.43 13.2804 213.559C13.0284 213.688 12.7959 213.861 12.5829 214.077L12.4749 213.177C12.6819 213.009 12.9309 212.865 13.2219 212.745C13.5159 212.625 13.8429 212.565 14.2029 212.565C14.5869 212.565 14.9094 212.641 15.1704 212.794C15.4314 212.947 15.6279 213.154 15.7599 213.415C15.8919 213.676 15.9579 213.969 15.9579 214.293C15.9579 214.572 15.9204 214.837 15.8454 215.089C15.7704 215.338 15.6579 215.598 15.5079 215.868C15.3579 216.138 15.1719 216.441 14.9499 216.777L13.9959 218.217H16.2009V218.991H12.4749ZM19.8226 219.126C19.2676 219.126 18.7921 218.984 18.3961 218.698C18.0001 218.413 17.6956 218.02 17.4826 217.519C17.2726 217.018 17.1676 216.444 17.1676 215.796C17.1676 215.148 17.2801 214.582 17.5051 214.099C17.7301 213.616 18.0421 213.241 18.4411 212.974C18.8401 212.707 19.3006 212.574 19.8226 212.574C20.3566 212.574 20.8216 212.707 21.2176 212.974C21.6166 213.241 21.9256 213.616 22.1446 214.099C22.3666 214.582 22.4776 215.148 22.4776 215.796C22.4776 216.444 22.3726 217.018 22.1626 217.519C21.9526 218.02 21.6496 218.413 21.2536 218.698C20.8576 218.984 20.3806 219.126 19.8226 219.126ZM19.8226 218.352C20.1946 218.352 20.5096 218.253 20.7676 218.055C21.0286 217.857 21.2266 217.567 21.3616 217.186C21.4996 216.805 21.5686 216.342 21.5686 215.796C21.5686 214.977 21.4096 214.365 21.0916 213.96C20.7766 213.552 20.3536 213.348 19.8226 213.348C19.3186 213.348 18.9016 213.552 18.5716 213.96C18.2416 214.365 18.0766 214.977 18.0766 215.796C18.0766 216.342 18.1441 216.805 18.2791 217.186C18.4171 217.567 18.6151 217.857 18.8731 218.055C19.1341 218.253 19.4506 218.352 19.8226 218.352ZM23.5058 219V212.25H24.3158V216.579L25.9358 214.59H26.9258L25.1708 216.642L26.9708 219H25.9808L24.3158 216.759V219H23.5058Z" fill="#667094"/>
<path opacity="0.6" d="M15.1321 239L15.1321 233.933C14.9161 234.107 14.7376 234.231 14.5966 234.306C14.4556 234.381 14.3221 234.44 14.1961 234.482L14.0521 233.681C14.2141 233.627 14.3791 233.55 14.5471 233.451C14.7181 233.349 14.8756 233.234 15.0196 233.105C15.1666 232.976 15.2851 232.841 15.3751 232.7H15.9601L15.9601 239H15.1321ZM19.8226 239.126C19.2676 239.126 18.7921 238.984 18.3961 238.698C18.0001 238.413 17.6956 238.02 17.4826 237.519C17.2726 237.018 17.1676 236.444 17.1676 235.796C17.1676 235.148 17.2801 234.582 17.5051 234.099C17.7301 233.616 18.0421 233.241 18.4411 232.974C18.8401 232.707 19.3006 232.574 19.8226 232.574C20.3566 232.574 20.8216 232.707 21.2176 232.974C21.6166 233.241 21.9256 233.616 22.1446 234.099C22.3666 234.582 22.4776 235.148 22.4776 235.796C22.4776 236.444 22.3726 237.018 22.1626 237.519C21.9526 238.02 21.6496 238.413 21.2536 238.698C20.8576 238.984 20.3806 239.126 19.8226 239.126ZM19.8226 238.352C20.1946 238.352 20.5096 238.253 20.7676 238.055C21.0286 237.857 21.2266 237.567 21.3616 237.186C21.4996 236.805 21.5686 236.342 21.5686 235.796C21.5686 234.977 21.4096 234.365 21.0916 233.96C20.7766 233.552 20.3536 233.348 19.8226 233.348C19.3186 233.348 18.9016 233.552 18.5716 233.96C18.2416 234.365 18.0766 234.977 18.0766 235.796C18.0766 236.342 18.1441 236.805 18.2791 237.186C18.4171 237.567 18.6151 237.857 18.8731 238.055C19.1341 238.253 19.4506 238.352 19.8226 238.352ZM23.5058 239V232.25H24.3158V236.579L25.9358 234.59H26.9258L25.1708 236.642L26.9708 239H25.9808L24.3158 236.759V239H23.5058Z" fill="#667094"/>
<path opacity="0.6" d="M23.8568 259.126C23.3108 259.126 22.8368 258.985 22.4348 258.703C22.0388 258.421 21.7328 258.028 21.5168 257.524C21.3068 257.02 21.2018 256.444 21.2018 255.796C21.2018 255.154 21.3128 254.59 21.5348 254.104C21.7628 253.618 22.0778 253.243 22.4798 252.979C22.8818 252.709 23.3408 252.574 23.8568 252.574C24.3848 252.574 24.8498 252.709 25.2518 252.979C25.6538 253.243 25.9628 253.618 26.1788 254.104C26.4008 254.59 26.5118 255.154 26.5118 255.796C26.5118 256.444 26.4068 257.02 26.1968 257.524C25.9868 258.028 25.6808 258.421 25.2788 258.703C24.8768 258.985 24.4028 259.126 23.8568 259.126ZM23.8568 258.352C24.4148 258.352 24.8438 258.13 25.1438 257.686C25.4498 257.242 25.6028 256.612 25.6028 255.796C25.6028 254.992 25.4468 254.383 25.1348 253.969C24.8288 253.555 24.4028 253.348 23.8568 253.348C23.3348 253.348 22.9118 253.558 22.5878 253.978C22.2698 254.398 22.1108 255.004 22.1108 255.796C22.1108 256.612 22.2608 257.242 22.5608 257.686C22.8668 258.13 23.2988 258.352 23.8568 258.352Z" fill="#667094"/>
<path d="M36.0425 257.5H644" stroke="#374459"/>
<path opacity="0.6" d="M54.6982 276.548L54.5812 275.81C54.9052 275.81 55.1362 275.74 55.2742 275.599C55.4122 275.458 55.4812 275.234 55.4812 274.928V268.7H56.3362V275.126C56.3362 275.621 56.2207 275.981 55.9897 276.206C55.7587 276.434 55.4062 276.548 54.9322 276.548H54.6982ZM58.5423 275.09C58.2693 275.09 58.0308 275.035 57.8268 274.923C57.6228 274.812 57.4638 274.661 57.3498 274.469C57.2388 274.277 57.1833 274.058 57.1833 273.812C57.1833 273.563 57.2373 273.35 57.3453 273.173C57.4563 272.993 57.6033 272.844 57.7863 272.728C57.9723 272.607 58.1793 272.513 58.4073 272.444C58.6353 272.372 58.8708 272.321 59.1138 272.291C59.3598 272.258 59.5953 272.24 59.8203 272.237C59.8203 271.817 59.7378 271.542 59.5728 271.413C59.4078 271.284 59.1693 271.22 58.8573 271.22C58.6923 271.22 58.5153 271.245 58.3263 271.296C58.1403 271.347 57.9303 271.454 57.6963 271.616L57.5793 270.959C57.7563 270.824 57.9768 270.714 58.2408 270.63C58.5048 270.543 58.7823 270.5 59.0733 270.5C59.4453 270.5 59.7453 270.566 59.9733 270.698C60.2013 270.827 60.3678 271.046 60.4728 271.355C60.5778 271.664 60.6303 272.084 60.6303 272.615V273.515C60.6303 273.725 60.6393 273.899 60.6573 274.037C60.6783 274.172 60.7233 274.274 60.7923 274.343C60.8643 274.409 60.9783 274.442 61.1343 274.442H61.2153L61.0893 275.09H61.0263C60.7653 275.09 60.5628 275.065 60.4188 275.014C60.2778 274.962 60.1698 274.889 60.0948 274.793C60.0198 274.697 59.9523 274.58 59.8923 274.442C59.7273 274.634 59.5323 274.79 59.3073 274.91C59.0823 275.03 58.8273 275.09 58.5423 275.09ZM58.6953 274.442C58.9113 274.442 59.1198 274.388 59.3208 274.28C59.5248 274.172 59.6913 274.028 59.8203 273.848V272.795C59.3913 272.81 59.0433 272.852 58.7763 272.921C58.5123 272.99 58.3188 273.093 58.1958 273.231C58.0728 273.369 58.0113 273.548 58.0113 273.767C58.0113 274.004 58.0743 274.176 58.2003 274.284C58.3293 274.389 58.4943 274.442 58.6953 274.442ZM61.8405 275V270.59H62.4705L62.6325 271.436L62.3175 271.301C62.6145 270.971 62.904 270.755 63.186 270.653C63.471 270.551 63.7485 270.5 64.0185 270.5C64.6635 270.5 65.124 270.686 65.4 271.058C65.679 271.43 65.8185 271.934 65.8185 272.57V275H65.0085V272.57C65.0085 272.102 64.9215 271.76 64.7475 271.544C64.5735 271.328 64.2765 271.22 63.8565 271.22C63.5595 271.22 63.2865 271.286 63.0375 271.418C62.7915 271.547 62.6295 271.754 62.5515 272.039L62.6505 271.544V275H61.8405ZM69.3213 268.7H69.8343L69.5103 269.663H69.8253V270.617H68.8533V269.753L69.3213 268.7ZM71.4929 275V269.933C71.2769 270.107 71.0984 270.231 70.9574 270.306C70.8164 270.381 70.6829 270.44 70.5569 270.482L70.4129 269.681C70.5749 269.627 70.7399 269.55 70.9079 269.451C71.0789 269.349 71.2364 269.234 71.3804 269.105C71.5274 268.976 71.6459 268.841 71.7359 268.7H72.3209V275H71.4929Z" fill="#667094"/>
<path opacity="0.6" d="M104.126 275V268.7H107.969V269.474H104.981V271.319H107.285V272.093H104.981V275H104.126ZM110.385 275.09C109.866 275.09 109.43 274.984 109.076 274.77C108.722 274.557 108.453 274.275 108.27 273.924C108.09 273.57 108 273.182 108 272.759C108 272.348 108.084 271.971 108.252 271.629C108.423 271.287 108.669 271.014 108.99 270.81C109.314 270.603 109.704 270.5 110.16 270.5C110.526 270.5 110.852 270.573 111.137 270.72C111.425 270.864 111.65 271.076 111.812 271.355C111.977 271.631 112.059 271.967 112.059 272.363C112.059 272.426 112.056 272.495 112.05 272.57C112.047 272.642 112.038 272.717 112.023 272.795H108.828C108.867 273.203 108.965 273.521 109.121 273.749C109.277 273.977 109.473 274.137 109.71 274.23C109.947 274.323 110.205 274.37 110.484 274.37C110.688 274.37 110.901 274.349 111.123 274.307C111.345 274.265 111.555 274.199 111.753 274.109L111.861 274.748C111.69 274.823 111.482 274.899 111.236 274.977C110.99 275.053 110.706 275.09 110.385 275.09ZM108.9 272.237H111.222C111.222 272.03 111.183 271.85 111.105 271.697C111.027 271.544 110.909 271.427 110.75 271.346C110.591 271.262 110.388 271.22 110.142 271.22C109.782 271.22 109.505 271.31 109.31 271.49C109.118 271.667 108.981 271.916 108.9 272.237ZM115.045 275.09C114.736 275.09 114.436 275.017 114.145 274.869C113.857 274.719 113.656 274.499 113.542 274.208L113.74 274.064L113.587 275H112.867V268.25H113.677V271.454L113.506 271.328C113.656 271.085 113.87 270.887 114.149 270.734C114.428 270.578 114.727 270.5 115.045 270.5C115.456 270.5 115.81 270.608 116.107 270.824C116.404 271.037 116.632 271.319 116.791 271.67C116.953 272.018 117.034 272.393 117.034 272.795C117.034 273.224 116.945 273.612 116.768 273.96C116.591 274.305 116.353 274.58 116.053 274.784C115.753 274.988 115.417 275.09 115.045 275.09ZM114.946 274.37C115.204 274.37 115.427 274.299 115.616 274.158C115.805 274.014 115.951 273.824 116.053 273.587C116.155 273.347 116.206 273.083 116.206 272.795C116.206 272.495 116.155 272.226 116.053 271.989C115.951 271.752 115.805 271.565 115.616 271.427C115.427 271.289 115.204 271.22 114.946 271.22C114.715 271.22 114.499 271.278 114.298 271.395C114.1 271.509 113.939 271.683 113.816 271.917C113.693 272.148 113.632 272.441 113.632 272.795C113.632 273.164 113.693 273.464 113.816 273.695C113.939 273.926 114.1 274.097 114.298 274.208C114.499 274.316 114.715 274.37 114.946 274.37ZM120.321 268.7H120.834L120.51 269.663H120.825V270.617H119.853V269.753L120.321 268.7ZM122.493 275V269.933C122.277 270.107 122.098 270.231 121.957 270.306C121.816 270.381 121.683 270.44 121.557 270.482L121.413 269.681C121.575 269.627 121.74 269.55 121.908 269.451C122.079 269.349 122.236 269.234 122.38 269.105C122.527 268.976 122.646 268.841 122.736 268.7H123.321V275H122.493Z" fill="#667094"/>
<path opacity="0.6" d="M155.328 275L156.174 268.7H156.903L158.559 271.823L160.197 268.7H160.935L161.772 275H160.872L160.233 269.861L160.458 269.897L158.568 273.506L156.642 269.897L156.867 269.861L156.228 275H155.328ZM163.722 275.09C163.449 275.09 163.21 275.035 163.006 274.923C162.802 274.812 162.643 274.661 162.529 274.469C162.418 274.277 162.363 274.058 162.363 273.812C162.363 273.563 162.417 273.35 162.525 273.173C162.636 272.993 162.783 272.844 162.966 272.728C163.152 272.607 163.359 272.513 163.587 272.444C163.815 272.372 164.05 272.321 164.293 272.291C164.539 272.258 164.775 272.24 165 272.237C165 271.817 164.917 271.542 164.752 271.413C164.587 271.284 164.349 271.22 164.037 271.22C163.872 271.22 163.695 271.245 163.506 271.296C163.32 271.347 163.11 271.454 162.876 271.616L162.759 270.959C162.936 270.824 163.156 270.714 163.42 270.63C163.684 270.543 163.962 270.5 164.253 270.5C164.625 270.5 164.925 270.566 165.153 270.698C165.381 270.827 165.547 271.046 165.652 271.355C165.757 271.664 165.81 272.084 165.81 272.615V273.515C165.81 273.725 165.819 273.899 165.837 274.037C165.858 274.172 165.903 274.274 165.972 274.343C166.044 274.409 166.158 274.442 166.314 274.442H166.395L166.269 275.09H166.206C165.945 275.09 165.742 275.065 165.598 275.014C165.457 274.962 165.349 274.889 165.274 274.793C165.199 274.697 165.132 274.58 165.072 274.442C164.907 274.634 164.712 274.79 164.487 274.91C164.262 275.03 164.007 275.09 163.722 275.09ZM163.875 274.442C164.091 274.442 164.299 274.388 164.5 274.28C164.704 274.172 164.871 274.028 165 273.848V272.795C164.571 272.81 164.223 272.852 163.956 272.921C163.692 272.99 163.498 273.093 163.375 273.231C163.252 273.369 163.191 273.548 163.191 273.767C163.191 274.004 163.254 274.176 163.38 274.284C163.509 274.389 163.674 274.442 163.875 274.442ZM167.02 275V270.59H167.686L167.785 271.319C168.01 271.04 168.225 270.834 168.429 270.702C168.636 270.567 168.856 270.5 169.09 270.5C169.165 270.5 169.234 270.509 169.297 270.527L169.216 271.418C169.177 271.409 169.135 271.403 169.09 271.4C169.048 271.394 169 271.391 168.946 271.391C168.712 271.391 168.496 271.443 168.298 271.548C168.103 271.65 167.965 271.763 167.884 271.886V275H167.02ZM172.321 268.7H172.834L172.51 269.663H172.825V270.617H171.853V269.753L172.321 268.7ZM174.493 275V269.933C174.277 270.107 174.098 270.231 173.957 270.306C173.816 270.381 173.683 270.44 173.557 270.482L173.413 269.681C173.575 269.627 173.74 269.55 173.908 269.451C174.079 269.349 174.236 269.234 174.38 269.105C174.527 268.976 174.646 268.841 174.736 268.7H175.321V275H174.493Z" fill="#667094"/>
<path opacity="0.6" d="M211.038 273.299H208.338V272.525H211.038V273.299ZM209.562 269.537H209.814L207.879 275H206.979L209.238 268.7H210.138L212.397 275H211.497L209.562 269.537ZM213.01 277.178V270.59H213.64L213.784 271.598L213.559 271.436C213.745 271.148 213.975 270.92 214.248 270.752C214.521 270.584 214.855 270.5 215.251 270.5C215.653 270.5 215.998 270.602 216.286 270.806C216.574 271.01 216.795 271.286 216.948 271.634C217.101 271.979 217.177 272.366 217.177 272.795C217.177 273.224 217.105 273.612 216.961 273.96C216.817 274.305 216.603 274.58 216.318 274.784C216.033 274.988 215.677 275.09 215.251 275.09C214.9 275.09 214.582 275.018 214.297 274.874C214.015 274.727 213.811 274.508 213.685 274.217L213.82 274.055V277.178H213.01ZM215.098 274.37C215.491 274.37 215.797 274.232 216.016 273.956C216.238 273.677 216.349 273.29 216.349 272.795C216.349 272.3 216.238 271.914 216.016 271.638C215.797 271.359 215.491 271.22 215.098 271.22C214.855 271.22 214.633 271.278 214.432 271.395C214.234 271.509 214.075 271.683 213.955 271.917C213.835 272.148 213.775 272.441 213.775 272.795C213.775 273.164 213.835 273.464 213.955 273.695C214.075 273.926 214.234 274.097 214.432 274.208C214.633 274.316 214.855 274.37 215.098 274.37ZM218.02 275V270.59H218.686L218.785 271.319C219.01 271.04 219.225 270.834 219.429 270.702C219.636 270.567 219.856 270.5 220.09 270.5C220.165 270.5 220.234 270.509 220.297 270.527L220.216 271.418C220.177 271.409 220.135 271.403 220.09 271.4C220.048 271.394 220 271.391 219.946 271.391C219.712 271.391 219.496 271.443 219.298 271.548C219.103 271.65 218.965 271.763 218.884 271.886V275H218.02ZM223.321 268.7H223.834L223.51 269.663H223.825V270.617H222.853V269.753L223.321 268.7ZM225.493 275V269.933C225.277 270.107 225.098 270.231 224.957 270.306C224.816 270.381 224.683 270.44 224.557 270.482L224.413 269.681C224.575 269.627 224.74 269.55 224.908 269.451C225.079 269.349 225.236 269.234 225.38 269.105C225.527 268.976 225.646 268.841 225.736 268.7H226.321V275H225.493Z" fill="#667094"/>
<path opacity="0.6" d="M258.093 275L258.939 268.7H259.668L261.324 271.823L262.962 268.7H263.7L264.537 275H263.637L262.998 269.861L263.223 269.897L261.333 273.506L259.407 269.897L259.632 269.861L258.993 275H258.093ZM266.487 275.09C266.214 275.09 265.975 275.035 265.771 274.923C265.567 274.812 265.408 274.661 265.294 274.469C265.183 274.277 265.128 274.058 265.128 273.812C265.128 273.563 265.182 273.35 265.29 273.173C265.401 272.993 265.548 272.844 265.731 272.728C265.917 272.607 266.124 272.513 266.352 272.444C266.58 272.372 266.815 272.321 267.058 272.291C267.304 272.258 267.54 272.24 267.765 272.237C267.765 271.817 267.682 271.542 267.517 271.413C267.352 271.284 267.114 271.22 266.802 271.22C266.637 271.22 266.46 271.245 266.271 271.296C266.085 271.347 265.875 271.454 265.641 271.616L265.524 270.959C265.701 270.824 265.921 270.714 266.185 270.63C266.449 270.543 266.727 270.5 267.018 270.5C267.39 270.5 267.69 270.566 267.918 270.698C268.146 270.827 268.312 271.046 268.417 271.355C268.522 271.664 268.575 272.084 268.575 272.615V273.515C268.575 273.725 268.584 273.899 268.602 274.037C268.623 274.172 268.668 274.274 268.737 274.343C268.809 274.409 268.923 274.442 269.079 274.442H269.16L269.034 275.09H268.971C268.71 275.09 268.507 275.065 268.363 275.014C268.222 274.962 268.114 274.889 268.039 274.793C267.964 274.697 267.897 274.58 267.837 274.442C267.672 274.634 267.477 274.79 267.252 274.91C267.027 275.03 266.772 275.09 266.487 275.09ZM266.64 274.442C266.856 274.442 267.064 274.388 267.265 274.28C267.469 274.172 267.636 274.028 267.765 273.848V272.795C267.336 272.81 266.988 272.852 266.721 272.921C266.457 272.99 266.263 273.093 266.14 273.231C266.017 273.369 265.956 273.548 265.956 273.767C265.956 274.004 266.019 274.176 266.145 274.284C266.274 274.389 266.439 274.442 266.64 274.442ZM269.942 277.178L270.959 274.802L269.123 270.59H270.023L271.4 273.866L272.642 270.59H273.542L270.842 277.178H269.942ZM274.321 268.7H274.834L274.51 269.663H274.825V270.617H273.853V269.753L274.321 268.7ZM276.493 275V269.933C276.277 270.107 276.098 270.231 275.957 270.306C275.816 270.381 275.683 270.44 275.557 270.482L275.413 269.681C275.575 269.627 275.74 269.55 275.908 269.451C276.079 269.349 276.236 269.234 276.38 269.105C276.527 268.976 276.646 268.841 276.736 268.7H277.321V275H276.493Z" fill="#667094"/>
<path opacity="0.6" d="M308.312 276.548L308.195 275.81C308.519 275.81 308.75 275.74 308.888 275.599C309.026 275.458 309.095 275.234 309.095 274.928V268.7H309.95V275.126C309.95 275.621 309.834 275.981 309.603 276.206C309.372 276.434 309.02 276.548 308.546 276.548H308.312ZM312.705 275.09C312.36 275.09 312.066 275.021 311.823 274.883C311.58 274.742 311.394 274.529 311.265 274.244C311.139 273.959 311.076 273.596 311.076 273.155V270.59H311.886V272.93C311.886 273.398 311.965 273.755 312.124 274.001C312.286 274.247 312.549 274.37 312.912 274.37C313.161 274.37 313.392 274.31 313.605 274.19C313.818 274.07 313.965 273.878 314.046 273.614L313.929 274.055V270.59H314.739V275H314.019L313.857 274.136L314.073 274.28C313.926 274.553 313.746 274.757 313.533 274.892C313.323 275.024 313.047 275.09 312.705 275.09ZM315.841 275V270.59H316.471L316.633 271.436L316.318 271.301C316.615 270.971 316.904 270.755 317.186 270.653C317.471 270.551 317.749 270.5 318.019 270.5C318.664 270.5 319.124 270.686 319.4 271.058C319.679 271.43 319.819 271.934 319.819 272.57V275H319.009V272.57C319.009 272.102 318.922 271.76 318.748 271.544C318.574 271.328 318.277 271.22 317.857 271.22C317.56 271.22 317.287 271.286 317.038 271.418C316.792 271.547 316.63 271.754 316.552 272.039L316.651 271.544V275H315.841ZM323.321 268.7H323.834L323.51 269.663H323.825V270.617H322.853V269.753L323.321 268.7ZM325.493 275V269.933C325.277 270.107 325.098 270.231 324.957 270.306C324.816 270.381 324.683 270.44 324.557 270.482L324.413 269.681C324.575 269.627 324.74 269.55 324.908 269.451C325.079 269.349 325.236 269.234 325.38 269.105C325.527 268.976 325.646 268.841 325.736 268.7H326.321V275H325.493Z" fill="#667094"/>
<path opacity="0.6" d="M357.212 276.548L357.095 275.81C357.419 275.81 357.65 275.74 357.788 275.599C357.926 275.458 357.995 275.234 357.995 274.928V268.7H358.85V275.126C358.85 275.621 358.734 275.981 358.503 276.206C358.272 276.434 357.92 276.548 357.446 276.548H357.212ZM361.605 275.09C361.26 275.09 360.966 275.021 360.723 274.883C360.48 274.742 360.294 274.529 360.165 274.244C360.039 273.959 359.976 273.596 359.976 273.155V270.59H360.786V272.93C360.786 273.398 360.866 273.755 361.025 274.001C361.187 274.247 361.449 274.37 361.812 274.37C362.061 274.37 362.292 274.31 362.505 274.19C362.718 274.07 362.865 273.878 362.946 273.614L362.829 274.055V270.59H363.639V275H362.919L362.757 274.136L362.973 274.28C362.826 274.553 362.646 274.757 362.433 274.892C362.223 275.024 361.947 275.09 361.605 275.09ZM365.875 275.09C365.59 275.09 365.363 275.039 365.195 274.937C365.03 274.832 364.912 274.698 364.84 274.536C364.768 274.374 364.732 274.205 364.732 274.028V268.25H365.542V273.56C365.542 273.812 365.558 274.001 365.591 274.127C365.624 274.253 365.69 274.337 365.789 274.379C365.891 274.421 366.046 274.442 366.253 274.442L366.136 275.09H365.875ZM369.321 268.7H369.834L369.51 269.663H369.825V270.617H368.853V269.753L369.321 268.7ZM371.493 275V269.933C371.277 270.107 371.098 270.231 370.957 270.306C370.816 270.381 370.683 270.44 370.557 270.482L370.413 269.681C370.575 269.627 370.74 269.55 370.908 269.451C371.079 269.349 371.236 269.234 371.38 269.105C371.527 268.976 371.646 268.841 371.736 268.7H372.321V275H371.493Z" fill="#667094"/>
<path opacity="0.6" d="M407.798 273.299H405.098V272.525H407.798V273.299ZM406.322 269.537H406.574L404.639 275H403.739L405.998 268.7H406.898L409.157 275H408.257L406.322 269.537ZM411.25 275.09C410.905 275.09 410.611 275.021 410.368 274.883C410.125 274.742 409.939 274.529 409.81 274.244C409.684 273.959 409.621 273.596 409.621 273.155V270.59H410.431V272.93C410.431 273.398 410.51 273.755 410.669 274.001C410.831 274.247 411.094 274.37 411.457 274.37C411.706 274.37 411.937 274.31 412.15 274.19C412.363 274.07 412.51 273.878 412.591 273.614L412.474 274.055V270.59H413.284V275H412.564L412.402 274.136L412.618 274.28C412.471 274.553 412.291 274.757 412.078 274.892C411.868 275.024 411.592 275.09 411.25 275.09ZM416.167 277.25C415.765 277.25 415.405 277.201 415.087 277.102C414.772 277.003 414.523 276.856 414.34 276.661C414.16 276.466 414.07 276.224 414.07 275.936C414.07 275.696 414.138 275.489 414.273 275.315C414.411 275.144 414.598 275.006 414.835 274.901C414.694 274.832 414.586 274.751 414.511 274.658C414.439 274.562 414.403 274.457 414.403 274.343C414.403 274.208 414.444 274.086 414.525 273.978C414.609 273.867 414.742 273.776 414.925 273.704C414.679 273.551 414.49 273.345 414.358 273.087C414.226 272.826 414.16 272.537 414.16 272.219C414.16 271.898 414.232 271.608 414.376 271.35C414.52 271.089 414.727 270.882 414.997 270.729C415.27 270.576 415.597 270.5 415.978 270.5C416.182 270.5 416.374 270.53 416.554 270.59C416.737 270.65 416.905 270.734 417.058 270.842C417.193 270.764 417.352 270.699 417.535 270.648C417.721 270.597 417.928 270.572 418.156 270.572C418.171 270.572 418.183 270.572 418.192 270.572C418.204 270.572 418.216 270.572 418.228 270.572L418.129 271.112C418.093 271.112 418.059 271.112 418.026 271.112C417.993 271.112 417.958 271.112 417.922 271.112C417.892 271.112 417.823 271.116 417.715 271.125C417.607 271.134 417.508 271.151 417.418 271.175C417.541 271.319 417.636 271.481 417.702 271.661C417.771 271.838 417.805 272.024 417.805 272.219C417.805 272.555 417.732 272.856 417.585 273.123C417.441 273.387 417.232 273.597 416.959 273.753C416.686 273.906 416.359 273.983 415.978 273.983C415.87 273.983 415.767 273.977 415.668 273.965C415.569 273.95 415.474 273.929 415.384 273.902C415.246 273.947 415.177 274.025 415.177 274.136C415.177 274.202 415.216 274.26 415.294 274.311C415.372 274.359 415.498 274.397 415.672 274.424L416.851 274.613C417.328 274.688 417.696 274.826 417.954 275.027C418.215 275.228 418.345 275.513 418.345 275.882C418.345 276.188 418.255 276.442 418.075 276.643C417.898 276.847 417.646 276.998 417.319 277.097C416.992 277.199 416.608 277.25 416.167 277.25ZM416.239 276.53C416.653 276.53 416.971 276.476 417.193 276.368C417.415 276.263 417.526 276.107 417.526 275.9C417.526 275.738 417.456 275.611 417.315 275.518C417.177 275.425 416.977 275.354 416.716 275.306L415.461 275.095C415.296 275.167 415.152 275.263 415.029 275.383C414.906 275.506 414.844 275.648 414.844 275.81C414.844 276.062 414.97 276.245 415.222 276.359C415.477 276.473 415.816 276.53 416.239 276.53ZM415.978 273.335C416.32 273.335 416.581 273.233 416.761 273.029C416.941 272.822 417.031 272.555 417.031 272.228C417.031 271.913 416.941 271.655 416.761 271.454C416.581 271.25 416.32 271.148 415.978 271.148C415.636 271.148 415.377 271.25 415.2 271.454C415.023 271.655 414.934 271.913 414.934 272.228C414.934 272.555 415.023 272.822 415.2 273.029C415.377 273.233 415.636 273.335 415.978 273.335ZM421.321 268.7H421.834L421.51 269.663H421.825V270.617H420.853V269.753L421.321 268.7ZM423.493 275V269.933C423.277 270.107 423.098 270.231 422.957 270.306C422.816 270.381 422.683 270.44 422.557 270.482L422.413 269.681C422.575 269.627 422.74 269.55 422.908 269.451C423.079 269.349 423.236 269.234 423.38 269.105C423.527 268.976 423.646 268.841 423.736 268.7H424.321V275H423.493Z" fill="#667094"/>
<path opacity="0.6" d="M457.968 275.126C457.707 275.126 457.446 275.107 457.185 275.068C456.924 275.029 456.682 274.979 456.46 274.919C456.238 274.856 456.054 274.79 455.907 274.721L456.024 273.812C456.186 273.89 456.381 273.971 456.609 274.055C456.84 274.139 457.089 274.209 457.356 274.266C457.623 274.323 457.893 274.352 458.166 274.352C458.571 274.352 458.892 274.278 459.129 274.131C459.369 273.981 459.489 273.749 459.489 273.434C459.489 273.197 459.429 273.003 459.309 272.853C459.189 272.7 459.007 272.57 458.764 272.462C458.524 272.354 458.223 272.246 457.86 272.138C457.515 272.036 457.197 271.916 456.906 271.778C456.615 271.637 456.381 271.449 456.204 271.215C456.03 270.978 455.943 270.665 455.943 270.275C455.943 269.942 456.028 269.648 456.199 269.393C456.373 269.135 456.627 268.934 456.96 268.79C457.296 268.646 457.707 268.574 458.193 268.574C458.607 268.574 458.986 268.619 459.331 268.709C459.679 268.799 459.966 268.898 460.191 269.006L460.101 269.915C459.759 269.711 459.432 269.565 459.12 269.478C458.811 269.391 458.49 269.348 458.157 269.348C457.788 269.348 457.482 269.417 457.239 269.555C456.999 269.693 456.879 269.918 456.879 270.23C456.879 270.44 456.933 270.612 457.041 270.747C457.149 270.879 457.309 270.993 457.522 271.089C457.735 271.182 458.001 271.277 458.319 271.373C458.757 271.505 459.133 271.656 459.448 271.827C459.763 271.995 460.005 272.204 460.173 272.453C460.341 272.699 460.425 273.005 460.425 273.371C460.425 273.641 460.374 273.884 460.272 274.1C460.17 274.316 460.017 274.5 459.813 274.653C459.609 274.806 459.352 274.923 459.043 275.005C458.737 275.086 458.379 275.126 457.968 275.126ZM463.368 275.09C462.849 275.09 462.412 274.984 462.058 274.77C461.704 274.557 461.436 274.275 461.253 273.924C461.073 273.57 460.983 273.182 460.983 272.759C460.983 272.348 461.067 271.971 461.235 271.629C461.406 271.287 461.652 271.014 461.973 270.81C462.297 270.603 462.687 270.5 463.143 270.5C463.509 270.5 463.834 270.573 464.119 270.72C464.407 270.864 464.632 271.076 464.794 271.355C464.959 271.631 465.042 271.967 465.042 272.363C465.042 272.426 465.039 272.495 465.033 272.57C465.03 272.642 465.021 272.717 465.006 272.795H461.811C461.85 273.203 461.947 273.521 462.103 273.749C462.259 273.977 462.456 274.137 462.693 274.23C462.93 274.323 463.188 274.37 463.467 274.37C463.671 274.37 463.884 274.349 464.106 274.307C464.328 274.265 464.538 274.199 464.736 274.109L464.844 274.748C464.673 274.823 464.464 274.899 464.218 274.977C463.972 275.053 463.689 275.09 463.368 275.09ZM461.883 272.237H464.205C464.205 272.03 464.166 271.85 464.088 271.697C464.01 271.544 463.891 271.427 463.732 271.346C463.573 271.262 463.371 271.22 463.125 271.22C462.765 271.22 462.487 271.31 462.292 271.49C462.1 271.667 461.964 271.916 461.883 272.237ZM465.858 277.178V270.59H466.488L466.632 271.598L466.407 271.436C466.593 271.148 466.823 270.92 467.096 270.752C467.369 270.584 467.703 270.5 468.099 270.5C468.501 270.5 468.846 270.602 469.134 270.806C469.422 271.01 469.643 271.286 469.796 271.634C469.949 271.979 470.025 272.366 470.025 272.795C470.025 273.224 469.953 273.612 469.809 273.96C469.665 274.305 469.451 274.58 469.166 274.784C468.881 274.988 468.525 275.09 468.099 275.09C467.748 275.09 467.43 275.018 467.145 274.874C466.863 274.727 466.659 274.508 466.533 274.217L466.668 274.055V277.178H465.858ZM467.946 274.37C468.339 274.37 468.645 274.232 468.864 273.956C469.086 273.677 469.197 273.29 469.197 272.795C469.197 272.3 469.086 271.914 468.864 271.638C468.645 271.359 468.339 271.22 467.946 271.22C467.703 271.22 467.481 271.278 467.28 271.395C467.082 271.509 466.923 271.683 466.803 271.917C466.683 272.148 466.623 272.441 466.623 272.795C466.623 273.164 466.683 273.464 466.803 273.695C466.923 273.926 467.082 274.097 467.28 274.208C467.481 274.316 467.703 274.37 467.946 274.37ZM473.321 268.7H473.834L473.51 269.663H473.825V270.617H472.853V269.753L473.321 268.7ZM475.493 275V269.933C475.277 270.107 475.098 270.231 474.957 270.306C474.816 270.381 474.683 270.44 474.557 270.482L474.413 269.681C474.575 269.627 474.74 269.55 474.908 269.451C475.079 269.349 475.236 269.234 475.38 269.105C475.527 268.976 475.646 268.841 475.736 268.7H476.321V275H475.493Z" fill="#667094"/>
<path opacity="0.6" d="M559.526 275V268.7H560.453L563.558 273.416V268.7H564.422V275H563.693L560.381 270.023V275H559.526ZM567.495 275.09C567.033 275.09 566.639 274.988 566.312 274.784C565.988 274.577 565.739 274.301 565.565 273.956C565.394 273.608 565.308 273.221 565.308 272.795C565.308 272.369 565.394 271.983 565.565 271.638C565.739 271.29 565.988 271.014 566.312 270.81C566.639 270.603 567.033 270.5 567.495 270.5C567.954 270.5 568.347 270.603 568.674 270.81C569.001 271.014 569.25 271.29 569.421 271.638C569.595 271.983 569.682 272.369 569.682 272.795C569.682 273.221 569.595 273.608 569.421 273.956C569.25 274.301 569.001 274.577 568.674 274.784C568.347 274.988 567.954 275.09 567.495 275.09ZM567.495 274.37C567.933 274.37 568.269 274.232 568.503 273.956C568.737 273.677 568.854 273.29 568.854 272.795C568.854 272.3 568.737 271.914 568.503 271.638C568.269 271.359 567.933 271.22 567.495 271.22C567.06 271.22 566.724 271.359 566.487 271.638C566.253 271.914 566.136 272.3 566.136 272.795C566.136 273.29 566.253 273.677 566.487 273.956C566.724 274.232 567.06 274.37 567.495 274.37ZM571.653 275L569.97 270.59H570.87L572.103 274.109L573.327 270.59H574.236L572.562 275H571.653ZM577.321 268.7H577.834L577.51 269.663H577.825V270.617H576.853V269.753L577.321 268.7ZM579.493 275V269.933C579.277 270.107 579.098 270.231 578.957 270.306C578.816 270.381 578.683 270.44 578.557 270.482L578.413 269.681C578.575 269.627 578.74 269.55 578.908 269.451C579.079 269.349 579.236 269.234 579.38 269.105C579.527 268.976 579.646 268.841 579.736 268.7H580.321V275H579.493Z" fill="#667094"/>
<path opacity="0.6" d="M510.792 275.126C510.192 275.126 509.658 274.992 509.19 274.725C508.722 274.455 508.354 274.076 508.087 273.587C507.82 273.095 507.687 272.516 507.687 271.85C507.687 271.184 507.82 270.606 508.087 270.117C508.354 269.625 508.722 269.246 509.19 268.979C509.658 268.709 510.192 268.574 510.792 268.574C511.392 268.574 511.926 268.709 512.394 268.979C512.862 269.246 513.229 269.625 513.496 270.117C513.763 270.606 513.897 271.184 513.897 271.85C513.897 272.516 513.763 273.095 513.496 273.587C513.229 274.076 512.862 274.455 512.394 274.725C511.926 274.992 511.392 275.126 510.792 275.126ZM510.792 274.298C511.275 274.298 511.678 274.19 512.002 273.974C512.326 273.755 512.569 273.461 512.731 273.092C512.896 272.72 512.979 272.306 512.979 271.85C512.979 271.394 512.896 270.981 512.731 270.612C512.569 270.24 512.326 269.946 512.002 269.73C511.678 269.511 511.275 269.402 510.792 269.402C510.309 269.402 509.905 269.511 509.581 269.73C509.257 269.946 509.013 270.24 508.848 270.612C508.686 270.981 508.605 271.394 508.605 271.85C508.605 272.306 508.686 272.72 508.848 273.092C509.013 273.461 509.257 273.755 509.581 273.974C509.905 274.19 510.309 274.298 510.792 274.298ZM516.774 275.09C516.276 275.09 515.857 274.99 515.518 274.788C515.182 274.584 514.927 274.311 514.753 273.969C514.582 273.624 514.497 273.242 514.497 272.822C514.497 272.384 514.579 271.989 514.744 271.638C514.912 271.287 515.169 271.01 515.514 270.806C515.859 270.602 516.3 270.5 516.837 270.5C517.068 270.5 517.285 270.524 517.489 270.572C517.696 270.617 517.881 270.68 518.043 270.761L517.917 271.472C517.752 271.394 517.576 271.332 517.39 271.287C517.207 271.242 517.017 271.22 516.819 271.22C516.333 271.22 515.962 271.358 515.707 271.634C515.452 271.91 515.325 272.294 515.325 272.786C515.325 273.266 515.446 273.651 515.689 273.942C515.932 274.233 516.303 274.379 516.801 274.379C517.005 274.379 517.2 274.355 517.386 274.307C517.575 274.259 517.755 274.193 517.926 274.109L518.034 274.757C517.914 274.841 517.738 274.917 517.507 274.986C517.276 275.056 517.032 275.09 516.774 275.09ZM520.357 275.09C520.078 275.09 519.854 275.039 519.686 274.937C519.518 274.835 519.395 274.704 519.317 274.545C519.242 274.383 519.205 274.214 519.205 274.037V271.22H518.449L518.521 270.59H519.205V269.501L520.015 269.42V270.59H521.176V271.22H520.015V273.542C520.015 273.824 520.031 274.028 520.064 274.154C520.097 274.28 520.178 274.359 520.307 274.392C520.439 274.425 520.651 274.442 520.942 274.442H521.149L521.086 275.09H520.357ZM524.321 268.7H524.834L524.51 269.663H524.825V270.617H523.853V269.753L524.321 268.7ZM526.493 275V269.933C526.277 270.107 526.098 270.231 525.957 270.306C525.816 270.381 525.683 270.44 525.557 270.482L525.413 269.681C525.575 269.627 525.74 269.55 525.908 269.451C526.079 269.349 526.236 269.234 526.38 269.105C526.527 268.976 526.646 268.841 526.736 268.7H527.321V275H526.493Z" fill="#667094"/>
<path opacity="0.6" d="M611.86 275V268.7H614.191C614.8 268.7 615.34 268.824 615.811 269.073C616.282 269.322 616.651 269.682 616.918 270.153C617.188 270.621 617.323 271.187 617.323 271.85C617.323 272.513 617.188 273.08 616.918 273.551C616.651 274.019 616.282 274.377 615.811 274.626C615.34 274.875 614.8 275 614.191 275H611.86ZM612.715 274.226H614.191C614.671 274.226 615.073 274.127 615.397 273.929C615.724 273.728 615.97 273.449 616.135 273.092C616.303 272.735 616.387 272.321 616.387 271.85C616.387 271.379 616.303 270.965 616.135 270.608C615.97 270.251 615.724 269.973 615.397 269.775C615.073 269.574 614.671 269.474 614.191 269.474H612.715V274.226ZM620.29 275.09C619.771 275.09 619.335 274.984 618.981 274.77C618.627 274.557 618.358 274.275 618.175 273.924C617.995 273.57 617.905 273.182 617.905 272.759C617.905 272.348 617.989 271.971 618.157 271.629C618.328 271.287 618.574 271.014 618.895 270.81C619.219 270.603 619.609 270.5 620.065 270.5C620.431 270.5 620.757 270.573 621.042 270.72C621.33 270.864 621.555 271.076 621.717 271.355C621.882 271.631 621.964 271.967 621.964 272.363C621.964 272.426 621.961 272.495 621.955 272.57C621.952 272.642 621.943 272.717 621.928 272.795H618.733C618.772 273.203 618.87 273.521 619.026 273.749C619.182 273.977 619.378 274.137 619.615 274.23C619.852 274.323 620.11 274.37 620.389 274.37C620.593 274.37 620.806 274.349 621.028 274.307C621.25 274.265 621.46 274.199 621.658 274.109L621.766 274.748C621.595 274.823 621.387 274.899 621.141 274.977C620.895 275.053 620.611 275.09 620.29 275.09ZM618.805 272.237H621.127C621.127 272.03 621.088 271.85 621.01 271.697C620.932 271.544 620.814 271.427 620.655 271.346C620.496 271.262 620.293 271.22 620.047 271.22C619.687 271.22 619.41 271.31 619.215 271.49C619.023 271.667 618.886 271.916 618.805 272.237ZM624.806 275.09C624.308 275.09 623.889 274.99 623.55 274.788C623.214 274.584 622.959 274.311 622.785 273.969C622.614 273.624 622.529 273.242 622.529 272.822C622.529 272.384 622.611 271.989 622.776 271.638C622.944 271.287 623.201 271.01 623.546 270.806C623.891 270.602 624.332 270.5 624.869 270.5C625.1 270.5 625.317 270.524 625.521 270.572C625.728 270.617 625.913 270.68 626.075 270.761L625.949 271.472C625.784 271.394 625.608 271.332 625.422 271.287C625.239 271.242 625.049 271.22 624.851 271.22C624.365 271.22 623.994 271.358 623.739 271.634C623.484 271.91 623.357 272.294 623.357 272.786C623.357 273.266 623.478 273.651 623.721 273.942C623.964 274.233 624.335 274.379 624.833 274.379C625.037 274.379 625.232 274.355 625.418 274.307C625.607 274.259 625.787 274.193 625.958 274.109L626.066 274.757C625.946 274.841 625.77 274.917 625.539 274.986C625.308 275.056 625.064 275.09 624.806 275.09ZM629.321 268.7H629.834L629.51 269.663H629.825V270.617H628.853V269.753L629.321 268.7ZM631.493 275V269.933C631.277 270.107 631.098 270.231 630.957 270.306C630.816 270.381 630.683 270.44 630.557 270.482L630.413 269.681C630.575 269.627 630.74 269.55 630.908 269.451C631.079 269.349 631.236 269.234 631.38 269.105C631.527 268.976 631.646 268.841 631.736 268.7H632.321V275H631.493Z" fill="#667094"/>
<path d="M34.0425 237H642" stroke="#192235"/>
<path d="M34.0425 217H642" stroke="#192235"/>
<path d="M34.0425 197H642" stroke="#192235"/>
<path d="M34.0425 177H642" stroke="#192235"/>
<path d="M34.0425 157H642" stroke="#192235"/>
<path d="M34.0425 137H642" stroke="#192235"/>
<path d="M34.0425 117H642" stroke="#192235"/>
<path d="M34.0425 97H642" stroke="#192235"/>
<path d="M34 77H641.958" stroke="#192235"/>
<path d="M34 57H641.958" stroke="#192235"/>
</g>
<path d="M614.625 115.786L642 81.5526V258H35V138.563L55.17 175.184H109.092L129.407 139.125H147.378L171.6 85.9914L178.5 56.5L207.542 59.636H229.42L250.516 68.7892L270.05 59.636L313.024 80.1749L330.995 112.769H346.622L389.597 89.9978L410.693 127.605L438.765 134.178L452.104 182.846L472.42 188.686L491.172 183.755L509.924 172.816L533.365 149.771H573.214L591.185 138.832L614.625 115.786Z" fill="url(#paint0_linear_7634_91111)"/>
<g filter="url(#filter1_d_7634_91111)">
<path d="M643 80.2565L614.712 115.941L591.268 139.037L573.294 150H533.44L509.996 173.096L491.24 184.059L472.485 189L452.167 183.147L438.825 134.373L410.749 127.786L389.65 90.0962L346.669 112.917H331.04L313.066 80.2518L270.085 59.668L250.549 68.8412L229.449 59.668H207.568L178 56.5L171.621 86.0811L147.395 139.33H129.421L109.103 175.468H55.173L35 138.768" stroke="#00CD86" stroke-width="2"/>
</g>
<defs>
<filter id="filter0_b_7634_91111" x="-16" y="13" width="692" height="296" filterUnits="userSpaceOnUse" color-interpolation-filters="sRGB">
<feFlood flood-opacity="0" result="BackgroundImageFix"/>
<feGaussianBlur in="BackgroundImage" stdDeviation="8"/>
<feComposite in2="SourceAlpha" operator="in" result="effect1_backgroundBlur_7634_91111"/>
<feBlend mode="normal" in="SourceGraphic" in2="effect1_backgroundBlur_7634_91111" result="shape"/>
</filter>
<filter id="filter1_d_7634_91111" x="26.1237" y="47.4099" width="625.66" height="150.627" filterUnits="userSpaceOnUse" color-interpolation-filters="sRGB">
<feFlood flood-opacity="0" result="BackgroundImageFix"/>
<feColorMatrix in="SourceAlpha" type="matrix" values="0 0 0 0 0 0 0 0 0 0 0 0 0 0 0 0 0 0 127 0" result="hardAlpha"/>
<feOffset/>
<feGaussianBlur stdDeviation="4"/>
<feColorMatrix type="matrix" values="0 0 0 0 0.2875 0 0 0 0 1 0 0 0 0 0.9145 0 0 0 1 0"/>
<feBlend mode="normal" in2="BackgroundImageFix" result="effect1_dropShadow_7634_91111"/>
<feBlend mode="normal" in="SourceGraphic" in2="effect1_dropShadow_7634_91111" result="shape"/>
</filter>
<linearGradient id="paint0_linear_7634_91111" x1="338.5" y1="45" x2="338.5" y2="300.311" gradientUnits="userSpaceOnUse">
<stop stop-color="#00CD86" stop-opacity="0.4"/>
<stop offset="1" stop-color="#00CD86" stop-opacity="0"/>
</linearGradient>
</defs>
</svg>
