
<svg width="17" height="17" viewBox="0 0 17 17" fill="none" xmlns="http://www.w3.org/2000/svg">
    <path d="M10.0455 0H6.95455C3.1196 0 0 3.1196 0 6.95455C0 7.11326 0 14.0678 0 13.9091H4.63636V7.72727H1.54545V6.95455C1.54545 3.97228 3.97228 1.54545 6.95455 1.54545H10.0455C13.0277 1.54545 15.4545 3.97228 15.4545 6.95455V7.72727H12.3636V13.9091H15.4545C15.4545 14.761 14.761 15.4545 13.9091 15.4545H10.8182V17H13.9091C15.6138 17 17 15.6138 17 13.9091C17 13.4118 17 6.76373 17 6.95455C17 3.11955 13.8804 0 10.0455 0Z" fill="#00CD86"/>
</svg>




