<svg width="41" height="41" viewBox="0 0 41 41" fill="none" xmlns="http://www.w3.org/2000/svg">
<path d="M24.2273 0H16.7727C7.52375 0 0 7.52375 0 16.7727C0 17.1555 0 33.9282 0 33.5455H11.1818V18.6364H3.72727V16.7727C3.72727 9.58021 9.58021 3.72727 16.7727 3.72727H24.2273C31.4198 3.72727 37.2727 9.58021 37.2727 16.7727V18.6364H29.8182V33.5455H37.2727C37.2727 35.6002 35.6002 37.2727 33.5455 37.2727H26.0909V41H33.5455C37.6568 41 41 37.6568 41 33.5455C41 32.3461 41 16.3125 41 16.7727C41 7.52362 33.4763 0 24.2273 0Z" fill="white"/>
</svg>
