<svg width="660" height="264" viewBox="0 0 660 264" fill="none" xmlns="http://www.w3.org/2000/svg">
<mask id="mask0_7634_91067" style="mask-type:alpha" maskUnits="userSpaceOnUse" x="0" y="0" width="660" height="264">
<path d="M0.5 7.99999C0.5 3.85786 3.85786 0.5 8 0.5H652C656.142 0.5 659.5 3.85786 659.5 8V256C659.5 260.142 656.142 263.5 652 263.5H7.99999C3.85786 263.5 0.5 260.142 0.5 256V7.99999Z" fill="#020610" fill-opacity="0.88" stroke="black"/>
</mask>
<g mask="url(#mask0_7634_91067)">
<g filter="url(#filter0_b_7634_91067)">
<path d="M0.5 7.99999C0.5 3.85786 3.85786 0.5 8 0.5H652C656.142 0.5 659.5 3.85786 659.5 8V256C659.5 260.142 656.142 263.5 652 263.5H7.99999C3.85786 263.5 0.5 260.142 0.5 256V7.99999Z" stroke="#3E4868" stroke-opacity="0.54"/>
</g>
<path opacity="0.6" d="M8.84791 30L8.84791 24.933C8.63191 25.107 8.45341 25.2315 8.31241 25.3065C8.17141 25.3815 8.03791 25.44 7.91191 25.482L7.76791 24.681C7.92991 24.627 8.09491 24.5505 8.26291 24.4515C8.43391 24.3495 8.59141 24.234 8.73541 24.105C8.88241 23.976 9.00091 23.841 9.09091 23.7H9.67591L9.67591 30H8.84791ZM13.5385 30.126C12.9835 30.126 12.508 29.9835 12.112 29.6985C11.716 29.4135 11.4115 29.0205 11.1985 28.5195C10.9885 28.0185 10.8835 27.444 10.8835 26.796C10.8835 26.148 10.996 25.5825 11.221 25.0995C11.446 24.6165 11.758 24.2415 12.157 23.9745C12.556 23.7075 13.0165 23.574 13.5385 23.574C14.0725 23.574 14.5375 23.7075 14.9335 23.9745C15.3325 24.2415 15.6415 24.6165 15.8605 25.0995C16.0825 25.5825 16.1935 26.148 16.1935 26.796C16.1935 27.444 16.0885 28.0185 15.8785 28.5195C15.6685 29.0205 15.3655 29.4135 14.9695 29.6985C14.5735 29.9835 14.0965 30.126 13.5385 30.126ZM13.5385 29.352C13.9105 29.352 14.2255 29.253 14.4835 29.055C14.7445 28.857 14.9425 28.5675 15.0775 28.1865C15.2155 27.8055 15.2845 27.342 15.2845 26.796C15.2845 25.977 15.1255 25.365 14.8075 24.96C14.4925 24.552 14.0695 24.348 13.5385 24.348C13.0345 24.348 12.6175 24.552 12.2875 24.96C11.9575 25.365 11.7925 25.977 11.7925 26.796C11.7925 27.342 11.86 27.8055 11.995 28.1865C12.133 28.5675 12.331 28.857 12.589 29.055C12.85 29.253 13.1665 29.352 13.5385 29.352ZM19.8226 30.126C19.2676 30.126 18.7921 29.9835 18.3961 29.6985C18.0001 29.4135 17.6956 29.0205 17.4826 28.5195C17.2726 28.0185 17.1676 27.444 17.1676 26.796C17.1676 26.148 17.2801 25.5825 17.5051 25.0995C17.7301 24.6165 18.0421 24.2415 18.4411 23.9745C18.8401 23.7075 19.3006 23.574 19.8226 23.574C20.3566 23.574 20.8216 23.7075 21.2176 23.9745C21.6166 24.2415 21.9256 24.6165 22.1446 25.0995C22.3666 25.5825 22.4776 26.148 22.4776 26.796C22.4776 27.444 22.3726 28.0185 22.1626 28.5195C21.9526 29.0205 21.6496 29.4135 21.2536 29.6985C20.8576 29.9835 20.3806 30.126 19.8226 30.126ZM19.8226 29.352C20.1946 29.352 20.5096 29.253 20.7676 29.055C21.0286 28.857 21.2266 28.5675 21.3616 28.1865C21.4996 27.8055 21.5686 27.342 21.5686 26.796C21.5686 25.977 21.4096 25.365 21.0916 24.96C20.7766 24.552 20.3536 24.348 19.8226 24.348C19.3186 24.348 18.9016 24.552 18.5716 24.96C18.2416 25.365 18.0766 25.977 18.0766 26.796C18.0766 27.342 18.1441 27.8055 18.2791 28.1865C18.4171 28.5675 18.6151 28.857 18.8731 29.055C19.1341 29.253 19.4506 29.352 19.8226 29.352ZM23.5058 30V23.25H24.3158V27.579L25.9358 25.59H26.9258L25.1708 27.642L26.9708 30H25.9808L24.3158 27.759V30L23.5058 30Z" fill="#667094"/>
<path opacity="0.6" d="M13.4204 50L12.8354 49.451C13.0844 49.322 13.3259 49.172 13.5599 49.001C13.7969 48.827 14.0174 48.6335 14.2214 48.4205C14.4254 48.2045 14.6039 47.9735 14.7569 47.7275C14.9099 47.4785 15.0299 47.2145 15.1169 46.9355C15.2039 46.6535 15.2474 46.361 15.2474 46.058L15.5354 46.544C15.3914 46.832 15.1709 47.06 14.8739 47.228C14.5769 47.396 14.2274 47.48 13.8254 47.48C13.4594 47.48 13.1354 47.3975 12.8534 47.2325C12.5714 47.0645 12.3509 46.8365 12.1919 46.5485C12.0329 46.2605 11.9534 45.935 11.9534 45.572C11.9534 45.182 12.0404 44.837 12.2144 44.537C12.3884 44.237 12.6299 44.0015 12.9389 43.8305C13.2509 43.6595 13.6124 43.574 14.0234 43.574C14.4644 43.574 14.8409 43.673 15.1529 43.871C15.4679 44.066 15.7079 44.339 15.8729 44.69C16.0379 45.041 16.1204 45.449 16.1204 45.914C16.1204 46.394 16.0409 46.8455 15.8819 47.2685C15.7229 47.6885 15.5114 48.074 15.2474 48.425C14.9864 48.773 14.6969 49.0805 14.3789 49.3475C14.0609 49.6145 13.7414 49.832 13.4204 50ZM14.0234 46.742C14.3834 46.742 14.6729 46.6265 14.8919 46.3955C15.1109 46.1645 15.2204 45.878 15.2204 45.536C15.2204 45.179 15.1109 44.8865 14.8919 44.6585C14.6729 44.4275 14.3834 44.312 14.0234 44.312C13.6634 44.312 13.3754 44.4305 13.1594 44.6675C12.9434 44.9045 12.8354 45.197 12.8354 45.545C12.8354 45.881 12.9434 46.1645 13.1594 46.3955C13.3754 46.6265 13.6634 46.742 14.0234 46.742ZM19.8226 50.126C19.2676 50.126 18.7921 49.9835 18.3961 49.6985C18.0001 49.4135 17.6956 49.0205 17.4826 48.5195C17.2726 48.0185 17.1676 47.444 17.1676 46.796C17.1676 46.148 17.2801 45.5825 17.5051 45.0995C17.7301 44.6165 18.0421 44.2415 18.4411 43.9745C18.8401 43.7075 19.3006 43.574 19.8226 43.574C20.3566 43.574 20.8216 43.7075 21.2176 43.9745C21.6166 44.2415 21.9256 44.6165 22.1446 45.0995C22.3666 45.5825 22.4776 46.148 22.4776 46.796C22.4776 47.444 22.3726 48.0185 22.1626 48.5195C21.9526 49.0205 21.6496 49.4135 21.2536 49.6985C20.8576 49.9835 20.3806 50.126 19.8226 50.126ZM19.8226 49.352C20.1946 49.352 20.5096 49.253 20.7676 49.055C21.0286 48.857 21.2266 48.5675 21.3616 48.1865C21.4996 47.8055 21.5686 47.342 21.5686 46.796C21.5686 45.977 21.4096 45.365 21.0916 44.96C20.7766 44.552 20.3536 44.348 19.8226 44.348C19.3186 44.348 18.9016 44.552 18.5716 44.96C18.2416 45.365 18.0766 45.977 18.0766 46.796C18.0766 47.342 18.1441 47.8055 18.2791 48.1865C18.4171 48.5675 18.6151 48.857 18.8731 49.055C19.1341 49.253 19.4506 49.352 19.8226 49.352ZM23.5058 50V43.25H24.3158V47.579L25.9358 45.59H26.9258L25.1708 47.642L26.9708 50H25.9808L24.3158 47.759V50H23.5058Z" fill="#667094"/>
<path opacity="0.6" d="M13.9506 70.126C13.5006 70.126 13.1121 70.045 12.7851 69.883C12.4581 69.718 12.2061 69.4915 12.0291 69.2035C11.8521 68.9125 11.7636 68.578 11.7636 68.2C11.7636 67.81 11.8551 67.4695 12.0381 67.1785C12.2211 66.8875 12.4761 66.661 12.8031 66.499C13.1331 66.337 13.5156 66.256 13.9506 66.256C14.3856 66.256 14.7666 66.337 15.0936 66.499C15.4236 66.661 15.6801 66.8875 15.8631 67.1785C16.0461 67.4695 16.1376 67.81 16.1376 68.2C16.1376 68.578 16.0476 68.9125 15.8676 69.2035C15.6906 69.4915 15.4386 69.718 15.1116 69.883C14.7846 70.045 14.3976 70.126 13.9506 70.126ZM13.9506 69.352C14.3646 69.352 14.6856 69.247 14.9136 69.037C15.1416 68.824 15.2556 68.545 15.2556 68.2C15.2556 67.84 15.1416 67.543 14.9136 67.309C14.6856 67.075 14.3646 66.958 13.9506 66.958C13.5366 66.958 13.2156 67.075 12.9876 67.309C12.7596 67.543 12.6456 67.84 12.6456 68.2C12.6456 68.545 12.7596 68.824 12.9876 69.037C13.2156 69.247 13.5366 69.352 13.9506 69.352ZM13.9506 66.913C13.5996 66.913 13.2801 66.844 12.9921 66.706C12.7071 66.565 12.4791 66.3715 12.3081 66.1255C12.1371 65.8795 12.0516 65.596 12.0516 65.275C12.0516 64.999 12.1161 64.7305 12.2451 64.4695C12.3741 64.2085 12.5781 63.994 12.8571 63.826C13.1361 63.658 13.5006 63.574 13.9506 63.574C14.4006 63.574 14.7621 63.658 15.0351 63.826C15.3081 63.994 15.5061 64.2085 15.6291 64.4695C15.7521 64.7305 15.8136 64.999 15.8136 65.275C15.8136 65.596 15.7371 65.8795 15.5841 66.1255C15.4311 66.3715 15.2151 66.565 14.9361 66.706C14.6571 66.844 14.3286 66.913 13.9506 66.913ZM13.9506 66.211C14.2836 66.211 14.5341 66.1195 14.7021 65.9365C14.8731 65.7505 14.9586 65.53 14.9586 65.275C14.9586 64.999 14.8731 64.7755 14.7021 64.6045C14.5341 64.4335 14.2836 64.348 13.9506 64.348C13.6176 64.348 13.3596 64.4335 13.1766 64.6045C12.9966 64.7755 12.9066 64.999 12.9066 65.275C12.9066 65.53 12.9966 65.7505 13.1766 65.9365C13.3596 66.1195 13.6176 66.211 13.9506 66.211ZM19.8226 70.126C19.2676 70.126 18.7921 69.9835 18.3961 69.6985C18.0001 69.4135 17.6956 69.0205 17.4826 68.5195C17.2726 68.0185 17.1676 67.444 17.1676 66.796C17.1676 66.148 17.2801 65.5825 17.5051 65.0995C17.7301 64.6165 18.0421 64.2415 18.4411 63.9745C18.8401 63.7075 19.3006 63.574 19.8226 63.574C20.3566 63.574 20.8216 63.7075 21.2176 63.9745C21.6166 64.2415 21.9256 64.6165 22.1446 65.0995C22.3666 65.5825 22.4776 66.148 22.4776 66.796C22.4776 67.444 22.3726 68.0185 22.1626 68.5195C21.9526 69.0205 21.6496 69.4135 21.2536 69.6985C20.8576 69.9835 20.3806 70.126 19.8226 70.126ZM19.8226 69.352C20.1946 69.352 20.5096 69.253 20.7676 69.055C21.0286 68.857 21.2266 68.5675 21.3616 68.1865C21.4996 67.8055 21.5686 67.342 21.5686 66.796C21.5686 65.977 21.4096 65.365 21.0916 64.96C20.7766 64.552 20.3536 64.348 19.8226 64.348C19.3186 64.348 18.9016 64.552 18.5716 64.96C18.2416 65.365 18.0766 65.977 18.0766 66.796C18.0766 67.342 18.1441 67.8055 18.2791 68.1865C18.4171 68.5675 18.6151 68.857 18.8731 69.055C19.1341 69.253 19.4506 69.352 19.8226 69.352ZM23.5058 70V63.25H24.3158V67.579L25.9358 65.59H26.9258L25.1708 67.642L26.9708 70H25.9808L24.3158 67.759V70H23.5058Z" fill="#667094"/>
<path opacity="0.6" d="M13.0444 90L15.5824 84.123L15.8164 84.51H12.5944V83.7H16.6714L13.9444 90H13.0444ZM19.8226 90.126C19.2676 90.126 18.7921 89.9835 18.3961 89.6985C18.0001 89.4135 17.6956 89.0205 17.4826 88.5195C17.2726 88.0185 17.1676 87.444 17.1676 86.796C17.1676 86.148 17.2801 85.5825 17.5051 85.0995C17.7301 84.6165 18.0421 84.2415 18.4411 83.9745C18.8401 83.7075 19.3006 83.574 19.8226 83.574C20.3566 83.574 20.8216 83.7075 21.2176 83.9745C21.6166 84.2415 21.9256 84.6165 22.1446 85.0995C22.3666 85.5825 22.4776 86.148 22.4776 86.796C22.4776 87.444 22.3726 88.0185 22.1626 88.5195C21.9526 89.0205 21.6496 89.4135 21.2536 89.6985C20.8576 89.9835 20.3806 90.126 19.8226 90.126ZM19.8226 89.352C20.1946 89.352 20.5096 89.253 20.7676 89.055C21.0286 88.857 21.2266 88.5675 21.3616 88.1865C21.4996 87.8055 21.5686 87.342 21.5686 86.796C21.5686 85.977 21.4096 85.365 21.0916 84.96C20.7766 84.552 20.3536 84.348 19.8226 84.348C19.3186 84.348 18.9016 84.552 18.5716 84.96C18.2416 85.365 18.0766 85.977 18.0766 86.796C18.0766 87.342 18.1441 87.8055 18.2791 88.1865C18.4171 88.5675 18.6151 88.857 18.8731 89.055C19.1341 89.253 19.4506 89.352 19.8226 89.352ZM23.5058 90V83.25H24.3158V87.579L25.9358 85.59H26.9258L25.1708 87.642L26.9708 90H25.9808L24.3158 87.759V90H23.5058Z" fill="#667094"/>
<path opacity="0.6" d="M14.2214 110.126C13.7804 110.126 13.4024 110.029 13.0874 109.833C12.7754 109.635 12.5369 109.361 12.3719 109.01C12.2069 108.659 12.1244 108.251 12.1244 107.786C12.1244 107.291 12.2054 106.826 12.3674 106.391C12.5324 105.956 12.7499 105.558 13.0199 105.198C13.2929 104.835 13.5944 104.517 13.9244 104.244C14.2544 103.971 14.5844 103.748 14.9144 103.574L15.4994 104.123C15.2324 104.255 14.9744 104.412 14.7254 104.595C14.4794 104.775 14.2514 104.976 14.0414 105.198C13.8344 105.417 13.6514 105.656 13.4924 105.914C13.3364 106.172 13.2149 106.446 13.1279 106.737C13.0409 107.025 12.9974 107.327 12.9974 107.642L12.7094 107.156C12.8534 106.868 13.0739 106.64 13.3709 106.472C13.6709 106.304 14.0204 106.22 14.4194 106.22C14.7854 106.22 15.1094 106.304 15.3914 106.472C15.6734 106.637 15.8939 106.863 16.0529 107.151C16.2119 107.439 16.2914 107.765 16.2914 108.128C16.2914 108.518 16.2044 108.863 16.0304 109.163C15.8564 109.463 15.6134 109.698 15.3014 109.869C14.9924 110.041 14.6324 110.126 14.2214 110.126ZM14.2214 109.388C14.5814 109.388 14.8694 109.269 15.0854 109.032C15.3014 108.792 15.4094 108.5 15.4094 108.155C15.4094 107.816 15.3014 107.532 15.0854 107.304C14.8694 107.073 14.5814 106.958 14.2214 106.958C13.8614 106.958 13.5719 107.073 13.3529 107.304C13.1339 107.535 13.0244 107.822 13.0244 108.164C13.0244 108.518 13.1339 108.81 13.3529 109.041C13.5719 109.272 13.8614 109.388 14.2214 109.388ZM19.8226 110.126C19.2676 110.126 18.7921 109.984 18.3961 109.698C18.0001 109.413 17.6956 109.02 17.4826 108.519C17.2726 108.018 17.1676 107.444 17.1676 106.796C17.1676 106.148 17.2801 105.582 17.5051 105.099C17.7301 104.616 18.0421 104.241 18.4411 103.974C18.8401 103.707 19.3006 103.574 19.8226 103.574C20.3566 103.574 20.8216 103.707 21.2176 103.974C21.6166 104.241 21.9256 104.616 22.1446 105.099C22.3666 105.582 22.4776 106.148 22.4776 106.796C22.4776 107.444 22.3726 108.018 22.1626 108.519C21.9526 109.02 21.6496 109.413 21.2536 109.698C20.8576 109.984 20.3806 110.126 19.8226 110.126ZM19.8226 109.352C20.1946 109.352 20.5096 109.253 20.7676 109.055C21.0286 108.857 21.2266 108.567 21.3616 108.186C21.4996 107.805 21.5686 107.342 21.5686 106.796C21.5686 105.977 21.4096 105.365 21.0916 104.96C20.7766 104.552 20.3536 104.348 19.8226 104.348C19.3186 104.348 18.9016 104.552 18.5716 104.96C18.2416 105.365 18.0766 105.977 18.0766 106.796C18.0766 107.342 18.1441 107.805 18.2791 108.186C18.4171 108.567 18.6151 108.857 18.8731 109.055C19.1341 109.253 19.4506 109.352 19.8226 109.352ZM23.5058 110V103.25H24.3158V107.579L25.9358 105.59H26.9258L25.1708 107.642L26.9708 110H25.9808L24.3158 107.759V110H23.5058Z" fill="#667094"/>
<path opacity="0.6" d="M14.0265 130.126C13.6935 130.126 13.374 130.083 13.068 129.995C12.762 129.908 12.4965 129.793 12.2715 129.649L12.4785 128.857C12.7005 128.977 12.9315 129.08 13.1715 129.167C13.4115 129.254 13.6815 129.298 13.9815 129.298C14.3835 129.298 14.709 129.185 14.958 128.96C15.207 128.732 15.3315 128.428 15.3315 128.047C15.3315 127.615 15.1965 127.286 14.9265 127.061C14.6565 126.836 14.3055 126.724 13.8735 126.724C13.6455 126.724 13.4295 126.74 13.2255 126.773C13.0245 126.806 12.8175 126.85 12.6045 126.904L12.9915 123.7H15.9615L15.9255 124.51H13.6935L13.4595 126.481L13.2705 126.112C13.4055 126.085 13.548 126.064 13.698 126.049C13.848 126.031 13.9995 126.022 14.1525 126.022C14.5995 126.022 14.9805 126.11 15.2955 126.287C15.6105 126.461 15.8505 126.701 16.0155 127.007C16.1835 127.313 16.2675 127.66 16.2675 128.047C16.2675 128.473 16.1685 128.842 15.9705 129.154C15.7755 129.463 15.5085 129.703 15.1695 129.874C14.8335 130.042 14.4525 130.126 14.0265 130.126ZM19.8226 130.126C19.2676 130.126 18.7921 129.984 18.3961 129.698C18.0001 129.413 17.6956 129.02 17.4826 128.519C17.2726 128.018 17.1676 127.444 17.1676 126.796C17.1676 126.148 17.2801 125.582 17.5051 125.099C17.7301 124.616 18.0421 124.241 18.4411 123.974C18.8401 123.707 19.3006 123.574 19.8226 123.574C20.3566 123.574 20.8216 123.707 21.2176 123.974C21.6166 124.241 21.9256 124.616 22.1446 125.099C22.3666 125.582 22.4776 126.148 22.4776 126.796C22.4776 127.444 22.3726 128.018 22.1626 128.519C21.9526 129.02 21.6496 129.413 21.2536 129.698C20.8576 129.984 20.3806 130.126 19.8226 130.126ZM19.8226 129.352C20.1946 129.352 20.5096 129.253 20.7676 129.055C21.0286 128.857 21.2266 128.567 21.3616 128.186C21.4996 127.805 21.5686 127.342 21.5686 126.796C21.5686 125.977 21.4096 125.365 21.0916 124.96C20.7766 124.552 20.3536 124.348 19.8226 124.348C19.3186 124.348 18.9016 124.552 18.5716 124.96C18.2416 125.365 18.0766 125.977 18.0766 126.796C18.0766 127.342 18.1441 127.805 18.2791 128.186C18.4171 128.567 18.6151 128.857 18.8731 129.055C19.1341 129.253 19.4506 129.352 19.8226 129.352ZM23.5058 130V123.25H24.3158V127.579L25.9358 125.59H26.9258L25.1708 127.642L26.9708 130H25.9808L24.3158 127.759V130H23.5058Z" fill="#667094"/>
<path opacity="0.6" d="M14.7635 150V148.371H11.6585L15.0065 143.7H15.6275V147.642H16.4375V148.371H15.6275L15.6275 150H14.7635ZM12.9185 147.885L12.7655 147.642H14.7635V144.825L14.9165 145.077L12.9185 147.885ZM19.8226 150.126C19.2676 150.126 18.7921 149.984 18.3961 149.698C18.0001 149.413 17.6956 149.02 17.4826 148.519C17.2726 148.018 17.1676 147.444 17.1676 146.796C17.1676 146.148 17.2801 145.582 17.5051 145.099C17.7301 144.616 18.0421 144.241 18.4411 143.974C18.8401 143.707 19.3006 143.574 19.8226 143.574C20.3566 143.574 20.8216 143.707 21.2176 143.974C21.6166 144.241 21.9256 144.616 22.1446 145.099C22.3666 145.582 22.4776 146.148 22.4776 146.796C22.4776 147.444 22.3726 148.018 22.1626 148.519C21.9526 149.02 21.6496 149.413 21.2536 149.698C20.8576 149.984 20.3806 150.126 19.8226 150.126ZM19.8226 149.352C20.1946 149.352 20.5096 149.253 20.7676 149.055C21.0286 148.857 21.2266 148.567 21.3616 148.186C21.4996 147.805 21.5686 147.342 21.5686 146.796C21.5686 145.977 21.4096 145.365 21.0916 144.96C20.7766 144.552 20.3536 144.348 19.8226 144.348C19.3186 144.348 18.9016 144.552 18.5716 144.96C18.2416 145.365 18.0766 145.977 18.0766 146.796C18.0766 147.342 18.1441 147.805 18.2791 148.186C18.4171 148.567 18.6151 148.857 18.8731 149.055C19.1341 149.253 19.4506 149.352 19.8226 149.352ZM23.5058 150V143.25H24.3158V147.579L25.9358 145.59H26.9258L25.1708 147.642L26.9708 150H25.9808L24.3158 147.759V150H23.5058Z" fill="#667094"/>
<path opacity="0.6" d="M13.9725 170.126C13.6275 170.126 13.305 170.081 13.005 169.991C12.708 169.901 12.4305 169.787 12.1725 169.649L12.3795 168.857C12.6375 169.004 12.891 169.124 13.14 169.217C13.392 169.307 13.6725 169.352 13.9815 169.352C14.3745 169.352 14.6805 169.254 14.8995 169.059C15.1215 168.861 15.2325 168.608 15.2325 168.299C15.2325 167.951 15.1125 167.672 14.8725 167.462C14.6325 167.252 14.2575 167.147 13.7475 167.147H13.3515V166.373H13.7475C14.1345 166.373 14.4405 166.281 14.6655 166.098C14.8935 165.915 15.0075 165.665 15.0075 165.347C15.0075 165.008 14.9205 164.757 14.7465 164.595C14.5725 164.43 14.3235 164.348 13.9995 164.348C13.7445 164.348 13.506 164.397 13.284 164.496C13.062 164.595 12.8445 164.717 12.6315 164.861L12.4875 163.988C12.7185 163.856 12.9675 163.754 13.2345 163.682C13.5045 163.61 13.7985 163.574 14.1165 163.574C14.5065 163.574 14.8365 163.644 15.1065 163.785C15.3795 163.926 15.5865 164.123 15.7275 164.375C15.8715 164.624 15.9435 164.912 15.9435 165.239C15.9435 165.647 15.8235 165.992 15.5835 166.274C15.3465 166.553 15.0255 166.736 14.6205 166.823V166.616C15.0975 166.709 15.4695 166.89 15.7365 167.16C16.0065 167.427 16.1415 167.798 16.1415 168.272C16.1415 168.656 16.0455 168.987 15.8535 169.266C15.6645 169.542 15.4065 169.755 15.0795 169.905C14.7525 170.053 14.3835 170.126 13.9725 170.126ZM19.8226 170.126C19.2676 170.126 18.7921 169.984 18.3961 169.698C18.0001 169.413 17.6956 169.02 17.4826 168.519C17.2726 168.018 17.1676 167.444 17.1676 166.796C17.1676 166.148 17.2801 165.582 17.5051 165.099C17.7301 164.616 18.0421 164.241 18.4411 163.974C18.8401 163.707 19.3006 163.574 19.8226 163.574C20.3566 163.574 20.8216 163.707 21.2176 163.974C21.6166 164.241 21.9256 164.616 22.1446 165.099C22.3666 165.582 22.4776 166.148 22.4776 166.796C22.4776 167.444 22.3726 168.018 22.1626 168.519C21.9526 169.02 21.6496 169.413 21.2536 169.698C20.8576 169.984 20.3806 170.126 19.8226 170.126ZM19.8226 169.352C20.1946 169.352 20.5096 169.253 20.7676 169.055C21.0286 168.857 21.2266 168.567 21.3616 168.186C21.4996 167.805 21.5686 167.342 21.5686 166.796C21.5686 165.977 21.4096 165.365 21.0916 164.96C20.7766 164.552 20.3536 164.348 19.8226 164.348C19.3186 164.348 18.9016 164.552 18.5716 164.96C18.2416 165.365 18.0766 165.977 18.0766 166.796C18.0766 167.342 18.1441 167.805 18.2791 168.186C18.4171 168.567 18.6151 168.857 18.8731 169.055C19.1341 169.253 19.4506 169.352 19.8226 169.352ZM23.5058 170V163.25H24.3158V167.579L25.9358 165.59H26.9258L25.1708 167.642L26.9708 170H25.9808L24.3158 167.759V170H23.5058Z" fill="#667094"/>
<path opacity="0.6" d="M12.4749 189.991L14.1939 187.381C14.3829 187.096 14.5449 186.836 14.6799 186.602C14.8149 186.368 14.9169 186.152 14.9859 185.954C15.0579 185.753 15.0939 185.563 15.0939 185.383C15.0939 185.071 15.0054 184.823 14.8284 184.64C14.6544 184.457 14.4159 184.366 14.1129 184.366C13.8129 184.366 13.5354 184.43 13.2804 184.559C13.0284 184.688 12.7959 184.861 12.5829 185.077L12.4749 184.177C12.6819 184.009 12.9309 183.865 13.2219 183.745C13.5159 183.625 13.8429 183.565 14.2029 183.565C14.5869 183.565 14.9094 183.641 15.1704 183.794C15.4314 183.947 15.6279 184.154 15.7599 184.415C15.8919 184.676 15.9579 184.969 15.9579 185.293C15.9579 185.572 15.9204 185.837 15.8454 186.089C15.7704 186.338 15.6579 186.598 15.5079 186.868C15.3579 187.138 15.1719 187.441 14.9499 187.777L13.9959 189.217H16.2009V189.991H12.4749ZM19.8226 190.126C19.2676 190.126 18.7921 189.984 18.3961 189.698C18.0001 189.413 17.6956 189.02 17.4826 188.519C17.2726 188.018 17.1676 187.444 17.1676 186.796C17.1676 186.148 17.2801 185.582 17.5051 185.099C17.7301 184.616 18.0421 184.241 18.4411 183.974C18.8401 183.707 19.3006 183.574 19.8226 183.574C20.3566 183.574 20.8216 183.707 21.2176 183.974C21.6166 184.241 21.9256 184.616 22.1446 185.099C22.3666 185.582 22.4776 186.148 22.4776 186.796C22.4776 187.444 22.3726 188.018 22.1626 188.519C21.9526 189.02 21.6496 189.413 21.2536 189.698C20.8576 189.984 20.3806 190.126 19.8226 190.126ZM19.8226 189.352C20.1946 189.352 20.5096 189.253 20.7676 189.055C21.0286 188.857 21.2266 188.567 21.3616 188.186C21.4996 187.805 21.5686 187.342 21.5686 186.796C21.5686 185.977 21.4096 185.365 21.0916 184.96C20.7766 184.552 20.3536 184.348 19.8226 184.348C19.3186 184.348 18.9016 184.552 18.5716 184.96C18.2416 185.365 18.0766 185.977 18.0766 186.796C18.0766 187.342 18.1441 187.805 18.2791 188.186C18.4171 188.567 18.6151 188.857 18.8731 189.055C19.1341 189.253 19.4506 189.352 19.8226 189.352ZM23.5058 190V183.25H24.3158V187.579L25.9358 185.59H26.9258L25.1708 187.642L26.9708 190H25.9808L24.3158 187.759V190H23.5058Z" fill="#667094"/>
<path opacity="0.6" d="M15.1321 210L15.1321 204.933C14.9161 205.107 14.7376 205.231 14.5966 205.306C14.4556 205.381 14.3221 205.44 14.1961 205.482L14.0521 204.681C14.2141 204.627 14.3791 204.55 14.5471 204.451C14.7181 204.349 14.8756 204.234 15.0196 204.105C15.1666 203.976 15.2851 203.841 15.3751 203.7H15.9601L15.9601 210H15.1321ZM19.8226 210.126C19.2676 210.126 18.7921 209.984 18.3961 209.698C18.0001 209.413 17.6956 209.02 17.4826 208.519C17.2726 208.018 17.1676 207.444 17.1676 206.796C17.1676 206.148 17.2801 205.582 17.5051 205.099C17.7301 204.616 18.0421 204.241 18.4411 203.974C18.8401 203.707 19.3006 203.574 19.8226 203.574C20.3566 203.574 20.8216 203.707 21.2176 203.974C21.6166 204.241 21.9256 204.616 22.1446 205.099C22.3666 205.582 22.4776 206.148 22.4776 206.796C22.4776 207.444 22.3726 208.018 22.1626 208.519C21.9526 209.02 21.6496 209.413 21.2536 209.698C20.8576 209.984 20.3806 210.126 19.8226 210.126ZM19.8226 209.352C20.1946 209.352 20.5096 209.253 20.7676 209.055C21.0286 208.857 21.2266 208.567 21.3616 208.186C21.4996 207.805 21.5686 207.342 21.5686 206.796C21.5686 205.977 21.4096 205.365 21.0916 204.96C20.7766 204.552 20.3536 204.348 19.8226 204.348C19.3186 204.348 18.9016 204.552 18.5716 204.96C18.2416 205.365 18.0766 205.977 18.0766 206.796C18.0766 207.342 18.1441 207.805 18.2791 208.186C18.4171 208.567 18.6151 208.857 18.8731 209.055C19.1341 209.253 19.4506 209.352 19.8226 209.352ZM23.5058 210V203.25H24.3158V207.579L25.9358 205.59H26.9258L25.1708 207.642L26.9708 210H25.9808L24.3158 207.759V210H23.5058Z" fill="#667094"/>
<path opacity="0.6" d="M23.8568 230.126C23.3018 230.126 22.8263 229.984 22.4303 229.698C22.0343 229.413 21.7298 229.02 21.5168 228.519C21.3068 228.018 21.2018 227.444 21.2018 226.796C21.2018 226.148 21.3143 225.582 21.5393 225.099C21.7643 224.616 22.0763 224.241 22.4753 223.974C22.8743 223.707 23.3348 223.574 23.8568 223.574C24.3908 223.574 24.8558 223.707 25.2518 223.974C25.6508 224.241 25.9598 224.616 26.1788 225.099C26.4008 225.582 26.5118 226.148 26.5118 226.796C26.5118 227.444 26.4068 228.018 26.1968 228.519C25.9868 229.02 25.6838 229.413 25.2878 229.698C24.8918 229.984 24.4148 230.126 23.8568 230.126ZM23.8568 229.352C24.2288 229.352 24.5438 229.253 24.8018 229.055C25.0628 228.857 25.2608 228.567 25.3958 228.186C25.5338 227.805 25.6028 227.342 25.6028 226.796C25.6028 225.977 25.4438 225.365 25.1258 224.96C24.8108 224.552 24.3878 224.348 23.8568 224.348C23.3528 224.348 22.9358 224.552 22.6058 224.96C22.2758 225.365 22.1108 225.977 22.1108 226.796C22.1108 227.342 22.1783 227.805 22.3133 228.186C22.4513 228.567 22.6493 228.857 22.9073 229.055C23.1683 229.253 23.4848 229.352 23.8568 229.352Z" fill="#667094"/>
<path d="M36.0425 228.5H644" stroke="#374459"/>
<path opacity="0.6" d="M49.7947 245.5V239.2H51.7837C52.3477 239.2 52.7902 239.327 53.1112 239.582C53.4322 239.834 53.5927 240.22 53.5927 240.739C53.5927 241.09 53.5162 241.399 53.3632 241.666C53.2102 241.933 52.9807 242.107 52.6747 242.188L52.8007 242.044C53.2387 242.116 53.5777 242.291 53.8177 242.57C54.0577 242.846 54.1777 243.223 54.1777 243.7C54.1777 244.252 53.9992 244.69 53.6422 245.014C53.2882 245.338 52.7977 245.5 52.1707 245.5H49.7947ZM50.6497 244.726H52.0987C52.4467 244.726 52.7242 244.639 52.9312 244.465C53.1382 244.291 53.2417 244.027 53.2417 243.673C53.2417 243.277 53.1352 242.998 52.9222 242.836C52.7122 242.674 52.4377 242.593 52.0987 242.593H50.6497V244.726ZM50.6497 241.819H51.6757C51.9817 241.819 52.2307 241.757 52.4227 241.634C52.6147 241.511 52.7107 241.264 52.7107 240.892C52.7107 240.523 52.6147 240.277 52.4227 240.154C52.2307 240.028 51.9817 239.965 51.6757 239.965H50.6497V241.819ZM54.9411 245.5V241.09H55.7511V245.5H54.9411ZM54.9411 240.1V239.2H55.7511V240.1H54.9411ZM56.8483 245.5V241.09H57.4783L57.6403 241.936L57.3253 241.801C57.6223 241.471 57.9118 241.255 58.1938 241.153C58.4788 241.051 58.7563 241 59.0263 241C59.6713 241 60.1318 241.186 60.4078 241.558C60.6868 241.93 60.8263 242.434 60.8263 243.07V245.5H60.0163V243.07C60.0163 242.602 59.9293 242.26 59.7553 242.044C59.5813 241.828 59.2843 241.72 58.8643 241.72C58.5673 241.72 58.2943 241.786 58.0453 241.918C57.7993 242.047 57.6373 242.254 57.5593 242.539L57.6583 242.044V245.5H56.8483ZM62.9017 245.59C62.6287 245.59 62.3902 245.535 62.1862 245.423C61.9822 245.312 61.8232 245.161 61.7092 244.969C61.5982 244.777 61.5427 244.558 61.5427 244.312C61.5427 244.063 61.5967 243.85 61.7047 243.673C61.8157 243.493 61.9627 243.344 62.1457 243.228C62.3317 243.107 62.5387 243.013 62.7667 242.944C62.9947 242.872 63.2302 242.821 63.4732 242.791C63.7192 242.758 63.9547 242.74 64.1797 242.737C64.1797 242.317 64.0972 242.042 63.9322 241.913C63.7672 241.784 63.5287 241.72 63.2167 241.72C63.0517 241.72 62.8747 241.745 62.6857 241.796C62.4997 241.847 62.2897 241.954 62.0557 242.116L61.9387 241.459C62.1157 241.324 62.3362 241.214 62.6002 241.13C62.8642 241.043 63.1417 241 63.4327 241C63.8047 241 64.1047 241.066 64.3327 241.198C64.5607 241.327 64.7272 241.546 64.8322 241.855C64.9372 242.164 64.9897 242.584 64.9897 243.115V244.015C64.9897 244.225 64.9987 244.399 65.0167 244.537C65.0377 244.672 65.0827 244.774 65.1517 244.843C65.2237 244.909 65.3377 244.942 65.4937 244.942H65.5747L65.4487 245.59H65.3857C65.1247 245.59 64.9222 245.565 64.7782 245.514C64.6372 245.462 64.5292 245.389 64.4542 245.293C64.3792 245.197 64.3117 245.08 64.2517 244.942C64.0867 245.134 63.8917 245.29 63.6667 245.41C63.4417 245.53 63.1867 245.59 62.9017 245.59ZM63.0547 244.942C63.2707 244.942 63.4792 244.888 63.6802 244.78C63.8842 244.672 64.0507 244.528 64.1797 244.348V243.295C63.7507 243.31 63.4027 243.352 63.1357 243.421C62.8717 243.49 62.6782 243.593 62.5552 243.731C62.4322 243.869 62.3707 244.048 62.3707 244.267C62.3707 244.504 62.4337 244.676 62.5597 244.784C62.6887 244.889 62.8537 244.942 63.0547 244.942ZM66.1999 245.5V241.09H66.8659L66.9649 241.819C67.1899 241.54 67.4044 241.334 67.6084 241.202C67.8154 241.067 68.0359 241 68.2699 241C68.3449 241 68.4139 241.009 68.4769 241.027L68.3959 241.918C68.3569 241.909 68.3149 241.903 68.2699 241.9C68.2279 241.894 68.1799 241.891 68.1259 241.891C67.8919 241.891 67.6759 241.943 67.4779 242.048C67.2829 242.15 67.1449 242.263 67.0639 242.386V245.5H66.1999ZM69.3805 247.678L70.3975 245.302L68.5615 241.09H69.4615L70.8385 244.366L72.0805 241.09H72.9805L70.2805 247.678H69.3805Z" fill="#667094"/>
<path opacity="0.6" d="M138.251 245.5V239.974H136.415V239.2H140.942V239.974H139.106V245.5H138.251ZM142.842 245.59C142.38 245.59 141.986 245.488 141.659 245.284C141.335 245.077 141.086 244.801 140.912 244.456C140.741 244.108 140.655 243.721 140.655 243.295C140.655 242.869 140.741 242.483 140.912 242.138C141.086 241.79 141.335 241.514 141.659 241.31C141.986 241.103 142.38 241 142.842 241C143.301 241 143.694 241.103 144.021 241.31C144.348 241.514 144.597 241.79 144.768 242.138C144.942 242.483 145.029 242.869 145.029 243.295C145.029 243.721 144.942 244.108 144.768 244.456C144.597 244.801 144.348 245.077 144.021 245.284C143.694 245.488 143.301 245.59 142.842 245.59ZM142.842 244.87C143.28 244.87 143.616 244.732 143.85 244.456C144.084 244.177 144.201 243.79 144.201 243.295C144.201 242.8 144.084 242.414 143.85 242.138C143.616 241.859 143.28 241.72 142.842 241.72C142.407 241.72 142.071 241.859 141.834 242.138C141.6 242.414 141.483 242.8 141.483 243.295C141.483 243.79 141.6 244.177 141.834 244.456C142.071 244.732 142.407 244.87 142.842 244.87ZM147.448 245.59C147.103 245.59 146.809 245.521 146.566 245.383C146.323 245.242 146.137 245.029 146.008 244.744C145.882 244.459 145.819 244.096 145.819 243.655V241.09H146.629V243.43C146.629 243.898 146.709 244.255 146.868 244.501C147.03 244.747 147.292 244.87 147.655 244.87C147.904 244.87 148.135 244.81 148.348 244.69C148.561 244.57 148.708 244.378 148.789 244.114L148.672 244.555V241.09H149.482V245.5H148.762L148.6 244.636L148.816 244.78C148.669 245.053 148.489 245.257 148.276 245.392C148.066 245.524 147.79 245.59 147.448 245.59ZM152.609 245.59C152.111 245.59 151.693 245.49 151.354 245.288C151.018 245.084 150.763 244.811 150.589 244.469C150.418 244.124 150.332 243.742 150.332 243.322C150.332 242.884 150.415 242.489 150.58 242.138C150.748 241.787 151.004 241.51 151.349 241.306C151.694 241.102 152.135 241 152.672 241C152.903 241 153.121 241.024 153.325 241.072C153.532 241.117 153.716 241.18 153.878 241.261L153.752 241.972C153.587 241.894 153.412 241.832 153.226 241.787C153.043 241.742 152.852 241.72 152.654 241.72C152.168 241.72 151.798 241.858 151.543 242.134C151.288 242.41 151.16 242.794 151.16 243.286C151.16 243.766 151.282 244.151 151.525 244.442C151.768 244.733 152.138 244.879 152.636 244.879C152.84 244.879 153.035 244.855 153.221 244.807C153.41 244.759 153.59 244.693 153.761 244.609L153.869 245.257C153.749 245.341 153.574 245.417 153.343 245.486C153.112 245.556 152.867 245.59 152.609 245.59ZM154.662 245.5V238.75H155.481V241.855L155.193 241.837C155.4 241.576 155.622 241.372 155.859 241.225C156.099 241.075 156.405 241 156.777 241C157.158 241 157.476 241.085 157.731 241.256C157.986 241.427 158.177 241.666 158.303 241.972C158.432 242.278 158.496 242.635 158.496 243.043V245.5H157.686V243.142C157.686 242.656 157.596 242.297 157.416 242.066C157.239 241.835 156.966 241.72 156.597 241.72C156.318 241.72 156.071 241.795 155.855 241.945C155.642 242.095 155.472 242.296 155.346 242.548L155.481 242.053V245.5H154.662Z" fill="#667094"/>
<path opacity="0.6" d="M229.817 245V238.7H230.744L233.849 243.416V238.7H234.713V245H233.984L230.672 240.023V245H229.817ZM237.786 245.09C237.324 245.09 236.929 244.988 236.602 244.784C236.278 244.577 236.029 244.301 235.855 243.956C235.684 243.608 235.599 243.221 235.599 242.795C235.599 242.369 235.684 241.983 235.855 241.638C236.029 241.29 236.278 241.014 236.602 240.81C236.929 240.603 237.324 240.5 237.786 240.5C238.245 240.5 238.638 240.603 238.965 240.81C239.292 241.014 239.541 241.29 239.712 241.638C239.886 241.983 239.973 242.369 239.973 242.795C239.973 243.221 239.886 243.608 239.712 243.956C239.541 244.301 239.292 244.577 238.965 244.784C238.638 244.988 238.245 245.09 237.786 245.09ZM237.786 244.37C238.224 244.37 238.56 244.232 238.794 243.956C239.028 243.677 239.145 243.29 239.145 242.795C239.145 242.3 239.028 241.914 238.794 241.638C238.56 241.359 238.224 241.22 237.786 241.22C237.351 241.22 237.015 241.359 236.778 241.638C236.544 241.914 236.427 242.3 236.427 242.795C236.427 243.29 236.544 243.677 236.778 243.956C237.015 244.232 237.351 244.37 237.786 244.37ZM244.251 245V239.474H242.415V238.7H246.942V239.474H245.106V245H244.251ZM248.842 245.09C248.38 245.09 247.986 244.988 247.659 244.784C247.335 244.577 247.086 244.301 246.912 243.956C246.741 243.608 246.655 243.221 246.655 242.795C246.655 242.369 246.741 241.983 246.912 241.638C247.086 241.29 247.335 241.014 247.659 240.81C247.986 240.603 248.38 240.5 248.842 240.5C249.301 240.5 249.694 240.603 250.021 240.81C250.348 241.014 250.597 241.29 250.768 241.638C250.942 241.983 251.029 242.369 251.029 242.795C251.029 243.221 250.942 243.608 250.768 243.956C250.597 244.301 250.348 244.577 250.021 244.784C249.694 244.988 249.301 245.09 248.842 245.09ZM248.842 244.37C249.28 244.37 249.616 244.232 249.85 243.956C250.084 243.677 250.201 243.29 250.201 242.795C250.201 242.3 250.084 241.914 249.85 241.638C249.616 241.359 249.28 241.22 248.842 241.22C248.407 241.22 248.071 241.359 247.834 241.638C247.6 241.914 247.483 242.3 247.483 242.795C247.483 243.29 247.6 243.677 247.834 243.956C248.071 244.232 248.407 244.37 248.842 244.37ZM253.448 245.09C253.103 245.09 252.809 245.021 252.566 244.883C252.323 244.742 252.137 244.529 252.008 244.244C251.882 243.959 251.819 243.596 251.819 243.155V240.59H252.629V242.93C252.629 243.398 252.709 243.755 252.868 244.001C253.03 244.247 253.292 244.37 253.655 244.37C253.904 244.37 254.135 244.31 254.348 244.19C254.561 244.07 254.708 243.878 254.789 243.614L254.672 244.055V240.59H255.482V245H254.762L254.6 244.136L254.816 244.28C254.669 244.553 254.489 244.757 254.276 244.892C254.066 245.024 253.79 245.09 253.448 245.09ZM258.609 245.09C258.111 245.09 257.693 244.99 257.354 244.788C257.018 244.584 256.763 244.311 256.589 243.969C256.418 243.624 256.332 243.242 256.332 242.822C256.332 242.384 256.415 241.989 256.58 241.638C256.748 241.287 257.004 241.01 257.349 240.806C257.694 240.602 258.135 240.5 258.672 240.5C258.903 240.5 259.121 240.524 259.325 240.572C259.532 240.617 259.716 240.68 259.878 240.761L259.752 241.472C259.587 241.394 259.412 241.332 259.226 241.287C259.043 241.242 258.852 241.22 258.654 241.22C258.168 241.22 257.798 241.358 257.543 241.634C257.288 241.91 257.16 242.294 257.16 242.786C257.16 243.266 257.282 243.651 257.525 243.942C257.768 244.233 258.138 244.379 258.636 244.379C258.84 244.379 259.035 244.355 259.221 244.307C259.41 244.259 259.59 244.193 259.761 244.109L259.869 244.757C259.749 244.841 259.574 244.917 259.343 244.986C259.112 245.056 258.867 245.09 258.609 245.09ZM260.662 245V238.25H261.481V241.355L261.193 241.337C261.4 241.076 261.622 240.872 261.859 240.725C262.099 240.575 262.405 240.5 262.777 240.5C263.158 240.5 263.476 240.585 263.731 240.756C263.986 240.927 264.177 241.166 264.303 241.472C264.432 241.778 264.496 242.135 264.496 242.543V245H263.686V242.642C263.686 242.156 263.596 241.797 263.416 241.566C263.239 241.335 262.966 241.22 262.597 241.22C262.318 241.22 262.071 241.295 261.855 241.445C261.642 241.595 261.472 241.796 261.346 242.048L261.481 241.553V245H260.662Z" fill="#667094"/>
<path opacity="0.6" d="M309.144 246V239.7H311.475C312.084 239.7 312.624 239.824 313.095 240.073C313.566 240.322 313.935 240.682 314.202 241.153C314.472 241.621 314.607 242.187 314.607 242.85C314.607 243.513 314.472 244.08 314.202 244.551C313.935 245.019 313.566 245.377 313.095 245.626C312.624 245.875 312.084 246 311.475 246H309.144ZM309.999 245.226H311.475C311.955 245.226 312.357 245.127 312.681 244.929C313.008 244.728 313.254 244.449 313.419 244.092C313.587 243.735 313.671 243.321 313.671 242.85C313.671 242.379 313.587 241.965 313.419 241.608C313.254 241.251 313.008 240.973 312.681 240.775C312.357 240.574 311.955 240.474 311.475 240.474H309.999V245.226ZM317.385 246.09C316.923 246.09 316.529 245.988 316.202 245.784C315.878 245.577 315.629 245.301 315.455 244.956C315.284 244.608 315.198 244.221 315.198 243.795C315.198 243.369 315.284 242.983 315.455 242.638C315.629 242.29 315.878 242.014 316.202 241.81C316.529 241.603 316.923 241.5 317.385 241.5C317.844 241.5 318.237 241.603 318.564 241.81C318.891 242.014 319.14 242.29 319.311 242.638C319.485 242.983 319.572 243.369 319.572 243.795C319.572 244.221 319.485 244.608 319.311 244.956C319.14 245.301 318.891 245.577 318.564 245.784C318.237 245.988 317.844 246.09 317.385 246.09ZM317.385 245.37C317.823 245.37 318.159 245.232 318.393 244.956C318.627 244.677 318.744 244.29 318.744 243.795C318.744 243.3 318.627 242.914 318.393 242.638C318.159 242.359 317.823 242.22 317.385 242.22C316.95 242.22 316.614 242.359 316.377 242.638C316.143 242.914 316.026 243.3 316.026 243.795C316.026 244.29 316.143 244.677 316.377 244.956C316.614 245.232 316.95 245.37 317.385 245.37ZM321.991 246.09C321.646 246.09 321.352 246.021 321.109 245.883C320.866 245.742 320.68 245.529 320.551 245.244C320.425 244.959 320.362 244.596 320.362 244.155V241.59H321.172V243.93C321.172 244.398 321.252 244.755 321.411 245.001C321.573 245.247 321.835 245.37 322.198 245.37C322.447 245.37 322.678 245.31 322.891 245.19C323.104 245.07 323.251 244.878 323.332 244.614L323.215 245.055V241.59H324.025V246H323.305L323.143 245.136L323.359 245.28C323.212 245.553 323.032 245.757 322.819 245.892C322.609 246.024 322.333 246.09 321.991 246.09ZM327.296 246.09C326.987 246.09 326.687 246.017 326.396 245.869C326.108 245.719 325.907 245.499 325.793 245.208L325.991 245.064L325.838 246H325.118V239.25H325.928V242.454L325.757 242.328C325.907 242.085 326.122 241.887 326.401 241.734C326.68 241.578 326.978 241.5 327.296 241.5C327.707 241.5 328.061 241.608 328.358 241.824C328.655 242.037 328.883 242.319 329.042 242.67C329.204 243.018 329.285 243.393 329.285 243.795C329.285 244.224 329.197 244.612 329.02 244.96C328.843 245.305 328.604 245.58 328.304 245.784C328.004 245.988 327.668 246.09 327.296 246.09ZM327.197 245.37C327.455 245.37 327.679 245.299 327.868 245.158C328.057 245.014 328.202 244.824 328.304 244.587C328.406 244.347 328.457 244.083 328.457 243.795C328.457 243.495 328.406 243.226 328.304 242.989C328.202 242.752 328.057 242.565 327.868 242.427C327.679 242.289 327.455 242.22 327.197 242.22C326.966 242.22 326.75 242.278 326.549 242.395C326.351 242.509 326.191 242.683 326.068 242.917C325.945 243.148 325.883 243.441 325.883 243.795C325.883 244.164 325.945 244.464 326.068 244.695C326.191 244.926 326.351 245.097 326.549 245.208C326.75 245.316 326.966 245.37 327.197 245.37ZM331.253 246.09C330.968 246.09 330.742 246.039 330.574 245.937C330.409 245.832 330.29 245.698 330.218 245.536C330.146 245.374 330.11 245.205 330.11 245.028V239.25H330.92V244.56C330.92 244.812 330.937 245.001 330.97 245.127C331.003 245.253 331.069 245.337 331.168 245.379C331.27 245.421 331.424 245.442 331.631 245.442L331.514 246.09H331.253ZM334.317 246.09C333.798 246.09 333.362 245.984 333.008 245.77C332.654 245.557 332.385 245.275 332.202 244.924C332.022 244.57 331.932 244.182 331.932 243.759C331.932 243.348 332.016 242.971 332.184 242.629C332.355 242.287 332.601 242.014 332.922 241.81C333.246 241.603 333.636 241.5 334.092 241.5C334.458 241.5 334.784 241.573 335.069 241.72C335.357 241.864 335.582 242.076 335.744 242.355C335.909 242.631 335.991 242.967 335.991 243.363C335.991 243.426 335.988 243.495 335.982 243.57C335.979 243.642 335.97 243.717 335.955 243.795H332.76C332.799 244.203 332.897 244.521 333.053 244.749C333.209 244.977 333.405 245.137 333.642 245.23C333.879 245.323 334.137 245.37 334.416 245.37C334.62 245.37 334.833 245.349 335.055 245.307C335.277 245.265 335.487 245.199 335.685 245.109L335.793 245.748C335.622 245.823 335.414 245.899 335.168 245.977C334.922 246.053 334.638 246.09 334.317 246.09ZM332.832 243.237H335.154C335.154 243.03 335.115 242.85 335.037 242.697C334.959 242.544 334.841 242.427 334.682 242.346C334.523 242.262 334.32 242.22 334.074 242.22C333.714 242.22 333.437 242.31 333.242 242.49C333.05 242.667 332.913 242.916 332.832 243.237ZM340.251 246V240.474H338.415V239.7H342.942V240.474H341.106V246H340.251ZM344.842 246.09C344.38 246.09 343.986 245.988 343.659 245.784C343.335 245.577 343.086 245.301 342.912 244.956C342.741 244.608 342.655 244.221 342.655 243.795C342.655 243.369 342.741 242.983 342.912 242.638C343.086 242.29 343.335 242.014 343.659 241.81C343.986 241.603 344.38 241.5 344.842 241.5C345.301 241.5 345.694 241.603 346.021 241.81C346.348 242.014 346.597 242.29 346.768 242.638C346.942 242.983 347.029 243.369 347.029 243.795C347.029 244.221 346.942 244.608 346.768 244.956C346.597 245.301 346.348 245.577 346.021 245.784C345.694 245.988 345.301 246.09 344.842 246.09ZM344.842 245.37C345.28 245.37 345.616 245.232 345.85 244.956C346.084 244.677 346.201 244.29 346.201 243.795C346.201 243.3 346.084 242.914 345.85 242.638C345.616 242.359 345.28 242.22 344.842 242.22C344.407 242.22 344.071 242.359 343.834 242.638C343.6 242.914 343.483 243.3 343.483 243.795C343.483 244.29 343.6 244.677 343.834 244.956C344.071 245.232 344.407 245.37 344.842 245.37ZM349.448 246.09C349.103 246.09 348.809 246.021 348.566 245.883C348.323 245.742 348.137 245.529 348.008 245.244C347.882 244.959 347.819 244.596 347.819 244.155V241.59H348.629V243.93C348.629 244.398 348.709 244.755 348.868 245.001C349.03 245.247 349.292 245.37 349.655 245.37C349.904 245.37 350.135 245.31 350.348 245.19C350.561 245.07 350.708 244.878 350.789 244.614L350.672 245.055V241.59H351.482V246H350.762L350.6 245.136L350.816 245.28C350.669 245.553 350.489 245.757 350.276 245.892C350.066 246.024 349.79 246.09 349.448 246.09ZM354.609 246.09C354.111 246.09 353.693 245.99 353.354 245.788C353.018 245.584 352.763 245.311 352.589 244.969C352.418 244.624 352.332 244.242 352.332 243.822C352.332 243.384 352.415 242.989 352.58 242.638C352.748 242.287 353.004 242.01 353.349 241.806C353.694 241.602 354.135 241.5 354.672 241.5C354.903 241.5 355.121 241.524 355.325 241.572C355.532 241.617 355.716 241.68 355.878 241.761L355.752 242.472C355.587 242.394 355.412 242.332 355.226 242.287C355.043 242.242 354.852 242.22 354.654 242.22C354.168 242.22 353.798 242.358 353.543 242.634C353.288 242.91 353.16 243.294 353.16 243.786C353.16 244.266 353.282 244.651 353.525 244.942C353.768 245.233 354.138 245.379 354.636 245.379C354.84 245.379 355.035 245.355 355.221 245.307C355.41 245.259 355.59 245.193 355.761 245.109L355.869 245.757C355.749 245.841 355.574 245.917 355.343 245.986C355.112 246.056 354.867 246.09 354.609 246.09ZM356.662 246V239.25H357.481V242.355L357.193 242.337C357.4 242.076 357.622 241.872 357.859 241.725C358.099 241.575 358.405 241.5 358.777 241.5C359.158 241.5 359.476 241.585 359.731 241.756C359.986 241.927 360.177 242.166 360.303 242.472C360.432 242.778 360.496 243.135 360.496 243.543V246H359.686V243.642C359.686 243.156 359.596 242.797 359.416 242.566C359.239 242.335 358.966 242.22 358.597 242.22C358.318 242.22 358.071 242.295 357.855 242.445C357.642 242.595 357.472 242.796 357.346 243.048L357.481 242.553V246H356.662Z" fill="#667094"/>
<path opacity="0.6" d="M405.96 246V239.7H408.291C408.9 239.7 409.44 239.824 409.911 240.073C410.382 240.322 410.751 240.682 411.018 241.153C411.288 241.621 411.423 242.187 411.423 242.85C411.423 243.513 411.288 244.08 411.018 244.551C410.751 245.019 410.382 245.377 409.911 245.626C409.44 245.875 408.9 246 408.291 246H405.96ZM406.815 245.226H408.291C408.771 245.226 409.173 245.127 409.497 244.929C409.824 244.728 410.07 244.449 410.235 244.092C410.403 243.735 410.487 243.321 410.487 242.85C410.487 242.379 410.403 241.965 410.235 241.608C410.07 241.251 409.824 240.973 409.497 240.775C409.173 240.574 408.771 240.474 408.291 240.474H406.815V245.226ZM414.202 246.09C413.74 246.09 413.345 245.988 413.018 245.784C412.694 245.577 412.445 245.301 412.271 244.956C412.1 244.608 412.015 244.221 412.015 243.795C412.015 243.369 412.1 242.983 412.271 242.638C412.445 242.29 412.694 242.014 413.018 241.81C413.345 241.603 413.74 241.5 414.202 241.5C414.661 241.5 415.054 241.603 415.381 241.81C415.708 242.014 415.957 242.29 416.128 242.638C416.302 242.983 416.389 243.369 416.389 243.795C416.389 244.221 416.302 244.608 416.128 244.956C415.957 245.301 415.708 245.577 415.381 245.784C415.054 245.988 414.661 246.09 414.202 246.09ZM414.202 245.37C414.64 245.37 414.976 245.232 415.21 244.956C415.444 244.677 415.561 244.29 415.561 243.795C415.561 243.3 415.444 242.914 415.21 242.638C414.976 242.359 414.64 242.22 414.202 242.22C413.767 242.22 413.431 242.359 413.194 242.638C412.96 242.914 412.843 243.3 412.843 243.795C412.843 244.29 412.96 244.677 413.194 244.956C413.431 245.232 413.767 245.37 414.202 245.37ZM418.808 246.09C418.463 246.09 418.169 246.021 417.926 245.883C417.683 245.742 417.497 245.529 417.368 245.244C417.242 244.959 417.179 244.596 417.179 244.155V241.59H417.989V243.93C417.989 244.398 418.068 244.755 418.227 245.001C418.389 245.247 418.652 245.37 419.015 245.37C419.264 245.37 419.495 245.31 419.708 245.19C419.921 245.07 420.068 244.878 420.149 244.614L420.032 245.055V241.59H420.842V246H420.122L419.96 245.136L420.176 245.28C420.029 245.553 419.849 245.757 419.636 245.892C419.426 246.024 419.15 246.09 418.808 246.09ZM424.113 246.09C423.804 246.09 423.504 246.017 423.213 245.869C422.925 245.719 422.724 245.499 422.61 245.208L422.808 245.064L422.655 246H421.935V239.25H422.745V242.454L422.574 242.328C422.724 242.085 422.938 241.887 423.217 241.734C423.496 241.578 423.795 241.5 424.113 241.5C424.524 241.5 424.878 241.608 425.175 241.824C425.472 242.037 425.7 242.319 425.859 242.67C426.021 243.018 426.102 243.393 426.102 243.795C426.102 244.224 426.013 244.612 425.836 244.96C425.659 245.305 425.421 245.58 425.121 245.784C424.821 245.988 424.485 246.09 424.113 246.09ZM424.014 245.37C424.272 245.37 424.495 245.299 424.684 245.158C424.873 245.014 425.019 244.824 425.121 244.587C425.223 244.347 425.274 244.083 425.274 243.795C425.274 243.495 425.223 243.226 425.121 242.989C425.019 242.752 424.873 242.565 424.684 242.427C424.495 242.289 424.272 242.22 424.014 242.22C423.783 242.22 423.567 242.278 423.366 242.395C423.168 242.509 423.007 242.683 422.884 242.917C422.761 243.148 422.7 243.441 422.7 243.795C422.7 244.164 422.761 244.464 422.884 244.695C423.007 244.926 423.168 245.097 423.366 245.208C423.567 245.316 423.783 245.37 424.014 245.37ZM428.07 246.09C427.785 246.09 427.558 246.039 427.39 245.937C427.225 245.832 427.107 245.698 427.035 245.536C426.963 245.374 426.927 245.205 426.927 245.028V239.25H427.737V244.56C427.737 244.812 427.753 245.001 427.786 245.127C427.819 245.253 427.885 245.337 427.984 245.379C428.086 245.421 428.241 245.442 428.448 245.442L428.331 246.09H428.07ZM431.134 246.09C430.615 246.09 430.178 245.984 429.824 245.77C429.47 245.557 429.202 245.275 429.019 244.924C428.839 244.57 428.749 244.182 428.749 243.759C428.749 243.348 428.833 242.971 429.001 242.629C429.172 242.287 429.418 242.014 429.739 241.81C430.063 241.603 430.453 241.5 430.909 241.5C431.275 241.5 431.6 241.573 431.885 241.72C432.173 241.864 432.398 242.076 432.56 242.355C432.725 242.631 432.808 242.967 432.808 243.363C432.808 243.426 432.805 243.495 432.799 243.57C432.796 243.642 432.787 243.717 432.772 243.795H429.577C429.616 244.203 429.713 244.521 429.869 244.749C430.025 244.977 430.222 245.137 430.459 245.23C430.696 245.323 430.954 245.37 431.233 245.37C431.437 245.37 431.65 245.349 431.872 245.307C432.094 245.265 432.304 245.199 432.502 245.109L432.61 245.748C432.439 245.823 432.23 245.899 431.984 245.977C431.738 246.053 431.455 246.09 431.134 246.09ZM429.649 243.237H431.971C431.971 243.03 431.932 242.85 431.854 242.697C431.776 242.544 431.657 242.427 431.498 242.346C431.339 242.262 431.137 242.22 430.891 242.22C430.531 242.22 430.253 242.31 430.058 242.49C429.866 242.667 429.73 242.916 429.649 243.237ZM435.817 246V239.7H436.744L439.849 244.416V239.7H440.713V246H439.984L436.672 241.023V246H435.817ZM443.786 246.09C443.324 246.09 442.929 245.988 442.602 245.784C442.278 245.577 442.029 245.301 441.855 244.956C441.684 244.608 441.599 244.221 441.599 243.795C441.599 243.369 441.684 242.983 441.855 242.638C442.029 242.29 442.278 242.014 442.602 241.81C442.929 241.603 443.324 241.5 443.786 241.5C444.245 241.5 444.638 241.603 444.965 241.81C445.292 242.014 445.541 242.29 445.712 242.638C445.886 242.983 445.973 243.369 445.973 243.795C445.973 244.221 445.886 244.608 445.712 244.956C445.541 245.301 445.292 245.577 444.965 245.784C444.638 245.988 444.245 246.09 443.786 246.09ZM443.786 245.37C444.224 245.37 444.56 245.232 444.794 244.956C445.028 244.677 445.145 244.29 445.145 243.795C445.145 243.3 445.028 242.914 444.794 242.638C444.56 242.359 444.224 242.22 443.786 242.22C443.351 242.22 443.015 242.359 442.778 242.638C442.544 242.914 442.427 243.3 442.427 243.795C442.427 244.29 442.544 244.677 442.778 244.956C443.015 245.232 443.351 245.37 443.786 245.37ZM450.251 246V240.474H448.415V239.7H452.942V240.474H451.106V246H450.251ZM454.842 246.09C454.38 246.09 453.986 245.988 453.659 245.784C453.335 245.577 453.086 245.301 452.912 244.956C452.741 244.608 452.655 244.221 452.655 243.795C452.655 243.369 452.741 242.983 452.912 242.638C453.086 242.29 453.335 242.014 453.659 241.81C453.986 241.603 454.38 241.5 454.842 241.5C455.301 241.5 455.694 241.603 456.021 241.81C456.348 242.014 456.597 242.29 456.768 242.638C456.942 242.983 457.029 243.369 457.029 243.795C457.029 244.221 456.942 244.608 456.768 244.956C456.597 245.301 456.348 245.577 456.021 245.784C455.694 245.988 455.301 246.09 454.842 246.09ZM454.842 245.37C455.28 245.37 455.616 245.232 455.85 244.956C456.084 244.677 456.201 244.29 456.201 243.795C456.201 243.3 456.084 242.914 455.85 242.638C455.616 242.359 455.28 242.22 454.842 242.22C454.407 242.22 454.071 242.359 453.834 242.638C453.6 242.914 453.483 243.3 453.483 243.795C453.483 244.29 453.6 244.677 453.834 244.956C454.071 245.232 454.407 245.37 454.842 245.37ZM459.448 246.09C459.103 246.09 458.809 246.021 458.566 245.883C458.323 245.742 458.137 245.529 458.008 245.244C457.882 244.959 457.819 244.596 457.819 244.155V241.59H458.629V243.93C458.629 244.398 458.709 244.755 458.868 245.001C459.03 245.247 459.292 245.37 459.655 245.37C459.904 245.37 460.135 245.31 460.348 245.19C460.561 245.07 460.708 244.878 460.789 244.614L460.672 245.055V241.59H461.482V246H460.762L460.6 245.136L460.816 245.28C460.669 245.553 460.489 245.757 460.276 245.892C460.066 246.024 459.79 246.09 459.448 246.09ZM464.609 246.09C464.111 246.09 463.693 245.99 463.354 245.788C463.018 245.584 462.763 245.311 462.589 244.969C462.418 244.624 462.332 244.242 462.332 243.822C462.332 243.384 462.415 242.989 462.58 242.638C462.748 242.287 463.004 242.01 463.349 241.806C463.694 241.602 464.135 241.5 464.672 241.5C464.903 241.5 465.121 241.524 465.325 241.572C465.532 241.617 465.716 241.68 465.878 241.761L465.752 242.472C465.587 242.394 465.412 242.332 465.226 242.287C465.043 242.242 464.852 242.22 464.654 242.22C464.168 242.22 463.798 242.358 463.543 242.634C463.288 242.91 463.16 243.294 463.16 243.786C463.16 244.266 463.282 244.651 463.525 244.942C463.768 245.233 464.138 245.379 464.636 245.379C464.84 245.379 465.035 245.355 465.221 245.307C465.41 245.259 465.59 245.193 465.761 245.109L465.869 245.757C465.749 245.841 465.574 245.917 465.343 245.986C465.112 246.056 464.867 246.09 464.609 246.09ZM466.662 246V239.25H467.481V242.355L467.193 242.337C467.4 242.076 467.622 241.872 467.859 241.725C468.099 241.575 468.405 241.5 468.777 241.5C469.158 241.5 469.476 241.585 469.731 241.756C469.986 241.927 470.177 242.166 470.303 242.472C470.432 242.778 470.496 243.135 470.496 243.543V246H469.686V243.642C469.686 243.156 469.596 242.797 469.416 242.566C469.239 242.335 468.966 242.22 468.597 242.22C468.318 242.22 468.071 242.295 467.855 242.445C467.642 242.595 467.472 242.796 467.346 243.048L467.481 242.553V246H466.662Z" fill="#667094"/>
<path opacity="0.6" d="M508.885 243.799H506.185V243.025H508.885V243.799ZM507.409 240.037H507.661L505.726 245.5H504.826L507.085 239.2H507.985L510.244 245.5H509.344L507.409 240.037ZM510.858 245.5V241.09H511.488L511.65 241.936L511.344 241.792C511.62 241.495 511.888 241.289 512.149 241.175C512.41 241.058 512.685 241 512.973 241C513.189 241 513.396 241.036 513.594 241.108C513.795 241.177 513.975 241.3 514.134 241.477C514.296 241.651 514.425 241.894 514.521 242.206L514.296 242.107C514.428 241.765 514.63 241.495 514.903 241.297C515.176 241.099 515.544 241 516.006 241C516.375 241 516.685 241.069 516.937 241.207C517.189 241.342 517.378 241.55 517.504 241.832C517.633 242.111 517.698 242.467 517.698 242.899V245.5H516.888V242.908C516.888 242.494 516.807 242.192 516.645 242.003C516.483 241.814 516.219 241.72 515.853 241.72C515.595 241.72 515.388 241.76 515.232 241.841C515.076 241.919 514.957 242.021 514.876 242.147C514.798 242.273 514.746 242.407 514.719 242.548C514.695 242.689 514.683 242.821 514.683 242.944V245.5H513.873V243.07C513.873 242.71 513.829 242.432 513.742 242.237C513.655 242.042 513.534 241.907 513.378 241.832C513.222 241.757 513.042 241.72 512.838 241.72C512.541 241.72 512.275 241.786 512.041 241.918C511.807 242.047 511.65 242.254 511.569 242.539L511.668 242.098V245.5H510.858ZM520.865 245.59C520.346 245.59 519.91 245.484 519.556 245.27C519.202 245.057 518.933 244.775 518.75 244.424C518.57 244.07 518.48 243.682 518.48 243.259C518.48 242.848 518.564 242.471 518.732 242.129C518.903 241.787 519.149 241.514 519.47 241.31C519.794 241.103 520.184 241 520.64 241C521.006 241 521.332 241.073 521.617 241.22C521.905 241.364 522.13 241.576 522.292 241.855C522.457 242.131 522.539 242.467 522.539 242.863C522.539 242.926 522.536 242.995 522.53 243.07C522.527 243.142 522.518 243.217 522.503 243.295H519.308C519.347 243.703 519.445 244.021 519.601 244.249C519.757 244.477 519.953 244.637 520.19 244.73C520.427 244.823 520.685 244.87 520.964 244.87C521.168 244.87 521.381 244.849 521.603 244.807C521.825 244.765 522.035 244.699 522.233 244.609L522.341 245.248C522.17 245.323 521.962 245.399 521.716 245.477C521.47 245.553 521.186 245.59 520.865 245.59ZM519.38 242.737H521.702C521.702 242.53 521.663 242.35 521.585 242.197C521.507 242.044 521.389 241.927 521.23 241.846C521.071 241.762 520.868 241.72 520.622 241.72C520.262 241.72 519.985 241.81 519.79 241.99C519.598 242.167 519.461 242.416 519.38 242.737ZM523.356 245.5V241.09H524.022L524.121 241.819C524.346 241.54 524.56 241.334 524.764 241.202C524.971 241.067 525.192 241 525.426 241C525.501 241 525.57 241.009 525.633 241.027L525.552 241.918C525.513 241.909 525.471 241.903 525.426 241.9C525.384 241.894 525.336 241.891 525.282 241.891C525.048 241.891 524.832 241.943 524.634 242.048C524.439 242.15 524.301 242.263 524.22 242.386V245.5H523.356ZM526.203 245.5V241.09H527.013V245.5H526.203ZM526.203 240.1V239.2H527.013V240.1H526.203ZM530.136 245.59C529.638 245.59 529.219 245.49 528.88 245.288C528.544 245.084 528.289 244.811 528.115 244.469C527.944 244.124 527.859 243.742 527.859 243.322C527.859 242.884 527.941 242.489 528.106 242.138C528.274 241.787 528.531 241.51 528.876 241.306C529.221 241.102 529.662 241 530.199 241C530.43 241 530.647 241.024 530.851 241.072C531.058 241.117 531.243 241.18 531.405 241.261L531.279 241.972C531.114 241.894 530.938 241.832 530.752 241.787C530.569 241.742 530.379 241.72 530.181 241.72C529.695 241.72 529.324 241.858 529.069 242.134C528.814 242.41 528.687 242.794 528.687 243.286C528.687 243.766 528.808 244.151 529.051 244.442C529.294 244.733 529.665 244.879 530.163 244.879C530.367 244.879 530.562 244.855 530.748 244.807C530.937 244.759 531.117 244.693 531.288 244.609L531.396 245.257C531.276 245.341 531.1 245.417 530.869 245.486C530.638 245.556 530.394 245.59 530.136 245.59ZM533.223 245.59C532.95 245.59 532.712 245.535 532.508 245.423C532.304 245.312 532.145 245.161 532.031 244.969C531.92 244.777 531.864 244.558 531.864 244.312C531.864 244.063 531.918 243.85 532.026 243.673C532.137 243.493 532.284 243.344 532.467 243.228C532.653 243.107 532.86 243.013 533.088 242.944C533.316 242.872 533.552 242.821 533.795 242.791C534.041 242.758 534.276 242.74 534.501 242.737C534.501 242.317 534.419 242.042 534.254 241.913C534.089 241.784 533.85 241.72 533.538 241.72C533.373 241.72 533.196 241.745 533.007 241.796C532.821 241.847 532.611 241.954 532.377 242.116L532.26 241.459C532.437 241.324 532.658 241.214 532.922 241.13C533.186 241.043 533.463 241 533.754 241C534.126 241 534.426 241.066 534.654 241.198C534.882 241.327 535.049 241.546 535.154 241.855C535.259 242.164 535.311 242.584 535.311 243.115V244.015C535.311 244.225 535.32 244.399 535.338 244.537C535.359 244.672 535.404 244.774 535.473 244.843C535.545 244.909 535.659 244.942 535.815 244.942H535.896L535.77 245.59H535.707C535.446 245.59 535.244 245.565 535.1 245.514C534.959 245.462 534.851 245.389 534.776 245.293C534.701 245.197 534.633 245.08 534.573 244.942C534.408 245.134 534.213 245.29 533.988 245.41C533.763 245.53 533.508 245.59 533.223 245.59ZM533.376 244.942C533.592 244.942 533.801 244.888 534.002 244.78C534.206 244.672 534.372 244.528 534.501 244.348V243.295C534.072 243.31 533.724 243.352 533.457 243.421C533.193 243.49 533 243.593 532.877 243.731C532.754 243.869 532.692 244.048 532.692 244.267C532.692 244.504 532.755 244.676 532.881 244.784C533.01 244.889 533.175 244.942 533.376 244.942ZM536.522 245.5V241.09H537.152L537.314 241.936L536.999 241.801C537.296 241.471 537.585 241.255 537.867 241.153C538.152 241.051 538.43 241 538.7 241C539.345 241 539.805 241.186 540.081 241.558C540.36 241.93 540.5 242.434 540.5 243.07V245.5H539.69V243.07C539.69 242.602 539.603 242.26 539.429 242.044C539.255 241.828 538.958 241.72 538.538 241.72C538.241 241.72 537.968 241.786 537.719 241.918C537.473 242.047 537.311 242.254 537.233 242.539L537.332 242.044V245.5H536.522Z" fill="#667094"/>
<path opacity="0.6" d="M588.412 245.5V239.974H586.576V239.2H591.103V239.974H589.267V245.5H588.412ZM592.591 245.59C592.246 245.59 591.952 245.521 591.709 245.383C591.466 245.242 591.28 245.029 591.151 244.744C591.025 244.459 590.962 244.096 590.962 243.655V241.09H591.772V243.43C591.772 243.898 591.852 244.255 592.011 244.501C592.173 244.747 592.435 244.87 592.798 244.87C593.047 244.87 593.278 244.81 593.491 244.69C593.704 244.57 593.851 244.378 593.932 244.114L593.815 244.555V241.09H594.625V245.5H593.905L593.743 244.636L593.959 244.78C593.812 245.053 593.632 245.257 593.419 245.392C593.209 245.524 592.933 245.59 592.591 245.59ZM595.727 245.5V241.09H596.393L596.492 241.819C596.717 241.54 596.931 241.334 597.135 241.202C597.342 241.067 597.563 241 597.797 241C597.872 241 597.941 241.009 598.004 241.027L597.923 241.918C597.884 241.909 597.842 241.903 597.797 241.9C597.755 241.894 597.707 241.891 597.653 241.891C597.419 241.891 597.203 241.943 597.005 242.048C596.81 242.15 596.672 242.263 596.591 242.386V245.5H595.727ZM600.743 245.59C600.434 245.59 600.134 245.517 599.843 245.369C599.555 245.219 599.354 244.999 599.24 244.708L599.438 244.564L599.285 245.5H598.565V238.75H599.375V241.954L599.204 241.828C599.354 241.585 599.569 241.387 599.848 241.234C600.127 241.078 600.425 241 600.743 241C601.154 241 601.508 241.108 601.805 241.324C602.102 241.537 602.33 241.819 602.489 242.17C602.651 242.518 602.732 242.893 602.732 243.295C602.732 243.724 602.644 244.112 602.467 244.46C602.29 244.805 602.051 245.08 601.751 245.284C601.451 245.488 601.115 245.59 600.743 245.59ZM600.644 244.87C600.902 244.87 601.126 244.799 601.315 244.658C601.504 244.514 601.649 244.324 601.751 244.087C601.853 243.847 601.904 243.583 601.904 243.295C601.904 242.995 601.853 242.726 601.751 242.489C601.649 242.252 601.504 242.065 601.315 241.927C601.126 241.789 600.902 241.72 600.644 241.72C600.413 241.72 600.197 241.778 599.996 241.895C599.798 242.009 599.638 242.183 599.515 242.417C599.392 242.648 599.33 242.941 599.33 243.295C599.33 243.664 599.392 243.964 599.515 244.195C599.638 244.426 599.798 244.597 599.996 244.708C600.197 244.816 600.413 244.87 600.644 244.87ZM605.493 245.59C605.031 245.59 604.636 245.488 604.309 245.284C603.985 245.077 603.736 244.801 603.562 244.456C603.391 244.108 603.306 243.721 603.306 243.295C603.306 242.869 603.391 242.483 603.562 242.138C603.736 241.79 603.985 241.514 604.309 241.31C604.636 241.103 605.031 241 605.493 241C605.952 241 606.345 241.103 606.672 241.31C606.999 241.514 607.248 241.79 607.419 242.138C607.593 242.483 607.68 242.869 607.68 243.295C607.68 243.721 607.593 244.108 607.419 244.456C607.248 244.801 606.999 245.077 606.672 245.284C606.345 245.488 605.952 245.59 605.493 245.59ZM605.493 244.87C605.931 244.87 606.267 244.732 606.501 244.456C606.735 244.177 606.852 243.79 606.852 243.295C606.852 242.8 606.735 242.414 606.501 242.138C606.267 241.859 605.931 241.72 605.493 241.72C605.058 241.72 604.722 241.859 604.485 242.138C604.251 242.414 604.134 242.8 604.134 243.295C604.134 243.79 604.251 244.177 604.485 244.456C604.722 244.732 605.058 244.87 605.493 244.87ZM608.054 241.117H607.541L607.865 240.154H607.55V239.2H608.522V240.064L608.054 241.117ZM610.073 245.59C609.683 245.59 609.359 245.544 609.101 245.45C608.846 245.357 608.666 245.275 608.561 245.203L608.66 244.42C608.756 244.504 608.926 244.6 609.169 244.708C609.412 244.816 609.701 244.87 610.037 244.87C610.322 244.87 610.54 244.822 610.69 244.726C610.843 244.63 610.919 244.495 610.919 244.321C610.919 244.168 610.87 244.045 610.771 243.952C610.675 243.856 610.558 243.781 610.42 243.727C610.285 243.67 610.157 243.625 610.037 243.592C609.836 243.538 609.628 243.47 609.412 243.389C609.199 243.305 609.019 243.181 608.872 243.016C608.725 242.851 608.651 242.62 608.651 242.323C608.651 242.098 608.705 241.885 608.813 241.684C608.921 241.48 609.097 241.315 609.34 241.189C609.583 241.063 609.905 241 610.307 241C610.601 241 610.84 241.031 611.023 241.094C611.209 241.154 611.369 241.219 611.504 241.288L611.405 242.026C611.276 241.918 611.126 241.826 610.955 241.751C610.784 241.676 610.574 241.639 610.325 241.639C610.073 241.639 609.868 241.687 609.709 241.783C609.55 241.876 609.47 242.026 609.47 242.233C609.47 242.44 609.554 242.587 609.722 242.674C609.893 242.761 610.151 242.857 610.496 242.962C610.604 242.992 610.729 243.035 610.87 243.092C611.014 243.149 611.153 243.226 611.288 243.322C611.423 243.418 611.534 243.544 611.621 243.7C611.711 243.853 611.756 244.045 611.756 244.276C611.756 244.471 611.71 244.67 611.617 244.874C611.524 245.075 611.356 245.245 611.113 245.383C610.87 245.521 610.523 245.59 610.073 245.59Z" fill="#667094"/>
<path d="M34.0425 208H642" stroke="#192235"/>
<path d="M34.0425 188H642" stroke="#192235"/>
<path d="M34.0425 168H642" stroke="#192235"/>
<path d="M34.0425 148H642" stroke="#192235"/>
<path d="M34.0425 128H642" stroke="#192235"/>
<path d="M34.0425 108H642" stroke="#192235"/>
<path d="M34.0425 88H642" stroke="#192235"/>
<path d="M34.0425 68H642" stroke="#192235"/>
<path d="M34 48H641.958" stroke="#192235"/>
<path d="M34 28H641.958" stroke="#192235"/>
<rect x="51" y="157" width="22" height="71" fill="url(#paint0_linear_7634_91067)" stroke="#009CCD" stroke-width="2"/>
<path d="M136 42H158V228H136V42Z" fill="url(#paint1_linear_7634_91067)" stroke="#009CCD" stroke-width="2"/>
<rect x="236" y="88" width="22" height="140" fill="url(#paint2_linear_7634_91067)" stroke="#009CCD" stroke-width="2"/>
<rect x="324" y="180" width="22" height="48" fill="url(#paint3_linear_7634_91067)" stroke="#009CCD" stroke-width="2"/>
<rect x="426" y="156" width="22" height="72" fill="url(#paint4_linear_7634_91067)" stroke="#009CCD" stroke-width="2"/>
<rect x="512" y="214" width="22" height="14" fill="url(#paint5_linear_7634_91067)" stroke="#009CCD" stroke-width="2"/>
<rect x="588" y="110" width="22" height="118" fill="url(#paint6_linear_7634_91067)" stroke="#009CCD" stroke-width="2"/>
</g>
<defs>
<filter id="filter0_b_7634_91067" x="-16" y="-16" width="692" height="296" filterUnits="userSpaceOnUse" color-interpolation-filters="sRGB">
<feFlood flood-opacity="0" result="BackgroundImageFix"/>
<feGaussianBlur in="BackgroundImage" stdDeviation="8"/>
<feComposite in2="SourceAlpha" operator="in" result="effect1_backgroundBlur_7634_91067"/>
<feBlend mode="normal" in="SourceGraphic" in2="effect1_backgroundBlur_7634_91067" result="shape"/>
</filter>
<linearGradient id="paint0_linear_7634_91067" x1="52.7701" y1="174.499" x2="52.77" y2="228" gradientUnits="userSpaceOnUse">
<stop stop-color="#1261BE" stop-opacity="0.31"/>
<stop offset="1" stop-color="#122DB8" stop-opacity="0"/>
</linearGradient>
<linearGradient id="paint1_linear_7634_91067" x1="137.77" y1="102.994" x2="137.77" y2="228" gradientUnits="userSpaceOnUse">
<stop stop-color="#1261BE" stop-opacity="0.31"/>
<stop offset="1" stop-color="#122DB8" stop-opacity="0"/>
</linearGradient>
<linearGradient id="paint2_linear_7634_91067" x1="237.77" y1="122.505" x2="237.77" y2="228" gradientUnits="userSpaceOnUse">
<stop stop-color="#1261BE" stop-opacity="0.31"/>
<stop offset="1" stop-color="#122DB8" stop-opacity="0"/>
</linearGradient>
<linearGradient id="paint3_linear_7634_91067" x1="325.77" y1="191.83" x2="325.77" y2="228" gradientUnits="userSpaceOnUse">
<stop stop-color="#1261BE" stop-opacity="0.31"/>
<stop offset="1" stop-color="#122DB8" stop-opacity="0"/>
</linearGradient>
<linearGradient id="paint4_linear_7634_91067" x1="427.77" y1="173.745" x2="427.77" y2="228" gradientUnits="userSpaceOnUse">
<stop stop-color="#1261BE" stop-opacity="0.31"/>
<stop offset="1" stop-color="#122DB8" stop-opacity="0"/>
</linearGradient>
<linearGradient id="paint5_linear_7634_91067" x1="513.77" y1="217.45" x2="513.77" y2="228" gradientUnits="userSpaceOnUse">
<stop stop-color="#1261BE" stop-opacity="0.31"/>
<stop offset="1" stop-color="#122DB8" stop-opacity="0"/>
</linearGradient>
<linearGradient id="paint6_linear_7634_91067" x1="589.77" y1="139.083" x2="589.77" y2="228" gradientUnits="userSpaceOnUse">
<stop stop-color="#1261BE" stop-opacity="0.31"/>
<stop offset="1" stop-color="#122DB8" stop-opacity="0"/>
</linearGradient>
</defs>
</svg>
