<svg width="19" height="19" viewBox="0 0 19 19" fill="none" xmlns="http://www.w3.org/2000/svg">
<circle cx="9.2" cy="9.2" r="9.2" fill="#D6C747"/>
<g clip-path="url(#clip0_4273_454)">
<path d="M14.5944 7.70204L10.9268 7.36189L9.46993 3.97893C9.36794 3.74205 9.03207 3.74205 8.93008 3.97893L7.47323 7.36191L3.80564 7.70204C3.54884 7.72586 3.44505 8.04527 3.6388 8.21547L6.40601 10.6464L5.59619 14.2396C5.53948 14.4912 5.81119 14.6886 6.03294 14.557L9.20002 12.6764L12.3671 14.557C12.5888 14.6886 12.8606 14.4912 12.8039 14.2396L11.994 10.6464L14.7612 8.21547C14.955 8.04527 14.8512 7.72586 14.5944 7.70204Z" fill="#020610" fill-opacity="0.88"/>
</g>
<defs>
<clipPath id="clip0_4273_454">
<rect width="11.3231" height="11.3231" fill="white" transform="translate(3.53848 3.53857)"/>
</clipPath>
</defs>
</svg>
