<svg width="16" height="16" viewBox="0 0 16 16" fill="none" xmlns="http://www.w3.org/2000/svg">
<g clip-path="url(#clip0_7258_100622)">
<path d="M5.83331 11.7412V14.8332C5.83331 15.0492 5.97198 15.2405 6.17731 15.3085C6.22865 15.3252 6.28131 15.3332 6.33331 15.3332C6.48931 15.3332 6.63998 15.2599 6.73598 15.1292L8.54465 12.6679L5.83331 11.7412Z" fill="#00CD86"/>
<path d="M15.7896 0.0917492C15.6363 -0.0169175 15.4349 -0.0315842 15.2683 0.0557492L0.268269 7.88908C0.0909357 7.98175 -0.0137309 8.17108 0.000935739 8.37042C0.0162691 8.57042 0.148936 8.74108 0.337602 8.80575L4.5076 10.2311L13.3883 2.63775L6.51627 10.9171L13.5049 13.3057C13.5569 13.3231 13.6116 13.3324 13.6663 13.3324C13.7569 13.3324 13.8469 13.3077 13.9263 13.2597C14.0529 13.1824 14.1389 13.0524 14.1609 12.9064L15.9943 0.573083C16.0216 0.386416 15.9429 0.201083 15.7896 0.0917492Z" fill="#00CD86"/>
</g>
<defs>
<clipPath id="clip0_7258_100622">
<rect width="16" height="16" fill="white"/>
</clipPath>
</defs>
</svg>
