<svg width="32" height="18" viewBox="0 0 32 18" fill="none" xmlns="http://www.w3.org/2000/svg">
  <rect width="32" height="18" rx="3" fill="#00CD86" />
  <path d="M13.3 11.17C13.3 11.5367 13.2067 11.8567 13.02 12.13C12.8333 12.4033 12.58 12.6167 12.26 12.77C11.9467 12.9233 11.6 13 11.22 13H7.85L7.85 5.9L11.38 5.9C11.7133 5.9 12 5.99 12.24 6.17C12.4867 6.34333 12.6733 6.57 12.8 6.85C12.9333 7.12333 13 7.41 13 7.71C13 8.05667 12.91 8.38333 12.73 8.69C12.5567 8.99 12.3067 9.21333 11.98 9.36C12.3867 9.48 12.7067 9.70333 12.94 10.03C13.18 10.35 13.3 10.73 13.3 11.17ZM8.75 6.68V9.05H11.01C11.3233 9.05 11.5833 8.93667 11.79 8.71C12.0033 8.47667 12.11 8.19667 12.11 7.87C12.11 7.53667 12.01 7.25667 11.81 7.03C11.6167 6.79667 11.37 6.68 11.07 6.68H8.75ZM12.39 11.01C12.39 10.79 12.34 10.5867 12.24 10.4C12.1467 10.2133 12.0167 10.0633 11.85 9.95C11.69 9.83667 11.5033 9.78 11.29 9.78H8.75V12.22H11.22C11.44 12.22 11.6367 12.1633 11.81 12.05C11.99 11.9367 12.13 11.79 12.23 11.61C12.3367 11.4233 12.39 11.2233 12.39 11.01ZM14.369 10.91V7.78H15.249L15.249 10.74C15.249 11.8067 15.619 12.34 16.359 12.34C16.719 12.34 17.0557 12.2267 17.369 12C17.689 11.7667 17.9257 11.45 18.079 11.05V7.78H18.959V12C18.959 12.2067 19.0523 12.3133 19.239 12.32V13C19.139 13.0133 19.059 13.02 18.999 13.02C18.9457 13.0267 18.8923 13.03 18.839 13.03C18.6723 13.03 18.529 12.98 18.409 12.88C18.289 12.7733 18.2257 12.6433 18.219 12.49L18.199 11.88C17.9723 12.2667 17.6657 12.5667 17.279 12.78C16.899 12.9933 16.4823 13.1 16.029 13.1C14.9223 13.1 14.369 12.37 14.369 10.91ZM20.6648 14.42C20.7515 14.4267 20.8382 14.4333 20.9248 14.44C21.0115 14.4533 21.0782 14.46 21.1248 14.46C21.2315 14.46 21.3248 14.4233 21.4048 14.35C21.4848 14.2767 21.5715 14.1333 21.6648 13.92C21.7648 13.7133 21.8915 13.4067 22.0448 13L19.8348 7.78H20.7648L22.5248 12.11L24.1148 7.78H24.9848L22.4448 14.37C22.3582 14.6033 22.2015 14.8067 21.9748 14.98C21.7548 15.16 21.4582 15.25 21.0848 15.25C21.0248 15.25 20.9615 15.2467 20.8948 15.24C20.8348 15.2333 20.7582 15.22 20.6648 15.2V14.42Z" fill="white" />
</svg>
