<svg width="45" height="44" viewBox="0 0 45 44" fill="none" xmlns="http://www.w3.org/2000/svg">
<path d="M22.5 44C34.9688 44 45 34.1917 45 22C45 9.80826 34.9688 0 22.5 0C10.0312 0 0 9.80826 0 22C0 34.1917 10.0312 44 22.5 44Z" fill="#2775CA"/>
<path d="M28.6875 25.4833C28.6875 22.2751 26.7187 21.1751 22.7812 20.7168C19.9687 20.3501 19.4062 19.6168 19.4062 18.3333C19.4062 17.0499 20.3438 16.2251 22.2187 16.2251C23.9062 16.2251 24.8438 16.7751 25.3125 18.1501C25.4063 18.4251 25.6876 18.6083 25.9688 18.6083H27.4687C27.8437 18.6083 28.125 18.3333 28.125 17.9668V17.8751C27.7499 15.8583 26.0624 14.3001 23.9062 14.1168V11.9168C23.9062 11.5501 23.625 11.2751 23.1563 11.1833H21.7501C21.375 11.1833 21.0937 11.4583 20.9999 11.9168V14.0251C18.1874 14.3918 16.4063 16.2251 16.4063 18.5168C16.4063 21.5418 18.2812 22.7334 22.2187 23.1918C24.8438 23.6501 25.6876 24.2001 25.6876 25.6668C25.6876 27.1336 24.3749 28.1418 22.5938 28.1418C20.1562 28.1418 19.3124 27.1333 19.0312 25.7583C18.9376 25.3918 18.6563 25.2083 18.3751 25.2083H16.7812C16.4063 25.2083 16.1251 25.4833 16.1251 25.8501V25.9418C16.4999 28.2334 18 29.8834 21.0937 30.3418V32.5418C21.0937 32.9083 21.375 33.1833 21.8437 33.2751H23.2499C23.625 33.2751 23.9062 33.0001 24.0001 32.5418V30.3418C26.8126 29.8834 28.6875 27.9583 28.6875 25.4833Z" fill="white"/>
<path d="M17.7187 35.1085C10.4062 32.542 6.65617 24.567 9.37507 17.5085C10.7813 13.6585 13.8751 10.7253 17.7187 9.35025C18.0938 9.16699 18.2812 8.89199 18.2812 8.43351V7.15025C18.2812 6.78351 18.0938 6.50851 17.7187 6.41699C17.6249 6.41699 17.4375 6.41699 17.3437 6.50851C8.4375 9.25851 3.56242 18.517 6.37492 27.2253C8.06242 32.3585 12.0937 36.3003 17.3437 37.9503C17.7187 38.1335 18.0938 37.9503 18.1874 37.5835C18.2812 37.492 18.2812 37.4003 18.2812 37.217V35.9335C18.2812 35.6585 18 35.292 17.7187 35.1085ZM27.6563 6.50851C27.2812 6.32525 26.9062 6.50851 26.8126 6.87525C26.7187 6.96699 26.7187 7.05851 26.7187 7.24199V8.52525C26.7187 8.89199 27 9.25851 27.2812 9.44199C34.5937 12.0085 38.3438 19.9835 35.6249 27.042C34.2187 30.892 31.1249 33.8253 27.2812 35.2003C26.9062 35.3835 26.7187 35.6585 26.7187 36.117V37.4003C26.7187 37.767 26.9062 38.042 27.2812 38.1335C27.3751 38.1335 27.5625 38.1335 27.6563 38.042C36.5625 35.292 41.4376 26.0335 38.6251 17.3253C36.9376 12.1003 32.8124 8.15851 27.6563 6.50851Z" fill="white"/>
</svg>
