<svg width="38" height="38" viewBox="0 0 38 38" fill="none" xmlns="http://www.w3.org/2000/svg">
<g clip-path="url(#clip0_7305_101099)">
<path d="M34.8586 24.291C34.8586 26.4825 33.0818 28.2593 30.8903 28.2593H4.983L10.2078 23.0345L8.33735 21.164L0.854568 28.6468C0.338191 29.1635 0.338191 30.0005 0.854568 30.5172L8.33735 38L10.2078 36.1296L4.983 30.9048H30.8903C34.5411 30.9002 37.4996 27.9418 37.5041 24.291V19H34.8586V24.291Z" fill="#00CD86"/>
<path d="M3.11279 13.709C3.11279 11.5172 4.88927 9.74076 7.08104 9.74076H32.9884L27.7636 14.9656L29.634 16.836L37.1168 9.35323C37.6332 8.83653 37.6332 7.99948 37.1168 7.48278L29.634 0L27.7636 1.87045L32.9884 7.09526H7.08104C3.43024 7.09945 0.471483 10.0582 0.467285 13.709V19H3.11279V13.709Z" fill="#00CD86"/>
</g>
<defs>
<clipPath id="clip0_7305_101099">
<rect width="38" height="38" fill="white"/>
</clipPath>
</defs>
</svg>
