<svg width="24" height="24" viewBox="0 0 24 24" fill="none" xmlns="http://www.w3.org/2000/svg">
<g clip-path="url(#clip0_4005_407)">
<path d="M5.31891 14.5039L4.4835 17.6226L1.43011 17.6872C0.517594 15.9946 0 14.0582 0 12.0004C0 10.0105 0.483938 8.13399 1.34175 6.48169H1.34241L4.06078 6.98006L5.25159 9.68213C5.00236 10.4087 4.86652 11.1887 4.86652 12.0004C4.86661 12.8813 5.02617 13.7252 5.31891 14.5039Z" fill="#FBBB00"/>
<path d="M23.7903 9.75854C23.9281 10.4845 24 11.2341 24 12.0003C24 12.8594 23.9097 13.6975 23.7376 14.5058C23.1534 17.2566 21.627 19.6585 19.5126 21.3583L19.5119 21.3577L16.088 21.183L15.6034 18.1579C17.0064 17.335 18.1029 16.0473 18.6805 14.5058H12.2638V9.75854H18.7741H23.7903Z" fill="#518EF8"/>
<path d="M19.5118 21.3572L19.5125 21.3579C17.456 23.0109 14.8437 23.9999 12 23.9999C7.43009 23.9999 3.45691 21.4456 1.43008 17.6867L5.31888 14.5034C6.33227 17.208 8.94129 19.1333 12 19.1333C13.3147 19.1333 14.5464 18.7779 15.6033 18.1575L19.5118 21.3572Z" fill="#28B446"/>
<path d="M19.6595 2.76262L15.7721 5.94525C14.6782 5.26153 13.3852 4.86656 12 4.86656C8.87206 4.86656 6.21425 6.88017 5.25163 9.68175L1.34239 6.48131H1.34174C3.33889 2.63077 7.36217 0 12 0C14.9116 0 17.5813 1.03716 19.6595 2.76262Z" fill="#F14336"/>
</g>
<defs>
<clipPath id="clip0_4005_407">
<rect width="24" height="24" fill="white"/>
</clipPath>
</defs>
</svg>
