<svg width="14" height="19" viewBox="0 0 14 19" fill="none" xmlns="http://www.w3.org/2000/svg">
<path d="M12.25 7H11.6667V4.66667C11.6667 2.093 9.57367 0 7 0C4.42633 0 2.33333 2.093 2.33333 4.66667V7H1.75C0.785555 7 0 7.78478 0 8.75V16.9167C0 17.8819 0.785555 18.6667 1.75 18.6667H12.25C13.2144 18.6667 14 17.8819 14 16.9167V8.75C14 7.78478 13.2144 7 12.25 7ZM3.88889 4.66667C3.88889 2.95089 5.28422 1.55556 7 1.55556C8.71578 1.55556 10.1111 2.95089 10.1111 4.66667V7H3.88889V4.66667ZM7.77778 13.006V14.7778C7.77778 15.2071 7.43011 15.5556 7 15.5556C6.56989 15.5556 6.22222 15.2071 6.22222 14.7778V13.006C5.75944 12.7361 5.44444 12.2399 5.44444 11.6667C5.44444 10.8088 6.14211 10.1111 7 10.1111C7.85789 10.1111 8.55556 10.8088 8.55556 11.6667C8.55556 12.2399 8.24055 12.7361 7.77778 13.006Z" fill="white"/>
</svg>
