<svg width="14" height="19" viewBox="0 0 14 19" fill="none" xmlns="http://www.w3.org/2000/svg">
<path d="M12.25 7.33301H11.6667V4.99967C11.6667 2.42601 9.57367 0.333008 7 0.333008C4.42633 0.333008 2.33333 2.42601 2.33333 4.99967V7.33301H1.75C0.785555 7.33301 0 8.11778 0 9.08301V17.2497C0 18.2149 0.785555 18.9997 1.75 18.9997H12.25C13.2144 18.9997 14 18.2149 14 17.2497V9.08301C14 8.11778 13.2144 7.33301 12.25 7.33301ZM3.88889 4.99967C3.88889 3.2839 5.28422 1.88856 7 1.88856C8.71578 1.88856 10.1111 3.2839 10.1111 4.99967V7.33301H3.88889V4.99967ZM7.77778 13.339V15.1108C7.77778 15.5401 7.43011 15.8886 7 15.8886C6.56989 15.8886 6.22222 15.5401 6.22222 15.1108V13.339C5.75944 13.0691 5.44444 12.5729 5.44444 11.9997C5.44444 11.1418 6.14211 10.4441 7 10.4441C7.85789 10.4441 8.55556 11.1418 8.55556 11.9997C8.55556 12.5729 8.24055 13.0691 7.77778 13.339Z" fill="#59648A"/>
</svg>
