<svg width="18" height="24" viewBox="0 0 18 24" fill="none" xmlns="http://www.w3.org/2000/svg">
<path d="M16.1908 9.61826H5.40451V6.14267C5.40451 4.34495 6.60299 2.78693 8.28086 2.42739C10.558 2.06784 12.5954 3.74571 12.5954 6.02282C12.5954 6.74191 13.1946 7.2213 13.7939 7.2213C14.3931 7.2213 14.9923 6.74191 14.9923 6.02282C14.9923 2.54723 11.9961 -0.329113 8.40071 0.0304301C5.28466 0.389974 3.00755 3.14647 3.00755 6.26252V9.61826H1.80907C1.20983 9.61826 0.610596 10.0976 0.610596 10.8167V22.8015C0.610596 23.4008 1.20983 24 1.80907 24H16.1908C16.9099 24 17.3893 23.4008 17.3893 22.8015V10.8167C17.3893 10.0976 16.9099 9.61826 16.1908 9.61826ZM10.1984 17.6481V19.2061C10.1984 19.9252 9.71903 20.4046 8.99994 20.4046C8.28086 20.4046 7.80147 19.9252 7.80147 19.2061V17.6481C7.08238 17.1687 6.60299 16.4496 6.60299 15.6107C6.60299 14.0526 8.04116 12.974 9.59918 13.3335C10.4381 13.5732 11.1572 14.2923 11.3969 15.1313C11.6366 16.2099 11.0374 17.1687 10.1984 17.6481Z" fill="#CD003E"/>
</svg>
