<svg width="18" height="24" viewBox="0 0 18 24" fill="none" xmlns="http://www.w3.org/2000/svg">
<path d="M16.1911 9.61838H5.40475V6.14279C5.40475 4.34507 6.60323 2.78705 8.2811 2.42751C10.5582 2.06797 12.5956 3.74584 12.5956 6.02294C12.5956 11.5001 12.5002 10.5001 13.5002 10.8169C15.5002 12.5001 14.9926 10.8169 14.9926 6.02294C14.9926 2.54736 11.9964 -0.328991 8.40095 0.0305522C5.28491 0.390096 3.0078 3.1466 3.0078 6.26264V9.61838H1.80932C1.21008 9.61838 0.61084 10.0978 0.61084 10.8169V22.8016C0.61084 23.4009 1.21008 24.0001 1.80932 24.0001H16.1911C16.9101 24.0001 17.3895 23.4009 17.3895 22.8016V10.8169C17.3895 10.0978 16.9101 9.61838 16.1911 9.61838ZM10.1987 17.6482V19.2062C10.1987 19.9253 9.71928 20.4047 9.00019 20.4047C8.2811 20.4047 7.80171 19.9253 7.80171 19.2062V17.6482C7.08262 17.1688 6.60323 16.4497 6.60323 15.6108C6.60323 14.0528 8.04141 12.9741 9.59943 13.3337C10.4384 13.5734 11.1574 14.2924 11.3971 15.1314C11.6368 16.21 11.0376 17.1688 10.1987 17.6482Z" fill="#00CD86"/>
</svg>
