<svg width="21" height="22" viewBox="0 0 21 22" fill="none" xmlns="http://www.w3.org/2000/svg">
<path d="M10.476 0C4.98635 0 0.484025 4.20382 0 9.56716H8.56267V6.697C8.56267 6.31055 8.79601 5.96141 9.15286 5.81303C9.51075 5.66483 9.92208 5.74699 10.1957 6.02062L14.0225 9.84763C14.3967 10.2216 14.3967 10.8262 14.0225 11.2004L10.1957 15.0272C9.92208 15.3008 9.51075 15.3832 9.15286 15.2348C8.79601 15.0866 8.56267 14.7373 8.56267 14.3508V11.4807H0C0.484025 16.844 4.98635 21.0478 10.476 21.0478C16.2882 21.0478 21 16.336 21 10.524C21 4.71184 16.2882 0 10.476 0V0Z" fill="#00CD86"/>
</svg>
