<svg width="17" height="17" viewBox="0 0 17 17" fill="none" xmlns="http://www.w3.org/2000/svg">
<path d="M8.6001 1.93331C12.2761 1.93331 15.2668 4.92398 15.2668 8.59998C15.2668 12.276 12.2761 15.2666 8.6001 15.2666C4.9241 15.2666 1.93343 12.276 1.93343 8.59998C1.93343 4.92398 4.9241 1.93331 8.6001 1.93331ZM8.6001 0.599976C4.1821 0.599976 0.600098 4.18198 0.600098 8.59998C0.600098 13.018 4.1821 16.6 8.6001 16.6C13.0181 16.6 16.6001 13.018 16.6001 8.59998C16.6001 4.18198 13.0181 0.599976 8.6001 0.599976ZM9.43343 11.9333C9.43343 12.3933 9.06076 12.7666 8.6001 12.7666C8.14076 12.7666 7.76676 12.3933 7.76676 11.9333C7.76676 11.4733 8.14076 11.1 8.6001 11.1C9.06076 11.1 9.43343 11.4733 9.43343 11.9333ZM10.3621 5.26798C9.95676 4.85731 9.3521 4.63131 8.66143 4.63131C7.2081 4.63131 6.2681 5.66464 6.2681 7.26464H7.60876C7.60876 6.27398 8.16143 5.92264 8.6341 5.92264C9.05676 5.92264 9.50543 6.20331 9.54343 6.73998C9.58476 7.30464 9.28343 7.59131 8.9021 7.95398C7.96076 8.84931 7.94343 9.28264 7.94743 10.266H9.2841C9.27543 9.82331 9.3041 9.46398 9.90743 8.81398C10.3588 8.32731 10.9201 7.72198 10.9314 6.79931C10.9388 6.18331 10.7421 5.65331 10.3621 5.26798Z" fill="#59648A"/>
</svg>
