<svg width="22" height="20" viewBox="0 0 22 20" fill="none" xmlns="http://www.w3.org/2000/svg">
<path d="M21.8084 18.3018L11.878 1.10219C11.6963 0.787382 11.3605 0.593506 10.997 0.593506C10.6337 0.593506 10.2977 0.787382 10.1161 1.10219L0.136258 18.3872C-0.0454195 18.702 -0.0454195 19.0898 0.136258 19.4046C0.317936 19.7194 0.65387 19.9133 1.01723 19.9133H20.977H20.9826C21.545 19.9133 22 19.458 22 18.8959C22 18.6739 21.9287 18.4689 21.8084 18.3018ZM10.472 7.0819H11.5277C11.6143 7.0819 11.6974 7.11682 11.7582 7.17896C11.8187 7.2414 11.8513 7.32515 11.8491 7.41212L11.637 14.0719C11.6324 14.2467 11.4894 14.3858 11.3151 14.3858H10.6848C10.5102 14.3858 10.3671 14.2464 10.363 14.0719L10.1508 7.41212C10.1486 7.3251 10.1814 7.2414 10.2418 7.17896C10.3023 7.11682 10.3854 7.0819 10.472 7.0819ZM11.8357 15.2698V16.4754C11.8357 16.6531 11.6918 16.797 11.5138 16.797H10.4863C10.3084 16.797 10.1646 16.6531 10.1646 16.4754V15.2698C10.1646 15.0921 10.3084 14.9479 10.4863 14.9479H11.5138C11.6918 14.9476 11.8357 15.0921 11.8357 15.2698Z" fill="#F99F42"/>
</svg>
