<svg width="29" height="10" viewBox="0 0 29 10" fill="none" xmlns="http://www.w3.org/2000/svg">
<rect width="29" height="10" rx="2" fill="#F08F1C"/>
<rect width="29" height="10" rx="2" fill="#F08F1C"/>
<rect width="29" height="10" rx="2" fill="#EA221D"/>
<path d="M6.182 2.8C6.27 2.8 6.314 2.844 6.314 2.932V4.492H9.122V2.932C9.122 2.844 9.166 2.8 9.254 2.8H9.902C9.994 2.8 10.04 2.844 10.04 2.932V6.868C10.04 6.956 9.994 7 9.902 7H9.254C9.166 7 9.122 6.956 9.122 6.868V5.272H6.314L6.314 6.868C6.314 6.956 6.27 7 6.182 7H5.534C5.442 7 5.396 6.956 5.396 6.868L5.396 2.932C5.396 2.844 5.442 2.8 5.534 2.8H6.182ZM11.8595 2.8C11.9475 2.8 11.9915 2.844 11.9915 2.932V6.868C11.9915 6.956 11.9475 7 11.8595 7H11.2115C11.1195 7 11.0735 6.956 11.0735 6.868V2.932C11.0735 2.844 11.1195 2.8 11.2115 2.8H11.8595ZM17.7043 2.8C17.7923 2.8 17.8363 2.844 17.8363 2.932V3.52C17.8363 3.612 17.7923 3.658 17.7043 3.658H14.6983C14.5423 3.658 14.4123 3.672 14.3083 3.7C14.2083 3.724 14.1283 3.768 14.0683 3.832C14.0083 3.892 13.9643 3.974 13.9363 4.078C13.9123 4.182 13.9003 4.314 13.9003 4.474V5.338C13.9003 5.498 13.9123 5.632 13.9363 5.74C13.9643 5.844 14.0083 5.928 14.0683 5.992C14.1283 6.052 14.2083 6.096 14.3083 6.124C14.4123 6.148 14.5423 6.16 14.6983 6.16H16.6783C16.7823 6.16 16.8583 6.134 16.9063 6.082C16.9543 6.026 16.9783 5.93 16.9783 5.794V5.308C16.9783 5.256 16.9543 5.23 16.9063 5.23H15.1483C15.0603 5.23 15.0163 5.184 15.0163 5.092V4.642C15.0163 4.55 15.0603 4.504 15.1483 4.504H17.6503C17.7703 4.504 17.8303 4.564 17.8303 4.684V6.082C17.8303 6.418 17.7663 6.656 17.6383 6.796C17.5103 6.932 17.3263 7 17.0863 7H14.6623C14.3583 7 14.1003 6.972 13.8883 6.916C13.6763 6.86 13.5023 6.77 13.3663 6.646C13.2343 6.518 13.1363 6.354 13.0723 6.154C13.0123 5.95 12.9823 5.704 12.9823 5.416V4.384C12.9823 4.096 13.0123 3.852 13.0723 3.652C13.1363 3.452 13.2343 3.29 13.3663 3.166C13.5023 3.038 13.6763 2.946 13.8883 2.89C14.1003 2.83 14.3583 2.8 14.6623 2.8H17.7043ZM19.611 2.8C19.699 2.8 19.743 2.844 19.743 2.932V4.492L22.551 4.492V2.932C22.551 2.844 22.595 2.8 22.683 2.8L23.331 2.8C23.423 2.8 23.469 2.844 23.469 2.932V6.868C23.469 6.956 23.423 7 23.331 7H22.683C22.595 7 22.551 6.956 22.551 6.868V5.272L19.743 5.272V6.868C19.743 6.956 19.699 7 19.611 7H18.963C18.871 7 18.825 6.956 18.825 6.868V2.932C18.825 2.844 18.871 2.8 18.963 2.8H19.611Z" fill="white"/>
</svg>
