<svg width="29" height="10" viewBox="0 0 29 10" fill="none" xmlns="http://www.w3.org/2000/svg">
<rect width="29" height="10" rx="2" fill="#F08F1C"/>
<rect width="29" height="10" rx="2" fill="#F08F1C"/>
<rect width="29" height="10" rx="2" fill="#00CD86"/>
<path d="M6.17 2.8C6.258 2.8 6.302 2.844 6.302 2.932V5.326C6.302 5.486 6.314 5.62 6.338 5.728C6.366 5.832 6.41 5.916 6.47 5.98C6.53 6.04 6.61 6.084 6.71 6.112C6.814 6.136 6.944 6.148 7.1 6.148L9.53 6.148C9.618 6.148 9.662 6.192 9.662 6.28V6.868C9.662 6.956 9.618 7 9.53 7L7.064 7C6.76 7 6.502 6.972 6.29 6.916C6.078 6.86 5.904 6.77 5.768 6.646C5.636 6.518 5.538 6.354 5.474 6.154C5.414 5.95 5.384 5.704 5.384 5.416L5.384 2.932C5.384 2.844 5.43 2.8 5.522 2.8H6.17ZM13.9267 2.8C14.2307 2.8 14.4887 2.83 14.7007 2.89C14.9167 2.946 15.0907 3.038 15.2227 3.166C15.3587 3.29 15.4567 3.452 15.5167 3.652C15.5767 3.852 15.6067 4.096 15.6067 4.384V5.416C15.6067 5.704 15.5767 5.95 15.5167 6.154C15.4567 6.354 15.3587 6.518 15.2227 6.646C15.0907 6.77 14.9167 6.86 14.7007 6.916C14.4887 6.972 14.2307 7 13.9267 7L12.0727 7C11.7687 7 11.5107 6.972 11.2987 6.916C11.0867 6.86 10.9127 6.77 10.7767 6.646C10.6447 6.518 10.5467 6.354 10.4827 6.154C10.4227 5.95 10.3927 5.704 10.3927 5.416V4.384C10.3927 4.096 10.4227 3.852 10.4827 3.652C10.5467 3.452 10.6447 3.29 10.7767 3.166C10.9127 3.038 11.0867 2.946 11.2987 2.89C11.5107 2.83 11.7687 2.8 12.0727 2.8L13.9267 2.8ZM11.3107 5.35C11.3107 5.506 11.3227 5.638 11.3467 5.746C11.3747 5.85 11.4187 5.934 11.4787 5.998C11.5387 6.058 11.6187 6.102 11.7187 6.13C11.8227 6.154 11.9527 6.166 12.1087 6.166L13.8907 6.166C14.0467 6.166 14.1747 6.154 14.2747 6.13C14.3787 6.102 14.4607 6.058 14.5207 5.998C14.5807 5.934 14.6227 5.85 14.6467 5.746C14.6747 5.638 14.6887 5.506 14.6887 5.35V4.45C14.6887 4.294 14.6747 4.164 14.6467 4.06C14.6227 3.952 14.5807 3.868 14.5207 3.808C14.4607 3.744 14.3787 3.7 14.2747 3.676C14.1747 3.648 14.0467 3.634 13.8907 3.634L12.1087 3.634C11.9527 3.634 11.8227 3.648 11.7187 3.676C11.6187 3.7 11.5387 3.744 11.4787 3.808C11.4187 3.868 11.3747 3.952 11.3467 4.06C11.3227 4.164 11.3107 4.294 11.3107 4.45V5.35ZM17.0636 2.8C17.1036 2.8 17.1316 2.826 17.1476 2.878L18.1196 6.106C18.1236 6.134 18.1396 6.148 18.1676 6.148H18.1976C18.2216 6.148 18.2376 6.134 18.2456 6.106L19.2176 3.148C19.2616 3.012 19.3196 2.92 19.3916 2.872C19.4636 2.824 19.5536 2.8 19.6616 2.8L20.2556 2.8C20.3876 2.8 20.4876 2.826 20.5556 2.878C20.6276 2.93 20.6856 3.02 20.7296 3.148L21.7256 6.106C21.7336 6.134 21.7496 6.148 21.7736 6.148H21.8096C21.8336 6.148 21.8496 6.134 21.8576 6.106L22.8056 2.878C22.8136 2.846 22.8256 2.826 22.8416 2.818C22.8616 2.806 22.8816 2.8 22.9016 2.8L23.7116 2.8C23.7436 2.8 23.7616 2.814 23.7656 2.842C23.7736 2.87 23.7716 2.902 23.7596 2.938L22.6076 6.544C22.5516 6.724 22.4896 6.846 22.4216 6.91C22.3536 6.97 22.2616 7 22.1456 7H21.4436C21.3276 7 21.2356 6.968 21.1676 6.904C21.1036 6.84 21.0416 6.72 20.9816 6.544L20.0396 3.694C20.0356 3.666 20.0196 3.652 19.9916 3.652H19.9676C19.9396 3.652 19.9236 3.666 19.9196 3.694L18.9656 6.544C18.9056 6.72 18.8416 6.84 18.7736 6.904C18.7096 6.968 18.6196 7 18.5036 7H17.8196C17.7516 7 17.6916 6.994 17.6396 6.982C17.5916 6.97 17.5476 6.948 17.5076 6.916C17.4676 6.88 17.4316 6.832 17.3996 6.772C17.3716 6.712 17.3436 6.636 17.3156 6.544L16.2116 2.938C16.1996 2.898 16.1956 2.866 16.1996 2.842C16.2076 2.814 16.2276 2.8 16.2596 2.8H17.0636Z" fill="white"/>
</svg>
