<svg width="29" height="10" viewBox="0 0 29 10" fill="none" xmlns="http://www.w3.org/2000/svg">
<rect width="29" height="10" rx="2" fill="#F08F1C"/>
<rect width="29" height="10" rx="2" fill="#F08F1C"/>
<rect width="29" height="10" rx="2" fill="#F08F1C"/>
<path d="M6.584 2.8C6.672 2.8 6.748 2.806 6.812 2.818C6.876 2.83 6.932 2.854 6.98 2.89C7.028 2.922 7.07 2.968 7.106 3.028C7.146 3.084 7.186 3.16 7.226 3.256L8.474 6.136C8.49 6.172 8.518 6.19 8.558 6.19H8.63C8.67 6.19 8.698 6.172 8.714 6.136L9.962 3.256C10.002 3.16 10.04 3.084 10.076 3.028C10.116 2.968 10.16 2.922 10.208 2.89C10.256 2.854 10.31 2.83 10.37 2.818C10.434 2.806 10.51 2.8 10.598 2.8H11.24C11.448 2.8 11.588 2.848 11.66 2.944C11.732 3.036 11.768 3.196 11.768 3.424V6.868C11.768 6.956 11.722 7 11.63 7H11.018C10.93 7 10.886 6.956 10.886 6.868V3.736C10.886 3.696 10.87 3.676 10.838 3.676H10.784C10.744 3.676 10.718 3.692 10.706 3.724L9.494 6.412C9.446 6.52 9.396 6.612 9.344 6.688C9.296 6.76 9.242 6.82 9.182 6.868C9.126 6.916 9.06 6.95 8.984 6.97C8.912 6.99 8.826 7 8.726 7H8.438C8.338 7 8.25 6.99 8.174 6.97C8.102 6.95 8.036 6.916 7.976 6.868C7.92 6.82 7.866 6.76 7.814 6.688C7.766 6.612 7.718 6.52 7.67 6.412L6.458 3.724C6.446 3.692 6.42 3.676 6.38 3.676H6.326C6.294 3.676 6.278 3.696 6.278 3.736L6.278 6.868C6.278 6.956 6.234 7 6.146 7H5.534C5.442 7 5.396 6.956 5.396 6.868L5.396 3.424C5.396 3.196 5.432 3.036 5.504 2.944C5.576 2.848 5.718 2.8 5.93 2.8H6.584ZM17.074 2.8C17.166 2.8 17.212 2.844 17.212 2.932V3.502C17.212 3.59 17.166 3.634 17.074 3.634H14.452C14.296 3.634 14.166 3.648 14.062 3.676C13.962 3.7 13.88 3.744 13.816 3.808C13.756 3.868 13.714 3.952 13.69 4.06C13.666 4.164 13.654 4.294 13.654 4.45V4.51H17.044C17.132 4.51 17.176 4.554 17.176 4.642V5.116C17.176 5.204 17.132 5.248 17.044 5.248H13.654V5.35C13.654 5.506 13.666 5.638 13.69 5.746C13.714 5.85 13.756 5.934 13.816 5.998C13.88 6.058 13.962 6.102 14.062 6.13C14.166 6.154 14.296 6.166 14.452 6.166H17.074C17.166 6.166 17.212 6.21 17.212 6.298V6.868C17.212 6.956 17.166 7 17.074 7H14.434C14.13 7 13.872 6.972 13.66 6.916C13.448 6.86 13.274 6.77 13.138 6.646C13.006 6.518 12.908 6.354 12.844 6.154C12.784 5.95 12.754 5.704 12.754 5.416V4.384C12.754 4.096 12.784 3.852 12.844 3.652C12.908 3.452 13.006 3.29 13.138 3.166C13.274 3.038 13.448 2.946 13.66 2.89C13.872 2.83 14.13 2.8 14.434 2.8H17.074ZM21.1277 2.8C21.4517 2.8 21.7297 2.834 21.9617 2.902C22.1937 2.966 22.3837 3.068 22.5317 3.208C22.6797 3.344 22.7877 3.52 22.8557 3.736C22.9277 3.948 22.9637 4.2 22.9637 4.492V5.308C22.9637 5.6 22.9277 5.854 22.8557 6.07C22.7877 6.282 22.6797 6.458 22.5317 6.598C22.3837 6.734 22.1937 6.836 21.9617 6.904C21.7297 6.968 21.4517 7 21.1277 7L18.3197 7C18.1997 7 18.1397 6.94 18.1397 6.82V2.98C18.1397 2.86 18.1997 2.8 18.3197 2.8L21.1277 2.8ZM19.0577 6.088C19.0577 6.14 19.0837 6.166 19.1357 6.166H21.1037C21.2797 6.166 21.4277 6.15 21.5477 6.118C21.6677 6.086 21.7637 6.034 21.8357 5.962C21.9117 5.89 21.9657 5.794 21.9977 5.674C22.0297 5.554 22.0457 5.406 22.0457 5.23V4.57C22.0457 4.394 22.0297 4.246 21.9977 4.126C21.9657 4.006 21.9117 3.91 21.8357 3.838C21.7637 3.766 21.6677 3.714 21.5477 3.682C21.4277 3.65 21.2797 3.634 21.1037 3.634L19.1357 3.634C19.0837 3.634 19.0577 3.662 19.0577 3.718V6.088Z" fill="white"/>
</svg>
