<svg width="366" height="116" viewBox="0 0 366 116" fill="none" xmlns="http://www.w3.org/2000/svg">
<mask id="mask0_1912_1761" style="mask-type:alpha" maskUnits="userSpaceOnUse" x="20" y="1" width="346" height="98">
<path d="M20.5 1.5H365.5V98.5H20.5V1.5Z" fill="#020610" fill-opacity="0.88" stroke="#1A223D"/>
</mask>
<g mask="url(#mask0_1912_1761)">
<path opacity="0.1" d="M20 62.5H367.5" stroke="#DDDDDD"/>
<path opacity="0.21" d="M16 98.5H363.5" stroke="#292F47"/>
<path opacity="0.2" d="M157.789 84.5223L163.5 62.5H116L118.683 84.2546L125.243 85.973L131.298 84.5223L137.353 81.3034L144.922 84.5223H157.789Z" fill="#D94747"/>
<path opacity="0.1" d="M163.592 62.3034L171.161 55.5223L189 29H216.5L224 39L228 32.5L237 36H247L253.5 32.5L256.5 27H261.5V36L272.5 32.5L276.5 19L281 27L293 36L306.5 32.5L317 36L320 45.0436L331.5 39L337.5 32.5H352L356 39L358.5 45.0436L367.5 46.7551V62.3896L163.592 62.3034Z" fill="url(#paint0_linear_1912_1761)"/>
<path opacity="0.1" d="M105.311 38L112.375 46.934L115.006 62.5L19.2869 62.3896L28.1081 45.7551L33.6586 40.6933L39.7137 38H46.778L53.5901 40.6933L59.8975 38L73.7739 44.0436L79.5767 53.6345H84.6226L98.499 46.934L105.311 38Z" fill="url(#paint1_linear_1912_1761)"/>
<path d="M20.2869 61.3896L28.1081 45.7551L33.6586 40.6933L39.7138 38H46.7781L53.5901 40.6933L59.8976 38L73.7739 44.0436L79.5767 53.6345H84.6227L98.4991 46.934L105.311 38L112.375 46.934L118.683 84.2546L125.243 85.973L131.298 84.5223L137.353 81.3034L144.922 84.5223H157.789L163.592 61.3034L171.161 54.5223L189 28H216.5L224 38L228 31.5L237 35H247L253.5 31.5L256.5 26H261.5V35L272.5 31.5L276.5 18L281 26L293 35L306.5 31.5L317 35L320 44.0436L331.5 38L337.5 31.5H352L356 38L358.5 44.0436L367.5 45.7551V61.3896" stroke="#00CD86" stroke-width="2"/>
<path d="M115.006 62.5L118.683 84.2546L125.243 85.973L131.298 84.5223L137.353 81.3034L144.922 84.5223H157.789L163.293 62.5" stroke="#D94747" stroke-width="2"/>
</g>
<path opacity="0.6" d="M11.8568 63.126C11.3108 63.126 10.8368 62.985 10.4348 62.703C10.0388 62.421 9.73282 62.028 9.51682 61.524C9.30682 61.02 9.20182 60.444 9.20182 59.796C9.20182 59.154 9.31282 58.59 9.53482 58.104C9.76282 57.618 10.0778 57.243 10.4798 56.979C10.8818 56.709 11.3408 56.574 11.8568 56.574C12.3848 56.574 12.8498 56.709 13.2518 56.979C13.6538 57.243 13.9628 57.618 14.1788 58.104C14.4008 58.59 14.5118 59.154 14.5118 59.796C14.5118 60.444 14.4068 61.02 14.1968 61.524C13.9868 62.028 13.6808 62.421 13.2788 62.703C12.8768 62.985 12.4028 63.126 11.8568 63.126ZM11.8568 62.352C12.4148 62.352 12.8438 62.13 13.1438 61.686C13.4498 61.242 13.6028 60.612 13.6028 59.796C13.6028 58.992 13.4468 58.383 13.1348 57.969C12.8288 57.555 12.4028 57.348 11.8568 57.348C11.3348 57.348 10.9118 57.558 10.5878 57.978C10.2698 58.398 10.1108 59.004 10.1108 59.796C10.1108 60.612 10.2608 61.242 10.5608 61.686C10.8668 62.13 11.2988 62.352 11.8568 62.352Z" fill="#667094"/>
<path opacity="0.6" d="M7.16627 39.933C6.96827 40.095 6.79727 40.215 6.65327 40.293C6.51527 40.371 6.37427 40.434 6.23027 40.482L6.08627 39.681C6.33827 39.597 6.58727 39.465 6.83327 39.285C7.08527 39.099 7.27727 38.904 7.40927 38.7H7.99427L7.99427 45H7.16627L7.16627 39.933ZM11.8568 45.126C11.3108 45.126 10.8368 44.985 10.4348 44.703C10.0388 44.421 9.73282 44.028 9.51682 43.524C9.30682 43.02 9.20182 42.444 9.20182 41.796C9.20182 41.154 9.31282 40.59 9.53482 40.104C9.76282 39.618 10.0778 39.243 10.4798 38.979C10.8818 38.709 11.3408 38.574 11.8568 38.574C12.3848 38.574 12.8498 38.709 13.2518 38.979C13.6538 39.243 13.9628 39.618 14.1788 40.104C14.4008 40.59 14.5118 41.154 14.5118 41.796C14.5118 42.444 14.4068 43.02 14.1968 43.524C13.9868 44.028 13.6808 44.421 13.2788 44.703C12.8768 44.985 12.4028 45.126 11.8568 45.126ZM11.8568 44.352C12.4148 44.352 12.8438 44.13 13.1438 43.686C13.4498 43.242 13.6028 42.612 13.6028 41.796C13.6028 40.992 13.4468 40.383 13.1348 39.969C12.8288 39.555 12.4028 39.348 11.8568 39.348C11.3348 39.348 10.9118 39.558 10.5878 39.978C10.2698 40.398 10.1108 41.004 10.1108 41.796C10.1108 42.612 10.2608 43.242 10.5608 43.686C10.8668 44.13 11.2988 44.352 11.8568 44.352Z" fill="#667094"/>
<path opacity="0.6" d="M6.22809 24.381C6.54009 23.913 6.76809 23.526 6.91209 23.22C7.05609 22.914 7.12809 22.635 7.12809 22.383C7.12809 22.071 7.03809 21.825 6.85809 21.645C6.68409 21.459 6.44709 21.366 6.14709 21.366C5.58909 21.366 5.07909 21.603 4.61709 22.077L4.50909 21.177C4.73709 20.997 4.99809 20.85 5.29209 20.736C5.58609 20.622 5.90109 20.565 6.23709 20.565C6.79509 20.565 7.22709 20.727 7.53309 21.051C7.83909 21.375 7.99209 21.789 7.99209 22.293C7.99209 22.689 7.91409 23.064 7.75809 23.418C7.60809 23.772 7.35009 24.225 6.98409 24.777L6.03009 26.217H8.23509L8.23509 26.991H4.50909L6.22809 24.381ZM11.8568 27.126C11.3108 27.126 10.8368 26.985 10.4348 26.703C10.0388 26.421 9.73282 26.028 9.51682 25.524C9.30682 25.02 9.20182 24.444 9.20182 23.796C9.20182 23.154 9.31282 22.59 9.53482 22.104C9.76282 21.618 10.0778 21.243 10.4798 20.979C10.8818 20.709 11.3408 20.574 11.8568 20.574C12.3848 20.574 12.8498 20.709 13.2518 20.979C13.6538 21.243 13.9628 21.618 14.1788 22.104C14.4008 22.59 14.5118 23.154 14.5118 23.796C14.5118 24.444 14.4068 25.02 14.1968 25.524C13.9868 26.028 13.6808 26.421 13.2788 26.703C12.8768 26.985 12.4028 27.126 11.8568 27.126ZM11.8568 26.352C12.4148 26.352 12.8438 26.13 13.1438 25.686C13.4498 25.242 13.6028 24.612 13.6028 23.796C13.6028 22.992 13.4468 22.383 13.1348 21.969C12.8288 21.555 12.4028 21.348 11.8568 21.348C11.3348 21.348 10.9118 21.558 10.5878 21.978C10.2698 22.398 10.1108 23.004 10.1108 23.796C10.1108 24.612 10.2608 25.242 10.5608 25.686C10.8668 26.13 11.2988 26.352 11.8568 26.352Z" fill="#667094"/>
<path opacity="0.6" d="M7.01468 5.706C7.78868 5.958 8.17568 6.48 8.17568 7.272C8.17568 7.65 8.07968 7.98 7.88768 8.262C7.70168 8.538 7.44368 8.751 7.11368 8.901C6.78968 9.051 6.42068 9.126 6.00668 9.126C5.38868 9.126 4.78868 8.967 4.20668 8.649L4.41368 7.857C4.69568 8.019 4.95968 8.142 5.20568 8.226C5.45768 8.31 5.72768 8.352 6.01568 8.352C6.39968 8.352 6.70268 8.256 6.92468 8.064C7.15268 7.872 7.26668 7.617 7.26668 7.299C7.26668 6.939 7.14068 6.657 6.88868 6.453C6.64268 6.249 6.27368 6.147 5.78168 6.147L5.38568 6.147V5.373L5.78168 5.373C6.17168 5.373 6.47768 5.283 6.69968 5.103C6.92768 4.917 7.04168 4.665 7.04168 4.347C7.04168 4.011 6.95468 3.762 6.78068 3.6C6.61268 3.432 6.36368 3.348 6.03368 3.348C5.79368 3.348 5.56568 3.393 5.34968 3.483C5.13368 3.573 4.90568 3.699 4.66568 3.861L4.52168 2.988C5.00768 2.712 5.55068 2.574 6.15068 2.574C6.72668 2.574 7.17368 2.727 7.49168 3.033C7.81568 3.339 7.97768 3.741 7.97768 4.239C7.97768 4.581 7.89368 4.881 7.72568 5.139C7.55768 5.391 7.32068 5.58 7.01468 5.706ZM11.8568 9.126C11.3108 9.126 10.8368 8.985 10.4348 8.703C10.0388 8.421 9.73282 8.028 9.51682 7.524C9.30682 7.02 9.20182 6.444 9.20182 5.796C9.20182 5.154 9.31282 4.59 9.53482 4.104C9.76282 3.618 10.0778 3.243 10.4798 2.979C10.8818 2.709 11.3408 2.574 11.8568 2.574C12.3848 2.574 12.8498 2.709 13.2518 2.979C13.6538 3.243 13.9628 3.618 14.1788 4.104C14.4008 4.59 14.5118 5.154 14.5118 5.796C14.5118 6.444 14.4068 7.02 14.1968 7.524C13.9868 8.028 13.6808 8.421 13.2788 8.703C12.8768 8.985 12.4028 9.126 11.8568 9.126ZM11.8568 8.352C12.4148 8.352 12.8438 8.13 13.1438 7.686C13.4498 7.242 13.6028 6.612 13.6028 5.796C13.6028 4.992 13.4468 4.383 13.1348 3.969C12.8288 3.555 12.4028 3.348 11.8568 3.348C11.3348 3.348 10.9118 3.558 10.5878 3.978C10.2698 4.398 10.1108 5.004 10.1108 5.796C10.1108 6.612 10.2608 7.242 10.5608 7.686C10.8668 8.13 11.2988 8.352 11.8568 8.352Z" fill="#667094"/>
<path opacity="0.6" d="M2.61066 77.814H5.40066V78.588H2.61066V77.814ZM7.16627 75.933C6.96827 76.095 6.79727 76.215 6.65327 76.293C6.51527 76.371 6.37427 76.434 6.23027 76.482L6.08627 75.681C6.33827 75.597 6.58727 75.465 6.83327 75.285C7.08527 75.099 7.27727 74.904 7.40927 74.7H7.99427L7.99427 81H7.16627L7.16627 75.933ZM11.8568 81.126C11.3108 81.126 10.8368 80.985 10.4348 80.703C10.0388 80.421 9.73282 80.028 9.51682 79.524C9.30682 79.02 9.20182 78.444 9.20182 77.796C9.20182 77.154 9.31282 76.59 9.53482 76.104C9.76282 75.618 10.0778 75.243 10.4798 74.979C10.8818 74.709 11.3408 74.574 11.8568 74.574C12.3848 74.574 12.8498 74.709 13.2518 74.979C13.6538 75.243 13.9628 75.618 14.1788 76.104C14.4008 76.59 14.5118 77.154 14.5118 77.796C14.5118 78.444 14.4068 79.02 14.1968 79.524C13.9868 80.028 13.6808 80.421 13.2788 80.703C12.8768 80.985 12.4028 81.126 11.8568 81.126ZM11.8568 80.352C12.4148 80.352 12.8438 80.13 13.1438 79.686C13.4498 79.242 13.6028 78.612 13.6028 77.796C13.6028 76.992 13.4468 76.383 13.1348 75.969C12.8288 75.555 12.4028 75.348 11.8568 75.348C11.3348 75.348 10.9118 75.558 10.5878 75.978C10.2698 76.398 10.1108 77.004 10.1108 77.796C10.1108 78.612 10.2608 79.242 10.5608 79.686C10.8668 80.13 11.2988 80.352 11.8568 80.352Z" fill="#667094"/>
<path opacity="0.6" d="M0.844055 95.814H3.63405V96.588H0.844055L0.844055 95.814ZM6.22809 96.381C6.54009 95.913 6.76809 95.526 6.91209 95.22C7.05609 94.914 7.12809 94.635 7.12809 94.383C7.12809 94.071 7.03809 93.825 6.85809 93.645C6.68409 93.459 6.44709 93.366 6.14709 93.366C5.58909 93.366 5.07909 93.603 4.61709 94.077L4.50909 93.177C4.73709 92.997 4.99809 92.85 5.29209 92.736C5.58609 92.622 5.90109 92.565 6.23709 92.565C6.79509 92.565 7.22709 92.727 7.53309 93.051C7.83909 93.375 7.99209 93.789 7.99209 94.293C7.99209 94.689 7.91409 95.064 7.75809 95.418C7.60809 95.772 7.35009 96.225 6.98409 96.777L6.03009 98.217H8.23509V98.991H4.50909L6.22809 96.381ZM11.8568 99.126C11.3108 99.126 10.8368 98.985 10.4348 98.703C10.0388 98.421 9.73282 98.028 9.51682 97.524C9.30682 97.02 9.20182 96.444 9.20182 95.796C9.20182 95.154 9.31282 94.59 9.53482 94.104C9.76282 93.618 10.0778 93.243 10.4798 92.979C10.8818 92.709 11.3408 92.574 11.8568 92.574C12.3848 92.574 12.8498 92.709 13.2518 92.979C13.6538 93.243 13.9628 93.618 14.1788 94.104C14.4008 94.59 14.5118 95.154 14.5118 95.796C14.5118 96.444 14.4068 97.02 14.1968 97.524C13.9868 98.028 13.6808 98.421 13.2788 98.703C12.8768 98.985 12.4028 99.126 11.8568 99.126ZM11.8568 98.352C12.4148 98.352 12.8438 98.13 13.1438 97.686C13.4498 97.242 13.6028 96.612 13.6028 95.796C13.6028 94.992 13.4468 94.383 13.1348 93.969C12.8288 93.555 12.4028 93.348 11.8568 93.348C11.3348 93.348 10.9118 93.558 10.5878 93.978C10.2698 94.398 10.1108 95.004 10.1108 95.796C10.1108 96.612 10.2608 97.242 10.5608 97.686C10.8668 98.13 11.2988 98.352 11.8568 98.352Z" fill="#667094"/>
<path opacity="0.6" d="M37.3354 111.299H34.9234L34.3204 113H33.4204L35.6794 106.7H36.5794L38.8384 113H37.9384L37.3354 111.299ZM37.0654 110.525L36.1294 107.897L35.1934 110.525H37.0654ZM42.9649 108.59V113H42.2449L42.1549 112.514C42.0109 112.712 41.8399 112.859 41.6419 112.955C41.4499 113.045 41.2129 113.09 40.9309 113.09C40.4029 113.09 39.9979 112.931 39.7159 112.613C39.4399 112.289 39.3019 111.803 39.3019 111.155V108.59H40.1119V110.93C40.1119 111.41 40.1929 111.77 40.3549 112.01C40.5229 112.25 40.7839 112.37 41.1379 112.37C41.3479 112.37 41.5429 112.328 41.7229 112.244C41.9089 112.16 42.0529 112.037 42.1549 111.875V108.59H42.9649ZM45.8486 115.25C45.2246 115.25 44.7176 115.136 44.3276 114.908C43.9436 114.68 43.7516 114.356 43.7516 113.936C43.7516 113.474 44.0066 113.129 44.5166 112.901C44.2286 112.757 44.0846 112.571 44.0846 112.343C44.0846 112.055 44.2586 111.842 44.6066 111.704C44.3606 111.554 44.1716 111.35 44.0396 111.092C43.9076 110.834 43.8416 110.543 43.8416 110.219C43.8416 109.895 43.9136 109.604 44.0576 109.346C44.2076 109.082 44.4176 108.875 44.6876 108.725C44.9636 108.575 45.2876 108.5 45.6596 108.5C46.0556 108.5 46.4156 108.614 46.7396 108.842C47.0576 108.662 47.4236 108.572 47.8376 108.572H47.9096L47.8106 109.112H47.6036C47.5496 109.112 47.4716 109.118 47.3696 109.13C47.2676 109.142 47.1776 109.157 47.0996 109.175C47.2256 109.319 47.3216 109.481 47.3876 109.661C47.4536 109.841 47.4866 110.027 47.4866 110.219C47.4866 110.555 47.4116 110.858 47.2616 111.128C47.1176 111.392 46.9076 111.602 46.6316 111.758C46.3556 111.908 46.0316 111.983 45.6596 111.983C45.4436 111.983 45.2456 111.956 45.0656 111.902C44.9276 111.95 44.8586 112.028 44.8586 112.136C44.8586 112.28 45.0236 112.376 45.3536 112.424L46.5326 112.613C47.0246 112.691 47.3966 112.832 47.6486 113.036C47.9006 113.24 48.0266 113.522 48.0266 113.882C48.0266 114.332 47.8316 114.671 47.4416 114.899C47.0576 115.133 46.5266 115.25 45.8486 115.25ZM45.6596 111.335C45.9956 111.335 46.2536 111.236 46.4336 111.038C46.6196 110.834 46.7126 110.564 46.7126 110.228C46.7126 109.904 46.6196 109.643 46.4336 109.445C46.2536 109.247 45.9956 109.148 45.6596 109.148C45.3236 109.148 45.0656 109.247 44.8856 109.445C44.7056 109.643 44.6156 109.904 44.6156 110.228C44.6156 110.564 44.7056 110.834 44.8856 111.038C45.0656 111.236 45.3236 111.335 45.6596 111.335ZM45.9206 114.53C46.3346 114.53 46.6526 114.476 46.8746 114.368C47.0966 114.26 47.2076 114.104 47.2076 113.9C47.2076 113.744 47.1386 113.618 47.0006 113.522C46.8686 113.432 46.6676 113.36 46.3976 113.306L45.1376 113.09C44.9576 113.174 44.8106 113.276 44.6966 113.396C44.5826 113.522 44.5256 113.66 44.5256 113.81C44.5256 114.056 44.6486 114.236 44.8946 114.35C45.1406 114.47 45.4826 114.53 45.9206 114.53Z" fill="#667094"/>
<path opacity="0.6" d="M135.678 113.126C135.306 113.126 134.928 113.084 134.544 113C134.16 112.922 133.851 112.829 133.617 112.721L133.734 111.812C134.034 111.956 134.373 112.082 134.751 112.19C135.129 112.298 135.504 112.352 135.876 112.352C136.296 112.352 136.62 112.277 136.848 112.127C137.082 111.971 137.199 111.74 137.199 111.434C137.199 111.206 137.139 111.017 137.019 110.867C136.905 110.711 136.734 110.582 136.506 110.48C136.284 110.372 135.972 110.258 135.57 110.138C135.162 110.018 134.823 109.889 134.553 109.751C134.283 109.613 134.064 109.424 133.896 109.184C133.734 108.944 133.653 108.641 133.653 108.275C133.653 107.765 133.848 107.354 134.238 107.042C134.634 106.73 135.189 106.574 135.903 106.574C136.287 106.574 136.65 106.616 136.992 106.7C137.34 106.784 137.643 106.886 137.901 107.006L137.811 107.915C137.475 107.717 137.151 107.573 136.839 107.483C136.527 107.393 136.203 107.348 135.867 107.348C135.477 107.348 135.165 107.42 134.931 107.564C134.703 107.708 134.589 107.93 134.589 108.23C134.589 108.434 134.64 108.602 134.742 108.734C134.85 108.866 135.003 108.98 135.201 109.076C135.399 109.166 135.675 109.265 136.029 109.373C136.737 109.589 137.265 109.847 137.613 110.147C137.961 110.441 138.135 110.849 138.135 111.371C138.135 111.923 137.928 112.355 137.514 112.667C137.1 112.973 136.488 113.126 135.678 113.126ZM141.078 113.09C140.574 113.09 140.142 112.988 139.782 112.784C139.428 112.574 139.158 112.292 138.972 111.938C138.786 111.584 138.693 111.191 138.693 110.759C138.693 110.345 138.777 109.967 138.945 109.625C139.119 109.277 139.368 109.004 139.692 108.806C140.022 108.602 140.409 108.5 140.853 108.5C141.417 108.5 141.873 108.665 142.221 108.995C142.575 109.325 142.752 109.781 142.752 110.363C142.752 110.513 142.74 110.657 142.716 110.795H139.521C139.575 111.365 139.749 111.77 140.043 112.01C140.337 112.25 140.715 112.37 141.177 112.37C141.639 112.37 142.062 112.283 142.446 112.109L142.554 112.748C142.044 112.976 141.552 113.09 141.078 113.09ZM141.915 110.237C141.915 109.919 141.825 109.67 141.645 109.49C141.465 109.31 141.195 109.22 140.835 109.22C140.487 109.22 140.214 109.307 140.016 109.481C139.818 109.649 139.677 109.901 139.593 110.237H141.915ZM145.81 108.5C146.2 108.5 146.539 108.602 146.827 108.806C147.121 109.004 147.346 109.277 147.502 109.625C147.658 109.973 147.736 110.363 147.736 110.795C147.736 111.233 147.661 111.626 147.511 111.974C147.367 112.316 147.151 112.589 146.863 112.793C146.575 112.991 146.224 113.09 145.81 113.09C145.504 113.09 145.225 113.036 144.973 112.928C144.721 112.82 144.523 112.664 144.379 112.46V115.178H143.569V108.59H144.199L144.289 109.202C144.661 108.734 145.168 108.5 145.81 108.5ZM145.657 112.37C146.047 112.37 146.353 112.232 146.575 111.956C146.797 111.674 146.908 111.287 146.908 110.795C146.908 110.303 146.797 109.919 146.575 109.643C146.353 109.361 146.047 109.22 145.657 109.22C145.273 109.22 144.955 109.355 144.703 109.625C144.457 109.895 144.334 110.285 144.334 110.795C144.334 111.323 144.457 111.719 144.703 111.983C144.949 112.241 145.267 112.37 145.657 112.37ZM150.038 113.09C149.648 113.09 149.357 112.988 149.165 112.784C148.979 112.58 148.886 112.331 148.886 112.037V109.22H148.13L148.202 108.59H148.886V107.501L149.696 107.42V108.59H150.857V109.22H149.696V111.542C149.696 111.848 149.714 112.058 149.75 112.172C149.786 112.286 149.861 112.361 149.975 112.397C150.095 112.427 150.311 112.442 150.623 112.442H150.83L150.767 113.09H150.038Z" fill="#667094"/>
<path opacity="0.6" d="M239.473 113.126C238.873 113.126 238.336 112.991 237.862 112.721C237.394 112.451 237.028 112.07 236.764 111.578C236.5 111.08 236.368 110.504 236.368 109.85C236.368 109.196 236.5 108.623 236.764 108.131C237.028 107.633 237.394 107.249 237.862 106.979C238.336 106.709 238.873 106.574 239.473 106.574C240.073 106.574 240.607 106.709 241.075 106.979C241.549 107.249 241.918 107.633 242.182 108.131C242.446 108.623 242.578 109.196 242.578 109.85C242.578 110.504 242.446 111.08 242.182 111.578C241.918 112.07 241.549 112.451 241.075 112.721C240.607 112.991 240.073 113.126 239.473 113.126ZM239.473 112.298C239.941 112.298 240.34 112.193 240.67 111.983C241 111.767 241.246 111.476 241.408 111.11C241.576 110.738 241.66 110.318 241.66 109.85C241.66 109.382 241.576 108.965 241.408 108.599C241.246 108.227 241 107.936 240.67 107.726C240.34 107.51 239.941 107.402 239.473 107.402C239.005 107.402 238.606 107.51 238.276 107.726C237.946 107.936 237.697 108.227 237.529 108.599C237.367 108.965 237.286 109.382 237.286 109.85C237.286 110.318 237.367 110.738 237.529 111.11C237.697 111.476 237.946 111.767 238.276 111.983C238.606 112.193 239.005 112.298 239.473 112.298ZM245.455 113.09C244.975 113.09 244.561 112.991 244.213 112.793C243.871 112.595 243.613 112.325 243.439 111.983C243.265 111.635 243.178 111.248 243.178 110.822C243.178 110.126 243.373 109.565 243.763 109.139C244.159 108.713 244.744 108.5 245.518 108.5C245.974 108.5 246.376 108.587 246.724 108.761L246.598 109.472C246.232 109.304 245.866 109.22 245.5 109.22C245.02 109.22 244.651 109.358 244.393 109.634C244.135 109.904 244.006 110.288 244.006 110.786C244.006 111.284 244.129 111.674 244.375 111.956C244.627 112.238 244.996 112.379 245.482 112.379C245.872 112.379 246.247 112.289 246.607 112.109L246.715 112.757C246.583 112.847 246.4 112.925 246.166 112.991C245.938 113.057 245.701 113.09 245.455 113.09ZM249.038 113.09C248.648 113.09 248.357 112.988 248.165 112.784C247.979 112.58 247.886 112.331 247.886 112.037V109.22H247.13L247.202 108.59H247.886V107.501L248.696 107.42V108.59H249.857V109.22H248.696V111.542C248.696 111.848 248.714 112.058 248.75 112.172C248.786 112.286 248.861 112.361 248.975 112.397C249.095 112.427 249.311 112.442 249.623 112.442H249.83L249.767 113.09H249.038Z" fill="#667094"/>
<path opacity="0.6" d="M336.207 106.7H337.134L340.239 111.416V106.7H341.103V113H340.374L337.062 108.023V113H336.207V106.7ZM344.176 113.09C343.726 113.09 343.336 112.991 343.006 112.793C342.676 112.589 342.424 112.313 342.25 111.965C342.076 111.617 341.989 111.227 341.989 110.795C341.989 110.363 342.076 109.973 342.25 109.625C342.424 109.277 342.676 109.004 343.006 108.806C343.336 108.602 343.726 108.5 344.176 108.5C344.62 108.5 345.007 108.602 345.337 108.806C345.673 109.004 345.928 109.277 346.102 109.625C346.276 109.973 346.363 110.363 346.363 110.795C346.363 111.227 346.276 111.617 346.102 111.965C345.928 112.313 345.673 112.589 345.337 112.793C345.007 112.991 344.62 113.09 344.176 113.09ZM344.176 112.37C344.608 112.37 344.941 112.232 345.175 111.956C345.415 111.68 345.535 111.293 345.535 110.795C345.535 110.297 345.415 109.91 345.175 109.634C344.941 109.358 344.608 109.22 344.176 109.22C343.744 109.22 343.408 109.358 343.168 109.634C342.934 109.91 342.817 110.297 342.817 110.795C342.817 111.293 342.934 111.68 343.168 111.956C343.408 112.232 343.744 112.37 344.176 112.37ZM346.651 108.59H347.551L348.784 112.109L350.008 108.59H350.917L349.243 113H348.334L346.651 108.59Z" fill="#667094"/>
<defs>
<linearGradient id="paint0_linear_1912_1761" x1="265.546" y1="48" x2="265.546" y2="68.5881" gradientUnits="userSpaceOnUse">
<stop stop-color="#00CD86"/>
<stop offset="1" stop-color="#00CD86" stop-opacity="0"/>
</linearGradient>
<linearGradient id="paint1_linear_1912_1761" x1="67.1465" y1="54.3749" x2="67.1465" y2="66" gradientUnits="userSpaceOnUse">
<stop stop-color="#00CD86"/>
<stop offset="1" stop-color="#00CD86" stop-opacity="0"/>
</linearGradient>
</defs>
</svg>
