<svg width="22" height="22" viewBox="0 0 22 22" fill="none" xmlns="http://www.w3.org/2000/svg">
<g clip-path="url(#clip0_2146:4011)">
<path d="M14.0592 8.10175L10.5304 7.21973L1.81925 10.8307L0 14.4696L6.17679 16.2436L15.8233 12.1275L14.0592 8.10175Z" fill="#E08139"/>
<path d="M14.059 8.10254L5.2926 11.8248L6.17659 16.2444L15.823 12.1282L14.059 8.10254Z" fill="#853508"/>
<path d="M5.29281 11.8243L1.81925 10.8311L0.000732422 14.4699L6.17679 16.244L5.29281 11.8243Z" fill="#B84E12"/>
<path d="M20.236 9.87655L16.7072 8.99414L7.99601 12.6054L6.17676 16.2447L12.3535 18.0172L22 13.9015L20.236 9.87655Z" fill="#E08139"/>
<path d="M20.2358 9.875L11.4694 13.596L12.3533 18.0157L21.9998 13.8999L20.2358 9.875Z" fill="#853508"/>
<path d="M11.4695 13.5957L7.99601 12.6035L6.17676 16.2428L12.3535 18.0153L11.4695 13.5957Z" fill="#B84E12"/>
<path d="M16.3237 5.29506L12.7956 4.41309L5.10189 7.60428L3.28333 11.2432L9.46012 13.0164L18.0884 9.32031L16.3237 5.29506Z" fill="#E08139"/>
<path d="M16.3235 5.29492L8.57605 8.59663L9.45999 13.0163L18.0883 9.32018L16.3235 5.29492Z" fill="#853508"/>
<path d="M8.57618 8.596L5.10189 7.60352L3.28333 11.2424L9.46012 13.0157L8.57618 8.596Z" fill="#B84E12"/>
</g>
<defs>
<clipPath id="clip0_2146:4011">
<rect width="22" height="22" fill="white"/>
</clipPath>
</defs>
</svg>
