<svg width="25" height="25" viewBox="0 0 25 25" fill="none" xmlns="http://www.w3.org/2000/svg">
<mask id="mask0_2140_211" style="mask-type:alpha" maskUnits="userSpaceOnUse" x="0" y="1" width="16" height="16">
<path d="M15.4648 6.11711C10.6708 6.85574 7 10.9992 7 16C7 16.3182 7.01486 16.6329 7.04392 16.9435C3.07637 16.471 0 13.0947 0 9C0 4.58172 3.58172 1 8 1C11.4019 1 14.3079 3.12339 15.4648 6.11711Z" fill="white"/>
</mask>
<g mask="url(#mask0_2140_211)">
<mask id="mask1_2140_211" style="mask-type:alpha" maskUnits="userSpaceOnUse" x="0" y="1" width="16" height="16">
<path d="M15.7605 10.9353C14.6919 15.221 10.3507 17.8292 6.06401 16.7605C1.77905 15.692 -0.829473 11.351 0.239641 7.06559C1.30775 2.77938 5.64897 0.170907 9.93442 1.2394C14.2209 2.30789 16.8292 6.64934 15.7605 10.9353Z" fill="#00008B"/>
</mask>
<g mask="url(#mask1_2140_211)">
<path d="M15.7605 10.9353C14.6919 15.221 10.3507 17.8292 6.06401 16.7605C1.77905 15.692 -0.829473 11.351 0.239641 7.06559C1.30775 2.77938 5.64897 0.170907 9.93442 1.2394C14.2209 2.30789 16.8292 6.64934 15.7605 10.9353Z" fill="#3333D1"/>
<path d="M11.25 11L11.4935 11.7651L12.2373 11.4804L11.7972 12.1498L12.4812 12.56L11.6888 12.6296L11.7979 13.4257L11.25 12.8432L10.7021 13.4257L10.8112 12.6296L10.0188 12.56L10.7028 12.1498L10.2627 11.4804L11.0065 11.7651L11.25 11Z" fill="white"/>
<path d="M12.75 5L13.0924 6.08048L14.1383 5.67851L13.5194 6.62387L14.4812 7.2031L13.367 7.30147L13.5204 8.42573L12.75 7.60303L11.9795 8.42573L12.133 7.30147L11.0188 7.2031L11.9806 6.62387L11.3617 5.67851L12.4076 6.08048L12.75 5Z" fill="white"/>
<path d="M5.24999 10L5.69132 11.3959L7.03927 10.8766L6.24164 12.0979L7.48119 12.8462L6.04523 12.9733L6.24297 14.4257L5.24999 13.3629L4.25702 14.4257L4.45476 12.9733L3.0188 12.8462L4.25835 12.0979L3.46071 10.8766L4.80867 11.3959L5.24999 10Z" fill="white"/>
<path d="M9.12499 7.84375L9.26962 8.29343L9.71137 8.12613L9.44997 8.51958L9.85619 8.76064L9.38561 8.80158L9.45041 9.26948L9.12499 8.92708L8.79958 9.26948L8.86438 8.80158L8.3938 8.76064L8.80002 8.51958L8.53862 8.12613L8.98037 8.29343L9.12499 7.84375Z" fill="white"/>
<path d="M-1 3.5L10 9L-1 3.5ZM10 3.5L-1 9L10 3.5Z" fill="black"/>
<path d="M10 3.5L-1 9M-1 3.5L10 9L-1 3.5Z" stroke="white" stroke-width="1.1"/>
<path d="M-1 3.5L10 9L-1 3.5ZM10 3.5L-1 9L10 3.5Z" fill="black"/>
<path d="M10 3.5L-1 9M-1 3.5L10 9L-1 3.5Z" stroke="#FF0000" stroke-width="0.733333"/>
<path d="M4.5 3.5V9V3.5ZM-1 6.25H10H-1Z" fill="black"/>
<path d="M-1 6.25H10M4.5 3.5V9V3.5Z" stroke="white" stroke-width="1.83333"/>
<path d="M4.5 3.5V9V3.5ZM-1 6.25H10H-1Z" fill="black"/>
<path d="M-1 6.25H10M4.5 3.5V9V3.5Z" stroke="#FF0000" stroke-width="1.1"/>
</g>
</g>
<path d="M24.7605 17.9353C23.6919 22.221 19.3507 24.8292 15.064 23.7605C10.7791 22.692 8.17053 18.351 9.23964 14.0656C10.3078 9.77938 14.649 7.17091 18.9344 8.2394C23.2209 9.30789 25.8292 13.6493 24.7605 17.9353Z" fill="white"/>
<circle cx="17" cy="16" r="4" fill="#D50A2D"/>
</svg>
