<svg width="25" height="25" viewBox="0 0 25 25" fill="none" xmlns="http://www.w3.org/2000/svg">
<mask id="mask0_2140_254" style="mask-type:alpha" maskUnits="userSpaceOnUse" x="0" y="1" width="16" height="16">
<path d="M15.4648 6.11711C10.6708 6.85574 7 10.9992 7 16C7 16.3182 7.01486 16.6329 7.04392 16.9435C3.07637 16.471 0 13.0947 0 9C0 4.58172 3.58172 1 8 1C11.4019 1 14.3079 3.12339 15.4648 6.11711Z" fill="white"/>
</mask>
<g mask="url(#mask0_2140_254)">
<mask id="mask1_2140_254" style="mask-type:alpha" maskUnits="userSpaceOnUse" x="0" y="1" width="16" height="16">
<path d="M15.7605 10.9353C14.6919 15.221 10.3507 17.8292 6.06401 16.7605C1.77905 15.692 -0.829473 11.351 0.239641 7.06559C1.30775 2.77938 5.64897 0.170907 9.93442 1.2394C14.2209 2.30789 16.8292 6.64934 15.7605 10.9353Z" fill="#00008B"/>
</mask>
<g mask="url(#mask1_2140_254)">
<path d="M15.7605 10.9353C14.6919 15.221 10.3507 17.8292 6.06401 16.7605C1.77905 15.692 -0.829473 11.351 0.239641 7.06559C1.30775 2.77938 5.64897 0.170907 9.93442 1.2394C14.2209 2.30789 16.8292 6.64934 15.7605 10.9353Z" fill="#3333D1"/>
<path d="M11.25 11L11.4935 11.7651L12.2373 11.4804L11.7972 12.1498L12.4812 12.56L11.6888 12.6296L11.7979 13.4257L11.25 12.8432L10.7021 13.4257L10.8112 12.6296L10.0188 12.56L10.7028 12.1498L10.2627 11.4804L11.0065 11.7651L11.25 11Z" fill="white"/>
<path d="M12.75 5L13.0924 6.08048L14.1383 5.67851L13.5194 6.62387L14.4812 7.2031L13.367 7.30147L13.5204 8.42573L12.75 7.60303L11.9795 8.42573L12.133 7.30147L11.0188 7.2031L11.9806 6.62387L11.3617 5.67851L12.4076 6.08048L12.75 5Z" fill="white"/>
<path d="M5.24999 10L5.69132 11.3959L7.03927 10.8766L6.24164 12.0979L7.48119 12.8462L6.04523 12.9733L6.24297 14.4257L5.24999 13.3629L4.25702 14.4257L4.45476 12.9733L3.0188 12.8462L4.25835 12.0979L3.46071 10.8766L4.80867 11.3959L5.24999 10Z" fill="white"/>
<path d="M9.12499 7.84375L9.26962 8.29343L9.71137 8.12613L9.44997 8.51958L9.85619 8.76064L9.38561 8.80158L9.45041 9.26948L9.12499 8.92708L8.79958 9.26948L8.86438 8.80158L8.3938 8.76064L8.80002 8.51958L8.53862 8.12613L8.98037 8.29343L9.12499 7.84375Z" fill="white"/>
<path d="M-1 3.5L10 9L-1 3.5ZM10 3.5L-1 9L10 3.5Z" fill="black"/>
<path d="M10 3.5L-1 9M-1 3.5L10 9L-1 3.5Z" stroke="white" stroke-width="1.1"/>
<path d="M-1 3.5L10 9L-1 3.5ZM10 3.5L-1 9L10 3.5Z" fill="black"/>
<path d="M10 3.5L-1 9M-1 3.5L10 9L-1 3.5Z" stroke="#FF0000" stroke-width="0.733333"/>
<path d="M4.5 3.5V9V3.5ZM-1 6.25H10H-1Z" fill="black"/>
<path d="M-1 6.25H10M4.5 3.5V9V3.5Z" stroke="white" stroke-width="1.83333"/>
<path d="M4.5 3.5V9V3.5ZM-1 6.25H10H-1Z" fill="black"/>
<path d="M-1 6.25H10M4.5 3.5V9V3.5Z" stroke="#FF0000" stroke-width="1.1"/>
</g>
</g>
<mask id="mask2_2140_254" style="mask-type:alpha" maskUnits="userSpaceOnUse" x="9" y="8" width="16" height="16">
<path d="M24.7605 17.9353C23.6919 22.221 19.3507 24.8292 15.064 23.7605C10.7791 22.692 8.17053 18.351 9.23964 14.0656C10.3078 9.77938 14.649 7.17091 18.9344 8.2394C23.2209 9.30789 25.8292 13.6493 24.7605 17.9353Z" fill="white"/>
</mask>
<g mask="url(#mask2_2140_254)">
<path d="M24.7605 17.9353C23.6919 22.221 19.3507 24.8292 15.064 23.7605C10.7791 22.692 8.17053 18.351 9.23964 14.0656C10.3078 9.77938 14.649 7.17091 18.9344 8.2394C23.2209 9.30789 25.8292 13.6493 24.7605 17.9353Z" fill="white"/>
<path d="M17.5219 17.9974H29.0001C29.0001 16.6586 28.8677 15.3617 28.6211 14.1279H17.5219V17.9974Z" fill="#D80027"/>
<path d="M17.5219 10.9974H29.0001C29.0001 9.65861 28.8677 8.36166 28.6211 7.12793H17.5219V10.9974Z" fill="#D80027"/>
<path d="M8.61471 24.7376H27.3857C27.9262 23.5482 28.3455 22.248 28.6212 20.8682H7.37915C7.65488 22.248 8.07413 23.5482 8.61471 24.7376Z" fill="#D80027"/>
<path d="M12 8L13.0978 8.71731L12.1654 9.39468L12.5216 10.4907L11.5892 9.81335L10.6568 10.4907L10.9645 9.54386C10.1435 10.2277 9.42395 11.0288 8.83098 11.9215H9.15217L8.55864 12.3527C8.46618 12.5069 8.37749 12.6636 8.2925 12.8227L8.57592 13.6949L8.04715 13.3108C7.9157 13.5892 7.79548 13.874 7.68741 14.1647L7.99967 15.1257H9.15217L8.21975 15.8031L8.57592 16.8992L7.64354 16.2218L7.08503 16.6276C7.02913 17.0769 7 17.5346 7 17.9991H18C18 11.9243 18 11.2081 18 6.99958C14.9586 6.49976 13.7059 6.91259 12 8ZM12.5216 16.8992L11.5892 16.2218L10.6568 16.8992L11.013 15.8031L10.0806 15.1257H11.2331L11.5892 14.0297L11.9453 15.1257H13.0978L12.1654 15.8031L12.5216 16.8992ZM12.1654 12.5989L12.5216 13.6949L11.5892 13.0176L10.6568 13.6949L11.013 12.5989L10.0806 11.9215H11.2331L11.5892 10.8255L11.9453 11.9215H13.0978L12.1654 12.5989ZM16.4672 16.8992L15.5348 16.2218L14.6024 16.8992L14.9586 15.8031L14.0262 15.1257H15.1787L15.5348 14.0297L15.8909 15.1257H17.0435L16.111 15.8031L16.4672 16.8992ZM16.111 12.5989L16.4672 13.6949L15.5348 13.0176L14.6024 13.6949L14.9586 12.5989L14.0262 11.9215H15.1787L15.5348 10.8255L15.8909 11.9215H17.0435L16.111 12.5989ZM16.111 9.39468L16.4672 10.4907L15.5348 9.81335L14.6024 10.4907L14.9586 9.39468L14.0262 8.71731H15.1787L15.5348 7.62127L15.8909 8.71731H17.0435L16.111 9.39468Z" fill="#0052B4"/>
</g>
</svg>
