<svg width="25" height="25" viewBox="0 0 25 25" fill="none" xmlns="http://www.w3.org/2000/svg">
<mask id="mask0_2140_337" style="mask-type:alpha" maskUnits="userSpaceOnUse" x="0" y="1" width="16" height="16">
<path d="M15.4648 6.11711C10.6708 6.85574 7 10.9992 7 16C7 16.3182 7.01486 16.6329 7.04392 16.9435C3.07637 16.471 0 13.0947 0 9C0 4.58172 3.58172 1 8 1C11.4019 1 14.3079 3.12339 15.4648 6.11711Z" fill="white"/>
</mask>
<g mask="url(#mask0_2140_337)">
<path d="M15.4648 6.11711C10.6708 6.85574 7 10.9992 7 16C7 16.3182 7.01486 16.6329 7.04392 16.9435C3.07637 16.471 0 13.0947 0 9C0 4.58172 3.58172 1 8 1C11.4019 1 14.3079 3.12339 15.4648 6.11711Z" fill="white"/>
<mask id="mask1_2140_337" style="mask-type:alpha" maskUnits="userSpaceOnUse" x="0" y="1" width="16" height="16">
<path d="M15.4648 6.11711C10.6708 6.85574 7 10.9992 7 16C7 16.3182 7.01486 16.6329 7.04392 16.9435C3.07637 16.471 0 13.0947 0 9C0 4.58172 3.58172 1 8 1C11.4019 1 14.3079 3.12339 15.4648 6.11711Z" fill="white"/>
</mask>
<g mask="url(#mask1_2140_337)">
<path d="M15.4648 6.11711C10.6708 6.85574 7 10.9992 7 16C7 16.3182 7.01486 16.6329 7.04392 16.9435C3.07637 16.471 0 13.0947 0 9C0 4.58172 3.58172 1 8 1C11.4019 1 14.3079 3.12339 15.4648 6.11711Z" fill="#0F75EE"/>
<path d="M8.3138 12.1553C6.9958 12.1553 5.85142 11.4082 5.28054 10.3138H8.3138V9.26149H4.93856C4.91224 9.0905 4.89384 8.91423 4.89384 8.73535C4.89384 8.55647 4.91227 8.3802 4.93856 8.20921H8.3138V7.1569H5.28054C5.85142 6.06252 6.99316 5.31537 8.3138 5.31537C9.16353 5.31537 9.93961 5.6258 10.5368 6.1388L11.4707 5.21015C10.6341 4.46039 9.52657 4 8.3138 4C6.25392 4 4.50448 5.31801 3.85468 7.1569H2V8.20921H3.61002C3.58898 8.38284 3.57845 8.55647 3.57845 8.73535C3.57845 8.91423 3.58898 9.08786 3.61002 9.26149H2V10.3138H3.85468C4.50448 12.1527 6.25392 13.4707 8.3138 13.4707C9.52657 13.4707 10.6341 13.0103 11.4707 12.2606L10.5368 11.3293C9.93961 11.8423 9.16353 12.1553 8.3138 12.1553Z" fill="white"/>
</g>
</g>
<mask id="mask2_2140_337" style="mask-type:alpha" maskUnits="userSpaceOnUse" x="9" y="9" width="16" height="16">
<path d="M17 25C21.4183 25 25 21.4183 25 17C25 12.5817 21.4183 9 17 9C12.5817 9 9 12.5817 9 17C9 21.4183 12.5817 25 17 25Z" fill="#F0F0F0"/>
</mask>
<g mask="url(#mask2_2140_337)">
<path d="M33.4075 8.96973V24.9094H1.04519V8.96973H33.4075Z" fill="#012169"/>
<path d="M33.4075 8.96973L1.04519 24.9094L33.4075 8.96973ZM1.04519 8.96973L33.4075 24.9094L1.04519 8.96973Z" fill="black"/>
<path d="M1.04518 8.96973L33.4075 24.9094M33.4075 8.96973L1.04518 24.9094L33.4075 8.96973Z" stroke="white" stroke-width="3.2"/>
<path d="M33.4075 8.96973L1.04519 24.9094L33.4075 8.96973ZM1.04519 8.96973L33.4075 24.9094L1.04519 8.96973Z" fill="black"/>
<path d="M1.04518 8.96973L33.4075 24.9094M33.4075 8.96973L1.04518 24.9094L33.4075 8.96973Z" stroke="#C8102E" stroke-width="2.13333"/>
<path d="M17.2263 8.96973V24.9094V8.96973ZM33.4075 16.9395H1.04519H33.4075Z" fill="black"/>
<path d="M33.4075 16.9395H1.04518M17.2263 8.96973V24.9094V8.96973Z" stroke="white" stroke-width="5.33333"/>
<path d="M17.2263 8.96973V24.9094V8.96973ZM33.4075 16.9395H1.04519H33.4075Z" fill="black"/>
<path d="M33.4075 16.9395H1.04519M17.2263 8.96973V24.9094V8.96973Z" stroke="#C8102E" stroke-width="3.2"/>
</g>
</svg>
