<svg width="25" height="25" viewBox="0 0 25 25" fill="none" xmlns="http://www.w3.org/2000/svg">
<mask id="mask0_2140_106" style="mask-type:alpha" maskUnits="userSpaceOnUse" x="0" y="1" width="16" height="16">
<path d="M15.4648 6.11711C10.6708 6.85574 7 10.9992 7 16C7 16.3182 7.01486 16.6329 7.04392 16.9435C3.07637 16.471 0 13.0947 0 9C0 4.58172 3.58172 1 8 1C11.4019 1 14.3079 3.12339 15.4648 6.11711Z" fill="white"/>
</mask>
<g mask="url(#mask0_2140_106)">
<path d="M15.4648 6.11711C10.6708 6.85574 7 10.9992 7 16C7 16.3182 7.01486 16.6329 7.04392 16.9435C3.07637 16.471 0 13.0947 0 9C0 4.58172 3.58172 1 8 1C11.4019 1 14.3079 3.12339 15.4648 6.11711Z" fill="#0052B4"/>
<path d="M8.3138 12.1553C6.9958 12.1553 5.85142 11.4082 5.28054 10.3138H8.3138V9.26149H4.93856C4.91224 9.0905 4.89384 8.91423 4.89384 8.73535C4.89384 8.55647 4.91227 8.3802 4.93856 8.20921H8.3138V7.1569H5.28054C5.85142 6.06252 6.99316 5.31537 8.3138 5.31537C9.16353 5.31537 9.93961 5.6258 10.5368 6.1388L11.4707 5.21015C10.6341 4.46039 9.52657 4 8.3138 4C6.25392 4 4.50448 5.31801 3.85468 7.1569H2V8.20921H3.61002C3.58898 8.38284 3.57845 8.55647 3.57845 8.73535C3.57845 8.91423 3.58898 9.08786 3.61002 9.26149H2V10.3138H3.85468C4.50448 12.1527 6.25392 13.4707 8.3138 13.4707C9.52657 13.4707 10.6341 13.0103 11.4707 12.2606L10.5368 11.3293C9.93961 11.8423 9.16353 12.1553 8.3138 12.1553Z" fill="white"/>
</g>
<mask id="mask1_2140_106" style="mask-type:alpha" maskUnits="userSpaceOnUse" x="9" y="8" width="16" height="16">
<path d="M24.7605 17.9353C23.6919 22.221 19.3507 24.8292 15.064 23.7605C10.7791 22.692 8.17053 18.351 9.23964 14.0656C10.3078 9.77938 14.649 7.17091 18.9344 8.2394C23.2209 9.30789 25.8292 13.6493 24.7605 17.9353Z" fill="#00008B"/>
</mask>
<g mask="url(#mask1_2140_106)">
<path d="M24.7605 17.9353C23.6919 22.221 19.3507 24.8292 15.064 23.7605C10.7791 22.692 8.17053 18.351 9.23964 14.0656C10.3078 9.77938 14.649 7.17091 18.9344 8.2394C23.2209 9.30789 25.8292 13.6493 24.7605 17.9353Z" fill="#3333D1"/>
<path d="M20.25 18L20.4935 18.7651L21.2373 18.4804L20.7972 19.1498L21.4812 19.56L20.6888 19.6296L20.7979 20.4257L20.25 19.8432L19.7021 20.4257L19.8112 19.6296L19.0188 19.56L19.7028 19.1498L19.2627 18.4804L20.0065 18.7651L20.25 18Z" fill="white"/>
<path d="M21.75 12L22.0924 13.0805L23.1383 12.6785L22.5194 13.6239L23.4812 14.2031L22.367 14.3015L22.5204 15.4257L21.75 14.603L20.9795 15.4257L21.133 14.3015L20.0188 14.2031L20.9806 13.6239L20.3617 12.6785L21.4076 13.0805L21.75 12Z" fill="white"/>
<path d="M14.25 17L14.6913 18.3959L16.0393 17.8766L15.2416 19.0979L16.4812 19.8462L15.0452 19.9733L15.243 21.4257L14.25 20.3629L13.257 21.4257L13.4548 19.9733L12.0188 19.8462L13.2584 19.0979L12.4607 17.8766L13.8087 18.3959L14.25 17Z" fill="white"/>
<path d="M18.125 14.8438L18.2696 15.2934L18.7114 15.1261L18.45 15.5196L18.8562 15.7606L18.3856 15.8016L18.4504 16.2695L18.125 15.9271L17.7996 16.2695L17.8644 15.8016L17.3938 15.7606L17.8 15.5196L17.5386 15.1261L17.9804 15.2934L18.125 14.8438Z" fill="white"/>
<path d="M8 10.5L19 16L8 10.5ZM19 10.5L8 16L19 10.5Z" fill="black"/>
<path d="M19 10.5L8 16M8 10.5L19 16L8 10.5Z" stroke="white" stroke-width="1.1"/>
<path d="M8 10.5L19 16L8 10.5ZM19 10.5L8 16L19 10.5Z" fill="black"/>
<path d="M19 10.5L8 16M8 10.5L19 16L8 10.5Z" stroke="#FF0000" stroke-width="0.733333"/>
<path d="M13.5 10.5V16V10.5ZM8 13.25H19H8Z" fill="black"/>
<path d="M8 13.25H19M13.5 10.5V16V10.5Z" stroke="white" stroke-width="1.83333"/>
<path d="M13.5 10.5V16V10.5ZM8 13.25H19H8Z" fill="black"/>
<path d="M8 13.25H19M13.5 10.5V16V10.5Z" stroke="#FF0000" stroke-width="1.1"/>
</g>
</svg>
