<svg width="25" height="25" viewBox="0 0 25 25" fill="none" xmlns="http://www.w3.org/2000/svg">
<mask id="mask0_2140_181" style="mask-type:alpha" maskUnits="userSpaceOnUse" x="0" y="1" width="16" height="16">
<path d="M15.4648 6.11711C10.6708 6.85574 7 10.9992 7 16C7 16.3182 7.01486 16.6329 7.04392 16.9435C3.07637 16.471 0 13.0947 0 9C0 4.58172 3.58172 1 8 1C11.4019 1 14.3079 3.12339 15.4648 6.11711Z" fill="white"/>
</mask>
<g mask="url(#mask0_2140_181)">
<path d="M15.4648 6.11711C10.6708 6.85574 7 10.9992 7 16C7 16.3182 7.01486 16.6329 7.04392 16.9435C3.07637 16.471 0 13.0947 0 9C0 4.58172 3.58172 1 8 1C11.4019 1 14.3079 3.12339 15.4648 6.11711Z" fill="#0052B4"/>
<path d="M8.3138 12.1553C6.9958 12.1553 5.85142 11.4082 5.28054 10.3138H8.3138V9.26149H4.93856C4.91224 9.0905 4.89384 8.91423 4.89384 8.73535C4.89384 8.55647 4.91227 8.3802 4.93856 8.20921H8.3138V7.1569H5.28054C5.85142 6.06252 6.99316 5.31537 8.3138 5.31537C9.16353 5.31537 9.93961 5.6258 10.5368 6.1388L11.4707 5.21015C10.6341 4.46039 9.52657 4 8.3138 4C6.25392 4 4.50448 5.31801 3.85468 7.1569H2V8.20921H3.61002C3.58898 8.38284 3.57845 8.55647 3.57845 8.73535C3.57845 8.91423 3.58898 9.08786 3.61002 9.26149H2V10.3138H3.85468C4.50448 12.1527 6.25392 13.4707 8.3138 13.4707C9.52657 13.4707 10.6341 13.0103 11.4707 12.2606L10.5368 11.3293C9.93961 11.8423 9.16353 12.1553 8.3138 12.1553Z" fill="white"/>
</g>
<path d="M24.7605 17.9353C23.6919 22.221 19.3507 24.8292 15.064 23.7605C10.7791 22.692 8.17053 18.351 9.23964 14.0656C10.3078 9.77938 14.649 7.17091 18.9344 8.2394C23.2209 9.30789 25.8292 13.6493 24.7605 17.9353Z" fill="white"/>
<circle cx="17" cy="16" r="4" fill="#D50A2D"/>
</svg>
