<svg width="25" height="25" viewBox="0 0 25 25" fill="none" xmlns="http://www.w3.org/2000/svg">
<mask id="mask0_2140_65" style="mask-type:alpha" maskUnits="userSpaceOnUse" x="0" y="1" width="16" height="16">
<path d="M15.4648 6.11711C10.6708 6.85574 7 10.9992 7 16C7 16.3182 7.01486 16.6329 7.04392 16.9435C3.07637 16.471 0 13.0947 0 9C0 4.58172 3.58172 1 8 1C11.4019 1 14.3079 3.12339 15.4648 6.11711Z" fill="white"/>
</mask>
<g mask="url(#mask0_2140_65)">
<path d="M15.4648 6.11711C10.6708 6.85574 7 10.9992 7 16C7 16.3182 7.01486 16.6329 7.04392 16.9435C3.07637 16.471 0 13.0947 0 9C0 4.58172 3.58172 1 8 1C11.4019 1 14.3079 3.12339 15.4648 6.11711Z" fill="white"/>
<mask id="mask1_2140_65" style="mask-type:alpha" maskUnits="userSpaceOnUse" x="0" y="1" width="16" height="16">
<path d="M8 17C12.4183 17 16 13.4183 16 9C16 4.58172 12.4183 1 8 1C3.58172 1 0 4.58172 0 9C0 13.4183 3.58172 17 8 17Z" fill="#F0F0F0"/>
</mask>
<g mask="url(#mask1_2140_65)">
<path d="M24.4075 0.969727V16.9094H-7.95481V0.969727H24.4075Z" fill="#012169"/>
<path d="M24.4075 0.969727L-7.95481 16.9094L24.4075 0.969727ZM-7.95481 0.969727L24.4075 16.9094L-7.95481 0.969727Z" fill="black"/>
<path d="M-7.95482 0.969727L24.4075 16.9094M24.4075 0.969727L-7.95482 16.9094L24.4075 0.969727Z" stroke="white" stroke-width="3.2"/>
<path d="M24.4075 0.969727L-7.95481 16.9094L24.4075 0.969727ZM-7.95481 0.969727L24.4075 16.9094L-7.95481 0.969727Z" fill="black"/>
<path d="M-7.95482 0.969727L24.4075 16.9094M24.4075 0.969727L-7.95482 16.9094L24.4075 0.969727Z" stroke="#C8102E" stroke-width="2.13333"/>
<path d="M8.22633 0.969727V16.9094V0.969727ZM24.4075 8.93955H-7.95481H24.4075Z" fill="black"/>
<path d="M24.4075 8.93954H-7.95482M8.22633 0.969727V16.9094V0.969727Z" stroke="white" stroke-width="5.33333"/>
<path d="M8.22633 0.969727V16.9094V0.969727ZM24.4075 8.93955H-7.95481H24.4075Z" fill="black"/>
<path d="M24.4075 8.93954H-7.95482M8.22633 0.969727V16.9094V0.969727Z" stroke="#C8102E" stroke-width="3.2"/>
</g>
</g>
<path d="M24.7605 18.9353C23.6919 23.221 19.3507 25.8292 15.064 24.7605C10.7791 23.692 8.17053 19.351 9.23964 15.0656C10.3078 10.7794 14.649 8.17091 18.9344 9.2394C23.2209 10.3079 25.8292 14.6493 24.7605 18.9353Z" fill="white"/>
<circle cx="17" cy="17" r="4" fill="#D50A2D"/>
</svg>
