<svg width="25" height="25" viewBox="0 0 25 25" fill="none" xmlns="http://www.w3.org/2000/svg">
<mask id="mask0_2140_388" style="mask-type:alpha" maskUnits="userSpaceOnUse" x="0" y="1" width="16" height="16">
<path d="M15.4648 6.11711C10.6708 6.85574 7 10.9992 7 16C7 16.3182 7.01486 16.6329 7.04392 16.9435C3.07637 16.471 0 13.0947 0 9C0 4.58172 3.58172 1 8 1C11.4019 1 14.3079 3.12339 15.4648 6.11711Z" fill="white"/>
</mask>
<g mask="url(#mask0_2140_388)">
<path d="M15.4648 6.11711C10.6708 6.85574 7 10.9992 7 16C7 16.3182 7.01486 16.6329 7.04392 16.9435C3.07637 16.471 0 13.0947 0 9C0 4.58172 3.58172 1 8 1C11.4019 1 14.3079 3.12339 15.4648 6.11711Z" fill="white"/>
<path d="M7.65222 8.99995H16C16 8.27793 15.9038 7.57846 15.7244 6.91309H7.65222V8.99995Z" fill="#D80027"/>
<path d="M7.65222 4.82613H14.8258C14.3361 4.02704 13.71 3.32073 12.9799 2.73926H7.65222V4.82613Z" fill="#D80027"/>
<path d="M8.00025 16.9998C9.88302 16.9998 11.6136 16.3491 12.9801 15.2607H3.02039C4.38694 16.3491 6.11747 16.9998 8.00025 16.9998Z" fill="#D80027"/>
<path d="M1.17435 13.1728H14.8259C15.2191 12.5313 15.524 11.8301 15.7245 11.0859H0.275757C0.476288 11.8301 0.781193 12.5313 1.17435 13.1728Z" fill="#D80027"/>
<path d="M3.70574 2.24925H4.43477L3.75665 2.74188L4.01568 3.539L3.33759 3.04637L2.65949 3.539L2.88324 2.85038C2.28618 3.3477 1.76287 3.93036 1.33162 4.57958H1.56521L1.13356 4.89316C1.06631 5.00534 1.00181 5.1193 0.939998 5.23495L1.14612 5.86933L0.761561 5.58993C0.665967 5.79246 0.57853 5.99954 0.499936 6.21094L0.727029 6.9099H1.56521L0.887091 7.40253L1.14612 8.19965L0.46803 7.70702L0.0618436 8.00213C0.0211874 8.32893 0 8.66179 0 8.99961H7.99998C7.99998 4.58158 7.99998 4.06073 7.99998 1C6.41961 1 4.94639 1.45842 3.70574 2.24925ZM4.01568 8.19965L3.33759 7.70702L2.65949 8.19965L2.91852 7.40253L2.2404 6.9099H3.07859L3.33759 6.11278L3.59658 6.9099H4.43477L3.75665 7.40253L4.01568 8.19965ZM3.75665 5.07221L4.01568 5.86933L3.33759 5.37669L2.65949 5.86933L2.91852 5.07221L2.2404 4.57958H3.07859L3.33759 3.78246L3.59658 4.57958H4.43477L3.75665 5.07221ZM6.88523 8.19965L6.20714 7.70702L5.52905 8.19965L5.78808 7.40253L5.10996 6.9099H5.94814L6.20714 6.11278L6.46614 6.9099H7.30433L6.6262 7.40253L6.88523 8.19965ZM6.6262 5.07221L6.88523 5.86933L6.20714 5.37669L5.52905 5.86933L5.78808 5.07221L5.10996 4.57958H5.94814L6.20714 3.78246L6.46614 4.57958H7.30433L6.6262 5.07221ZM6.6262 2.74188L6.88523 3.539L6.20714 3.04637L5.52905 3.539L5.78808 2.74188L5.10996 2.24925H5.94814L6.20714 1.45213L6.46614 2.24925H7.30433L6.6262 2.74188Z" fill="#0052B4"/>
</g>
<mask id="mask1_2140_388" style="mask-type:alpha" maskUnits="userSpaceOnUse" x="9" y="8" width="16" height="16">
<path d="M24.7605 17.9353C23.6919 22.221 19.3507 24.8292 15.064 23.7605C10.7791 22.692 8.17053 18.351 9.23964 14.0656C10.3078 9.77938 14.649 7.17091 18.9344 8.2394C23.2209 9.30789 25.8292 13.6493 24.7605 17.9353Z" fill="#FF0000"/>
</mask>
<g mask="url(#mask1_2140_388)">
<path d="M24.7605 17.9353C23.6919 22.221 19.3507 24.8292 15.064 23.7605C10.7791 22.692 8.17053 18.351 9.23964 14.0656C10.3078 9.77938 14.649 7.17091 18.9344 8.2394C23.2209 9.30789 25.8292 13.6493 24.7605 17.9353Z" fill="#FF0000"/>
<path d="M11 10H23V22H11V10ZM17.225 21.075L17.1125 18.9175C17.1109 18.882 17.1172 18.8466 17.1311 18.8139C17.1449 18.7812 17.1659 18.752 17.1926 18.7285C17.2192 18.705 17.2507 18.6878 17.2849 18.6781C17.3191 18.6684 17.355 18.6665 17.39 18.6725L19.5375 19.05L19.2475 18.25C19.2357 18.2182 19.2342 18.1835 19.2432 18.1507C19.2522 18.118 19.2712 18.0889 19.2975 18.0675L21.65 16.1625L21.12 15.915C21.0842 15.8981 21.0558 15.8687 21.0402 15.8323C21.0245 15.796 21.0227 15.7551 21.035 15.7175L21.5 14.2875L20.145 14.575C20.1083 14.5827 20.0701 14.5774 20.0368 14.5601C20.0035 14.5427 19.9773 14.5145 19.9625 14.48L19.7 13.8625L18.6425 14.9975C18.6183 15.023 18.5865 15.04 18.5519 15.0459C18.5172 15.0518 18.4816 15.0463 18.4503 15.0303C18.4191 15.0142 18.3939 14.9884 18.3785 14.9568C18.3631 14.9252 18.3584 14.8895 18.365 14.855L18.875 12.225L18.0575 12.6975C18.0383 12.7087 18.017 12.7159 17.9949 12.7186C17.9728 12.7213 17.9504 12.7194 17.9291 12.7131C17.9078 12.7068 17.888 12.6961 17.8709 12.6818C17.8539 12.6675 17.84 12.6499 17.83 12.63L17 11L16.17 12.63C16.16 12.6499 16.1461 12.6675 16.1291 12.6818C16.112 12.6961 16.0922 12.7068 16.0709 12.7131C16.0496 12.7194 16.0272 12.7213 16.0051 12.7186C15.983 12.7159 15.9617 12.7087 15.9425 12.6975L15.125 12.225L15.635 14.855C15.6416 14.8895 15.6369 14.9252 15.6215 14.9568C15.6061 14.9884 15.5809 15.0142 15.5497 15.0303C15.5184 15.0463 15.4828 15.0518 15.4481 15.0459C15.4135 15.04 15.3817 15.023 15.3575 14.9975L14.3 13.8625L14.0375 14.48C14.0227 14.5145 13.9965 14.5427 13.9632 14.5601C13.9299 14.5774 13.8917 14.5827 13.855 14.575L12.5 14.2875L12.965 15.7175C12.9773 15.7551 12.9755 15.796 12.9598 15.8323C12.9442 15.8687 12.9158 15.8981 12.88 15.915L12.35 16.1625L14.7025 18.0675C14.7288 18.0889 14.7478 18.118 14.7568 18.1507C14.7658 18.1835 14.7643 18.2182 14.7525 18.25L14.4625 19.05L16.61 18.6725C16.645 18.6665 16.6809 18.6684 16.7151 18.6781C16.7493 18.6878 16.7808 18.705 16.8074 18.7285C16.8341 18.752 16.8551 18.7812 16.8689 18.8139C16.8828 18.8466 16.8891 18.882 16.8875 18.9175L16.775 21.075H17.225Z" fill="white"/>
<rect x="11" y="7" width="12" height="5" fill="white"/>
<rect x="11" y="22" width="12" height="5" fill="white"/>
</g>
</svg>
