<svg width="25" height="25" viewBox="0 0 25 25" fill="none" xmlns="http://www.w3.org/2000/svg">
<mask id="mask0_2140_361" style="mask-type:alpha" maskUnits="userSpaceOnUse" x="0" y="1" width="16" height="16">
<path d="M15.4648 6.11711C10.6708 6.85574 7 10.9992 7 16C7 16.3182 7.01486 16.6329 7.04392 16.9435C3.07637 16.471 0 13.0947 0 9C0 4.58172 3.58172 1 8 1C11.4019 1 14.3079 3.12339 15.4648 6.11711Z" fill="white"/>
</mask>
<g mask="url(#mask0_2140_361)">
<path d="M15.4648 6.11711C10.6708 6.85574 7 10.9992 7 16C7 16.3182 7.01486 16.6329 7.04392 16.9435C3.07637 16.471 0 13.0947 0 9C0 4.58172 3.58172 1 8 1C11.4019 1 14.3079 3.12339 15.4648 6.11711Z" fill="white"/>
<path d="M7.65222 8.99995H16C16 8.27793 15.9038 7.57846 15.7244 6.91309H7.65222V8.99995Z" fill="#D80027"/>
<path d="M7.65222 4.82613H14.8258C14.3361 4.02704 13.71 3.32073 12.9799 2.73926H7.65222V4.82613Z" fill="#D80027"/>
<path d="M8.00025 16.9998C9.88302 16.9998 11.6136 16.3491 12.9801 15.2607H3.02039C4.38694 16.3491 6.11747 16.9998 8.00025 16.9998Z" fill="#D80027"/>
<path d="M1.17435 13.1728H14.8259C15.2191 12.5313 15.524 11.8301 15.7245 11.0859H0.275757C0.476288 11.8301 0.781193 12.5313 1.17435 13.1728Z" fill="#D80027"/>
<path d="M3.70574 2.24925H4.43477L3.75665 2.74188L4.01568 3.539L3.33759 3.04637L2.65949 3.539L2.88324 2.85038C2.28618 3.3477 1.76287 3.93036 1.33162 4.57958H1.56521L1.13356 4.89316C1.06631 5.00534 1.00181 5.1193 0.939998 5.23495L1.14612 5.86933L0.761561 5.58993C0.665967 5.79246 0.57853 5.99954 0.499936 6.21094L0.727029 6.9099H1.56521L0.887091 7.40253L1.14612 8.19965L0.46803 7.70702L0.0618436 8.00213C0.0211874 8.32893 0 8.66179 0 8.99961H7.99998C7.99998 4.58158 7.99998 4.06073 7.99998 1C6.41961 1 4.94639 1.45842 3.70574 2.24925ZM4.01568 8.19965L3.33759 7.70702L2.65949 8.19965L2.91852 7.40253L2.2404 6.9099H3.07859L3.33759 6.11278L3.59658 6.9099H4.43477L3.75665 7.40253L4.01568 8.19965ZM3.75665 5.07221L4.01568 5.86933L3.33759 5.37669L2.65949 5.86933L2.91852 5.07221L2.2404 4.57958H3.07859L3.33759 3.78246L3.59658 4.57958H4.43477L3.75665 5.07221ZM6.88523 8.19965L6.20714 7.70702L5.52905 8.19965L5.78808 7.40253L5.10996 6.9099H5.94814L6.20714 6.11278L6.46614 6.9099H7.30433L6.6262 7.40253L6.88523 8.19965ZM6.6262 5.07221L6.88523 5.86933L6.20714 5.37669L5.52905 5.86933L5.78808 5.07221L5.10996 4.57958H5.94814L6.20714 3.78246L6.46614 4.57958H7.30433L6.6262 5.07221ZM6.6262 2.74188L6.88523 3.539L6.20714 3.04637L5.52905 3.539L5.78808 2.74188L5.10996 2.24925H5.94814L6.20714 1.45213L6.46614 2.24925H7.30433L6.6262 2.74188Z" fill="#0052B4"/>
</g>
<path d="M24.7605 17.9353C23.6919 22.221 19.3507 24.8292 15.064 23.7605C10.7791 22.692 8.17053 18.351 9.23964 14.0656C10.3078 9.77938 14.649 7.17091 18.9344 8.2394C23.2209 9.30789 25.8292 13.6493 24.7605 17.9353Z" fill="white"/>
<circle cx="17" cy="16" r="4" fill="#D50A2D"/>
</svg>
