<svg width="45" height="45" viewBox="0 0 45 45" fill="none" xmlns="http://www.w3.org/2000/svg">
<circle opacity="0.2" cx="22.5" cy="22.5" r="22.5" fill="#131827"/>
<path fill-rule="evenodd" clip-rule="evenodd" d="M31.387 10.2062C31.8182 9.8823 32.0976 9.36307 32.0976 8.77778C32.0976 7.79594 31.3113 7 30.3415 7C29.4459 7 28.707 7.6786 28.599 8.55556H15.401C15.293 7.6786 14.5541 7 13.6585 7C12.6887 7 11.9024 7.79594 11.9024 8.77778C11.9024 9.36307 12.1818 9.8823 12.613 10.2062L6.4192 21.3533C6.2146 21.2688 5.99072 21.2222 5.7561 21.2222C4.78623 21.2222 4 22.0182 4 23C4 23.9818 4.78623 24.7778 5.7561 24.7778C5.99072 24.7778 6.2146 24.7312 6.4192 24.6467L12.613 35.7938C12.1818 36.1177 11.9024 36.6369 11.9024 37.2222C11.9024 38.2041 12.6887 39 13.6585 39C14.5541 39 15.293 38.3214 15.401 37.4444H28.599C28.707 38.3214 29.4459 39 30.3415 39C31.3113 39 32.0976 38.2041 32.0976 37.2222C32.0976 36.6369 31.8182 36.1177 31.387 35.7938L37.5808 24.6467C37.7854 24.7312 38.0093 24.7778 38.2439 24.7778C39.2138 24.7778 40 23.9818 40 23C40 22.0182 39.2138 21.2222 38.2439 21.2222C38.0093 21.2222 37.7854 21.2688 37.5808 21.3533L31.387 10.2062ZM13.6585 10.5556C13.4239 10.5556 13.2 10.509 12.9954 10.4245L6.80167 21.5715C7.2328 21.8955 7.5122 22.4147 7.5122 23C7.5122 23.5853 7.2328 24.1045 6.80167 24.4285L12.9954 35.5755C13.2 35.491 13.4239 35.4444 13.6585 35.4444C14.5541 35.4444 15.293 36.123 15.401 37H28.599C28.707 36.123 29.4459 35.4444 30.3415 35.4444C30.5761 35.4444 30.8 35.491 31.0046 35.5755L37.1983 24.4285C36.7672 24.1045 36.4878 23.5853 36.4878 23C36.4878 22.4147 36.7672 21.8955 37.1983 21.5715L31.0046 10.4245C30.8 10.509 30.5761 10.5556 30.3415 10.5556C29.4459 10.5556 28.707 9.87696 28.599 9H15.401C15.293 9.87696 14.5541 10.5556 13.6585 10.5556ZM25.0732 15.8889C25.5581 15.8889 25.9512 15.4909 25.9512 15C25.9512 14.5091 25.5581 14.1111 25.0732 14.1111C24.5882 14.1111 24.1951 14.5091 24.1951 15C24.1951 15.1816 24.2489 15.3504 24.3412 15.4911L17.5764 23.1004C17.4551 23.0362 17.3171 23 17.1707 23C16.6858 23 16.2927 23.398 16.2927 23.8889C16.2927 24.3798 16.6858 24.7778 17.1707 24.7778C17.5492 24.7778 17.8717 24.5354 17.9951 24.1957L21.2488 24.5251L19.0388 30.1183C19.0021 30.1135 18.9648 30.1111 18.9268 30.1111C18.4419 30.1111 18.0488 30.5091 18.0488 31C18.0488 31.4909 18.4419 31.8889 18.9268 31.8889C19.4118 31.8889 19.8049 31.4909 19.8049 31C19.8049 30.8034 19.7418 30.6217 19.6351 30.4746L26.4607 22.0292C26.5727 22.0818 26.6976 22.1111 26.8293 22.1111C27.3142 22.1111 27.7073 21.7131 27.7073 21.2222C27.7073 20.7313 27.3142 20.3333 26.8293 20.3333C26.4201 20.3333 26.0764 20.6166 25.9789 21H23.1895L24.9939 15.8853C25.02 15.8877 25.0465 15.8889 25.0732 15.8889ZM25.9789 21.4444H22.878H22.5666L22.6713 21.1475L24.4924 15.9854L17.9027 23.3977C17.9716 23.5028 18.019 23.6235 18.0386 23.7534L21.5828 24.1122L21.8732 24.1416L21.7648 24.4159L19.6607 29.7411L26.121 21.7477C26.0559 21.6579 26.0071 21.5554 25.9789 21.4444Z" fill="white"/>
</svg>
