<svg width="22" height="18" viewBox="0 0 22 18" fill="none" xmlns="http://www.w3.org/2000/svg">
<path d="M11 7.40384C17.0751 7.40384 22 5.74643 22 3.70192C22 1.65741 17.0751 0 11 0C4.92487 0 0 1.65741 0 3.70192C0 5.74643 4.92487 7.40384 11 7.40384Z" fill="#59648A"/>
<path d="M19.4739 8.42662C17.1778 9.1993 14.1684 9.62488 11 9.62488C7.83157 9.62488 4.82217 9.1993 2.52613 8.42662C1.47538 8.07302 0.64827 7.67113 0 7.24481V8.81043C0 9.79923 1.14413 10.7289 3.22184 11.4281C5.29942 12.1273 8.06175 12.5124 11 12.5124C13.9382 12.5124 16.7006 12.1273 18.7782 11.4281C20.8558 10.7289 22 9.79923 22 8.81043V7.24481C21.3517 7.67113 20.5246 8.07293 19.4739 8.42662Z" fill="#59648A"/>
<path d="M19.4739 13.5351C17.1779 14.3077 14.1684 14.7333 11 14.7333C7.83157 14.7333 4.82212 14.3077 2.52613 13.535C1.47533 13.1814 0.648227 12.7796 0 12.3533V14.067C0 16.1115 4.92486 17.7689 11 17.7689C17.0751 17.7689 22 16.1115 22 14.067V12.3533C21.3518 12.7796 20.5247 13.1815 19.4739 13.5351Z" fill="#59648A"/>
</svg>
