<svg width="20" height="21" viewBox="0 0 20 21" fill="none" xmlns="http://www.w3.org/2000/svg">
<path fill-rule="evenodd" clip-rule="evenodd" d="M18.5998 17.4682L18.0591 17.4682H13.2864L13.2864 20.3318C13.2864 20.7008 12.9872 21 12.6182 21H1.54544C1.17641 21 0.877254 20.7008 0.877254 20.3318V6.39658C0.877254 6.02758 1.17637 5.72844 1.54537 5.7284L11.5127 5.72744L7.84544 2.13623V5.72729H6.60453V1.24092V0.700011C6.60453 0.313412 6.91793 1.10324e-05 7.30453 1.10324e-05H7.84544L18.0589 0H18.5998C18.9864 0 19.2998 0.313401 19.2998 0.7V16.7682C19.2998 17.1548 18.9864 17.4682 18.5998 17.4682ZM8.70478 1.24092L18.0589 1.24092L18.0589 16.2273H13.2864V13.65H15.5295C15.8722 13.65 16.15 13.3722 16.15 13.0296C16.15 12.6869 15.8722 12.4091 15.5295 12.4091H13.2864V10.7864H15.5295C15.8722 10.7864 16.15 10.5086 16.15 10.1659C16.15 9.82325 15.8722 9.54546 15.5295 9.54546H13.2864V7.92273H15.5295C15.8722 7.92273 16.15 7.64494 16.15 7.30228C16.15 6.95961 15.8722 6.68182 15.5295 6.68182H13.2864V6.02153C13.2864 5.83333 13.2106 5.65306 13.0761 5.52139L12.604 5.05909H15.5295C15.8721 5.05909 16.1499 4.78131 16.1499 4.43864C16.1499 4.09597 15.8721 3.81818 15.5295 3.81818H11.4104C11.3869 3.81818 11.3636 3.8195 11.3407 3.82206L8.70478 1.24092ZM11.3775 10.5C11.3775 11.0272 10.9501 11.4546 10.4229 11.4546C9.89575 11.4546 9.46839 11.0272 9.46839 10.5C9.46839 9.97284 9.89575 9.54548 10.4229 9.54548C10.9501 9.54548 11.3775 9.97284 11.3775 10.5ZM6.41443 12.4856L8.16816 14.508L8.96192 13.7683C9.06559 13.6651 9.21873 13.6132 9.37172 13.6213L9.37349 13.6214C9.52406 13.6321 9.66625 13.6984 9.75639 13.809L11.3638 15.5627C11.4856 15.7024 11.5085 15.8904 11.4175 16.0503C11.3309 16.2085 11.1532 16.3073 10.9608 16.3225L10.9533 16.3231L3.20301 16.3228C3.01025 16.3076 2.83227 16.2081 2.74589 16.0494C2.65659 15.8847 2.67847 15.6936 2.79827 15.5477L2.80144 15.5438L5.59595 12.4808C5.6974 12.3761 5.84617 12.3175 5.99992 12.3142C6.15905 12.3073 6.31776 12.3684 6.41443 12.4856ZM4.27306 15.444H7.635L6.00098 13.5508L4.27306 15.444ZM8.79759 15.2755L8.92715 15.444H9.894L9.31764 14.7982L8.79759 15.2755Z" fill="#59648A"/>
</svg>
