<svg width="10" height="10" viewBox="0 0 10 10" fill="none" xmlns="http://www.w3.org/2000/svg">
<g clip-path="url(#clip0_4929_63066)">
<path d="M9.54499 2.27225H1.55144L3.0482 0.775465C3.22571 0.59798 3.22571 0.310163 3.0482 0.132648C2.87071 -0.044867 2.58289 -0.044867 2.40538 0.132648L0.132648 2.40537C-0.0448671 2.58286 -0.0448671 2.87067 0.132648 3.04819L2.40538 5.32091C2.49414 5.40967 2.61047 5.45406 2.7268 5.45406C2.84314 5.45406 2.95947 5.40967 3.0482 5.32091C3.22571 5.14343 3.22571 4.85561 3.0482 4.67809L1.55144 3.18134H9.54499C9.79602 3.18134 9.99954 2.97782 9.99954 2.72679C9.99954 2.47576 9.79602 2.27225 9.54499 2.27225Z" fill="white"/>
<path d="M7.59412 4.67852C7.41664 4.50104 7.12882 4.50104 6.9513 4.67852C6.77379 4.85601 6.77379 5.14383 6.9513 5.32134L8.44809 6.81813H0.454545C0.203515 6.81813 0 7.02165 0 7.27268C0 7.52371 0.203515 7.72723 0.454545 7.72723H8.44809L6.95133 9.22402C6.77382 9.4015 6.77382 9.68932 6.95133 9.86684C7.04006 9.95556 7.15639 9.99996 7.27273 9.99996C7.38906 9.99996 7.50539 9.95556 7.59412 9.86681L9.86685 7.59407C10.0444 7.41659 10.0444 7.12877 9.86685 6.95126L7.59412 4.67852Z" fill="white"/>
</g>
<defs>
<clipPath id="clip0_4929_63066">
<rect width="10" height="10" fill="white"/>
</clipPath>
</defs>
</svg>
