<svg width="22" height="22" viewBox="0 0 22 22" fill="none" xmlns="http://www.w3.org/2000/svg">
<g clip-path="url(#clip0_2140:430)">
<path d="M20.7007 13.4191C19.3649 18.7763 13.9384 22.0365 8.58001 20.7006C3.22382 19.365 -0.0368415 13.9388 1.29955 8.58198C2.63469 3.22423 8.06121 -0.0363659 13.418 1.29925C18.7761 2.63486 22.0364 8.06168 20.7007 13.4191Z" fill="#F08F1C"/>
<path d="M15.4095 9.57526C15.6086 8.24465 14.5954 7.52934 13.2099 7.05216L13.6593 5.24968L12.562 4.97625L12.1245 6.73123C11.836 6.65935 11.5397 6.59154 11.2453 6.52435L11.686 4.75781L10.5893 4.48438L10.1396 6.28623C9.90082 6.23186 9.66642 6.17811 9.43889 6.12155L9.44014 6.11592L7.92686 5.73811L7.63495 6.90998C7.63495 6.90998 8.4491 7.09654 8.43191 7.1081C8.87633 7.21903 8.95666 7.51309 8.94322 7.74622L8.43129 9.79963C8.46191 9.80745 8.50161 9.8187 8.54536 9.8362C8.50879 9.82713 8.46973 9.81713 8.42941 9.80745L7.71183 12.684C7.65745 12.819 7.51963 13.0215 7.20897 12.9446C7.21991 12.9605 6.41138 12.7455 6.41138 12.7455L5.86664 14.0015L7.2946 14.3574C7.56026 14.424 7.8206 14.4936 8.07687 14.5593L7.62276 16.3824L8.71882 16.6558L9.16855 14.8521C9.46796 14.9333 9.75862 15.0083 10.043 15.079L9.59485 16.8742L10.6922 17.1477L11.1463 15.328C13.0174 15.6821 14.4244 15.5393 15.0167 13.8471C15.4939 12.4846 14.9929 11.6987 14.0084 11.1862C14.7254 11.0209 15.2655 10.5493 15.4095 9.57526ZM12.9024 13.0905C12.5633 14.453 10.269 13.7165 9.52515 13.5318L10.1277 11.1165C10.8715 11.3021 13.2568 11.6696 12.9024 13.0905ZM13.2418 9.55557C12.9324 10.7949 11.0228 10.1653 10.4034 10.0109L10.9497 7.82028C11.5691 7.97465 13.564 8.26277 13.2418 9.55557Z" fill="white"/>
</g>
<defs>
<clipPath id="clip0_2140:430">
<rect width="22" height="22" fill="white"/>
</clipPath>
</defs>
</svg>
