<svg width="22" height="22" viewBox="0 0 22 22" fill="none" xmlns="http://www.w3.org/2000/svg">
<path d="M20.7006 13.4191C19.3649 18.7762 13.9384 22.0365 8.57999 20.7006C3.22381 19.365 -0.0368388 13.9388 1.29955 8.58196C2.63469 3.22422 8.06119 -0.0363632 13.418 1.29924C18.7761 2.63485 22.0364 8.06166 20.7006 13.4191Z" fill="#3351C2"/>
<path d="M11.0018 3.50195L15.6049 11.1405L11.0018 9.04835V3.50195Z" fill="white"/>
<path d="M11.0018 9.0459L15.6049 11.1381L11.0018 13.8597V9.0459Z" fill="#C1CCF7"/>
<path d="M6.39782 11.1386L11.0018 3.5V9.0464L6.39782 11.1386Z" fill="#C1CCF7"/>
<path d="M11.0018 13.8597L6.39782 11.1381L11.0018 9.0459V13.8597Z" fill="#8198EE"/>
<path d="M15.6049 12.0117L11.0018 18.4989V14.7316L15.6049 12.0117Z" fill="white"/>
<path d="M11.0018 14.7316V18.4989L6.39526 12.0117L11.0018 14.7316Z" fill="#C1CCF7"/>
</svg>
