<svg width="22" height="22" viewBox="0 0 22 22" fill="none" xmlns="http://www.w3.org/2000/svg">
<g clip-path="url(#clip0_2146:3722)">
<path d="M11 19.9184C15.925 19.9184 19.9176 15.9258 19.9176 11.0007C19.9176 6.07559 15.925 2.08301 11 2.08301C6.07485 2.08301 2.08228 6.07559 2.08228 11.0007C2.08228 15.9258 6.07485 19.9184 11 19.9184Z" fill="white"/>
<path d="M11 1C9.02219 1 7.08879 1.58649 5.4443 2.6853C3.79981 3.78412 2.51809 5.3459 1.76121 7.17317C1.00433 9.00043 0.806299 11.0111 1.19215 12.9509C1.578 14.8907 2.53041 16.6725 3.92894 18.0711C5.32746 19.4696 7.10929 20.422 9.0491 20.8079C10.9889 21.1937 12.9996 20.9957 14.8268 20.2388C16.6541 19.4819 18.2159 18.2002 19.3147 16.5557C20.4135 14.9112 21 12.9778 21 11C21.0038 9.69059 20.7497 8.39326 20.2521 7.18207C19.7546 5.97087 19.0233 4.86954 18.1001 3.94096C17.1769 3.01237 16.0799 2.27471 14.8716 1.7701C13.6634 1.26549 12.3675 1.00381 11.0581 1H11ZM11.1695 11.339L10.1283 14.8499H15.6973C15.7342 14.8486 15.771 14.8546 15.8056 14.8675C15.8402 14.8804 15.8718 14.9001 15.8988 14.9252C15.9258 14.9504 15.9476 14.9807 15.9629 15.0143C15.9781 15.0479 15.9866 15.0842 15.9879 15.1211V15.2131L15.5036 16.8838C15.4823 16.9628 15.4347 17.0322 15.3687 17.0806C15.3027 17.129 15.2222 17.1535 15.1404 17.1501H6.61744L8.04601 12.2833L6.44795 12.7676L6.81114 11.6538L8.40921 11.1695L10.4189 4.3414C10.441 4.26284 10.4888 4.19394 10.5546 4.14567C10.6204 4.0974 10.7005 4.07255 10.7821 4.07506H12.9371C12.9739 4.07377 13.0107 4.07976 13.0453 4.09269C13.0799 4.10562 13.1116 4.12524 13.1385 4.15043C13.1655 4.17561 13.1873 4.20587 13.2026 4.23947C13.2178 4.27307 13.2264 4.30936 13.2276 4.34625V4.43826L11.5327 10.201L13.1308 9.71671L12.7918 10.8789L11.1695 11.339Z" fill="#345D9D"/>
</g>
<defs>
<clipPath id="clip0_2146:3722">
<rect width="20" height="20" fill="white" transform="translate(1 1)"/>
</clipPath>
</defs>
</svg>
