<svg width="21" height="21" viewBox="0 0 21 21" fill="none" xmlns="http://www.w3.org/2000/svg">
<g clip-path="url(#clip0_2784_28106)">
<path d="M13.1864 7.95469L10.0875 7.18011L2.43748 10.3512L0.839844 13.5468L6.26419 15.1047L14.7355 11.49L13.1864 7.95469Z" fill="#C9D0DE"/>
<path d="M13.1868 7.95551L5.48828 11.2243L6.26458 15.1055L14.7359 11.4908L13.1868 7.95551Z" fill="#617CAE"/>
<path d="M5.48725 11.2239L2.43683 10.3516L0.839844 13.5472L6.26355 15.1051L5.48725 11.2239Z" fill="#8CA5D4"/>
<path d="M18.6102 9.51341L15.5113 8.73849L7.8613 11.9099L6.26367 15.1058L11.6879 16.6624L20.1593 13.048L18.6102 9.51341Z" fill="#C9D0DE"/>
<path d="M18.6106 9.51205L10.9121 12.7798L11.6884 16.661L20.1598 13.0467L18.6106 9.51205Z" fill="#617CAE"/>
<path d="M10.9117 12.7795L7.86131 11.9082L6.26367 15.1041L11.6879 16.6607L10.9117 12.7795Z" fill="#8CA5D4"/>
<path d="M15.1745 5.49002L12.0762 4.71548L5.31968 7.51793L3.72266 10.7135L9.147 12.2708L16.7242 9.02492L15.1745 5.49002Z" fill="#C9D0DE"/>
<path d="M15.1748 5.48984L8.37109 8.38934L9.14735 12.2706L16.7246 9.02474L15.1748 5.48984Z" fill="#617CAE"/>
<path d="M8.37075 8.38883L5.31968 7.51724L3.72266 10.7129L9.14701 12.2701L8.37075 8.38883Z" fill="#8CA5D4"/>
</g>
<defs>
<clipPath id="clip0_2784_28106">
<rect width="19.32" height="19.32" fill="white" transform="translate(0.839844 0.839996)"/>
</clipPath>
</defs>
</svg>
