<svg width="20" height="20" viewBox="0 0 20 20" fill="none" xmlns="http://www.w3.org/2000/svg">
<path d="M10 20C15.5417 20 20 15.5417 20 10C20 4.4583 15.5417 0 10 0C4.4583 0 0 4.4583 0 10C0 15.5417 4.4583 20 10 20Z" fill="#2775CA"/>
<path d="M12.7503 11.584C12.7503 10.1257 11.8753 9.62568 10.1253 9.41738C8.87529 9.25068 8.62529 8.91738 8.62529 8.33398C8.62529 7.75058 9.04199 7.37568 9.87529 7.37568C10.6253 7.37568 11.042 7.62568 11.2503 8.25068C11.292 8.37568 11.417 8.45898 11.542 8.45898H12.2086C12.3753 8.45898 12.5003 8.33398 12.5003 8.16738V8.12568C12.3336 7.20898 11.5836 6.50068 10.6253 6.41738V5.41738C10.6253 5.25068 10.5003 5.12568 10.292 5.08398H9.66699C9.50029 5.08398 9.37529 5.20898 9.33359 5.41738V6.37568C8.08359 6.54238 7.29199 7.37568 7.29199 8.41738C7.29199 9.79238 8.12529 10.334 9.87529 10.5424C11.042 10.7507 11.417 11.0007 11.417 11.6674C11.417 12.3341 10.8336 12.7924 10.042 12.7924C8.95859 12.7924 8.58359 12.334 8.45859 11.709C8.41699 11.5424 8.29199 11.459 8.16699 11.459H7.45859C7.29199 11.459 7.16699 11.584 7.16699 11.7507V11.7924C7.33359 12.834 8.00029 13.584 9.37529 13.7924V14.7924C9.37529 14.959 9.50029 15.084 9.70859 15.1257H10.3336C10.5003 15.1257 10.6253 15.0007 10.667 14.7924V13.7924C11.917 13.584 12.7503 12.709 12.7503 11.584Z" fill="white"/>
<path d="M7.87484 15.9588C4.62484 14.7922 2.95814 11.1672 4.16654 7.95884C4.79154 6.20884 6.16654 4.87554 7.87484 4.25054C8.04154 4.16724 8.12484 4.04224 8.12484 3.83384V3.25054C8.12484 3.08384 8.04154 2.95884 7.87484 2.91724C7.83314 2.91724 7.74984 2.91724 7.70814 2.95884C3.74984 4.20884 1.58314 8.41724 2.83314 12.3755C3.58314 14.7088 5.37484 16.5005 7.70814 17.2505C7.87484 17.3338 8.04154 17.2505 8.08314 17.0838C8.12484 17.0422 8.12484 17.0005 8.12484 16.9172V16.3338C8.12484 16.2088 7.99984 16.0422 7.87484 15.9588ZM12.2915 2.95884C12.1248 2.87554 11.9581 2.95884 11.9165 3.12554C11.8748 3.16724 11.8748 3.20884 11.8748 3.29224V3.87554C11.8748 4.04224 11.9998 4.20884 12.1248 4.29224C15.3748 5.45884 17.0415 9.08384 15.8331 12.2922C15.2081 14.0422 13.8331 15.3755 12.1248 16.0005C11.9581 16.0838 11.8748 16.2088 11.8748 16.4172V17.0005C11.8748 17.1672 11.9581 17.2922 12.1248 17.3338C12.1665 17.3338 12.2498 17.3338 12.2915 17.2922C16.2498 16.0422 18.4165 11.8338 17.1665 7.87554C16.4165 5.50054 14.5831 3.70884 12.2915 2.95884Z" fill="white"/>
</svg>
