<svg width="22" height="22" viewBox="0 0 22 22" fill="none" xmlns="http://www.w3.org/2000/svg">
<path d="M20.7007 13.4191C19.3649 18.7763 13.9384 22.0365 8.58001 20.7006C3.22382 19.365 -0.0368415 13.9388 1.29955 8.58198C2.63469 3.22423 8.06121 -0.0363659 13.418 1.29925C18.7761 2.63486 22.0364 8.06168 20.7007 13.4191Z" fill="#1D95C9"/>
<g clip-path="url(#clip0_2146:3721)">
<path d="M17.1865 3.89062H19.7157L14.4521 9.10235C12.5459 10.9887 9.45534 10.9887 7.54777 9.10235L2.28204 3.89062H4.81339L8.81242 7.84966C9.39508 8.42392 10.1803 8.74583 10.9984 8.74583C11.8165 8.74583 12.6017 8.42392 13.1843 7.84966L17.1865 3.89062Z" fill="white"/>
<path d="M4.78101 18.3823H2.25L7.54786 13.1384C9.45406 11.252 12.5446 11.252 14.4522 13.1384L19.75 18.3823H17.2207L13.1875 14.3911C12.6049 13.8168 11.8196 13.4949 11.0015 13.4949C10.1835 13.4949 9.39824 13.8168 8.81558 14.3911L4.78101 18.3823Z" fill="white"/>
</g>
<defs>
<clipPath id="clip0_2146:3721">
<rect width="12.5" height="10" fill="white" transform="translate(4.75 6)"/>
</clipPath>
</defs>
</svg>
