<svg width="17" height="15" viewBox="0 0 17 15" fill="none" xmlns="http://www.w3.org/2000/svg">
<path d="M10.888 2.06095L11.3581 2.23135C11.3758 2.23773 11.3876 2.25432 11.3876 2.27282C11.3876 2.29134 11.3758 2.30793 11.3582 2.3143L10.8881 2.48476C10.5075 2.62265 10.2075 2.91748 10.0672 3.29158L9.89376 3.75363C9.88727 3.77099 9.87039 3.78253 9.85156 3.78253C9.83272 3.78253 9.81584 3.77099 9.80936 3.75363L9.63599 3.29163C9.49565 2.91754 9.19563 2.62265 8.81502 2.48471L8.34493 2.31425C8.32727 2.30788 8.31553 2.29129 8.31553 2.27277C8.31553 2.25426 8.32727 2.23767 8.34493 2.2313L8.81508 2.06089C9.19563 1.92295 9.49565 1.62807 9.63599 1.25402L9.80936 0.792079C9.81584 0.774718 9.83272 0.763184 9.85156 0.763184C9.87039 0.763184 9.88727 0.774718 9.89376 0.792133L10.0672 1.25413C10.2075 1.62817 10.5074 1.92301 10.888 2.06095Z" fill="#59648A"/>
<path d="M3.65113 7.82243L3.28539 6.84774C2.98934 6.05861 2.3565 5.43664 1.55369 5.14571L0.562037 4.78622C0.524759 4.77271 0.5 4.73777 0.5 4.69872C0.5 4.65965 0.524759 4.62472 0.562037 4.6112L1.55375 4.25171C2.35655 3.96073 2.98934 3.33876 3.28539 2.54975L3.65113 1.57505C3.66488 1.53841 3.70042 1.51407 3.74016 1.51407C3.7799 1.51407 3.81545 1.53841 3.8292 1.57505L4.19494 2.54975C4.49093 3.33876 5.12377 3.96073 5.92652 4.25171L6.91823 4.6112C6.95551 4.62472 6.98027 4.65965 6.98027 4.69872C6.98027 4.73777 6.95551 4.77271 6.91823 4.78622L5.92658 5.14571C5.12383 5.43664 4.49098 6.05866 4.19494 6.84774L3.8292 7.82243C3.81545 7.85912 3.7799 7.88346 3.74016 7.88346C3.70042 7.88346 3.66488 7.85912 3.65113 7.82243Z" fill="#59648A"/>
<path d="M10.3338 10.6052L11.3254 10.9646C11.3627 10.9781 11.3875 11.0131 11.3875 11.0521C11.3875 11.0912 11.3628 11.1261 11.3255 11.1396L10.3338 11.4992C9.53103 11.7901 8.89824 12.4121 8.6022 13.2011L8.23645 14.1759C8.2227 14.2125 8.18716 14.2369 8.14742 14.2369C8.10768 14.2369 8.07214 14.2125 8.05839 14.1759L7.69264 13.2011C7.3966 12.4121 6.76381 11.7902 5.96106 11.4992L4.96935 11.1396C4.93207 11.1261 4.90731 11.0912 4.90731 11.0521C4.90731 11.0131 4.93207 10.9781 4.96935 10.9646L5.96101 10.6052C6.76376 10.3142 7.3966 9.69223 7.69264 8.90315L8.05839 7.92851C8.07214 7.89187 8.10768 7.86753 8.14742 7.86753C8.18716 7.86753 8.2227 7.89187 8.23645 7.92851L8.6022 8.9032C8.89819 9.69223 9.53103 10.3142 10.3338 10.6052Z" fill="#59648A"/>
<path d="M16.4578 6.79555L15.7838 6.55126C15.2383 6.3535 14.8082 5.93078 14.607 5.39457L14.3585 4.73217C14.3491 4.70729 14.3249 4.6907 14.2979 4.6907C14.2709 4.6907 14.2468 4.70729 14.2374 4.73217L13.9889 5.39451C13.7877 5.93078 13.3576 6.3535 12.812 6.55126L12.1381 6.79555C12.1128 6.80473 12.0959 6.82845 12.0959 6.85499C12.0959 6.88152 12.1128 6.90531 12.1381 6.91449L12.8121 7.15871C13.3576 7.35653 13.7877 7.77926 13.9889 8.31547L14.2374 8.97797C14.2468 9.00285 14.2709 9.01944 14.2979 9.01944C14.3249 9.01944 14.3491 9.00285 14.3585 8.97797L14.607 8.31547C14.8082 7.7792 15.2382 7.35653 15.7838 7.15878L16.4578 6.91449C16.4831 6.90531 16.5 6.88152 16.5 6.85499C16.5 6.82845 16.4831 6.80473 16.4578 6.79555Z" fill="#59648A"/>
</svg>
