<svg width="113" height="61" viewBox="0 0 113 61" fill="none" xmlns="http://www.w3.org/2000/svg">
<g clip-path="url(#clip0_4929_59843)">
<path d="M30.063 60.1259C46.723 60.1259 60.1259 46.723 60.1259 30.063C60.1259 13.403 46.723 0 30.063 0C13.403 0 0 13.403 0 30.063C0 46.723 13.403 60.1259 30.063 60.1259Z" fill="#2775CA"/>
<path d="M38.3303 34.8229C38.3303 30.4388 35.6998 28.9357 30.4388 28.3095C26.6809 27.8083 25.9293 26.8063 25.9293 25.0524C25.9293 23.2986 27.182 22.1715 29.6872 22.1715C31.9419 22.1715 33.1946 22.9231 33.8208 24.802C33.9462 25.1778 34.322 25.4282 34.6978 25.4282H36.7018C37.2029 25.4282 37.5787 25.0524 37.5787 24.5516V24.4262C37.0776 21.6704 34.8228 19.541 31.9419 19.2906V16.2843C31.9419 15.7831 31.5661 15.4073 30.9399 15.282H29.061C28.5598 15.282 28.184 15.6578 28.0587 16.2843V19.1652C24.3008 19.6664 21.921 22.1715 21.921 25.3032C21.921 29.4368 24.4262 31.065 29.6872 31.6916C33.1946 32.3178 34.322 33.0693 34.322 35.0736C34.322 37.0779 32.5681 38.4557 30.1883 38.4557C26.9313 38.4557 25.8039 37.0776 25.4282 35.1987C25.3031 34.6979 24.9273 34.4471 24.5515 34.4471H22.4219C21.921 34.4471 21.5452 34.8229 21.5452 35.3241V35.4494C22.0461 38.5808 24.0504 40.8355 28.184 41.462V44.4683C28.184 44.9692 28.5598 45.345 29.186 45.4703H31.065C31.5661 45.4703 31.9419 45.0945 32.0673 44.4683V41.462C35.8251 40.8355 38.3303 38.205 38.3303 34.8229Z" fill="white"/>
<path d="M23.6746 47.9755C13.9041 44.4683 8.89354 33.5705 12.5263 23.9251C14.4053 18.6641 18.5389 14.6558 23.6746 12.7768C24.1757 12.5264 24.4262 12.1506 24.4262 11.5241V9.77055C24.4262 9.2694 24.1757 8.89362 23.6746 8.76855C23.5492 8.76855 23.2988 8.76855 23.1734 8.89362C11.2736 12.6515 4.75988 25.3032 8.51775 37.203C10.7725 44.2176 16.1589 49.604 23.1734 51.8587C23.6746 52.1091 24.1757 51.8587 24.3008 51.3576C24.4262 51.2325 24.4262 51.1071 24.4262 50.8567V49.1028C24.4262 48.727 24.0504 48.2262 23.6746 47.9755ZM36.9525 8.89362C36.4514 8.64319 35.9502 8.89362 35.8251 9.39477C35.6998 9.52013 35.6998 9.64519 35.6998 9.89592V11.6495C35.6998 12.1506 36.0756 12.6515 36.4514 12.9022C46.2218 16.4094 51.2324 27.3072 47.5996 36.9526C45.7207 42.2136 41.587 46.2219 36.4514 48.1008C35.9502 48.3513 35.6998 48.7271 35.6998 49.3536V51.1071C35.6998 51.6083 35.9502 51.9841 36.4514 52.1091C36.5767 52.1091 36.8271 52.1091 36.9525 51.9841C48.8523 48.2262 55.3661 35.5745 51.6082 23.6747C49.3535 16.5347 43.8417 11.1483 36.9525 8.89362Z" fill="white"/>
</g>
<circle cx="82.7467" cy="29.5402" r="29.5402" fill="#20A19C"/>
<path d="M94.2012 9.64575H71.2924L60.4409 28.9373L71.2924 48.2289H94.2012L105.053 28.9373L94.2012 9.64575Z" stroke="white" stroke-width="0.602861"/>
<circle cx="94.2011" cy="9.64582" r="2.41145" fill="white"/>
<circle cx="105.053" cy="28.9373" r="2.41145" fill="white"/>
<circle cx="94.2011" cy="48.2288" r="2.41145" fill="white"/>
<circle cx="71.2924" cy="48.2288" r="2.41145" fill="white"/>
<circle cx="60.4409" cy="28.9373" r="2.41145" fill="white"/>
<circle cx="71.2924" cy="9.64582" r="2.41145" fill="white"/>
<circle cx="86.9667" cy="18.0858" r="1.20572" fill="white"/>
<circle cx="78.5266" cy="39.789" r="1.20572" fill="white"/>
<circle cx="76.1152" cy="30.1432" r="1.20572" fill="white"/>
<circle cx="89.3783" cy="26.526" r="1.20572" fill="white"/>
<path d="M86.9667 18.0859L76.1152 30.1432L82.1438 30.746L78.5267 39.789L89.3782 26.526H83.9524L86.9667 18.0859Z" stroke="white" stroke-width="0.602861"/>
<defs>
<clipPath id="clip0_4929_59843">
<rect width="60.1259" height="60.1259" fill="white"/>
</clipPath>
</defs>
</svg>
