<svg width="15" height="15" viewBox="0 0 15 15" fill="none" xmlns="http://www.w3.org/2000/svg">
<g clip-path="url(#clip0_4942_59385)">
<path d="M14.2131 0.50171C11.4802 0.45271 8.3634 1.88129 6.39057 4.09738C4.50523 4.13296 2.66948 4.90588 1.3179 6.25746C1.23915 6.33504 1.21115 6.45113 1.24557 6.55613C1.28057 6.66171 1.37157 6.73813 1.48123 6.75388L3.7294 7.07588L3.45173 7.38679C3.34848 7.50229 3.35373 7.67788 3.4634 7.78754L7.21248 11.5366C7.26907 11.5932 7.34373 11.6218 7.41898 11.6218C7.4884 11.6218 7.55782 11.5973 7.61323 11.5477L7.92415 11.27L8.24615 13.5182C8.2619 13.6279 8.34823 13.7084 8.45265 13.7434C8.47948 13.7521 8.50748 13.7562 8.53607 13.7562C8.6189 13.7562 8.70348 13.72 8.76182 13.6623C10.0947 12.3294 10.8677 10.4936 10.9032 8.60829C13.1217 6.63138 14.5619 3.51579 14.4983 0.786377C14.4942 0.63121 14.3688 0.505793 14.2131 0.50171ZM11.5251 5.53704C11.241 5.82113 10.8677 5.96346 10.4937 5.96346C10.1198 5.96346 9.74648 5.82113 9.4624 5.53704C8.89423 4.96829 8.89423 4.04313 9.4624 3.47438C10.0312 2.90563 10.9563 2.90563 11.5251 3.47438C12.0938 4.04313 12.0938 4.96888 11.5251 5.53704Z" fill="#59648A"/>
<path d="M2.08903 10.3612C1.46487 10.9854 0.60795 13.8052 0.512283 14.1243C0.481367 14.227 0.50995 14.3384 0.5852 14.4142C0.6412 14.4702 0.715283 14.5 0.7917 14.5C0.8197 14.5 0.8477 14.4959 0.8757 14.4877C1.19478 14.3921 4.01462 13.5351 4.63878 12.911C5.3417 12.208 5.3417 11.0641 4.63878 10.3612C3.93528 9.65828 2.79195 9.65886 2.08903 10.3612Z" fill="#59648A"/>
</g>
<defs>
<clipPath id="clip0_4942_59385">
<rect width="14" height="14" fill="white" transform="translate(0.5 0.5)"/>
</clipPath>
</defs>
</svg>
