<svg width="14" height="15" viewBox="0 0 14 15" fill="none" xmlns="http://www.w3.org/2000/svg">
<g clip-path="url(#clip0_4942_59351)">
<path d="M6.99988 3.39844C4.73841 3.39844 2.89832 5.23854 2.89832 7.5C2.89832 9.76147 4.73841 11.6016 6.99988 11.6016C9.26134 11.6016 11.1014 9.76147 11.1014 7.5C11.1014 5.23854 9.26134 3.39844 6.99988 3.39844Z" fill="#59648A"/>
<path d="M11.2573 9.96094C10.8308 10.7074 10.1991 11.3308 9.45264 11.7656L11.9218 12.4301L11.2573 9.96094Z" fill="#59648A"/>
<path d="M6.99995 0.5L5.73669 2.75036C6.13865 2.63555 6.56516 2.57812 6.99995 2.57812C7.43474 2.57812 7.86128 2.63555 8.26323 2.75036L6.99995 0.5Z" fill="#59648A"/>
<path d="M2.078 2.57812L2.74246 5.03906C3.16905 4.29255 3.78428 3.67732 4.53074 3.24258L2.078 2.57812Z" fill="#59648A"/>
<path d="M2.25037 6.22852L0.00817871 7.5L2.25037 8.77148C2.13552 8.36953 2.07807 7.94297 2.07807 7.5C2.07807 7.057 2.1355 6.63047 2.25037 6.22852Z" fill="#59648A"/>
<path d="M2.74246 9.96094L2.078 12.4301L4.54714 11.7656C3.80066 11.3308 3.16905 10.7074 2.74246 9.96094Z" fill="#59648A"/>
<path d="M6.99991 12.4218C6.55697 12.4218 6.13037 12.3644 5.72021 12.2495L6.99991 14.4999L8.2796 12.2495C7.86945 12.3644 7.44285 12.4218 6.99991 12.4218Z" fill="#59648A"/>
<path d="M9.46533 3.24675C10.2074 3.67865 10.8258 4.29758 11.2567 5.0404L11.9246 2.57935L9.46533 3.24675Z" fill="#59648A"/>
<path d="M13.9918 7.50408L11.751 6.2356C11.8588 6.6399 11.9217 7.06228 11.9217 7.50009C11.9217 7.94128 11.8579 8.36697 11.7485 8.77412L13.9918 7.50408Z" fill="#59648A"/>
</g>
<defs>
<clipPath id="clip0_4942_59351">
<rect width="14" height="14" fill="white" transform="translate(0 0.5)"/>
</clipPath>
</defs>
</svg>
