<svg width="19" height="19" viewBox="0 0 19 19" fill="none" xmlns="http://www.w3.org/2000/svg">
<path d="M18.0891 11.8206C16.8772 16.6807 11.9542 19.6385 7.09298 18.4265C2.23374 17.2148 -0.724395 12.292 0.488006 7.43223C1.69927 2.57157 6.62231 -0.3865 11.4821 0.825192C16.3431 2.03688 19.3009 6.9602 18.0891 11.8206Z" fill="#31A1F2"/>
<path d="M11.7005 7.11789C10.8964 5.79071 10.0021 4.64205 9.5405 4.07546C9.47874 3.99958 9.38606 3.95554 9.28823 3.95557C9.19037 3.95557 9.09772 3.99961 9.03592 4.07549C8.57437 4.64226 7.68004 5.7913 6.87596 7.1186C5.83974 8.82914 5.31433 10.2434 5.31433 11.322C5.31433 13.5131 7.097 15.2958 9.2882 15.2958C11.4794 15.2958 13.2621 13.5131 13.2621 11.322C13.2621 10.2427 12.7367 8.82822 11.7005 7.11789ZM9.83352 13.8322C9.60147 13.8915 9.36061 13.9216 9.11748 13.9216C7.63285 13.9216 6.42503 12.7995 6.42503 11.4204C6.42503 11.0874 6.51289 10.6984 6.6861 10.2642C6.71535 10.1908 6.79872 10.149 6.8809 10.1667C6.96302 10.1844 7.01816 10.256 7.0097 10.3339C6.99958 10.427 6.99443 10.518 6.99443 10.6041C6.99443 12.105 8.20379 13.3618 9.80752 13.5275C9.88733 13.5357 9.9496 13.5954 9.95596 13.6698C9.96235 13.7442 9.91094 13.8123 9.83352 13.8322Z" fill="white"/>
</svg>
