<svg width="22" height="22" viewBox="0 0 22 22" fill="none" xmlns="http://www.w3.org/2000/svg">
<g clip-path="url(#clip0_2146:4095)">
<path fill-rule="evenodd" clip-rule="evenodd" d="M15.0814 1.66333C14.0272 1.25358 11.5789 1 9.98731 1C8.39567 1 5.94737 1.25358 4.89175 1.66333C3.74953 2.1071 3.04181 2.75033 3.04181 3.48942C3.04181 3.77702 3.14931 4.0507 3.34789 4.30273V5.96533L3.32997 5.98543C3.38671 6.05656 3.45689 6.12459 3.53751 6.19263C4.41396 6.92708 7.45353 7.38786 9.59015 7.45589C11.7327 7.52393 14.956 7.19458 16.1937 6.3488C16.3774 6.22355 16.5371 6.08748 16.6715 5.94059V4.24089C16.8402 4.00586 16.9313 3.75383 16.9313 3.48942C16.9313 2.75187 16.2251 2.1071 15.0814 1.66333ZM13.856 2.49295C13.079 2.18797 11.2 2 10 2C8.79998 2 6.92099 2.18797 6.14401 2.49295C5.43735 2.76929 5 3.1278 5 3.5C5 3.87344 5.43735 4.23071 6.14401 4.50705C6.92099 4.81079 8.79998 5 10 5C11.2 5 13.079 4.81203 13.856 4.50705C14.5627 4.23071 15 3.8722 15 3.5C15 3.1278 14.5627 2.76929 13.856 2.49295Z" fill="#1E4971"/>
<path d="M17 8.78483C17 8.56836 16.9657 7.48023 16.8985 7.33488C16.7596 7.47249 16.6043 7.60083 16.4311 7.71834C15.1157 8.6167 11.7984 8.96924 9.57969 8.89811C7.35648 8.82699 4.21687 8.33065 3.26726 7.53434C3.20306 7.48023 3.14334 7.42456 3.08809 7.3658L3.0855 7.37187C3.02897 7.5039 3 7.57158 3 7.78328C3 7.99821 3.12243 8.34766 3.34789 8.60278V12.9836C3.3401 12.9917 3.33345 12.9998 3.32595 13.0088L3.32251 13.013C3.38074 13.0857 3.45241 13.1584 3.53751 13.2295C4.41396 13.9655 7.45353 14.4263 9.59164 14.4943C10.5496 14.5247 11.7237 14.4757 12.8397 14.3366C13.1573 13.6757 13.6484 13.0037 14.4031 11.9799C15.5704 10.3962 16.7546 9.11483 16.7665 9.10207C16.8201 9.04422 16.8928 9.0086 16.9704 9.00137C16.99 8.92259 17 8.84873 17 8.78483Z" fill="#1E4971"/>
<path d="M12.3962 15.8293C12.3476 16.1635 12.3176 16.5362 12.3 16.9711C12.2577 18.0169 12.8462 18.9662 13.6893 19.6802C12.6633 19.8835 11.4212 20 10.0007 20C6.71743 20 3.05524 18.9424 3.05524 17.6358C3.05524 17.3792 3.15827 17.1333 3.34789 16.9029V15.6211C3.12243 15.3644 3 15.0134 3 14.8016C3 14.5983 3.02614 14.5345 3.07577 14.4135L3.08212 14.398C3.13886 14.4583 3.20007 14.5171 3.26726 14.5728C4.21687 15.3691 7.35648 15.8654 9.57969 15.9365C10.4175 15.9634 11.412 15.9298 12.3962 15.8293Z" fill="#1E4971"/>
<path d="M18.6106 12.8325C17.7792 11.7112 16.936 10.804 16.9276 10.7949C16.8846 10.7488 16.8244 10.7227 16.7614 10.7227C16.6983 10.7227 16.6381 10.7488 16.5952 10.7949C16.5867 10.804 15.7434 11.7112 14.9122 12.8325C13.7766 14.3643 13.2009 15.5532 13.2009 16.3665C13.2009 18.3298 14.7982 19.9272 16.7615 19.9272C18.7247 19.9272 20.3221 18.3299 20.3221 16.3665C20.3219 15.5532 19.7461 14.3643 18.6106 12.8325ZM17.1169 18.7749C16.9303 18.819 16.738 18.8414 16.5451 18.8414C15.175 18.8414 14.0602 17.7266 14.0602 16.3564C14.0602 16.1675 14.1183 15.8253 14.3954 15.2676C14.4232 15.2115 14.4874 15.1837 14.5474 15.2015C14.6073 15.2194 14.6458 15.2778 14.6384 15.34C14.632 15.3937 14.6288 15.4442 14.6288 15.4902C14.6288 16.9588 15.6734 18.2346 17.1125 18.5235C17.1719 18.5354 17.2148 18.587 17.2159 18.6475C17.217 18.708 17.1758 18.761 17.1169 18.7749Z" fill="#1E4971"/>
</g>
<defs>
<clipPath id="clip0_2146:4095">
<rect width="22" height="22" fill="white"/>
</clipPath>
</defs>
</svg>
