<svg width="33" height="15" viewBox="0 0 33 15" fill="none" xmlns="http://www.w3.org/2000/svg">
<g filter="url(#filter0_b_7398_92464)">
<path d="M30.6075 4.41045C31.8432 4.7968 32.6846 5.94135 32.6846 7.2361L32.6846 12.6316C32.6846 13.9396 31.6242 15 30.3161 15L2.68458 15C1.37654 15 0.316162 13.9396 0.316162 12.6316L0.316162 7.2361C0.316162 5.94135 1.15751 4.7968 2.39327 4.41045L15.9703 0.165713C16.3154 0.0578123 16.6853 0.0578127 17.0304 0.165714L30.6075 4.41045Z" fill="#F3DE2C"/>
<path d="M30.5191 4.69301C31.6313 5.04073 32.3885 6.07082 32.3885 7.2361L32.3885 12.6316C32.3885 13.7761 31.4607 14.7039 30.3161 14.7039L2.68458 14.7039C1.54004 14.7039 0.612213 13.7761 0.612213 12.6316L0.612213 7.2361C0.612213 6.07082 1.36943 5.04073 2.48161 4.69301L16.0587 0.448278C16.3463 0.358361 16.6545 0.358361 16.9421 0.448279L30.5191 4.69301Z" stroke="#F3DE2C" stroke-width="0.592105"/>
</g>
<defs>
<filter id="filter0_b_7398_92464" x="-11.5257" y="-11.7573" width="56.0524" height="38.5994" filterUnits="userSpaceOnUse" color-interpolation-filters="sRGB">
<feFlood flood-opacity="0" result="BackgroundImageFix"/>
<feGaussianBlur in="BackgroundImage" stdDeviation="5.92105"/>
<feComposite in2="SourceAlpha" operator="in" result="effect1_backgroundBlur_7398_92464"/>
<feBlend mode="normal" in="SourceGraphic" in2="effect1_backgroundBlur_7398_92464" result="shape"/>
</filter>
</defs>
</svg>
