<svg width="286" height="113" viewBox="0 0 286 113" fill="none" xmlns="http://www.w3.org/2000/svg">
<g filter="url(#filter0_d_4325_30)">
<rect x="15" y="7" width="256" height="83" rx="6" fill="url(#paint0_linear_4325_30)"/>
</g>
<mask id="mask0_4325_30" style="mask-type:alpha" maskUnits="userSpaceOnUse" x="15" y="7" width="256" height="83">
<rect x="15" y="7" width="256" height="83" rx="6" fill="url(#paint1_linear_4325_30)"/>
</mask>
<g mask="url(#mask0_4325_30)">
<path d="M255.189 6H183.811L150 66L183.811 126H255.189L289 66L255.189 6Z" fill="url(#paint2_linear_4325_30)"/>
<g opacity="0.4">
<path fill-rule="evenodd" clip-rule="evenodd" d="M240.768 34.9025C241.363 34.9025 241.931 34.7858 242.449 34.5742L258.149 62.4848C257.056 63.2958 256.348 64.596 256.348 66.0616C256.348 67.5269 257.056 68.8269 258.148 69.638L242.449 97.548C241.931 97.3363 241.363 97.2197 240.768 97.2197C238.499 97.2197 236.625 98.9187 236.352 101.114H202.899C202.625 98.9187 200.752 97.2197 198.482 97.2197C197.887 97.2197 197.32 97.3363 196.801 97.548L181.102 69.638C182.194 68.8269 182.902 67.5269 182.902 66.0616C182.902 64.596 182.194 63.2959 181.101 62.4848L196.801 34.5742C197.32 34.7858 197.887 34.9025 198.482 34.9025C200.752 34.9025 202.625 33.2033 202.899 31.0076H236.352C236.625 33.2033 238.498 34.9025 240.768 34.9025ZM240.768 26C238.498 26 236.625 27.6991 236.352 29.8948H202.899C202.625 27.6991 200.752 26 198.482 26C196.023 26 194.031 27.9929 194.031 30.4512C194.031 31.9167 194.739 33.2167 195.831 34.0278L180.132 61.9385C179.613 61.7269 179.046 61.6104 178.451 61.6104C175.993 61.6104 174 63.6032 174 66.0616C174 68.5199 175.993 70.5128 178.451 70.5128C179.046 70.5128 179.614 70.3961 180.132 70.1844L195.832 98.0943C194.739 98.9054 194.031 100.205 194.031 101.671C194.031 104.129 196.023 106.122 198.482 106.122C200.752 106.122 202.625 104.423 202.899 102.227H236.352C236.625 104.423 238.498 106.122 240.768 106.122C243.227 106.122 245.22 104.129 245.22 101.671C245.22 100.205 244.511 98.9054 243.419 98.0943L259.118 70.1844C259.637 70.3961 260.204 70.5128 260.799 70.5128C263.257 70.5128 265.25 68.5199 265.25 66.0616C265.25 63.6032 263.257 61.6104 260.799 61.6104C260.204 61.6104 259.637 61.7269 259.118 61.9385L243.419 34.0278C244.511 33.2167 245.22 31.9167 245.22 30.4512C245.22 27.9929 243.227 26 240.768 26ZM229.64 46.0303C229.64 47.2595 228.644 48.2559 227.415 48.2559C227.347 48.2559 227.28 48.2529 227.214 48.247L222.64 61.0532H229.71C229.957 60.0932 230.829 59.3838 231.866 59.3838C233.095 59.3838 234.092 60.3802 234.092 61.6094C234.092 62.8386 233.095 63.835 231.866 63.835C231.532 63.835 231.216 63.7616 230.932 63.6301L213.631 84.776C213.901 85.1445 214.061 85.5995 214.061 86.0918C214.061 87.321 213.065 88.3174 211.835 88.3174C210.606 88.3174 209.61 87.321 209.61 86.0918C209.61 84.8627 210.606 83.8662 211.835 83.8662C211.932 83.8662 212.026 83.8723 212.119 83.8841L217.721 69.8793L209.474 69.0546C209.161 69.9056 208.344 70.5127 207.384 70.5127C206.155 70.5127 205.159 69.5163 205.159 68.2871C205.159 67.058 206.155 66.0615 207.384 66.0615C207.755 66.0615 208.105 66.1522 208.412 66.3126L225.559 47.26C225.325 46.9077 225.189 46.4849 225.189 46.0303C225.189 44.8011 226.186 43.8047 227.415 43.8047C228.644 43.8047 229.64 44.8011 229.64 46.0303ZM209.584 67.9472C209.534 67.6219 209.414 67.3198 209.239 67.057L225.943 48.4976L221.327 61.4224L221.061 62.166H221.851H229.71C229.782 62.4437 229.906 62.7005 230.071 62.9251L213.696 82.9392L219.029 69.6059L219.304 68.9192L218.568 68.8456L209.584 67.9472Z" fill="#23C3B9"/>
</g>
</g>
<circle opacity="0.2" cx="62.5" cy="48.5" r="24.5" fill="#131827"/>
<path d="M72 32H53L44 48L53 64H72L81 48L72 32Z" stroke="white" stroke-width="0.5"/>
<circle cx="72" cy="32" r="2" fill="white"/>
<circle cx="81" cy="48" r="2" fill="white"/>
<circle cx="72" cy="64" r="2" fill="white"/>
<circle cx="53" cy="64" r="2" fill="white"/>
<circle cx="44" cy="48" r="2" fill="white"/>
<circle cx="53" cy="32" r="2" fill="white"/>
<circle cx="66" cy="39" r="1" fill="white"/>
<circle cx="59" cy="57" r="1" fill="white"/>
<circle cx="57" cy="49" r="1" fill="white"/>
<circle cx="68" cy="46" r="1" fill="white"/>
<path d="M66 39L57 49L62 49.5L59 57L68 46H63.5L66 39Z" stroke="white" stroke-width="0.5"/>
<path d="M107.392 34.3C108.147 34.3 108.683 34.4503 108.998 34.751C109.321 35.0517 109.482 35.5063 109.482 36.115V36.643C109.482 37.259 109.247 37.7247 108.778 38.04C109.284 38.3333 109.537 38.8063 109.537 39.459V40.097C109.537 40.3903 109.504 40.6543 109.438 40.889C109.372 41.1237 109.262 41.3253 109.108 41.494C108.961 41.6553 108.763 41.78 108.514 41.868C108.265 41.956 107.957 42 107.59 42H101.056C100.836 42 100.726 41.89 100.726 41.67V34.63C100.726 34.41 100.836 34.3 101.056 34.3H107.392ZM102.409 38.7V40.339C102.409 40.4343 102.457 40.482 102.552 40.482H107.062C107.355 40.482 107.564 40.4307 107.689 40.328C107.814 40.218 107.876 40.0457 107.876 39.811V39.393C107.876 39.1657 107.806 38.9933 107.667 38.876C107.535 38.7587 107.286 38.7 106.919 38.7H102.409ZM102.409 37.501H106.919C107.286 37.501 107.535 37.446 107.667 37.336C107.799 37.226 107.865 37.0647 107.865 36.852V36.478C107.865 36.2507 107.799 36.0857 107.667 35.983C107.542 35.873 107.337 35.818 107.051 35.818H102.552C102.457 35.818 102.409 35.8657 102.409 35.961V37.501ZM112.693 34.3C112.855 34.3 112.935 34.3807 112.935 34.542V38.931C112.935 39.2243 112.957 39.47 113.001 39.668C113.053 39.8587 113.133 40.0127 113.243 40.13C113.353 40.24 113.5 40.3207 113.683 40.372C113.874 40.416 114.112 40.438 114.398 40.438H118.853C119.015 40.438 119.095 40.5187 119.095 40.68V41.758C119.095 41.9193 119.015 42 118.853 42H114.332C113.775 42 113.302 41.9487 112.913 41.846C112.525 41.7433 112.206 41.5783 111.956 41.351C111.714 41.1163 111.535 40.8157 111.417 40.449C111.307 40.075 111.252 39.624 111.252 39.096V34.542C111.252 34.3807 111.337 34.3 111.505 34.3H112.693ZM129.092 34.3C129.195 34.3 129.25 34.3367 129.257 34.41C129.272 34.476 129.253 34.5347 129.202 34.586L125.825 38.007L129.356 41.714C129.407 41.7653 129.426 41.8277 129.411 41.901C129.404 41.967 129.349 42 129.246 42L127.739 42C127.651 42 127.581 41.989 127.53 41.967C127.479 41.945 127.431 41.9047 127.387 41.846L124.67 38.997L121.942 41.846C121.891 41.9047 121.839 41.945 121.788 41.967C121.744 41.989 121.674 42 121.579 42H120.149C120.054 42 119.999 41.967 119.984 41.901C119.977 41.8277 119.999 41.7653 120.05 41.714L123.669 37.952L120.402 34.586C120.358 34.5347 120.34 34.476 120.347 34.41C120.354 34.3367 120.409 34.3 120.512 34.3H122.019C122.107 34.3 122.177 34.3147 122.228 34.344C122.279 34.366 122.327 34.4027 122.371 34.454L124.769 37.006L127.31 34.454C127.354 34.4027 127.402 34.366 127.453 34.344C127.504 34.3147 127.574 34.3 127.662 34.3H129.092ZM141.55 34.3C142.306 34.3 142.841 34.4503 143.156 34.751C143.479 35.0517 143.64 35.5063 143.64 36.115V36.643C143.64 37.259 143.406 37.7247 142.936 38.04C143.442 38.3333 143.695 38.8063 143.695 39.459V40.097C143.695 40.3903 143.662 40.6543 143.596 40.889C143.53 41.1237 143.42 41.3253 143.266 41.494C143.12 41.6553 142.922 41.78 142.672 41.868C142.423 41.956 142.115 42 141.748 42H135.214C134.994 42 134.884 41.89 134.884 41.67V34.63C134.884 34.41 134.994 34.3 135.214 34.3H141.55ZM136.567 38.7V40.339C136.567 40.4343 136.615 40.482 136.71 40.482H141.22C141.514 40.482 141.723 40.4307 141.847 40.328C141.972 40.218 142.034 40.0457 142.034 39.811V39.393C142.034 39.1657 141.965 38.9933 141.825 38.876C141.693 38.7587 141.444 38.7 141.077 38.7H136.567ZM136.567 37.501H141.077C141.444 37.501 141.693 37.446 141.825 37.336C141.957 37.226 142.023 37.0647 142.023 36.852V36.478C142.023 36.2507 141.957 36.0857 141.825 35.983C141.701 35.873 141.495 35.818 141.209 35.818H136.71C136.615 35.818 136.567 35.8657 136.567 35.961V37.501ZM149.952 34.3C150.23 34.3 150.465 34.3587 150.656 34.476C150.846 34.586 151.033 34.806 151.217 35.136L154.858 41.747C154.894 41.8203 154.902 41.8827 154.88 41.934C154.865 41.978 154.814 42 154.726 42H153.329C153.204 42 153.12 41.9523 153.076 41.857L152.295 40.438H147.125L146.366 41.857C146.314 41.9523 146.23 42 146.113 42H144.683C144.587 42 144.529 41.978 144.507 41.934C144.492 41.8827 144.503 41.8203 144.54 41.747L148.148 35.136C148.331 34.806 148.511 34.586 148.687 34.476C148.863 34.3587 149.068 34.3 149.303 34.3H149.952ZM147.818 39.162H151.602L149.853 35.939C149.823 35.8877 149.783 35.862 149.732 35.862H149.666C149.614 35.862 149.574 35.8877 149.545 35.939L147.818 39.162ZM157.207 34.3C157.368 34.3 157.449 34.3807 157.449 34.542V38.931C157.449 39.2243 157.471 39.47 157.515 39.668C157.566 39.8587 157.647 40.0127 157.757 40.13C157.867 40.24 158.014 40.3207 158.197 40.372C158.388 40.416 158.626 40.438 158.912 40.438L163.367 40.438C163.528 40.438 163.609 40.5187 163.609 40.68V41.758C163.609 41.9193 163.528 42 163.367 42L158.846 42C158.289 42 157.816 41.9487 157.427 41.846C157.038 41.7433 156.719 41.5783 156.47 41.351C156.228 41.1163 156.048 40.8157 155.931 40.449C155.821 40.075 155.766 39.624 155.766 39.096V34.542C155.766 34.3807 155.85 34.3 156.019 34.3H157.207ZM169.92 34.3C170.199 34.3 170.434 34.3587 170.624 34.476C170.815 34.586 171.002 34.806 171.185 35.136L174.826 41.747C174.863 41.8203 174.87 41.8827 174.848 41.934C174.834 41.978 174.782 42 174.694 42H173.297C173.173 42 173.088 41.9523 173.044 41.857L172.263 40.438H167.093L166.334 41.857C166.283 41.9523 166.199 42 166.081 42H164.651C164.556 42 164.497 41.978 164.475 41.934C164.461 41.8827 164.472 41.8203 164.508 41.747L168.116 35.136C168.3 34.806 168.479 34.586 168.655 34.476C168.831 34.3587 169.037 34.3 169.271 34.3H169.92ZM167.786 39.162H171.57L169.821 35.939C169.792 35.8877 169.752 35.862 169.7 35.862H169.634C169.583 35.862 169.543 35.8877 169.513 35.939L167.786 39.162ZM178.155 34.3C178.331 34.3 178.478 34.3073 178.595 34.322C178.713 34.3367 178.815 34.3697 178.903 34.421C178.991 34.465 179.076 34.531 179.156 34.619C179.237 34.6997 179.329 34.8097 179.431 34.949L183.523 40.317C183.553 40.3683 183.6 40.394 183.666 40.394H183.765C183.824 40.394 183.853 40.3573 183.853 40.284V34.542C183.853 34.3807 183.934 34.3 184.095 34.3H185.25C185.412 34.3 185.492 34.3807 185.492 34.542V40.856C185.492 41.3033 185.412 41.6077 185.25 41.769C185.089 41.923 184.84 42 184.502 42H183.556C183.388 42 183.245 41.9927 183.127 41.978C183.017 41.9633 182.918 41.934 182.83 41.89C182.742 41.846 182.654 41.7837 182.566 41.703C182.486 41.615 182.39 41.4977 182.28 41.351L178.177 35.983C178.133 35.9317 178.086 35.906 178.034 35.906H177.935C177.877 35.906 177.847 35.9427 177.847 36.016V41.758C177.847 41.9193 177.767 42 177.605 42H176.45C176.282 42 176.197 41.9193 176.197 41.758V35.444C176.197 34.9967 176.278 34.696 176.439 34.542C176.601 34.3807 176.85 34.3 177.187 34.3H178.155ZM195.343 34.3C195.504 34.3 195.585 34.3807 195.585 34.542V35.62C195.585 35.7887 195.504 35.873 195.343 35.873H190.448C190.162 35.873 189.924 35.8987 189.733 35.95C189.55 35.994 189.403 36.0747 189.293 36.192C189.183 36.302 189.102 36.4523 189.051 36.643C189.007 36.8337 188.985 37.0757 188.985 37.369V38.931C188.985 39.2243 189.007 39.47 189.051 39.668C189.102 39.8587 189.183 40.0127 189.293 40.13C189.403 40.24 189.55 40.3207 189.733 40.372C189.924 40.416 190.162 40.438 190.448 40.438H195.343C195.504 40.438 195.585 40.5187 195.585 40.68V41.758C195.585 41.9193 195.504 42 195.343 42H190.382C189.825 42 189.352 41.9487 188.963 41.846C188.574 41.7433 188.255 41.5783 188.006 41.351C187.764 41.1163 187.584 40.8157 187.467 40.449C187.357 40.075 187.302 39.624 187.302 39.096V37.204C187.302 36.676 187.357 36.2287 187.467 35.862C187.584 35.4953 187.764 35.1983 188.006 34.971C188.255 34.7363 188.574 34.5677 188.963 34.465C189.352 34.355 189.825 34.3 190.382 34.3H195.343ZM205.029 34.3C205.198 34.3 205.282 34.3807 205.282 34.542V35.587C205.282 35.7483 205.198 35.829 205.029 35.829H200.222C199.936 35.829 199.698 35.8547 199.507 35.906C199.324 35.95 199.174 36.0307 199.056 36.148C198.946 36.258 198.869 36.412 198.825 36.61C198.781 36.8007 198.759 37.039 198.759 37.325V37.435H204.974C205.136 37.435 205.216 37.5157 205.216 37.677V38.546C205.216 38.7073 205.136 38.788 204.974 38.788H198.759V38.975C198.759 39.261 198.781 39.503 198.825 39.701C198.869 39.8917 198.946 40.0457 199.056 40.163C199.174 40.273 199.324 40.3537 199.507 40.405C199.698 40.449 199.936 40.471 200.222 40.471H205.029C205.198 40.471 205.282 40.5517 205.282 40.713V41.758C205.282 41.9193 205.198 42 205.029 42H200.189C199.632 42 199.159 41.9487 198.77 41.846C198.382 41.7433 198.063 41.5783 197.813 41.351C197.571 41.1163 197.392 40.8157 197.274 40.449C197.164 40.075 197.109 39.624 197.109 39.096V37.204C197.109 36.676 197.164 36.2287 197.274 35.862C197.392 35.4953 197.571 35.1983 197.813 34.971C198.063 34.7363 198.382 34.5677 198.77 34.465C199.159 34.355 199.632 34.3 200.189 34.3H205.029Z" fill="white"/>
<path d="M146.032 60.021C147.185 60.3937 147.761 61.191 147.761 62.413C147.761 63.2277 147.497 63.8647 146.968 64.324C146.439 64.7747 145.716 65 144.797 65H141.001V55.9H144.433C146.166 55.9 147.033 56.6323 147.033 58.097C147.033 58.9983 146.699 59.6397 146.032 60.021ZM142.665 59.475H144.186C144.593 59.475 144.897 59.3927 145.096 59.228C145.295 59.0547 145.395 58.7903 145.395 58.435C145.395 58.0623 145.295 57.7937 145.096 57.629C144.897 57.4643 144.593 57.382 144.186 57.382H142.665V59.475ZM144.55 63.518C145.035 63.518 145.404 63.4227 145.655 63.232C145.915 63.0327 146.045 62.699 146.045 62.231C146.045 61.7717 145.911 61.4467 145.642 61.256C145.382 61.0567 145.018 60.957 144.55 60.957H142.665V63.518H144.55ZM149.139 55.9H150.803V63.518H154.547V65H149.139V55.9ZM157.797 60.333L154.768 55.9H156.614L158.707 58.994L160.8 55.9H162.646L159.617 60.333L162.802 65H160.956L158.707 61.685L156.458 65H154.612L157.797 60.333Z" fill="white"/>
<path d="M105.221 65.2241C107.803 65.2241 109.612 63.5225 109.612 61.0654C109.612 58.7412 107.96 57.0562 105.661 57.0562C104.491 57.0562 103.511 57.5127 102.988 58.2681H102.947L103.279 54.5908H108.915V53.022H101.785L101.154 59.7954H102.855C103.32 59.0068 104.217 58.5337 105.254 58.5337C106.749 58.5337 107.794 59.6128 107.794 61.1152C107.794 62.6177 106.749 63.6719 105.238 63.6719C103.901 63.6719 102.88 62.8584 102.748 61.6714H100.971C101.079 63.7632 102.831 65.2241 105.221 65.2241ZM115.489 65.2241C118.361 65.2241 120.046 62.8086 120.046 58.9902C120.046 55.1968 118.353 52.7979 115.489 52.7979C112.634 52.7979 110.916 55.2051 110.916 58.9985C110.916 62.8169 112.617 65.2241 115.489 65.2241ZM115.489 63.6636C113.779 63.6636 112.8 61.8872 112.8 58.9985C112.8 56.1514 113.796 54.3584 115.489 54.3584C117.183 54.3584 118.17 56.1431 118.17 58.9985C118.17 61.8955 117.199 63.6636 115.489 63.6636ZM126.081 65.2241C128.953 65.2241 130.638 62.8086 130.638 58.9902C130.638 55.1968 128.945 52.7979 126.081 52.7979C123.226 52.7979 121.507 55.2051 121.507 58.9985C121.507 62.8169 123.209 65.2241 126.081 65.2241ZM126.081 63.6636C124.371 63.6636 123.392 61.8872 123.392 58.9985C123.392 56.1514 124.388 54.3584 126.081 54.3584C127.774 54.3584 128.762 56.1431 128.762 58.9985C128.762 61.8955 127.791 63.6636 126.081 63.6636Z" fill="white"/>
<defs>
<filter id="filter0_d_4325_30" x="0" y="0" width="286" height="113" filterUnits="userSpaceOnUse" color-interpolation-filters="sRGB">
<feFlood flood-opacity="0" result="BackgroundImageFix"/>
<feColorMatrix in="SourceAlpha" type="matrix" values="0 0 0 0 0 0 0 0 0 0 0 0 0 0 0 0 0 0 127 0" result="hardAlpha"/>
<feOffset dy="8"/>
<feGaussianBlur stdDeviation="7.5"/>
<feColorMatrix type="matrix" values="0 0 0 0 0.137255 0 0 0 0 0.764706 0 0 0 0 0.72549 0 0 0 0.31 0"/>
<feBlend mode="normal" in2="BackgroundImageFix" result="effect1_dropShadow_4325_30"/>
<feBlend mode="normal" in="SourceGraphic" in2="effect1_dropShadow_4325_30" result="shape"/>
</filter>
<linearGradient id="paint0_linear_4325_30" x1="103" y1="107" x2="234" y2="14.5" gradientUnits="userSpaceOnUse">
<stop stop-color="#23C3B9"/>
<stop offset="1" stop-color="#0C9A91"/>
</linearGradient>
<linearGradient id="paint1_linear_4325_30" x1="103" y1="107" x2="234" y2="14.5" gradientUnits="userSpaceOnUse">
<stop stop-color="#24C48A"/>
<stop offset="1" stop-color="#26A17B"/>
</linearGradient>
<linearGradient id="paint2_linear_4325_30" x1="243.019" y1="94.0687" x2="187.739" y2="22.6329" gradientUnits="userSpaceOnUse">
<stop stop-color="#1A4336" stop-opacity="0.38"/>
<stop offset="1" stop-color="#1A4336" stop-opacity="0"/>
</linearGradient>
</defs>
</svg>
