<svg width="22" height="19" viewBox="0 0 22 19" fill="none" xmlns="http://www.w3.org/2000/svg">
<path d="M0.260706 18.5497C0.144917 18.7497 0.289234 19 0.520334 19H21.4797C21.7108 19 21.8551 18.7497 21.7393 18.5497L11.2596 0.448448C11.1441 0.248863 10.8559 0.248863 10.7404 0.448448L0.260706 18.5497ZM12 15C12 15.5523 11.5523 16 11 16C10.4477 16 10 15.5523 10 15C10 14.4477 10.4477 14 11 14C11.5523 14 12 14.4477 12 15ZM12 11C12 11.5523 11.5523 12 11 12C10.4477 12 10 11.5523 10 11V7C10 6.44772 10.4477 6 11 6C11.5523 6 12 6.44772 12 7V11Z" fill="white"/>
</svg>
