<svg width="20" height="20" viewBox="0 0 20 20" fill="none" xmlns="http://www.w3.org/2000/svg">
<path d="M19.7007 12.4191C18.3649 17.7763 12.9384 21.0365 7.58001 19.7006C2.22382 18.365 -1.03684 12.9388 0.299551 7.58198C1.63469 2.22423 7.06121 -1.03637 12.418 0.299246C17.7761 1.63486 21.0364 7.06168 19.7007 12.4191Z" fill="#F08F1C"/>
<path d="M14.4095 8.57526C14.6086 7.24465 13.5954 6.52934 12.2099 6.05216L12.6593 4.24968L11.562 3.97625L11.1245 5.73123C10.836 5.65935 10.5397 5.59154 10.2453 5.52435L10.686 3.75781L9.58933 3.48438L9.13959 5.28623C8.90082 5.23186 8.66642 5.17811 8.43889 5.12155L8.44014 5.11592L6.92686 4.73811L6.63495 5.90998C6.63495 5.90998 7.4491 6.09654 7.43191 6.1081C7.87633 6.21903 7.95666 6.51309 7.94322 6.74622L7.43129 8.79963C7.46191 8.80745 7.50161 8.8187 7.54536 8.8362C7.50879 8.82713 7.46973 8.81713 7.42941 8.80745L6.71183 11.684C6.65745 11.819 6.51963 12.0215 6.20897 11.9446C6.21991 11.9605 5.41138 11.7455 5.41138 11.7455L4.86664 13.0015L6.2946 13.3574C6.56026 13.424 6.8206 13.4936 7.07687 13.5593L6.62276 15.3824L7.71882 15.6558L8.16855 13.8521C8.46796 13.9333 8.75862 14.0083 9.04302 14.079L8.59485 15.8742L9.69215 16.1477L10.1463 14.328C12.0174 14.6821 13.4244 14.5393 14.0167 12.8471C14.4939 11.4846 13.9929 10.6987 13.0084 10.1862C13.7254 10.0209 14.2655 9.54931 14.4095 8.57526ZM11.9024 12.0905C11.5633 13.453 9.26898 12.7165 8.52515 12.5318L9.12772 10.1165C9.87155 10.3021 12.2568 10.6696 11.9024 12.0905ZM12.2418 8.55557C11.9324 9.79494 10.0228 9.16526 9.40337 9.01088L9.94968 6.82028C10.5691 6.97465 12.564 7.26277 12.2418 8.55557Z" fill="white"/>
</svg>
