<svg width="26" height="26" viewBox="0 0 26 26" fill="none" xmlns="http://www.w3.org/2000/svg">
<g clip-path="url(#clip0_7295_113096)">
<path d="M12.74 25.4222C19.8001 25.4222 25.48 19.7552 25.48 12.7111C25.48 5.667 19.8001 0 12.74 0C5.67988 0 0 5.667 0 12.7111C0 19.7552 5.67988 25.4222 12.74 25.4222Z" fill="#2775CA"/>
<path d="M16.2435 14.7241C16.2435 12.8705 15.1287 12.2349 12.8992 11.9701C11.3067 11.7583 10.9882 11.3346 10.9882 10.593C10.9882 9.85146 11.5191 9.37492 12.5807 9.37492C13.5362 9.37492 14.0671 9.6927 14.3325 10.4871C14.3856 10.646 14.5449 10.7519 14.7041 10.7519H15.5534C15.7657 10.7519 15.925 10.593 15.925 10.3813V10.3283C15.7126 9.16303 14.7571 8.2627 13.5362 8.15681V6.8857C13.5362 6.67381 13.377 6.51492 13.1116 6.46191H12.3154C12.103 6.46191 11.9437 6.6208 11.8906 6.8857V8.10381C10.2981 8.3157 9.28962 9.37492 9.28962 10.699C9.28962 12.4468 10.3512 13.1352 12.5807 13.4001C14.0671 13.6649 14.5449 13.9827 14.5449 14.8301C14.5449 15.6776 13.8016 16.2601 12.7931 16.2601C11.4129 16.2601 10.9351 15.6775 10.7759 14.883C10.7229 14.6713 10.5636 14.5652 10.4044 14.5652H9.50187C9.28962 14.5652 9.13037 14.7241 9.13037 14.936V14.989C9.34262 16.313 10.192 17.2664 11.9437 17.5313V18.8024C11.9437 19.0141 12.103 19.173 12.3684 19.226H13.1646C13.377 19.226 13.5362 19.0671 13.5894 18.8024V17.5313C15.1819 17.2664 16.2435 16.1541 16.2435 14.7241Z" fill="white"/>
<path d="M10.0327 20.2844C5.89223 18.8015 3.76885 14.1937 5.30835 10.1155C6.1046 7.89102 7.85635 6.19625 10.0327 5.4018C10.2451 5.29592 10.3512 5.13703 10.3512 4.87213V4.13069C10.3512 3.9188 10.2451 3.75991 10.0327 3.70703C9.9796 3.70703 9.87348 3.70703 9.82035 3.75991C4.77748 5.3488 2.0171 10.6981 3.6096 15.7296C4.5651 18.6955 6.84773 20.9729 9.82035 21.9263C10.0327 22.0321 10.2451 21.9263 10.2981 21.7144C10.3512 21.6615 10.3512 21.6085 10.3512 21.5026V20.761C10.3512 20.6021 10.192 20.3904 10.0327 20.2844ZM15.6596 3.75991C15.4472 3.65403 15.2349 3.75991 15.1819 3.9718C15.1287 4.02481 15.1287 4.07769 15.1287 4.1837V4.92514C15.1287 5.13703 15.288 5.3488 15.4472 5.45481C19.5877 6.93769 21.7111 11.5455 20.1716 15.6237C19.3754 17.8481 17.6236 19.5429 15.4472 20.3374C15.2349 20.4432 15.1287 20.6021 15.1287 20.867V21.6085C15.1287 21.8204 15.2349 21.9793 15.4472 22.0321C15.5004 22.0321 15.6065 22.0321 15.6596 21.9793C20.7025 20.3904 23.4629 15.041 21.8704 10.0096C20.9149 6.99069 18.5791 4.71324 15.6596 3.75991Z" fill="white"/>
</g>
<defs>
<clipPath id="clip0_7295_113096">
<rect width="25.48" height="25.4222" fill="white"/>
</clipPath>
</defs>
</svg>
