<svg width="17" height="19" viewBox="0 0 17 19" fill="none" xmlns="http://www.w3.org/2000/svg">
<path fill-rule="evenodd" clip-rule="evenodd" d="M9.8251 2.15248V3.5813C13.5357 4.15803 16.3847 7.3747 16.3847 11.2444C16.3847 15.5206 12.9056 18.9996 8.62939 18.9996C4.35317 18.9996 0.87413 15.5207 0.87413 11.2444C0.87413 7.3747 3.72308 4.15803 7.43369 3.5813V2.15248H6.78148C6.35271 2.15248 6.00505 1.80482 6.00505 1.37604C6.00505 0.947265 6.35271 0.599609 6.78148 0.599609H10.4773C10.9061 0.599609 11.2537 0.947265 11.2537 1.37604C11.2537 1.80482 10.9061 2.15248 10.4773 2.15248H9.8251ZM9.4061 7.26471V10.9226L11.2608 12.7695C11.5646 13.0721 11.5657 13.5637 11.2631 13.8676C10.9605 14.1714 10.469 14.1725 10.1651 13.8699L7.99299 11.7069C7.90354 11.6178 7.85323 11.4968 7.85323 11.3705V7.26471C7.85323 6.83594 8.20089 6.48828 8.62966 6.48828C9.05844 6.48828 9.4061 6.83594 9.4061 7.26471Z" fill="#59648A"/>
</svg>
