<svg width="13" height="13" viewBox="0 0 13 13" fill="none" xmlns="http://www.w3.org/2000/svg">
<path d="M12.8412 12.0762L9.14432 8.3794C9.8604 7.49487 10.2916 6.37091 10.2916 5.14677C10.2916 2.30955 7.98299 0.000976562 5.14577 0.000976562C2.30854 0.000976562 0 2.30952 0 5.14674C0 7.98397 2.30857 10.2925 5.14579 10.2925C6.36994 10.2925 7.49389 9.86138 8.37842 9.1453L12.0753 12.8421C12.1809 12.9478 12.3195 13.0008 12.4582 13.0008C12.5969 13.0008 12.7356 12.9478 12.8412 12.8421C13.053 12.6304 13.053 12.288 12.8412 12.0762ZM5.14579 9.2092C2.90547 9.2092 1.08333 7.38706 1.08333 5.14674C1.08333 2.90642 2.90547 1.08428 5.14579 1.08428C7.38611 1.08428 9.20825 2.90642 9.20825 5.14674C9.20825 7.38706 7.38609 9.2092 5.14579 9.2092Z" fill="white"/>
</svg>
