<svg width="49" height="49" viewBox="0 0 49 49" fill="none" xmlns="http://www.w3.org/2000/svg">
<circle opacity="0.2" cx="24.5" cy="24.5" r="24.5" fill="#131827"/>
<path d="M34 8H15L6 24L15 40H34L43 24L34 8Z" stroke="white" stroke-width="0.5"/>
<circle cx="34" cy="8" r="2" fill="white"/>
<circle cx="43" cy="24" r="2" fill="white"/>
<circle cx="34" cy="40" r="2" fill="white"/>
<circle cx="15" cy="40" r="2" fill="white"/>
<circle cx="6" cy="24" r="2" fill="white"/>
<circle cx="15" cy="8" r="2" fill="white"/>
<circle cx="28" cy="15" r="1" fill="white"/>
<circle cx="21" cy="33" r="1" fill="white"/>
<circle cx="19" cy="25" r="1" fill="white"/>
<circle cx="30" cy="22" r="1" fill="white"/>
<path d="M28 15L19 25L24 25.5L21 33L30 22H25.5L28 15Z" stroke="white" stroke-width="0.5"/>
</svg>
