<svg width="21" height="25" viewBox="0 0 21 25" fill="none" xmlns="http://www.w3.org/2000/svg">
<path fill-rule="evenodd" clip-rule="evenodd" d="M12.5397 1.45222C12.5397 1.44892 12.5398 1.44562 12.5398 1.44231C12.5398 0.645743 11.894 0 11.0974 0C10.3009 0 9.65515 0.645736 9.65514 1.44229H9.65511V10.5769C9.65511 10.8423 9.43972 11.0577 9.17434 11.0577C8.90896 11.0577 8.69357 10.8423 8.69357 10.5769V3.37939C8.69362 3.37472 8.69364 3.37005 8.69364 3.36537C8.69364 2.5688 8.0479 1.92306 7.25133 1.92306C6.45477 1.92306 5.80902 2.5688 5.80902 3.36537C5.80902 3.36537 5.80902 3.36537 5.80902 3.36537H5.80896V15.3846L3.86184 12.7202C3.28492 11.8308 2.15896 11.5327 1.33396 12.0423C0.511841 12.5634 0.307995 13.7 0.877225 14.5865C0.877225 14.5865 4.01761 19.3394 5.35607 21.374C6.69453 23.4086 8.8628 25 12.9176 25C19.6311 25 20.232 19.8154 20.232 18.2692V5.30347C20.2321 5.29848 20.2321 5.29349 20.2321 5.28848C20.2321 4.49192 19.5864 3.84618 18.7898 3.84618C17.9932 3.84618 17.3475 4.4919 17.3475 5.28845H17.3474V11.5384C17.3474 11.8038 17.132 12.0192 16.8666 12.0192C16.6013 12.0192 16.3859 11.8038 16.3859 11.5384L16.3859 2.40384C16.3859 1.60727 15.7401 0.96153 14.9436 0.96153C14.147 0.96153 13.5013 1.60727 13.5013 2.40384C13.5013 2.40481 13.5013 2.40577 13.5013 2.40674V10.5769C13.5013 10.8423 13.2859 11.0577 13.0205 11.0577C12.7551 11.0577 12.5397 10.8423 12.5397 10.5769V1.45222Z" fill="#59648A"/>
</svg>
