<svg width="128" height="82" viewBox="0 0 128 82" fill="none" xmlns="http://www.w3.org/2000/svg">
<g filter="url(#filter0_d_4933_59056)">
<path fill-rule="evenodd" clip-rule="evenodd" d="M23.9307 6.38722L12.0488 31.4913C12.0036 31.5847 11.9893 31.6902 12.008 31.7923C12.0266 31.8945 12.0773 31.988 12.1525 32.0591L44.2425 62.9893C44.3336 63.0772 44.455 63.1263 44.5813 63.1263C44.7076 63.1263 44.829 63.0772 44.9202 62.9893L77.0101 32.061C77.0853 31.9899 77.136 31.8964 77.1547 31.7943C77.1733 31.6921 77.159 31.5866 77.1138 31.4933L65.2319 6.38915C65.1936 6.30484 65.1319 6.23342 65.0543 6.18343C64.9767 6.13343 64.8864 6.10697 64.7942 6.10722H24.3722C24.2796 6.10606 24.1886 6.13188 24.1103 6.18156C24.0319 6.23124 23.9696 6.30267 23.9307 6.38722V6.38722V6.38722Z" fill="#26A17B"/>
</g>
<path fill-rule="evenodd" clip-rule="evenodd" d="M48.7035 34.0693C48.4731 34.0867 47.2828 34.1582 44.6277 34.1582C42.5159 34.1582 41.0165 34.0944 40.4904 34.0693C32.3292 33.7082 26.2376 32.2792 26.2376 30.5683C26.2376 28.8573 32.3292 27.4303 40.4904 27.0634V32.6461C41.0241 32.6847 42.5523 32.7755 44.6641 32.7755C47.1983 32.7755 48.4673 32.6693 48.6958 32.6481V27.0672C56.8397 27.4322 62.9179 28.8612 62.9179 30.5683C62.9179 32.2754 56.8416 33.7044 48.6958 34.0674L48.7035 34.0693ZM48.7035 26.4898V21.4941H60.0688V13.876H29.125V21.4941H40.4885V26.4879C31.2522 26.9147 24.3063 28.755 24.3063 30.9603C24.3063 33.1656 31.2522 35.004 40.4885 35.4327V51.4414H48.7015V35.4269C57.9167 35.0001 64.8511 33.1617 64.8511 30.9584C64.8511 28.755 57.9225 26.9166 48.7015 26.4879L48.7035 26.4898Z" fill="white"/>
<circle cx="97.7466" cy="32.3206" r="29.5402" fill="#22896C"/>
<path d="M109.201 12.4261H86.2924L75.4409 31.7177L86.2924 51.0093H109.201L120.053 31.7177L109.201 12.4261Z" stroke="white" stroke-width="0.602861"/>
<circle cx="109.201" cy="12.4261" r="2.41145" fill="white"/>
<circle cx="120.053" cy="31.7176" r="2.41145" fill="white"/>
<circle cx="109.201" cy="51.0092" r="2.41145" fill="white"/>
<circle cx="86.2923" cy="51.0092" r="2.41145" fill="white"/>
<circle cx="75.4409" cy="31.7176" r="2.41145" fill="white"/>
<circle cx="86.2923" cy="12.4261" r="2.41145" fill="white"/>
<circle cx="101.967" cy="20.8661" r="1.20572" fill="white"/>
<circle cx="93.5266" cy="42.5692" r="1.20572" fill="white"/>
<circle cx="91.1152" cy="32.9234" r="1.20572" fill="white"/>
<circle cx="104.378" cy="29.3063" r="1.20572" fill="white"/>
<path d="M101.967 20.8661L91.1151 32.9233L97.1437 33.5262L93.5266 42.5691L104.378 29.3062H98.9523L101.967 20.8661Z" stroke="white" stroke-width="0.602861"/>
<defs>
<filter id="filter0_d_4933_59056" x="0.304994" y="0.649508" width="88.5526" height="80.4092" filterUnits="userSpaceOnUse" color-interpolation-filters="sRGB">
<feFlood flood-opacity="0" result="BackgroundImageFix"/>
<feColorMatrix in="SourceAlpha" type="matrix" values="0 0 0 0 0 0 0 0 0 0 0 0 0 0 0 0 0 0 127 0" result="hardAlpha"/>
<feOffset dy="6.23734"/>
<feGaussianBlur stdDeviation="5.8475"/>
<feColorMatrix type="matrix" values="0 0 0 0 0.150937 0 0 0 0 0.575 0 0 0 0 0.458941 0 0 0 0.47 0"/>
<feBlend mode="normal" in2="BackgroundImageFix" result="effect1_dropShadow_4933_59056"/>
<feBlend mode="normal" in="SourceGraphic" in2="effect1_dropShadow_4933_59056" result="shape"/>
</filter>
</defs>
</svg>
