<svg width="26" height="26" viewBox="0 0 26 26" fill="none" xmlns="http://www.w3.org/2000/svg">
<path fill-rule="evenodd" clip-rule="evenodd" d="M13.3551 0.81348L14.9819 2.44026C15.4312 2.88949 15.4312 3.61782 14.9819 4.06705L8.4748 10.5742C8.02557 11.0234 7.29724 11.0234 6.84801 10.5742L5.22123 8.9474C4.77201 8.49817 4.77201 7.76984 5.22123 7.32061L11.7284 0.81348C12.1776 0.364256 12.9059 0.364257 13.3551 0.81348ZM20.3948 10.04C19.2979 9.58644 18.2908 8.94077 17.4208 8.13337C16.6156 7.26203 15.9694 6.25623 15.5116 5.16168L9.56502 11.1068C10.6618 11.5606 11.6689 12.2064 12.539 13.0137C13.3446 13.8852 13.9909 14.8913 14.4485 15.9863L20.3948 10.04ZM13.0605 15.7475C12.7118 15.046 12.2622 14.3993 11.7262 13.8279C11.1564 13.2906 10.5094 12.8416 9.8066 12.496L0.336973 21.963C0.230135 22.0698 0.145388 22.1967 0.0875664 22.3363C0.0297451 22.4758 -1.52588e-05 22.6255 -1.52588e-05 22.7765C-1.52588e-05 22.9276 0.0297451 23.0772 0.0875664 23.2168C0.145388 23.3564 0.230135 23.4832 0.336973 23.5901L1.96405 25.2171C2.17979 25.4328 2.47237 25.554 2.77744 25.554C3.0825 25.554 3.37508 25.4328 3.59083 25.2171L13.0605 15.7475ZM24.744 12.2005L23.1172 10.5737C22.668 10.1244 21.9397 10.1244 21.4904 10.5737L14.9833 17.0808C14.5341 17.53 14.5341 18.2584 14.9833 18.7076L16.6101 20.3344C17.0593 20.7836 17.7877 20.7836 18.2369 20.3344L24.744 13.8272C25.1932 13.378 25.1932 12.6497 24.744 12.2005Z" fill="#59648A"/>
</svg>
