<svg width="343" height="119" viewBox="0 0 343 119" fill="none" xmlns="http://www.w3.org/2000/svg">
<g opacity="0.1">
<path d="M-14 -27L-23 160H229.962H299.977L386.848 132.991L405 24.0258L271 -34.5L-14 -27Z" fill="url(#paint0_linear_4693_58140)"/>
<path d="M308.969 67.9726C308.598 67.9787 308.236 68.0879 307.923 68.288C307.611 68.488 307.36 68.771 307.199 69.1054L279.34 112.887C279.294 112.954 279.252 113.025 279.215 113.098C279.214 113.099 279.212 113.1 279.211 113.102C279.182 113.16 279.156 113.22 279.133 113.281C279.085 113.406 279.049 113.536 279.027 113.668C279.005 113.799 278.996 113.933 279 114.066C279 114.068 279 114.069 279 114.07C279.002 114.136 279.007 114.201 279.016 114.266C279.018 114.279 279.021 114.292 279.023 114.305C279.039 114.404 279.063 114.502 279.094 114.598C279.099 114.616 279.104 114.634 279.109 114.652C279.109 114.654 279.109 114.655 279.109 114.656C279.131 114.719 279.156 114.78 279.184 114.84C279.184 114.841 279.184 114.842 279.184 114.844C279.212 114.902 279.243 114.96 279.277 115.016C279.277 115.017 279.277 115.018 279.277 115.019C279.311 115.076 279.348 115.131 279.387 115.184C279.406 115.207 279.425 115.231 279.445 115.254C279.468 115.283 279.491 115.312 279.516 115.34C279.559 115.389 279.605 115.436 279.652 115.48C279.654 115.482 279.655 115.483 279.656 115.484C279.754 115.573 279.86 115.651 279.973 115.719C279.974 115.72 279.975 115.721 279.977 115.723C279.987 115.728 279.997 115.733 280.008 115.738C280.009 115.74 280.01 115.741 280.012 115.742L307.758 131.598C308.109 131.875 308.543 132.026 308.991 132.028C309.438 132.029 309.874 131.881 310.227 131.605L337.949 115.762C337.964 115.754 337.978 115.746 337.992 115.738C338.036 115.713 338.079 115.685 338.121 115.656C338.134 115.647 338.147 115.638 338.16 115.629C338.169 115.621 338.178 115.613 338.188 115.605C338.229 115.577 338.269 115.547 338.309 115.516C338.311 115.513 338.314 115.51 338.316 115.508C338.324 115.501 338.332 115.495 338.34 115.488C338.382 115.45 338.422 115.409 338.461 115.367C338.506 115.319 338.549 115.268 338.59 115.215C338.629 115.163 338.665 115.11 338.699 115.055C338.701 115.053 338.702 115.052 338.703 115.051C338.704 115.047 338.706 115.043 338.707 115.039C338.741 114.987 338.772 114.934 338.801 114.879C338.801 114.878 338.801 114.876 338.801 114.875C338.823 114.829 338.844 114.782 338.863 114.734C338.869 114.72 338.874 114.706 338.879 114.691C338.884 114.676 338.89 114.66 338.895 114.644C338.909 114.599 338.922 114.554 338.934 114.508C338.935 114.505 338.936 114.503 338.938 114.5C338.939 114.496 338.94 114.492 338.941 114.488C338.956 114.428 338.968 114.366 338.977 114.305C338.985 114.254 338.992 114.203 338.996 114.152C338.996 114.147 338.996 114.142 338.996 114.137C339 114.076 339.002 114.014 339 113.953C338.999 113.914 338.996 113.875 338.992 113.836C338.99 113.794 338.986 113.752 338.98 113.711C338.98 113.71 338.98 113.708 338.98 113.707C338.979 113.7 338.978 113.694 338.977 113.687C338.967 113.631 338.956 113.575 338.941 113.519C338.941 113.517 338.941 113.514 338.941 113.512C338.929 113.462 338.915 113.412 338.898 113.363C338.893 113.349 338.888 113.335 338.883 113.32C338.877 113.305 338.87 113.289 338.863 113.273C338.847 113.228 338.828 113.184 338.809 113.141C338.807 113.139 338.806 113.138 338.805 113.137C338.803 113.133 338.802 113.129 338.801 113.125C338.772 113.069 338.741 113.014 338.707 112.961C338.703 112.954 338.699 112.948 338.695 112.941C338.693 112.936 338.69 112.931 338.688 112.926L338.625 112.832L310.793 69.0937C310.626 68.7532 310.366 68.467 310.044 68.2685C309.721 68.07 309.348 67.9674 308.969 67.9726V67.9726ZM307 76.871V100.68L286.168 109.605L307 76.871ZM311 76.871L331.832 109.605L311 100.68V76.871ZM307 105.031V126.551L285.484 114.258L307 105.031ZM311 105.031L332.516 114.258L311 126.551V105.031ZM337.016 121.996C336.662 121.994 336.314 122.086 336.008 122.262L309 137.695L281.992 122.262C281.701 122.096 281.374 122.006 281.039 122C280.666 121.993 280.298 122.09 279.977 122.281C279.656 122.472 279.395 122.749 279.223 123.081C279.052 123.413 278.977 123.786 279.006 124.158C279.036 124.53 279.169 124.887 279.391 125.187L307.258 163.008C307.432 163.316 307.685 163.572 307.99 163.751C308.296 163.929 308.643 164.023 308.997 164.024C309.351 164.024 309.698 163.931 310.004 163.753C310.31 163.575 310.564 163.319 310.738 163.012L338.609 125.187C338.829 124.891 338.963 124.539 338.995 124.171C339.027 123.803 338.957 123.433 338.792 123.103C338.627 122.772 338.374 122.494 338.06 122.298C337.747 122.103 337.385 121.998 337.016 121.996ZM288.227 130.434L307 141.164V155.914L288.227 130.434ZM329.773 130.434L311 155.914V141.164L329.773 130.434Z" fill="white"/>
<path fill-rule="evenodd" clip-rule="evenodd" d="M326.768 -7.09755C326.838 -7.09755 326.906 -7.09913 326.975 -7.10225L343.106 21.5754C342.627 22.2854 342.348 23.1408 342.348 24.0616C342.348 24.9821 342.627 25.8374 343.106 26.5472L326.975 55.2244C326.906 55.2213 326.838 55.2197 326.768 55.2197C325.029 55.2197 323.523 56.217 322.791 57.6708H288.459C287.727 56.217 286.221 55.2197 284.482 55.2197C284.413 55.2197 284.344 55.2213 284.275 55.2244L268.144 26.5471C268.623 25.8373 268.902 24.9821 268.902 24.0616C268.902 23.1408 268.623 22.2854 268.144 21.5755L284.275 -7.10225C284.344 -7.09913 284.413 -7.09755 284.482 -7.09755C286.221 -7.09755 287.727 -8.09489 288.459 -9.54883H322.791C323.523 -8.09489 325.029 -7.09755 326.768 -7.09755ZM326.768 -16C325.029 -16 323.523 -15.0027 322.791 -13.5488H288.459C287.727 -15.0027 286.221 -16 284.482 -16C282.023 -16 280.031 -14.0071 280.031 -11.5488C280.031 -10.6282 280.31 -9.77281 280.789 -9.06296L264.657 19.615C264.589 19.6119 264.52 19.6104 264.451 19.6104C261.993 19.6104 260 21.6032 260 24.0616C260 26.5199 261.993 28.5128 264.451 28.5128C264.521 28.5128 264.589 28.5112 264.658 28.5081L280.789 57.185C280.31 57.8949 280.031 58.7503 280.031 59.671C280.031 62.1293 282.023 64.1222 284.482 64.1222C286.221 64.1222 287.727 63.1248 288.46 61.6708H322.791C323.523 63.1248 325.029 64.1222 326.768 64.1222C329.227 64.1222 331.22 62.1293 331.22 59.671C331.22 58.7503 330.94 57.8949 330.461 57.1851L346.592 28.5081C346.661 28.5112 346.73 28.5128 346.799 28.5128C349.257 28.5128 351.25 26.5199 351.25 24.0616C351.25 21.6032 349.257 19.6104 346.799 19.6104C346.73 19.6104 346.661 19.6119 346.593 19.615L330.461 -9.06299C330.94 -9.77284 331.22 -10.6282 331.22 -11.5488C331.22 -14.0071 329.227 -16 326.768 -16ZM314.046 8.20907C316.08 7.90432 317.64 6.14949 317.64 4.0303C317.64 1.69656 315.748 -0.195312 313.415 -0.195312C311.081 -0.195312 309.189 1.69656 309.189 4.0303C309.189 4.53215 309.277 5.01358 309.437 5.46014L294.388 22.1815C294.066 22.1031 293.73 22.0615 293.384 22.0615C291.05 22.0615 289.159 23.9534 289.159 26.2871C289.159 26.7888 289.246 27.27 289.406 27.7165L289.256 27.8836L289.48 27.9059C290.115 29.4364 291.624 30.5127 293.384 30.5127C294.844 30.5127 296.131 29.7725 296.89 28.647L301.668 29.1248L297.361 39.8926C295.251 40.1284 293.61 41.9185 293.61 44.0918C293.61 46.4256 295.502 48.3174 297.835 48.3174C300.169 48.3174 302.061 46.4256 302.061 44.0918C302.061 43.5195 301.947 42.9738 301.741 42.4761L317.056 23.7575C317.318 23.8084 317.589 23.835 317.866 23.835C320.2 23.835 322.092 21.9431 322.092 19.6094C322.092 19.0373 321.978 18.4917 321.772 17.9941L322.086 17.6096H321.589C320.876 16.2845 319.476 15.3838 317.866 15.3838C316.256 15.3838 314.856 16.2845 314.143 17.6096H310.689L314.046 8.20907ZM304.711 25.4091L297.512 24.6892L308.124 12.899L305.967 18.9369L305.013 21.6096H307.851H313.645L304.522 32.7609L306.369 28.142L307.357 25.6737L304.711 25.4091Z" fill="white"/>
</g>
<defs>
<linearGradient id="paint0_linear_4693_58140" x1="292.198" y1="102.258" x2="203.309" y2="-53.5752" gradientUnits="userSpaceOnUse">
<stop stop-color="#1A4336"/>
<stop offset="1" stop-color="#1A4336" stop-opacity="0"/>
</linearGradient>
</defs>
</svg>
