<svg width="73" height="66" viewBox="0 0 73 66" fill="none" xmlns="http://www.w3.org/2000/svg">
<g filter="url(#filter0_d_4686_55735)">
<path fill-rule="evenodd" clip-rule="evenodd" d="M20.4158 5.22101L11.0386 25.0334C11.0029 25.1071 10.9916 25.1904 11.0063 25.271C11.021 25.3516 11.061 25.4254 11.1204 25.4815L36.4461 49.8919C36.518 49.9613 36.6138 50 36.7135 50C36.8132 50 36.909 49.9613 36.9809 49.8919L62.3066 25.483C62.366 25.4269 62.406 25.3531 62.4207 25.2725C62.4354 25.1919 62.4241 25.1086 62.3884 25.0349L53.0112 5.22254C52.9809 5.156 52.9322 5.09963 52.871 5.06018C52.8097 5.02072 52.7384 4.99984 52.6657 5.00003H20.7643C20.6912 4.99911 20.6194 5.01949 20.5576 5.0587C20.4957 5.09791 20.4465 5.15429 20.4158 5.22101Z" fill="#26A17B"/>
</g>
<path fill-rule="evenodd" clip-rule="evenodd" d="M39.9668 27.068C39.785 27.0817 38.8456 27.1381 36.7501 27.1381C35.0835 27.1381 33.9001 27.0878 33.485 27.068C27.0441 26.783 22.2365 25.6552 22.2365 24.3049C22.2365 22.9547 27.0441 21.8284 33.485 21.5388V25.9448C33.9062 25.9753 35.1122 26.0469 36.7789 26.0469C38.7789 26.0469 39.7804 25.9631 39.9607 25.9463V21.5419C46.388 21.8299 51.1849 22.9577 51.1849 24.3049C51.1849 25.6522 46.3895 26.78 39.9607 27.0665L39.9668 27.068ZM39.9668 21.0862V17.1435H48.9364V11.1312H24.5153V17.1435H33.4835V21.0847C26.1941 21.4215 20.7123 22.8739 20.7123 24.6143C20.7123 26.3548 26.1941 27.8056 33.4835 28.144V40.7782H39.9653V28.1394C47.238 27.8026 52.7107 26.3517 52.7107 24.6128C52.7107 22.8739 47.2425 21.423 39.9653 21.0847L39.9668 21.0862Z" fill="white"/>
<defs>
<filter id="filter0_d_4686_55735" x="0.897952" y="0.285711" width="71.631" height="65.2041" filterUnits="userSpaceOnUse" color-interpolation-filters="sRGB">
<feFlood flood-opacity="0" result="BackgroundImageFix"/>
<feColorMatrix in="SourceAlpha" type="matrix" values="0 0 0 0 0 0 0 0 0 0 0 0 0 0 0 0 0 0 127 0" result="hardAlpha"/>
<feOffset dy="5.38776"/>
<feGaussianBlur stdDeviation="5.05102"/>
<feColorMatrix type="matrix" values="0 0 0 0 0.150937 0 0 0 0 0.575 0 0 0 0 0.458941 0 0 0 0.47 0"/>
<feBlend mode="normal" in2="BackgroundImageFix" result="effect1_dropShadow_4686_55735"/>
<feBlend mode="normal" in="SourceGraphic" in2="effect1_dropShadow_4686_55735" result="shape"/>
</filter>
</defs>
</svg>
