<svg width="96" height="105" viewBox="0 0 96 105" fill="none" xmlns="http://www.w3.org/2000/svg">
<g opacity="0.1">
<path d="M10 73L45 127L65.5 131.5L102.5 73L55 0L10 73Z" fill="url(#paint0_linear_4686_55731)"/>
<g clip-path="url(#clip0_4686_55731)">
<path d="M55.9697 23.0002C55.5987 23.0063 55.2368 23.1155 54.9243 23.3155C54.6118 23.5156 54.3611 23.7986 54.2002 24.133L26.3408 67.9142C26.2949 67.9819 26.2532 68.0524 26.2158 68.1252C26.2145 68.1265 26.2132 68.1278 26.2119 68.1291C26.183 68.1877 26.1569 68.2476 26.1338 68.3088C26.0858 68.4338 26.0505 68.5634 26.0283 68.6955C26.006 68.8271 25.9968 68.9605 26.001 69.0939C26.001 69.0952 26.001 69.0965 26.001 69.0978C26.003 69.1632 26.0082 69.2283 26.0166 69.2932C26.0191 69.3062 26.0217 69.3192 26.0244 69.3322C26.0405 69.4315 26.064 69.5294 26.0947 69.6252C26.0997 69.6435 26.1049 69.6617 26.1104 69.6799C26.1104 69.6812 26.1104 69.6825 26.1104 69.6838C26.1321 69.7462 26.1568 69.8074 26.1846 69.8674C26.1846 69.8687 26.1846 69.87 26.1846 69.8713C26.213 69.9301 26.2443 69.9874 26.2783 70.0432C26.2783 70.0445 26.2783 70.0458 26.2783 70.0471C26.3121 70.1035 26.3486 70.1583 26.3877 70.2111C26.4067 70.235 26.4262 70.2584 26.4463 70.2814C26.4689 70.3107 26.4924 70.3394 26.5166 70.3674C26.5599 70.4165 26.6055 70.4634 26.6533 70.508C26.6546 70.5093 26.6559 70.5106 26.6572 70.5119C26.7548 70.6002 26.8607 70.6787 26.9736 70.7463C26.9749 70.7476 26.9762 70.7489 26.9776 70.7502C26.9879 70.7555 26.9983 70.7607 27.0088 70.7658C27.0101 70.7671 27.0114 70.7684 27.0127 70.7697L54.7588 86.6252C55.1101 86.9025 55.5443 87.054 55.9918 87.0554C56.4394 87.0568 56.8745 86.9081 57.2276 86.633L84.9502 70.7892C84.9646 70.7816 84.979 70.7738 84.9932 70.7658C85.0372 70.7401 85.0802 70.7128 85.1221 70.6838C85.1352 70.6748 85.1482 70.6657 85.1611 70.6564C85.1703 70.6487 85.1794 70.6409 85.1885 70.633C85.23 70.6046 85.2704 70.5746 85.3096 70.5432C85.3122 70.5406 85.3148 70.538 85.3174 70.5353C85.3253 70.5289 85.3331 70.5224 85.3408 70.5158C85.3829 70.4772 85.4233 70.4368 85.4619 70.3947C85.5074 70.3461 85.5504 70.2953 85.5908 70.2424C85.6299 70.1908 85.6664 70.1373 85.7002 70.0822C85.7015 70.0809 85.7028 70.0796 85.7041 70.0783C85.7054 70.0744 85.7067 70.0705 85.708 70.0666C85.7417 70.0147 85.773 69.9612 85.8018 69.9064C85.8018 69.9051 85.8018 69.9038 85.8018 69.9025C85.8244 69.8565 85.8453 69.8096 85.8643 69.7619C85.8696 69.7476 85.8749 69.7333 85.8799 69.7189C85.8853 69.7034 85.8905 69.6878 85.8955 69.6721C85.9102 69.627 85.9232 69.5814 85.9346 69.5353C85.9359 69.5327 85.9372 69.5301 85.9385 69.5275C85.9398 69.5236 85.9411 69.5197 85.9424 69.5158C85.957 69.4552 85.9687 69.3939 85.9776 69.3322C85.986 69.2817 85.9925 69.2309 85.9971 69.1799C85.9971 69.1747 85.9971 69.1695 85.9971 69.1642C86.0012 69.1031 86.0025 69.0419 86.001 68.9807C85.9995 68.9415 85.9969 68.9024 85.9932 68.8635C85.9906 68.8217 85.9867 68.78 85.9815 68.7385C85.9815 68.7372 85.9815 68.7359 85.9815 68.7346C85.9802 68.728 85.9789 68.7215 85.9776 68.715C85.9682 68.6586 85.9565 68.6025 85.9424 68.5471C85.9424 68.5445 85.9424 68.5419 85.9424 68.5392C85.93 68.4892 85.9157 68.4397 85.8994 68.3908C85.8944 68.3764 85.8892 68.3621 85.8838 68.3478C85.8775 68.3321 85.871 68.3165 85.8643 68.301C85.8476 68.2561 85.8294 68.2118 85.8096 68.1682C85.8083 68.1669 85.807 68.1656 85.8057 68.1642C85.8044 68.1603 85.8031 68.1564 85.8018 68.1525C85.7731 68.0964 85.7418 68.0416 85.708 67.9885C85.7042 67.9819 85.7002 67.9754 85.6963 67.9689C85.6937 67.9637 85.6911 67.9585 85.6885 67.9533L85.626 67.8596L57.794 24.1213C57.6274 23.7808 57.3675 23.4946 57.0445 23.2961C56.7215 23.0976 56.3488 22.995 55.9697 23.0002ZM54.001 31.8986V55.7072L33.169 64.633L54.001 31.8986ZM58.001 31.8986L78.833 64.633L58.001 55.7072V31.8986ZM54.001 60.0588V81.5783L32.4854 69.2853L54.001 60.0588ZM58.001 60.0588L79.5166 69.2853L58.001 81.5783V60.0588ZM84.0166 77.0236C83.6631 77.0215 83.3154 77.1132 83.0088 77.2892L56.001 92.7228L28.9932 77.2892C28.7024 77.1236 28.3747 77.0337 28.0401 77.0275C27.6667 77.0202 27.2987 77.1176 26.9778 77.3087C26.6569 77.4997 26.3959 77.7768 26.2244 78.1085C26.0528 78.4403 25.9775 78.8134 26.0071 79.1857C26.0367 79.558 26.1699 79.9145 26.3916 80.215L54.2588 118.035C54.4329 118.343 54.6856 118.6 54.9911 118.778C55.2966 118.957 55.6441 119.051 55.9979 119.051C56.3517 119.052 56.6994 118.958 57.0053 118.781C57.3112 118.603 57.5645 118.347 57.7393 118.039L85.6104 80.215C85.8304 79.9183 85.9639 79.5664 85.9962 79.1984C86.0284 78.8304 85.9581 78.4606 85.7931 78.1301C85.628 77.7996 85.3747 77.5213 85.0611 77.326C84.7476 77.1307 84.386 77.026 84.0166 77.0236ZM35.2276 85.4611L54.001 96.1916V110.942L35.2276 85.4611ZM76.7744 85.4611L58.001 110.942V96.1916L76.7744 85.4611Z" fill="white"/>
</g>
</g>
<defs>
<linearGradient id="paint0_linear_4686_55731" x1="69.0472" y1="92.8584" x2="21.7683" y2="33.3219" gradientUnits="userSpaceOnUse">
<stop stop-color="#1A4336"/>
<stop offset="1" stop-color="#1A4336" stop-opacity="0"/>
</linearGradient>
<clipPath id="clip0_4686_55731">
<rect width="100" height="100" fill="white" transform="translate(0 19)"/>
</clipPath>
</defs>
</svg>
